<svg width="50" height="50" viewBox="0 0 50 50" fill="#FA646A" xmlns="http://www.w3.org/2000/svg">
<path d="M45.4286 28.8095H4.28571C3.02552 28.8095 2 27.784 2 26.5238V11.2857C2 10.0255 3.02552 9 4.28571 9H45.4286C46.6888 9 47.7143 10.0255 47.7143 11.2857V26.5238C47.7143 27.784 46.6888 28.8095 45.4286 28.8095ZM4.28571 10.5238C3.86514 10.5238 3.52381 10.8659 3.52381 11.2857V26.5238C3.52381 26.9436 3.86514 27.2857 4.28571 27.2857H45.4286C45.8491 27.2857 46.1905 26.9436 46.1905 26.5238V11.2857C46.1905 10.8659 45.8491 10.5238 45.4286 10.5238H4.28571Z"/>
<path d="M27.905 15.8568H21.8098C21.3884 15.8568 21.0479 15.5155 21.0479 15.0949C21.0479 14.6743 21.3884 14.333 21.8098 14.333H27.905C28.3263 14.333 28.6669 14.6743 28.6669 15.0949C28.6669 15.5155 28.3263 15.8568 27.905 15.8568Z" />
<path d="M43.905 25.7621H5.80976C5.38842 25.7621 5.04785 25.4208 5.04785 25.0002C5.04785 24.5796 5.38842 24.2383 5.80976 24.2383H43.905C44.3263 24.2383 44.6669 24.5796 44.6669 25.0002C44.6669 25.4208 44.3263 25.7621 43.905 25.7621Z" />
<path d="M43.905 22.7142H5.80976C5.38842 22.7142 5.04785 22.3729 5.04785 21.9523C5.04785 21.5318 5.38842 21.1904 5.80976 21.1904H43.905C44.3263 21.1904 44.6669 21.5318 44.6669 21.9523C44.6669 22.3729 44.3263 22.7142 43.905 22.7142Z"/>
<path d="M24.8578 39.4767C24.582 39.4767 24.3161 39.3273 24.1804 39.0652C23.9869 38.6919 24.1332 38.2317 24.5065 38.0382C25.2029 37.6778 25.6189 37.2184 25.6189 36.81C25.6189 36.4016 25.2029 35.9422 24.5065 35.5818C23.2585 34.935 22.5713 34.0184 22.5713 33.0005C22.5713 31.9826 23.2585 31.066 24.5065 30.4191C24.8799 30.2241 25.3401 30.3719 25.5336 30.7452C25.7271 31.1186 25.5808 31.5788 25.2075 31.7723C24.5111 32.1327 24.0951 32.5921 24.0951 33.0005C24.0951 33.4089 24.5111 33.8683 25.2075 34.2287C26.4555 34.8755 27.1427 35.7921 27.1427 36.81C27.1427 37.8279 26.4555 38.7445 25.2075 39.3913C25.0955 39.4492 24.9751 39.4767 24.8578 39.4767Z"/>
<path d="M16.4769 41.0003C16.2011 41.0003 15.9352 40.8509 15.7996 40.5888C15.606 40.2155 15.7523 39.7553 16.1257 39.5618C16.822 39.2014 17.238 38.742 17.238 38.3336C17.238 37.9252 16.822 37.4658 16.1257 37.1054C14.8777 36.4585 14.1904 35.542 14.1904 34.5241C14.1904 33.5062 14.8777 32.5896 16.1257 31.9427C16.4982 31.7477 16.9592 31.8947 17.1527 32.2688C17.3462 32.6422 17.2 33.1023 16.8266 33.2959C16.1302 33.6563 15.7142 34.1157 15.7142 34.5241C15.7142 34.9324 16.1302 35.3919 16.8266 35.7523C18.0746 36.3991 18.7619 37.3157 18.7619 38.3336C18.7619 39.3515 18.0746 40.2681 16.8266 40.9149C16.7146 40.9728 16.5942 41.0003 16.4769 41.0003Z"/>
<path d="M33.2386 41.0003C32.9628 41.0003 32.6969 40.8509 32.5613 40.5888C32.3678 40.2155 32.5141 39.7553 32.8874 39.5618C33.5838 39.2014 33.9998 38.742 33.9998 38.3336C33.9998 37.9252 33.5838 37.4658 32.8874 37.1054C31.6394 36.4585 30.9521 35.542 30.9521 34.5241C30.9521 33.5062 31.6394 32.5896 32.8874 31.9427C33.26 31.7477 33.7209 31.8947 33.9144 32.2688C34.108 32.6422 33.9617 33.1023 33.5883 33.2959C32.892 33.6563 32.476 34.1157 32.476 34.5241C32.476 34.9324 32.892 35.3919 33.5883 35.7523C34.8363 36.3991 35.5236 37.3157 35.5236 38.3336C35.5236 39.3515 34.8363 40.2681 33.5883 40.9149C33.4763 40.9728 33.356 41.0003 33.2386 41.0003Z"/>
</svg>
