<svg width="70" height="70" viewBox="0 0 70 70" fill="none" xmlns="http://www.w3.org/2000/svg">
  <path d="M34.8981 38.0803C36.0233 38.0803 36.9307 37.1729 36.9307 36.0569C36.9307 35.2584 36.477 34.5688 35.8055 34.2422V35.3855C35.9416 35.5761 36.0233 35.8029 36.0233 36.0569C36.0233 36.6739 35.5242 37.1729 34.8981 37.1729C34.2811 37.1729 33.7821 36.6739 33.7821 36.0569C33.7821 35.8119 33.8547 35.5851 33.9908 35.4036V34.2422C33.3284 34.5779 32.8748 35.2584 32.8748 36.0569C32.8748 37.1729 33.7821 38.0803 34.8981 38.0803Z" fill="#FA646A"/>
  <path d="M34.9024 35.8944C35.1532 35.8944 35.3561 35.6915 35.3561 35.4408V33.5064C35.3561 33.2556 35.1532 33.0527 34.9024 33.0527C34.6516 33.0527 34.4487 33.2556 34.4487 33.5064V35.4408C34.4487 35.6915 34.6517 35.8944 34.9024 35.8944Z" fill="#FA646A"/>
  <path d="M18.1757 63.1634C30.8489 63.1634 38.9642 63.1634 51.6301 63.1634C53.381 63.1634 54.8058 61.7386 54.8058 59.9877V9.17575C54.8058 7.42483 53.381 6 51.6301 6H51.421H18.384H18.1757C16.4248 6 15 7.42483 15 9.17575V59.9877C15 61.7386 16.4248 63.1634 18.1757 63.1634ZM53.8985 9.17574V59.9877C53.8985 61.2389 52.8812 62.2561 51.6301 62.2561H37.3481V48.9399C45.219 44.9399 51.0357 22.0938 51.8478 6.92928C52.9956 7.04071 53.8985 7.99923 53.8985 9.17574ZM50.9442 6.90735C50.0404 23.8937 43.8201 45.0331 36.7074 48.2408C36.5453 48.3143 36.4407 48.4765 36.4407 48.6546V62.2561H33.3553V48.6546C33.3553 48.4765 33.2508 48.3143 33.0886 48.2408C25.9813 45.0358 19.7645 23.8955 18.8607 6.90735H50.9442ZM15.9073 9.17574C15.9073 7.99945 16.8098 7.04125 17.9571 6.9295C18.7691 22.0958 24.5823 44.9425 32.448 48.9399V62.2561H18.1757C16.9246 62.2561 15.9073 61.2388 15.9073 59.9877V9.17574Z" fill="#FA646A" stroke="#FA646A"/>
  <path d="M34.9025 40.318C37.1009 40.318 38.889 38.5299 38.889 36.3315V19.8928C38.889 17.6944 37.1009 15.9062 34.9025 15.9062C32.7041 15.9062 30.916 17.6944 30.916 19.8928V36.3315C30.916 38.5299 32.7041 40.318 34.9025 40.318ZM31.8234 19.8928C31.8234 18.195 33.2048 16.8136 34.9025 16.8136C36.6003 16.8136 37.9817 18.195 37.9817 19.8928V36.3315C37.9817 38.0293 36.6003 39.4107 34.9025 39.4107C33.2048 39.4107 31.8234 38.0293 31.8234 36.3315V19.8928Z" fill="#FA646A" stroke="#FA646A"/>
  <path d="M20.459 58.7238H29.3084C29.5592 58.7238 29.7621 58.5209 29.7621 58.2701C29.7621 58.0193 29.5592 57.8164 29.3084 57.8164H20.459C20.2083 57.8164 20.0054 58.0193 20.0054 58.2701C20.0054 58.5209 20.2083 58.7238 20.459 58.7238Z" fill="#FA646A" stroke="#FA646A"/>
  <path d="M20.459 55.2824H29.3084C29.5592 55.2824 29.7621 55.0794 29.7621 54.8287C29.7621 54.5779 29.5592 54.375 29.3084 54.375H20.459C20.2083 54.375 20.0054 54.5779 20.0054 54.8287C20.0054 55.0794 20.2083 55.2824 20.459 55.2824Z" fill="#FA646A" stroke="#FA646A"/>
  <path d="M20.459 51.8429H29.3084C29.5592 51.8429 29.7621 51.64 29.7621 51.3892C29.7621 51.1385 29.5592 50.9355 29.3084 50.9355H20.459C20.2083 50.9355 20.0054 51.1385 20.0054 51.3892C20.0054 51.64 20.2083 51.8429 20.459 51.8429Z" fill="#FA646A" stroke="#FA646A"/>
  <path d="M49.3414 57.8164H40.492C40.2412 57.8164 40.0383 58.0193 40.0383 58.2701C40.0383 58.5209 40.2412 58.7238 40.492 58.7238H49.3414C49.5922 58.7238 49.7951 58.5209 49.7951 58.2701C49.7951 58.0193 49.5921 57.8164 49.3414 57.8164Z" fill="#FA646A" stroke="#FA646A"/>
  <path d="M49.3414 54.375H40.492C40.2412 54.375 40.0383 54.5779 40.0383 54.8287C40.0383 55.0794 40.2412 55.2824 40.492 55.2824H49.3414C49.5922 55.2824 49.7951 55.0794 49.7951 54.8287C49.7951 54.5779 49.5921 54.375 49.3414 54.375Z" fill="#FA646A" stroke="#FA646A"/>
  <path d="M49.3414 50.9355H40.492C40.2412 50.9355 40.0383 51.1385 40.0383 51.3892C40.0383 51.64 40.2412 51.8429 40.492 51.8429H49.3414C49.5922 51.8429 49.7951 51.64 49.7951 51.3892C49.7951 51.1385 49.5921 50.9355 49.3414 50.9355Z" fill="#FA646A" stroke="#FA646A"/>
</svg>
