<svg width="70" height="70" viewBox="0 0 70 70" fill="none" xmlns="http://www.w3.org/2000/svg">
  <path d="M47.9173 7.49609H22.8026C20.5506 7.49609 18.72 9.32684 18.72 11.5787V49.5087C18.72 51.752 20.5506 53.5913 22.8026 53.5913H26.6102V56.0323C26.6102 57.3301 27.676 58.3959 28.9739 58.3959H30.0654V61.8683C30.0654 62.2207 30.3491 62.5129 30.7101 62.5129H33.1596C33.512 62.5129 33.8043 62.2207 33.8043 61.8683V58.3959H36.9157V61.8683C36.9157 62.2207 37.2079 62.5129 37.5603 62.5129H40.0099C40.3709 62.5129 40.6545 62.2207 40.6545 61.8683V58.3959H41.7375C43.0439 58.3959 44.1011 57.3301 44.1011 56.0323V53.5913H47.9173C50.1692 53.5913 52 51.752 52 49.5087V11.5787C52 9.32684 50.1692 7.49609 47.9173 7.49609ZM32.515 61.2237H31.3547V58.3959H32.515V61.2237ZM39.3653 61.2237H38.2049V58.3959H39.3653V61.2237ZM42.8119 56.0323C42.8119 56.6168 42.3305 57.1067 41.7375 57.1067H28.9739C28.3808 57.1067 27.8995 56.6168 27.8995 56.0323V53.5913H42.8119V56.0323ZM50.7107 49.5087C50.7107 51.0472 49.4558 52.302 47.9173 52.302H22.8026C21.2641 52.302 20.0092 51.0472 20.0092 49.5087V46.2168H50.7107V49.5087ZM50.7107 44.9276H20.0092V16.1686H30.4866V28.7259C30.4866 31.4162 32.6783 33.5993 35.36 33.5993C38.0502 33.5993 40.2334 31.4162 40.2334 28.7259V16.1686H50.7107V44.9276ZM31.7758 28.7258V16.1685H38.9441V28.7258C38.9441 30.7027 37.3368 32.31 35.36 32.31C33.3831 32.31 31.7758 30.7027 31.7758 28.7258ZM50.7107 14.8706C42.5997 14.8706 26.8676 14.8706 20.0092 14.8706V11.5787C20.0092 10.0402 21.2641 8.78535 22.8026 8.78535H47.9173C49.4558 8.78535 50.7107 10.0402 50.7107 11.5787V14.8706Z" fill="#FA646A" stroke="#FA646A"/>
  <path d="M35.36 25.959C33.8988 25.959 32.7041 27.1537 32.7041 28.6149C32.7041 30.076 33.8988 31.2707 35.36 31.2707C36.8297 31.2707 38.0158 30.076 38.0158 28.6149C38.0158 27.1538 36.8297 25.959 35.36 25.959ZM35.36 29.9815C34.6122 29.9815 33.9934 29.3712 33.9934 28.6149C33.9934 27.8585 34.6122 27.2482 35.36 27.2482C36.1163 27.2482 36.7266 27.8585 36.7266 28.6149C36.7266 29.3712 36.1163 29.9815 35.36 29.9815Z" fill="#FA646A"/>
  <path d="M33.8752 23.1936H36.8474C37.2033 23.1936 37.492 22.9048 37.492 22.5489C37.492 22.193 37.2033 21.9043 36.8474 21.9043H33.8752C33.5193 21.9043 33.2306 22.193 33.2306 22.5489C33.2306 22.9048 33.5194 23.1936 33.8752 23.1936Z" fill="#FA646A"/>
  <path d="M33.8752 20.0256H36.8474C37.2033 20.0256 37.492 19.7369 37.492 19.381C37.492 19.025 37.2033 18.7363 36.8474 18.7363H33.8752C33.5193 18.7363 33.2306 19.025 33.2306 19.381C33.2306 19.7369 33.5194 20.0256 33.8752 20.0256Z" fill="#FA646A"/>
</svg>
