<svg width="70" height="70" viewBox="0 0 70 70" fill="none" xmlns="http://www.w3.org/2000/svg">
  <path d="M56.5014 53.6979C56.6756 53.6979 56.8426 53.6288 56.9658 53.5056C57.089 53.3824 57.1582 53.2154 57.1582 53.0412V48.9036C58.1657 48.6671 59.064 48.0975 59.7076 47.287C60.3512 46.4765 60.7025 45.4726 60.7047 44.4377V39.512C62.0473 39.0717 63.2008 38.1888 63.9763 37.0076C64.7518 35.8265 65.1034 34.4171 64.9736 33.01C64.8312 31.4867 64.1398 30.067 63.0281 29.0158C61.9164 27.9645 60.4604 27.3534 58.9314 27.2962C58.3347 27.2934 57.7397 27.3596 57.1582 27.4933V21.9108C57.1582 20.3432 56.5354 18.8397 55.4269 17.7312C54.3184 16.6227 52.815 16 51.2473 16H17.7527C16.185 16 14.6816 16.6227 13.5731 17.7312C12.4646 18.8397 11.8418 20.3432 11.8418 21.9108V27.4933C11.2603 27.3596 10.6653 27.2934 10.0686 27.2962C8.53962 27.3534 7.0836 27.9645 5.97192 29.0158C4.86024 30.067 4.16877 31.4867 4.0264 33.01C3.89658 34.4171 4.24819 35.8265 5.02369 37.0076C5.7992 38.1888 6.95267 39.0717 8.29533 39.512V44.4377C8.2975 45.4726 8.64882 46.4765 9.29243 47.287C9.93604 48.0975 10.8343 48.6671 11.8418 48.9036V53.3039C11.8566 53.4731 11.9306 53.6317 12.0507 53.7518C12.1708 53.8719 12.3294 53.9459 12.4986 53.9607C12.6728 53.9607 12.8398 53.8915 12.963 53.7683C13.0862 53.6451 13.1553 53.4781 13.1553 53.3039V49.035H55.8447V53.0412C55.8341 53.13 55.8438 53.22 55.8731 53.3045C55.9024 53.389 55.9504 53.4657 56.0136 53.529C56.0769 53.5922 56.1536 53.6402 56.2381 53.6695C56.3226 53.6988 56.4126 53.7085 56.5014 53.6979ZM13.1553 21.9108C13.1553 20.6915 13.6397 19.5222 14.5019 18.66C15.364 17.7979 16.5334 17.3135 17.7527 17.3135H51.2473C52.4666 17.3135 53.636 17.7979 54.4981 18.66C55.3603 19.5222 55.8447 20.6915 55.8447 21.9108V28.0187C55.2981 28.2696 54.8069 28.6268 54.3998 29.0695C53.59 29.8425 53.0006 30.8173 52.6922 31.8936H16.3078C15.9994 30.8173 15.41 29.8425 14.6002 29.0695C14.1931 28.6268 13.7019 28.2696 13.1553 28.0187V21.9108ZM16.5048 33.2071H52.4952V39.6433H16.5048V33.2071ZM9.60885 44.4377V38.9866C9.61195 38.8329 9.56107 38.683 9.46506 38.563C9.36906 38.443 9.23402 38.3605 9.08344 38.3298C7.93184 38.0507 6.91942 37.3659 6.23184 36.4009C5.54426 35.4359 5.22759 34.2553 5.33992 33.0757C5.46597 31.8782 6.02065 30.7667 6.90172 29.946C7.78279 29.1252 8.93085 28.6507 10.1343 28.6098H10.2656C10.8982 28.5995 11.5264 28.7163 12.113 28.9532C12.6996 29.1901 13.2327 29.5423 13.6807 29.989C14.1551 30.4504 14.5329 31.0017 14.7922 31.6105C15.0515 32.2194 15.1872 32.8737 15.1913 33.5355V40.3001C15.2061 40.4693 15.28 40.6279 15.4001 40.748C15.5203 40.8681 15.6788 40.942 15.8481 40.9568H53.1519C53.3212 40.942 53.4797 40.8681 53.5998 40.748C53.72 40.6279 53.7939 40.4693 53.8087 40.3001V33.5355C53.8128 32.8737 53.9485 32.2194 54.2078 31.6105C54.4671 31.0017 54.8449 30.4504 55.3192 29.989C55.7826 29.526 56.3371 29.1643 56.9476 28.9269C57.5581 28.6895 58.2113 28.5815 58.8657 28.6098C60.0691 28.6507 61.2172 29.1252 62.0983 29.946C62.9793 30.7667 63.534 31.8782 63.6601 33.0757C63.7724 34.2553 63.4557 35.4359 62.7682 36.4009C62.0806 37.3659 61.0682 38.0507 59.9166 38.3298C59.766 38.3605 59.6309 38.443 59.5349 38.563C59.4389 38.683 59.3881 38.8329 59.3911 38.9866V44.4377C59.3911 45.3086 59.0452 46.1438 58.4293 46.7596C57.8135 47.3755 56.9783 47.7214 56.1074 47.7214H12.8926C12.0217 47.7214 11.1865 47.3755 10.5706 46.7596C9.95482 46.1438 9.60885 45.3086 9.60885 44.4377Z" fill="#FA646A" stroke="#FA646A" stroke-width="1.1"/>
</svg>
