<svg width="70" height="70" viewBox="0 0 70 70" fill="none" xmlns="http://www.w3.org/2000/svg">
  <path d="M20.7564 35.5312C19.0818 36.1888 18 37.7583 18 39.5849C18 40.7436 18.8267 41.7118 19.9302 41.9645V45.5C19.9302 45.8869 20.2493 46.2 20.6435 46.2H22.2784V62.3C22.2784 62.6869 22.5974 63 22.9917 63H27.4519C27.8461 63 28.1652 62.6869 28.1652 62.3V51.7781H41.8348V62.3C41.8348 62.6869 42.1539 63 42.5481 63H47.0083C47.4026 63 47.7216 62.6869 47.7216 62.3V46.2H49.4756C49.8699 46.2 50.1889 45.8869 50.1889 45.5V41.9281C51.2308 41.6341 52 40.7006 52 39.5849C52 37.8041 50.8966 36.2264 49.1886 35.5653C47.2034 34.796 45.2594 34.2243 43.3743 33.8106V29.6143C45.7294 29.2597 47.5873 27.3356 47.7432 24.9396L48.6035 12.3854C48.6947 10.9744 48.2023 9.62979 47.2166 8.59824C46.2309 7.56738 44.8949 7 43.4544 7H26.6647C25.2242 7 23.8882 7.56738 22.9025 8.59824C21.9169 9.6291 21.4244 10.9744 21.5156 12.3881L22.3759 24.9368C22.5292 27.295 24.3272 29.1967 26.6257 29.5971V33.7876C24.0905 34.3271 22.0799 35.0107 20.7564 35.5312ZM26.7386 61.6H23.705V46.2H26.7386V61.6ZM28.1652 50.3781V46.2H41.8348V50.3781H28.1652ZM46.295 61.6H43.2614V46.2H46.295V61.6ZM21.3568 44.8V42.0335H48.7623V44.8H21.3568ZM50.5734 39.5849C50.5734 40.1632 50.0942 40.6335 49.5049 40.6335H20.4951C19.9058 40.6335 19.4266 40.1632 19.4266 39.5288C19.4266 38.3339 20.1566 37.275 21.2865 36.8313C23.7537 35.8606 28.6988 34.3027 34.993 34.3027C39.084 34.3027 43.7455 34.9617 48.6648 36.8669C49.8246 37.316 50.5734 38.3831 50.5734 39.5849ZM23.7997 24.8452L22.9394 12.2965C22.8733 11.2752 23.2292 10.3024 23.9425 9.55664C24.6558 8.81084 25.6227 8.4 26.6647 8.4H43.4544C44.4965 8.4 45.4633 8.81084 46.1759 9.55664C46.8892 10.3024 47.2459 11.2759 47.1797 12.2937L46.3194 24.8479C46.1947 26.7716 44.5585 28.2782 42.5941 28.2782H27.525C25.5607 28.2782 23.9244 26.7716 23.7997 24.8452ZM28.0523 29.6782H41.9477V33.5258C36.6399 32.5675 31.8608 32.8432 28.0523 33.5118V29.6782Z" fill="#FA646A" stroke="#FA646A" stroke-width="0.7"/>
</svg>
