<svg width="70" height="70" viewBox="0 0 70 70" fill="none" xmlns="http://www.w3.org/2000/svg">
  <path d="M62 15.1418C62 10.6483 58.406 6.98708 53.9435 6.85858V6.84668H16.1197V6.88832C15.8484 6.86155 15.5741 6.84668 15.2957 6.84668C10.7219 6.84668 7 10.568 7 15.1418C7 16.1942 7.20466 17.1973 7.5634 18.1242V63.9599H9.34818V58.6055H10.538V62.1745H12.3228V58.6055H13.5127V63.9599H15.2975V58.6055H16.4873V62.1745H18.2721V58.6055H19.462V63.9599H21.2468V58.6055H22.436V62.1745H24.2208V58.6055H25.4107V63.9599H27.1955V58.6055H28.3853V62.1745H30.1701V58.6055H31.36V63.9599H33.1448V58.6055H34.3346V62.1745H36.1194V58.6055H37.3087V63.9599H39.0934V58.6055H40.2839V62.1745H42.0687V58.6055H43.2585V63.9599H45.0433V58.6055H46.2332V62.1745H48.018V58.6055H49.2078V63.9599H50.9926V58.6055H52.1825V62.1745H53.9673V58.6055H55.1577V63.9599H56.9425V22.7783C59.9118 21.5141 62 18.5674 62 15.1418ZM15.2957 8.63147C18.8861 8.63147 21.8066 11.552 21.8066 15.1418C21.8066 18.2378 19.6333 20.8311 16.7336 21.4873C14.0838 21.2017 12.0075 18.7637 12.0075 15.8069C12.0075 13.5688 13.6727 11.7483 15.7199 11.7483C17.767 11.7483 19.4328 13.5694 19.4328 15.8069C19.4328 17.1348 18.456 18.2152 17.2554 18.2152C16.0548 18.2152 15.0774 17.1354 15.0774 15.8069C15.0774 15.3887 15.3653 15.049 15.7199 15.049C16.0745 15.049 16.363 15.3887 16.363 15.8069H18.1478C18.1478 14.4053 17.0585 13.2642 15.7199 13.2642C14.3813 13.2642 13.2926 14.4053 13.2926 15.8069C13.2926 18.1188 15.0702 20 17.2554 20C19.4406 20 21.2176 18.1188 21.2176 15.8069C21.2176 12.5848 18.751 9.96351 15.7199 9.96351C12.6887 9.96351 10.2227 12.5848 10.2227 15.8069C10.2227 17.6881 10.8807 19.405 11.9593 20.7228C10.0621 19.5835 8.78538 17.512 8.78538 15.1418C8.78479 11.552 11.7059 8.63147 15.2957 8.63147ZM9.34878 34.8143L13.5109 40.7915L9.34878 46.7688V34.8143ZM14.5978 25.6316L19.3323 32.431L14.5978 39.2299L9.86339 32.431L14.5978 25.6316ZM20.6078 33.722L25.2328 40.3382L20.3252 47.4571L15.6842 40.7915L20.6078 33.722ZM32.2791 33.3674L36.9797 40.3025L32.1804 47.2644L27.4061 40.3376L32.2791 33.3674ZM43.7291 33.4775L48.6236 40.3501L43.9427 47.3227L39.1036 40.3031L43.7291 33.4775ZM42.779 48.7791L38.041 55.6517L33.3036 48.7791L38.041 41.9064L42.779 48.7791ZM38.041 38.6879L33.2976 31.6891L38.041 24.6904L42.785 31.6891L38.041 38.6879ZM31.0571 48.7791L26.3191 55.6517L21.5817 48.7791L26.3191 41.9064L31.0571 48.7791ZM26.3245 38.7694L26.3191 38.7622L26.3144 38.7694L21.5871 32.0074L26.3191 25.2377L31.0518 32.0074L26.3245 38.7694ZM14.5978 42.3532L19.3323 49.1527L14.5978 55.9521L9.86339 49.1521L14.5978 42.3532ZM20.5846 50.4764L24.9579 56.8207H16.1673L20.5846 50.4764ZM32.1804 50.2938L36.6792 56.8207H27.6809L32.1804 50.2938ZM43.844 50.3794L48.1685 56.8207H39.4028L43.844 50.3794ZM45.0166 48.9242L49.7088 41.9362L54.3998 48.9242L49.7088 55.9123L45.0166 48.9242ZM50.7933 40.3495L55.1583 34.2194V46.8515L50.7933 40.3495ZM49.7302 38.7658L49.7088 38.7331L49.6868 38.7658L45.038 32.2371L49.7094 25.6786L54.3796 32.2371L49.7302 38.7658ZM44.1099 30.463L39.3481 23.4375H49.112L44.1099 30.463ZM32.0602 30.3345L27.2389 23.4375H36.7346L32.0602 30.3345ZM20.3121 30.7158L15.2445 23.4381H25.3994L20.3121 30.7158ZM14.0255 23.3304L9.34878 30.0477V20.9126C10.5767 22.1786 12.2038 23.0478 14.0255 23.3304ZM9.34878 51.536L13.0284 56.8207H9.34878V51.536ZM51.2478 56.8207L55.1577 50.9958V56.8207H51.2478ZM55.1583 30.2554L50.3037 23.4381H53.7043C54.2011 23.4381 54.6853 23.3863 55.1583 23.3018V30.2554ZM53.7037 21.6533C53.5371 21.6533 53.37 21.6467 53.2046 21.6342L53.2028 21.6533H38.1386L38.041 21.5099L37.944 21.6533H20.4198C22.3474 20.1326 23.5914 17.7821 23.5914 15.1424C23.5914 12.5027 22.3474 10.1521 20.4198 8.63147H53.7037C57.2935 8.63147 60.2146 11.552 60.2146 15.1418C60.2152 18.7328 57.2935 21.6533 53.7037 21.6533Z" fill="#FA646A" stroke="#FA646A" stroke-width="0.1"/>
  <path d="M26.3199 53.5898L29.5807 48.778L26.3199 43.9668L23.0591 48.778L26.3199 53.5898ZM27.4241 48.778L26.3199 50.4081L25.2151 48.778L26.3199 47.1485L27.4241 48.778Z" fill="#FA646A" stroke="#FA646A" stroke-width="0.1"/>
  <path d="M17.8588 48.9381L14.598 44.127L11.3372 48.9381L14.598 53.7499L17.8588 48.9381ZM14.598 47.3086L15.7027 48.9381L14.598 50.5682L13.4938 48.9381L14.598 47.3086Z" fill="#FA646A" stroke="#FA646A" stroke-width="0.1"/>
  <path d="M38.041 53.5904L41.3018 48.7786L38.041 43.9668L34.7808 48.7786L38.041 53.5904ZM39.1464 48.7786L38.0416 50.4087L36.9368 48.7786L38.0416 47.1485L39.1464 48.7786Z" fill="#FA646A" stroke="#FA646A" stroke-width="0.1"/>
  <path d="M49.7082 44.1113L46.4468 48.9231L49.7082 53.7349L52.9684 48.9231L49.7082 44.1113ZM48.6034 48.9231L49.7082 47.293L50.813 48.9231L49.7082 50.5532L48.6034 48.9231Z" fill="#FA646A" stroke="#FA646A" stroke-width="0.1"/>
  <path d="M14.598 37.2017L17.8588 32.3899L14.598 27.5781L11.3372 32.3899L14.598 37.2017ZM15.7027 32.3905L14.598 34.0206L13.4938 32.3905L14.598 30.7604L15.7027 32.3905Z" fill="#FA646A" stroke="#FA646A" stroke-width="0.1"/>
  <path d="M26.3199 36.8486L29.5807 32.0368L26.3199 27.2256L23.0591 32.0368L26.3199 36.8486ZM27.4241 32.0368L26.3199 33.6669L25.2151 32.0368L26.3199 30.4073L27.4241 32.0368Z" fill="#FA646A" stroke="#FA646A" stroke-width="0.1"/>
  <path d="M34.7808 32.0374L38.041 36.848L41.3018 32.0374L38.041 27.2256L34.7808 32.0374ZM38.041 33.6675L36.9362 32.0374L38.041 30.4073L39.1458 32.0374L38.041 33.6675Z" fill="#FA646A" stroke="#FA646A" stroke-width="0.1"/>
  <path d="M46.4468 32.2374L49.7082 37.0491L52.9684 32.2374L49.7082 27.4268L46.4468 32.2374ZM49.7082 33.8675L48.6034 32.2374L49.7082 30.6072L50.813 32.2374L49.7082 33.8675Z" fill="#FA646A" stroke="#FA646A" stroke-width="0.1"/>
</svg>
