<svg width="70" height="70" viewBox="0 0 70 70" fill="#FA646A" xmlns="http://www.w3.org/2000/svg">
<path d="M16.939 48.9512C16.4498 48.9512 16.0532 49.3478 16.0532 49.837V50.7227C16.0532 51.2119 16.4498 51.6085 16.939 51.6085C17.4282 51.6085 17.8248 51.2119 17.8248 50.7227V49.837C17.8248 49.3478 17.4282 48.9512 16.939 48.9512Z" stroke="#FA646A" stroke-width="0.2"/>
<path d="M16.939 53.3804C16.4498 53.3804 16.0532 53.777 16.0532 54.2662V55.1519C16.0532 55.6411 16.4498 56.0377 16.939 56.0377C17.4282 56.0377 17.8248 55.6411 17.8248 55.1519V54.2662C17.8248 53.777 17.4282 53.3804 16.939 53.3804Z" stroke="#FA646A" stroke-width="0.2"/>
<path d="M16.939 57.8096C16.4498 57.8096 16.0532 58.2062 16.0532 58.6954V59.1382C16.0532 59.6274 16.4498 60.024 16.939 60.024C17.4282 60.024 17.8248 59.6274 17.8248 59.1382V58.6954C17.8248 58.2062 17.4282 57.8096 16.939 57.8096Z" stroke="#FA646A" stroke-width="0.2"/>
<path d="M20.482 48.3608C19.9928 48.3608 19.5962 48.7575 19.5962 49.2466V49.9849C19.5962 50.4741 19.9928 50.8707 20.482 50.8707C20.9712 50.8707 21.3678 50.4741 21.3678 49.9849V49.2466C21.3678 48.7575 20.9712 48.3608 20.482 48.3608Z" stroke="#FA646A" stroke-width="0.2"/>
<path d="M20.482 52.0508C19.9928 52.0508 19.5962 52.4474 19.5962 52.9366V53.3795C19.5962 53.8686 19.9928 54.2652 20.482 54.2652C20.9712 54.2652 21.3678 53.8686 21.3678 53.3795V52.9366C21.3678 52.4474 20.9712 52.0508 20.482 52.0508Z" stroke="#FA646A" stroke-width="0.2"/>
<path d="M27.5684 48.3608C27.0792 48.3608 26.6826 48.7575 26.6826 49.2466V49.9849C26.6826 50.4741 27.0792 50.8707 27.5684 50.8707C28.0576 50.8707 28.4542 50.4741 28.4542 49.9849V49.2466C28.4542 48.7575 28.0576 48.3608 27.5684 48.3608Z" stroke="#FA646A" stroke-width="0.2"/>
<path d="M27.5684 52.0508C27.0792 52.0508 26.6826 52.4474 26.6826 52.9366V53.3795C26.6826 53.8686 27.0792 54.2652 27.5684 54.2652C28.0576 54.2652 28.4542 53.8686 28.4542 53.3795V52.9366C28.4542 52.4474 28.0576 52.0508 27.5684 52.0508Z" stroke="#FA646A" stroke-width="0.2"/>
<path d="M24.0254 52.5261C23.5363 52.5261 23.1396 52.9227 23.1396 53.4119V54.2025C23.1396 54.6917 23.5363 55.0883 24.0254 55.0883C24.5146 55.0883 24.9112 54.6917 24.9112 54.2025V53.4119C24.9112 52.9227 24.5146 52.5261 24.0254 52.5261Z" stroke="#FA646A" stroke-width="0.2"/>
<path d="M24.0254 48.571C23.5363 48.571 23.1396 48.9677 23.1396 49.4568V50.2479C23.1396 50.7371 23.5363 51.1337 24.0254 51.1337C24.5146 51.1337 24.9112 50.7371 24.9112 50.2479V49.4568C24.9112 48.9677 24.5146 48.571 24.0254 48.571Z" stroke="#FA646A" stroke-width="0.2"/>
<path d="M24.0254 56.48C23.5363 56.48 23.1396 56.8766 23.1396 57.3658V57.8087C23.1396 58.2978 23.5363 58.6944 24.0254 58.6944C24.5146 58.6944 24.9112 58.2978 24.9112 57.8087V57.3658C24.9112 56.8766 24.5146 56.48 24.0254 56.48Z" stroke="#FA646A" stroke-width="0.2"/>
<path d="M31.1114 48.9512C30.6222 48.9512 30.2256 49.3478 30.2256 49.837V50.7227C30.2256 51.2119 30.6222 51.6085 31.1114 51.6085C31.6005 51.6085 31.9972 51.2119 31.9972 50.7227V49.837C31.9972 49.3478 31.6005 48.9512 31.1114 48.9512Z" stroke="#FA646A" stroke-width="0.2"/>
<path d="M31.1114 53.3804C30.6222 53.3804 30.2256 53.777 30.2256 54.2662V55.1519C30.2256 55.6411 30.6222 56.0377 31.1114 56.0377C31.6005 56.0377 31.9972 55.6411 31.9972 55.1519V54.2662C31.9972 53.777 31.6005 53.3804 31.1114 53.3804Z" stroke="#FA646A" stroke-width="0.2"/>
<path d="M31.1114 57.8096C30.6222 57.8096 30.2256 58.2062 30.2256 58.6954V59.1382C30.2256 59.6274 30.6222 60.024 31.1114 60.024C31.6005 60.024 31.9972 59.6274 31.9972 59.1382V58.6954C31.9972 58.2062 31.6005 57.8096 31.1114 57.8096Z" stroke="#FA646A" stroke-width="0.2"/>
<path d="M34.6548 48.3608C34.1657 48.3608 33.769 48.7575 33.769 49.2466V49.9849C33.769 50.4741 34.1657 50.8707 34.6548 50.8707C35.144 50.8707 35.5406 50.4741 35.5406 49.9849V49.2466C35.5406 48.7575 35.144 48.3608 34.6548 48.3608Z" stroke="#FA646A" stroke-width="0.2"/>
<path d="M34.6548 52.0508C34.1657 52.0508 33.769 52.4474 33.769 52.9366V53.3795C33.769 53.8686 34.1657 54.2652 34.6548 54.2652C35.144 54.2652 35.5406 53.8686 35.5406 53.3795V52.9366C35.5406 52.4474 35.144 52.0508 34.6548 52.0508Z" stroke="#FA646A" stroke-width="0.2"/>
<path d="M41.7408 48.3608C41.2516 48.3608 40.855 48.7575 40.855 49.2466V49.9849C40.855 50.4741 41.2516 50.8707 41.7408 50.8707C42.2299 50.8707 42.6266 50.4741 42.6266 49.9849V49.2466C42.6266 48.7575 42.2299 48.3608 41.7408 48.3608Z" stroke="#FA646A" stroke-width="0.2"/>
<path d="M41.7408 52.0508C41.2516 52.0508 40.855 52.4474 40.855 52.9366V53.3795C40.855 53.8686 41.2516 54.2652 41.7408 54.2652C42.2299 54.2652 42.6266 53.8686 42.6266 53.3795V52.9366C42.6266 52.4474 42.2299 52.0508 41.7408 52.0508Z" stroke="#FA646A" stroke-width="0.2"/>
<path d="M38.1978 52.5261C37.7086 52.5261 37.312 52.9227 37.312 53.4119V54.2025C37.312 54.6917 37.7086 55.0883 38.1978 55.0883C38.687 55.0883 39.0836 54.6917 39.0836 54.2025V53.4119C39.0836 52.9227 38.687 52.5261 38.1978 52.5261Z" stroke="#FA646A" stroke-width="0.2"/>
<path d="M38.1978 48.571C37.7086 48.571 37.312 48.9677 37.312 49.4568V50.2479C37.312 50.7371 37.7086 51.1337 38.1978 51.1337C38.687 51.1337 39.0836 50.7371 39.0836 50.2479V49.4568C39.0836 48.9677 38.687 48.571 38.1978 48.571Z" stroke="#FA646A" stroke-width="0.2"/>
<path d="M38.1978 56.48C37.7086 56.48 37.312 56.8766 37.312 57.3658V57.8087C37.312 58.2978 37.7086 58.6944 38.1978 58.6944C38.687 58.6944 39.0836 58.2978 39.0836 57.8087V57.3658C39.0836 56.8766 38.687 56.48 38.1978 56.48Z" stroke="#FA646A" stroke-width="0.2"/>
<path d="M52.3706 53.3804C51.8815 53.3804 51.4849 53.777 51.4849 54.2662V55.1519C51.4849 55.6411 51.8815 56.0377 52.3706 56.0377C52.8598 56.0377 53.2564 55.6411 53.2564 55.1519V54.2662C53.2564 53.777 52.8598 53.3804 52.3706 53.3804Z" stroke="#FA646A" stroke-width="0.2"/>
<path d="M52.3706 48.9512C51.8815 48.9512 51.4849 49.3478 51.4849 49.837V50.7227C51.4849 51.2119 51.8815 51.6085 52.3706 51.6085C52.8598 51.6085 53.2564 51.2119 53.2564 50.7227V49.837C53.2564 49.3478 52.8598 48.9512 52.3706 48.9512Z" stroke="#FA646A" stroke-width="0.2"/>
<path d="M52.3706 57.8096C51.8815 57.8096 51.4849 58.2062 51.4849 58.6954V59.1382C51.4849 59.6274 51.8815 60.024 52.3706 60.024C52.8598 60.024 53.2564 59.6274 53.2564 59.1382V58.6954C53.2564 58.2062 52.8598 57.8096 52.3706 57.8096Z" stroke="#FA646A" stroke-width="0.2"/>
<path d="M45.2842 48.3608C44.795 48.3608 44.3984 48.7575 44.3984 49.2466V49.9849C44.3984 50.4741 44.795 50.8707 45.2842 50.8707C45.7734 50.8707 46.17 50.4741 46.17 49.9849V49.2466C46.17 48.7575 45.7734 48.3608 45.2842 48.3608Z" stroke="#FA646A" stroke-width="0.2"/>
<path d="M45.2842 52.0508C44.795 52.0508 44.3984 52.4474 44.3984 52.9366V53.3795C44.3984 53.8686 44.795 54.2652 45.2842 54.2652C45.7734 54.2652 46.17 53.8686 46.17 53.3795V52.9366C46.17 52.4474 45.7734 52.0508 45.2842 52.0508Z" stroke="#FA646A" stroke-width="0.2"/>
<path d="M48.8272 48.3608C48.338 48.3608 47.9414 48.7575 47.9414 49.2466V49.9849C47.9414 50.4741 48.338 50.8707 48.8272 50.8707C49.3164 50.8707 49.713 50.4741 49.713 49.9849V49.2466C49.713 48.7575 49.3164 48.3608 48.8272 48.3608Z" stroke="#FA646A" stroke-width="0.2"/>
<path d="M48.8272 52.0508C48.338 52.0508 47.9414 52.4474 47.9414 52.9366V53.3795C47.9414 53.8686 48.338 54.2652 48.8272 54.2652C49.3164 54.2652 49.713 53.8686 49.713 53.3795V52.9366C49.713 52.4474 49.3164 52.0508 48.8272 52.0508Z" stroke="#FA646A" stroke-width="0.2"/>
<path d="M60.3425 22.3772H54.1422C53.653 22.3772 53.2564 22.7738 53.2564 23.263C53.2564 23.7522 53.653 24.1488 54.1422 24.1488H60.3425C60.831 24.1488 61.2283 24.546 61.2283 25.0346V44.5218C61.2283 45.0101 60.831 45.4076 60.3425 45.4076H55.4707V40.9787C55.4707 40.0003 54.6774 39.2071 53.6991 39.2071H15.6103C14.632 39.2071 13.8387 40.0003 13.8387 40.9787V45.4076H8.96693C8.4784 45.4076 8.08114 45.0101 8.08114 44.5218V25.0346C8.08114 24.546 8.4784 24.1488 8.96693 24.1488H47.2771C47.7663 24.1488 48.1629 23.7522 48.1629 23.263C48.1629 22.7738 47.7663 22.3772 47.2771 22.3772H8.96693C7.50158 22.3772 6.30957 23.5692 6.30957 25.0346V44.5218C6.30957 45.9872 7.50158 47.1792 8.96693 47.1792H60.3425C61.8078 47.1792 62.9998 45.9872 62.9998 44.5218V25.0346C62.9998 23.5692 61.8078 22.3772 60.3425 22.3772ZM15.6103 45.4076V40.9787H53.6991V45.4076H15.6103Z" stroke="#FA646A" stroke-width="0.2"/>
<path d="M13.8389 27.6922C13.8389 28.1814 14.2355 28.578 14.7247 28.578H54.585C55.0742 28.578 55.4708 28.1814 55.4708 27.6922C55.4708 27.203 55.0742 26.8064 54.585 26.8064H14.7247C14.2355 26.8064 13.8389 27.203 13.8389 27.6922Z" stroke="#FA646A" stroke-width="0.2"/>
<path d="M55.4708 31.2354C55.4708 30.7462 55.0742 30.3496 54.585 30.3496H14.7247C14.2355 30.3496 13.8389 30.7462 13.8389 31.2354C13.8389 31.7246 14.2355 32.1212 14.7247 32.1212H54.585C55.0742 32.1212 55.4708 31.7246 55.4708 31.2354Z" stroke="#FA646A" stroke-width="0.2"/>
<path d="M34.6548 36.5504C35.144 36.5504 35.5406 36.1538 35.5406 35.6646C35.5406 35.1754 35.144 34.7788 34.6548 34.7788C34.1656 34.7788 33.769 35.1754 33.769 35.6646C33.769 36.1538 34.1656 36.5504 34.6548 36.5504Z" stroke="#FA646A" stroke-width="0.2"/>
<path d="M50.5987 24.1488C51.0879 24.1488 51.4845 23.7522 51.4845 23.263C51.4845 22.7738 51.0879 22.3772 50.5987 22.3772C50.1095 22.3772 49.7129 22.7738 49.7129 23.263C49.7129 23.7522 50.1095 24.1488 50.5987 24.1488Z" stroke="#FA646A" stroke-width="0.2"/>
<path d="M57.1296 12.1735L53.9011 12.9389H31.9973V11.7481C31.9973 10.7737 31.2002 9.97656 30.2258 9.97656H28.4542C27.6335 9.97656 26.9447 10.5447 26.746 11.3052H8.09152C7.10712 11.3052 6.30957 12.0768 6.30957 13.0288V17.5537C6.30957 18.5057 7.10712 19.2773 8.09152 19.2773H26.746C26.9447 20.0379 27.6335 20.606 28.4542 20.606H30.2258C31.2002 20.606 31.9973 19.8089 31.9973 18.8344V17.9166H53.9244L57.1622 18.4043L62.9998 17.2787V13.1653L57.1296 12.1735ZM8.08114 17.5053V13.0773C8.08417 13.0768 8.08763 13.0768 8.09152 13.0768H26.6826V17.5057H8.09152C8.08763 17.5057 8.08417 17.5057 8.08114 17.5053ZM30.2258 18.8344H28.4542V11.7481H30.2258V18.8344ZM61.2283 15.8159L57.1254 16.6072L54.0572 16.145H31.9973V14.7104H54.1082L57.1888 13.9801L61.2283 14.6626V15.8159Z" stroke="#FA646A" stroke-width="0.2"/>
<path d="M19.5965 14.4058H14.2818C13.7926 14.4058 13.396 14.8024 13.396 15.2915C13.396 15.7807 13.7926 16.1773 14.2818 16.1773H19.5965C20.0857 16.1773 20.4823 15.7807 20.4823 15.2915C20.4823 14.8024 20.0857 14.4058 19.5965 14.4058Z" stroke="#FA646A" stroke-width="0.2"/>
</svg>
