<svg width="50" height="50" viewBox="0 0 50 50" fill="#FA646A" xmlns="http://www.w3.org/2000/svg">
<path d="M4.66668 46.0457C4.49004 46.0457 4.35756 46.0015 4.22508 45.8691C3.96013 45.6483 3.96013 45.2508 4.22508 44.9859L13.1452 35.8008C13.366 35.5358 13.7635 35.5358 14.0284 35.8008C14.2934 36.0216 14.2934 36.419 14.0284 36.684L5.10827 45.8249C5.01995 45.9574 4.84331 46.0457 4.66668 46.0457Z" />
<path d="M7.22824 47.1056C6.0801 47.1056 5.02028 46.664 4.22542 45.825C2.59153 44.1469 2.59153 41.4091 4.22542 39.731L18.6655 24.8935C18.8863 24.6286 19.2837 24.6286 19.5487 24.8935C19.8136 25.1143 19.8136 25.5118 19.5487 25.7767L5.1086 40.6142C3.9163 41.8065 3.9163 43.7937 5.1086 44.986C5.68267 45.56 6.38922 45.8692 7.18408 45.8692C7.97895 45.8692 8.72965 45.56 9.25956 44.986L23.6996 30.1485C23.9204 29.8835 24.3178 29.8835 24.5828 30.1485C24.8478 30.3693 24.8478 30.7667 24.5828 31.0317L10.2311 45.825C9.4362 46.664 8.37638 47.1056 7.22824 47.1056Z" />
<path d="M28.4687 24.099C28.2921 24.099 28.1596 24.0548 28.0271 23.9223C27.7621 23.7015 27.7621 23.3041 28.0271 23.0391L38.7136 12.0435L37.0797 10.3655L26.4374 21.3611C26.2166 21.626 25.8191 21.626 25.5542 21.3611C25.2892 21.1403 25.2892 20.7429 25.5542 20.4779L36.6381 9.08484C36.7706 8.95236 36.9031 8.9082 37.0797 8.9082C37.2564 8.9082 37.3888 8.99652 37.5213 9.08484L39.9942 11.6461C40.215 11.8669 40.215 12.2643 39.9942 12.4851L28.9103 23.9223C28.7778 24.0548 28.6453 24.099 28.4687 24.099Z" />
<path d="M39.42 12.8379L36.373 9.70264L37.7861 5.94911L42.4229 2.94629L45.9997 6.6115L43.0852 11.3365L39.42 12.8379ZM37.7861 9.39353L39.7291 11.3807L42.2462 10.365L44.41 6.8323L42.2021 4.58018L38.8018 6.78814L37.7861 9.39353Z" />
<path d="M41.2751 47.1055C40.0386 47.1055 38.8905 46.6198 38.0515 45.7366L13.7639 20.7425C10.8494 21.4491 7.75828 20.5659 5.63864 18.3579C3.56316 16.1941 2.67997 13.1471 3.2982 10.1443L3.519 8.99617L8.86226 14.4719L12.9691 13.3238L14.073 9.04033L8.77394 3.56459L9.87792 3.38796C12.7924 2.72557 15.7952 3.60875 17.8707 5.77255C19.9904 7.93635 20.8736 11.1158 20.167 14.1186L44.4987 39.1569C46.2651 40.9674 46.2651 43.9261 44.4987 45.7808C43.6597 46.6198 42.5116 47.1055 41.2751 47.1055ZM14.1172 19.3294L38.9347 44.8534C39.5529 45.5158 40.3919 45.8691 41.2751 45.8691C42.1583 45.8691 42.9973 45.5158 43.6155 44.8534C44.9403 43.5286 44.9403 41.3207 43.6155 39.9518L18.8422 14.4719L18.9306 14.1186C19.6371 11.4691 18.9306 8.59874 17.0317 6.61158C15.5303 5.066 13.4548 4.27114 11.3352 4.40362L15.5303 8.68706L14.073 14.3394L8.55314 15.8408L4.40218 11.5574C4.2697 13.7212 5.06457 15.885 6.56598 17.4306C8.46483 19.3736 11.2469 20.1243 13.8081 19.3736L14.1172 19.3294Z" />
<path d="M44.1012 45.9131C43.9245 45.9131 43.792 45.869 43.6596 45.7365L36.6383 38.5385C36.4175 38.2736 36.4175 37.9203 36.6383 37.6553C36.9032 37.4345 37.2565 37.4345 37.5214 37.6553L44.4986 44.8533C44.7194 45.1182 44.7194 45.4715 44.4986 45.7365C44.4103 45.869 44.2336 45.9131 44.1012 45.9131Z" />
</svg>
