<svg width="50" height="50" viewBox="0 0 50 50" fill="#FA646A" xmlns="http://www.w3.org/2000/svg">
<path d="M24.807 10.9355H23.4199V12.3226H24.807V10.9355Z"/>
<path d="M28.2738 11.6294H26.8867V13.0165H28.2738V11.6294Z"/>
<path d="M31.7416 12.3223H30.3545V13.7094H31.7416V12.3223Z"/>
<path d="M21.3383 17.8706H19.9512V19.2577H21.3383V17.8706Z"/>
<path d="M47 16.4839H39.9307C39.7434 16.083 39.3737 15.7806 38.9118 15.7015L37.2903 15.4234V14.4032C37.2903 8.66689 32.6234 4 26.8871 4C22.0905 4 17.9195 7.33527 16.789 11.9085L16.0247 11.7775C15.6197 11.7095 15.2098 11.8205 14.8963 12.0847C14.5829 12.3489 14.4032 12.7352 14.4032 13.1451V14.5121C14.4032 15.1897 14.888 15.7647 15.5559 15.8798L16.4839 16.0386V16.4839H14.1092C13.5724 15.2611 12.3538 14.4032 10.9355 14.4032C9.51718 14.4032 8.29861 15.2611 7.76181 16.4839H4V30.3548H7.46774V34.8629C7.46774 36.9664 9.17873 38.6774 11.2823 38.6774C11.4681 38.6774 11.6498 38.6594 11.8288 38.6337L11.8329 38.6469L11.921 38.6199C12.2525 38.5637 12.5695 38.4652 12.8663 38.3293L19.5715 36.2659C19.3656 37.4283 19.2581 38.6129 19.2581 39.8079V47H39.5853L37.4977 39.3446L38.1323 39.2295L36.0447 30.3548H47V16.4839ZM26.8871 5.3871C29.6238 5.3871 32.0741 6.61676 33.729 8.5476L32.5721 9.32229C31.133 7.71603 29.0524 6.77419 26.8871 6.77419C24.7357 6.77419 22.7383 7.655 21.2964 9.21548L20.3234 8.24452C21.9837 6.48221 24.3314 5.3871 26.8871 5.3871ZM19.4453 9.32784L21.4171 11.2954L21.8963 10.6581C23.0906 9.07123 24.9098 8.16129 26.8871 8.16129C28.8672 8.16129 30.6877 9.07331 31.882 10.6643L32.2767 11.19L34.5466 9.66906C35.4011 11.0471 35.9032 12.6659 35.9032 14.4032V15.1855L18.163 12.1443C18.4279 11.122 18.8648 10.1726 19.4453 9.32784ZM15.7903 13.1451L38.6774 17.0685V18.4355L34.6333 17.742L34.3989 19.1096L35.6445 19.3233C34.8379 22.6141 32.2122 25.1595 28.9677 25.939V24.0886C30.1426 23.9201 31.0484 22.9068 31.0484 21.6862C31.0484 20.3476 29.9595 19.2588 28.621 19.2588C28.0474 19.2588 27.5806 18.792 27.5806 18.2184V17.941L33.0125 18.8718L33.2469 17.5041L15.7903 14.5121V13.1451ZM26.1935 17.7031V18.2177C26.1935 19.5563 27.2824 20.6452 28.621 20.6452C29.1945 20.6452 29.6613 21.1119 29.6613 21.6855C29.6613 22.259 29.1945 22.7258 28.621 22.7258H27.5806V26.1616C27.3511 26.179 27.1201 26.1935 26.8871 26.1935C21.9157 26.1935 17.871 22.1488 17.871 17.1774V16.2765L26.1935 17.7031ZM10.9355 15.7903C12.0826 15.7903 13.0161 16.7238 13.0161 17.871V19.2581C13.0161 20.4052 12.0826 21.3387 10.9355 21.3387C9.78835 21.3387 8.85484 20.4052 8.85484 19.2581V17.871C8.85484 16.7238 9.78835 15.7903 10.9355 15.7903ZM5.3871 17.871H7.46774V19.2581C7.46774 21.1702 9.02337 22.7258 10.9355 22.7258C12.8476 22.7258 14.4032 21.1702 14.4032 19.2581V17.871H16.5192C16.8071 22.2022 19.747 25.8176 23.7342 27.0889C23.2508 27.6909 22.807 28.3193 22.3978 28.9677H5.3871V17.871ZM8.85484 34.8629V30.3548H13.7097V34.8629C13.7097 35.8242 13.143 36.6502 12.3302 37.0427L11.6443 37.2536C11.525 37.2716 11.4064 37.2903 11.2823 37.2903C9.94371 37.2903 8.85484 36.2015 8.85484 34.8629ZM14.8221 36.2757C14.9976 35.838 15.0968 35.3623 15.0968 34.8629V30.3548H21.5946C20.8678 31.7371 20.3039 33.1984 19.9128 34.7096L14.8221 36.2757ZM20.6452 39.8079C20.6452 35.2624 22.2833 30.8764 25.2524 27.4392C25.7864 27.5238 26.3295 27.5806 26.8871 27.5806C27.3289 27.5806 27.7624 27.5425 28.191 27.4877C27.3865 28.2901 26.8871 29.3991 26.8871 30.6232C26.8871 30.9582 26.9252 31.2932 27.0008 31.6192L29.1349 40.8663L30.463 40.6249L31.5713 45.6129H20.6452V39.8079ZM37.7696 45.6129H32.9917L31.8279 40.3759L36.1279 39.5943L37.7696 45.6129ZM30.1884 39.2635L28.3526 31.3064C28.3005 31.0831 28.2742 30.8528 28.2742 30.6232C28.2742 28.9455 29.6391 27.5806 31.3168 27.5806H31.5575C32.9758 27.5806 34.1936 28.5454 34.5189 29.9262L36.4484 38.126L30.1884 39.2635ZM45.6129 28.9677H35.6598C35.046 27.4357 33.6332 26.3843 31.975 26.2289C34.4586 24.8245 36.3381 22.4338 37.0143 19.5577L38.4437 19.8025C38.5221 19.8157 38.6004 19.8226 38.6781 19.8226C39.0027 19.8226 39.319 19.7082 39.5721 19.4953C39.8856 19.231 40.0645 18.8447 40.0645 18.4348V17.871H45.6129V28.9677Z" />
</svg>
