<svg width="70" height="70" viewBox="0 0 70 70" fill="none" xmlns="http://www.w3.org/2000/svg">
  <path d="M51.9517 58.4149V51.468L53.1325 50.2872C55.2997 48.12 56.5587 45.2939 56.7515 42.2621H56.791C57.6807 42.2621 58.4041 41.5386 58.4041 40.649V37.4227C58.4041 36.5331 57.6807 35.8096 56.791 35.8096H56.7862C56.7652 34.7506 56.412 33.7481 55.7772 32.9182C56.4321 31.9019 56.791 30.7106 56.791 29.4952V16.4524H58.4041C59.2938 16.4524 60.0172 15.7289 60.0172 14.8393V11.6131C60.0172 10.7235 59.2938 10 58.4041 10H27.7552C26.8656 10 26.1421 10.7235 26.1421 11.6131V14.8393C26.1421 15.7289 26.8656 16.4524 27.7552 16.4524V17.259C27.7552 18.3091 28.4319 19.1963 29.3683 19.5302V29.496C29.3683 30.7114 29.7272 31.9027 30.3821 32.919C29.7474 33.7489 29.3941 34.7515 29.3731 35.8105H29.3683C28.4787 35.8105 27.7552 36.5339 27.7552 37.4236V40.6498C27.7552 41.5394 28.4787 42.2629 29.3683 42.2629H29.4078C29.6006 45.2947 30.8596 48.1208 33.0268 50.2881L34.2076 51.468V58.406L10.011 58.3931V60.0062L60.1342 60.032L60.135 58.4189L51.9517 58.4149ZM55.1779 29.4952C55.1779 30.3001 54.9682 31.0913 54.5795 31.7898C53.7778 31.2567 52.8381 30.9703 51.8541 30.9703H34.3052C33.3212 30.9703 32.3816 31.2567 31.5798 31.7898C31.1911 31.0921 30.9814 30.3001 30.9814 29.4952V19.6786H31.4145C31.9799 20.6804 33.0405 21.2917 34.206 21.2917C34.4173 21.2917 34.6318 21.2716 34.8472 21.2296C36.1256 20.9836 37.1426 19.9553 37.3781 18.6712C37.5201 17.8937 37.3701 17.1146 36.9862 16.4516H55.1779V29.4952ZM27.7552 11.6131H58.4041L58.4049 14.8393H27.7552V11.6131ZM34.2076 16.4524C34.6891 16.4524 35.1408 16.6637 35.4481 17.0323C35.7602 17.4066 35.8828 17.8865 35.7917 18.3809C35.6763 19.006 35.1634 19.5262 34.5423 19.6464C33.7293 19.8028 32.9542 19.3673 32.6961 18.6116L32.5098 18.0655H30.1748C29.7304 18.0655 29.3683 17.7034 29.3683 17.259V16.4524H34.2076ZM31.9549 33.5569C32.5824 32.9295 33.418 32.5834 34.3052 32.5834H51.8541C52.7421 32.5834 53.5769 32.9295 54.2044 33.5569C54.8085 34.1611 55.1441 34.9587 55.1683 35.8096H30.9911C31.0153 34.9587 31.3508 34.1611 31.9549 33.5569ZM29.3683 37.4227H56.791L56.7918 40.649H29.3683V37.4227ZM34.1673 49.1468C32.3049 47.2836 31.2104 44.8632 31.0209 42.2621H55.1392C54.9497 44.8624 53.8552 47.2836 51.9929 49.1468L50.8113 50.3276H35.3481L34.1673 49.1468ZM35.8207 51.9407H50.3386V58.4141L35.8207 58.4068V51.9407Z" fill="#FA646A" stroke="#FA646A" stroke-width="0.5"/>
  <path d="M11.6242 32.5831H13.2373V43.0683C13.2373 45.2919 15.0463 47.101 17.27 47.101H25.3355C26.6696 47.101 27.7552 46.0154 27.7552 44.6814C27.7552 43.3473 26.6696 42.2617 25.3355 42.2617H22.9159V32.5831H24.529C25.4186 32.5831 26.1421 31.8596 26.1421 30.97V29.3569C26.1421 28.4673 25.4186 27.7438 24.529 27.7438H22.9159V26.1307C22.9159 25.2411 22.1924 24.5176 21.3028 24.5176H14.8504C13.9607 24.5176 13.2373 25.2411 13.2373 26.1307V27.7438H11.6242C10.7345 27.7438 10.011 28.4673 10.011 29.3569V30.97C10.011 31.8596 10.7345 32.5831 11.6242 32.5831ZM17.27 45.4879C15.936 45.4879 14.8504 44.4023 14.8504 43.0683V35.8093H21.3028V42.2617H16.4635V43.8748H17.27C17.7144 43.8748 18.0766 44.237 18.0766 44.6814C18.0766 45.1258 17.7144 45.4879 17.27 45.4879ZM25.3355 43.8748C25.7799 43.8748 26.1421 44.237 26.1421 44.6814C26.1421 45.1258 25.7799 45.4879 25.3355 45.4879H19.5517C19.6405 45.2355 19.6897 44.9645 19.6897 44.6814C19.6897 44.3983 19.6405 44.1273 19.5517 43.8748H25.3355ZM24.529 29.3569V30.97H22.9159V29.3569H24.529ZM21.3028 26.1307V34.1962H14.8504V26.1307H21.3028ZM11.6242 29.3569H13.2373V30.97H11.6242V29.3569Z" fill="#FA646A" stroke="#FA646A" stroke-width="0.5"/>
</svg>
