<svg width="68" height="68" viewBox="0 0 602 602" fill="none" xmlns="http://www.w3.org/2000/svg">
<g filter="url(#filter0_d_2716_167)">
<path d="M405.864 263.133C413.632 263.133 422.371 263.133 430.138 263.133C462.18 263.133 494.222 263.133 526.264 263.133C535.003 263.133 537.916 261.191 539.858 254.394V69.9101C536.945 65.0552 533.061 63.1133 526.264 63.1133C496.164 63.1133 465.093 63.1133 434.993 63.1133C427.225 63.1133 424.313 65.0552 422.371 72.823C421.4 77.6778 423.342 80.5907 427.225 82.5326C430.138 84.4746 434.022 84.4746 436.935 84.4746C461.209 84.4746 486.454 84.4746 510.729 84.4746C516.554 84.4746 517.525 84.4746 517.525 91.2713C517.525 138.849 517.525 186.426 517.525 234.004C517.525 239.829 517.525 240.8 510.729 240.8C441.79 240.8 372.851 240.8 302.942 240.8C296.145 240.8 296.145 240.8 296.145 234.004C296.145 203.904 284.493 179.629 261.19 161.181C258.277 158.268 256.335 155.355 256.335 151.471C256.335 132.052 256.335 112.633 256.335 93.2133C256.335 86.4165 256.335 85.4455 263.132 85.4455C287.406 85.4455 312.651 85.4455 336.925 85.4455C339.838 85.4455 343.722 85.4455 346.635 83.5036C350.519 81.5617 352.461 77.6778 351.49 73.7939C349.548 66.0262 346.635 64.0842 338.867 64.0842C307.796 64.0842 277.696 64.0842 246.625 64.0842C237.887 64.0842 234.003 66.9972 234.003 76.7068C234.003 99.0391 234.003 121.371 234.003 143.704C234.003 145.646 234.003 146.617 234.003 148.558C225.264 145.646 217.496 143.704 208.758 143.704C157.296 141.762 115.545 181.571 115.545 234.004C115.545 248.568 115.545 263.133 115.545 277.697C115.545 281.581 114.574 282.552 110.69 282.552C87.3867 282.552 64.0835 282.552 41.7512 282.552C33.9835 282.552 30.0996 286.436 30.0996 294.204C30.0996 306.826 30.0996 319.449 30.0996 332.071C30.0996 338.868 33.9835 342.752 40.7803 342.752C41.7512 342.752 42.7222 342.752 44.6641 342.752C49.519 341.781 50.4899 343.723 50.4899 348.578C50.4899 408.778 50.4899 468.978 50.4899 529.178C50.4899 535.975 54.3738 540.829 60.1996 540.829C66.0254 540.829 69.9093 535.975 69.9093 529.178C69.9093 523.352 69.9093 516.555 69.9093 510.729C69.9093 456.355 69.9093 401.981 69.9093 347.607C69.9093 343.723 70.8803 342.752 74.7641 342.752C87.3867 342.752 100.98 342.752 113.603 342.752C115.545 342.752 117.487 342.752 118.458 345.665C124.283 357.317 133.993 363.142 146.616 363.142C161.18 363.142 175.745 363.142 189.338 363.142C193.222 363.142 194.193 364.113 194.193 367.997C194.193 371.881 194.193 374.794 194.193 378.678C194.193 382.562 193.222 383.533 189.338 383.533C174.774 383.533 160.209 383.533 145.645 383.533C128.167 383.533 114.574 396.155 114.574 413.633C114.574 430.139 128.167 442.762 145.645 442.762C154.383 442.762 162.151 442.762 170.89 442.762C173.803 442.762 174.774 443.733 174.774 446.646C174.774 452.471 174.774 459.268 174.774 465.094C174.774 480.629 175.745 481.6 191.28 482.571C194.193 482.571 194.193 483.542 194.193 486.455C194.193 490.339 194.193 495.194 194.193 499.078C194.193 502.962 193.222 502.962 189.338 502.962C173.803 502.962 159.238 502.962 143.703 502.962C127.196 502.962 114.574 516.555 114.574 532.091C114.574 537.917 118.458 542.771 124.283 542.771C129.138 542.771 133.993 538.888 134.964 533.062C135.935 525.294 138.848 522.381 146.616 522.381C159.238 522.381 170.89 522.381 183.513 522.381C187.396 522.381 191.28 521.41 193.222 523.352C195.164 525.294 193.222 529.178 194.193 533.062C194.193 533.062 194.193 533.062 194.193 534.033C195.164 538.887 199.048 542.771 203.903 542.771C208.758 542.771 213.613 538.888 213.613 533.062C213.613 531.12 213.613 529.178 213.613 527.236C213.613 523.352 213.613 522.381 218.467 522.381C233.032 522.381 247.596 522.381 261.19 522.381C268.958 522.381 271.871 525.294 272.842 533.062C273.813 538.888 277.696 542.771 283.522 541.8C288.377 541.8 293.232 536.946 293.232 531.12C293.232 530.149 293.232 528.207 293.232 527.236C290.319 512.671 278.667 501.991 264.103 501.991C251.48 501.991 238.858 501.991 226.235 501.991C222.351 501.991 217.496 502.962 215.554 501.02C213.613 499.078 214.583 494.223 214.583 490.339C214.583 482.571 214.583 482.571 222.351 482.571C230.119 482.571 234.003 478.687 234.003 470.92C234.003 463.152 234.003 454.413 234.003 446.646C234.003 443.733 234.974 442.762 237.887 442.762C246.625 442.762 255.364 442.762 265.074 442.762C273.813 442.762 281.58 438.878 287.406 432.081C295.174 422.371 297.116 411.691 291.29 401.01C286.435 389.358 276.725 383.533 265.074 383.533C249.538 383.533 234.003 383.533 219.438 383.533C216.525 383.533 215.554 382.562 215.554 379.649C215.554 375.765 215.554 370.91 215.554 367.026C215.554 364.113 216.525 363.142 219.438 363.142C234.974 363.142 249.538 363.142 265.074 363.142C274.783 363.142 283.522 360.229 288.377 351.491C293.232 342.752 299.058 341.781 306.825 342.752C307.796 342.752 308.767 342.752 309.738 342.752C310.709 342.752 312.651 342.752 312.651 342.752H352.461C373.822 342.752 395.184 342.752 417.516 342.752C437.906 342.752 458.296 342.752 478.687 342.752H520.438C521.409 342.752 521.409 342.752 523.351 342.752C524.322 342.752 525.293 342.752 526.264 342.752C531.119 342.752 535.974 340.81 538.887 335.955V290.32C536.945 283.523 534.032 282.552 527.235 281.581C525.293 281.581 523.351 281.581 521.409 281.581H409.748C399.067 281.581 399.067 281.581 399.067 270.9C399.067 263.133 400.038 263.133 405.864 263.133ZM374.793 280.61C362.171 280.61 349.548 280.61 336.925 280.61C324.303 280.61 312.651 280.61 300.029 280.61C296.145 280.61 295.174 279.639 296.145 275.755C296.145 271.871 296.145 267.017 296.145 263.133C296.145 260.22 297.116 260.22 299.058 260.22C324.303 260.22 349.548 260.22 374.793 260.22C377.706 260.22 377.706 261.191 377.706 263.133C377.706 267.987 377.706 271.871 377.706 276.726C378.677 280.61 376.735 280.61 374.793 280.61Z" fill="black"/>
<path d="M422.37 72.8232C424.312 80.591 427.225 82.5329 434.993 82.5329C462.18 82.5329 488.396 82.5329 515.583 82.5329C519.467 82.5329 520.438 83.5039 520.438 87.3878C520.438 136.907 520.438 186.426 520.438 235.946C520.438 239.83 519.467 240.801 515.583 240.801C444.702 240.801 372.851 240.801 301.97 240.801C298.086 240.801 296.144 239.83 296.144 235.946C297.115 203.904 284.493 177.688 259.248 158.268C257.306 157.297 257.306 155.356 257.306 153.414C257.306 131.081 257.306 107.778 257.306 85.4458C257.306 81.562 259.248 82.5329 261.19 82.5329C288.377 82.5329 314.593 82.5329 341.78 82.5329C349.548 82.5329 352.46 80.591 354.402 72.8232C362.17 72.8232 370.909 72.8232 378.677 72.8232C379.648 73.7942 380.619 74.7652 380.619 76.7071C382.561 79.62 385.473 81.5619 388.386 81.5619C391.299 81.5619 394.212 79.62 396.154 76.7071C397.125 75.7361 397.125 73.7942 398.096 72.8232C405.864 72.8232 414.602 72.8232 422.37 72.8232Z" fill="#B2F0FE"/>
<path d="M107.777 77.6777C111.661 77.6777 114.574 80.5906 114.574 84.4745C114.574 96.1261 124.284 105.836 135.935 105.836C139.819 105.836 142.732 108.749 142.732 112.633C142.732 116.516 139.819 119.429 135.935 119.429C122.342 120.4 116.516 127.197 114.574 140.791C114.574 144.675 111.661 147.587 107.777 147.587C103.893 147.587 100.98 144.675 100.98 140.791C100.98 129.139 92.2416 119.429 79.619 119.429C75.7352 119.429 72.8223 116.516 72.8223 112.633C72.8223 108.749 75.7352 105.836 79.619 105.836C92.2416 105.836 100.98 96.1261 100.98 84.4745C100.98 80.5906 103.893 77.6777 107.777 77.6777Z" fill="black"/>
<path d="M398.096 72.823C396.154 79.6197 393.242 82.5326 387.416 82.5326C382.561 82.5326 378.677 79.6197 377.706 72.823C378.677 66.0262 382.561 63.1133 387.416 63.1133C393.242 63.1133 396.154 66.0262 398.096 72.823Z" fill="#010101"/>
<path d="M206.816 339.839C187.397 339.839 168.948 339.839 149.529 339.839C140.79 339.839 136.906 335.955 136.906 328.187C136.906 295.174 136.906 263.132 136.906 230.119C136.906 194.194 166.035 164.094 200.99 162.152C236.916 160.21 268.958 185.455 274.784 221.381C275.755 225.265 275.755 229.148 275.755 233.032C275.755 264.103 275.755 296.145 275.755 327.216C275.755 336.926 272.842 339.839 263.132 339.839C243.713 339.839 225.264 339.839 206.816 339.839Z" fill="#FE7B79"/>
<path d="M407.806 301.001C443.732 301.001 479.658 301.001 515.584 301.001C519.468 301.001 520.439 301.972 520.439 305.855C519.468 310.71 522.381 317.507 519.468 320.42C516.555 323.333 509.758 321.391 504.903 321.391C436.935 321.391 368.968 321.391 301.971 321.391C298.087 321.391 296.145 320.42 297.116 316.536C298.087 311.681 295.174 304.884 298.087 301.972C301 300.03 306.826 301.001 311.681 301.001C342.751 301.001 375.764 301.001 407.806 301.001Z" fill="#C0AFB4"/>
<path d="M205.845 419.458C187.397 419.458 168.948 419.458 150.5 419.458C148.558 419.458 147.587 419.458 145.645 419.458C140.79 418.487 136.906 414.604 136.906 409.749C136.906 404.894 140.79 401.01 145.645 400.039C147.587 400.039 148.558 400.039 150.5 400.039C187.397 400.039 224.293 400.039 261.19 400.039C262.161 400.039 263.132 400.039 265.074 400.039C270.9 400.039 275.755 403.923 275.755 409.749C275.755 415.575 271.871 419.458 265.074 419.458C245.655 419.458 226.235 419.458 205.845 419.458Z" fill="#FE7B79"/>
<path d="M85.4449 320.42C75.7352 320.42 66.0255 320.42 56.3158 320.42C53.4029 320.42 52.432 319.449 52.432 316.536C52.432 311.681 50.49 304.885 53.4029 301.001C56.3158 298.088 63.1126 301.001 67.9674 301.001C83.5029 301.001 98.0674 301.001 113.603 301.001C116.516 301.001 117.487 301.972 117.487 304.885C117.487 309.739 119.429 316.536 116.516 319.449C113.603 322.362 106.806 320.42 101.951 320.42C96.1255 320.42 91.2707 320.42 85.4449 320.42Z" fill="#C0AFB4"/>
<path d="M206.816 438.878C216.526 438.878 216.526 438.878 216.526 448.588C216.526 458.297 216.526 458.297 206.816 458.297C197.106 458.297 197.106 458.297 197.106 448.588C197.106 438.878 197.106 438.878 206.816 438.878Z" fill="#EDF9FE"/>
<path d="M447.616 102.923C453.442 102.923 457.326 106.807 457.326 113.603C457.326 116.516 456.355 120.4 458.297 122.342C460.239 124.284 464.123 122.342 467.035 123.313C472.861 123.313 477.716 127.197 477.716 133.023C477.716 138.849 473.832 142.733 467.035 142.733C464.123 142.733 460.239 140.791 458.297 143.703C457.326 145.645 458.297 149.529 458.297 152.442C458.297 158.268 454.413 163.123 448.587 163.123C442.761 163.123 438.877 159.239 438.877 153.413C438.877 150.5 439.848 146.616 437.906 144.674C435.964 142.733 432.081 144.674 429.168 143.703C423.342 143.703 419.458 138.849 419.458 133.994C419.458 128.168 423.342 124.284 430.139 124.284C433.052 124.284 436.935 125.255 438.877 123.313C440.819 121.371 439.848 117.487 439.848 114.574C437.906 106.807 441.79 102.923 447.616 102.923Z" fill="black"/>
<path d="M377.706 191.281C377.706 196.136 373.822 200.991 367.996 200.991C365.083 200.991 360.228 200.02 358.287 201.962C356.345 203.904 357.316 207.788 357.316 211.672C357.316 217.497 352.461 221.381 347.606 221.381C342.751 221.381 337.896 217.497 337.896 211.672C337.896 208.759 338.867 203.904 336.925 201.962C334.983 200.02 331.099 201.962 327.216 200.991C321.39 200.991 317.506 196.136 317.506 191.281C317.506 186.427 321.39 181.572 327.216 181.572C330.128 181.572 334.983 182.543 336.925 180.601C338.867 178.659 336.925 174.775 337.896 171.862C337.896 166.036 342.751 162.152 347.606 162.152C352.461 162.152 357.316 166.036 357.316 171.862C357.316 174.775 355.374 179.63 358.287 181.572C360.228 183.514 364.112 181.572 367.025 182.543C373.822 182.543 377.706 186.427 377.706 191.281Z" fill="black"/>
<path d="M114.574 112.633C114.574 113.604 113.603 113.604 112.632 114.575C110.69 116.517 108.748 119.43 107.777 119.43C105.835 118.459 103.893 116.517 101.951 114.575C100.98 113.604 101.951 112.633 102.922 112.633C104.864 111.662 105.835 106.807 108.748 107.778C110.69 107.778 111.661 109.72 114.574 112.633Z" fill="#FDD88E"/>
<path d="M572.871 526.265C568.987 505.874 564.132 484.513 560.248 464.123C558.306 456.355 558.306 447.616 555.393 439.849C554.422 435.965 553.451 434.994 548.596 434.994C545.684 436.936 545.684 439.849 546.655 442.761C547.625 445.674 547.626 446.645 543.742 446.645C514.613 446.645 485.484 446.645 456.355 446.645C453.442 446.645 452.471 445.674 453.442 443.732C456.355 431.11 468.006 421.4 480.629 421.4C493.251 421.4 505.874 421.4 518.496 421.4C523.351 421.4 527.235 422.371 531.119 424.313C534.032 426.255 535.974 426.255 538.887 423.342C539.858 419.458 539.858 417.516 535.974 415.574C531.119 412.661 525.293 410.72 519.467 410.72C517.526 410.72 516.555 409.749 516.555 407.807C516.555 404.894 516.555 401.981 516.555 399.068C516.555 397.126 516.555 396.155 514.613 395.184C512.671 394.213 512.671 392.271 512.671 390.329C512.671 369.939 512.671 350.52 512.671 330.129C512.671 329.158 512.671 328.187 512.671 328.187C512.671 326.245 512.671 323.332 512.671 320.42C512.671 309.739 512.671 299.058 512.671 289.349C512.671 286.436 512.671 283.523 512.671 281.581V280.61C512.671 265.074 512.671 249.539 512.671 234.003C512.671 226.236 504.903 221.381 497.135 223.323C491.309 225.265 487.426 230.12 487.426 236.916C487.426 281.581 487.426 325.274 487.426 369.939C487.426 376.736 487.426 384.503 487.426 391.3C487.426 392.271 488.396 393.242 486.455 394.213C483.542 395.184 483.542 398.097 483.542 400.039C483.542 402.952 483.542 404.894 483.542 407.807C483.542 409.749 482.571 410.72 480.629 410.72C472.861 410.72 466.064 413.632 460.238 417.516C460.238 417.516 459.267 418.487 458.296 418.487C458.296 411.69 459.267 405.865 459.267 399.068C459.267 398.097 460.238 397.126 461.209 397.126C467.035 394.213 468.977 388.387 468.006 382.561C467.035 376.736 461.209 373.823 455.384 373.823C434.022 373.823 411.69 373.823 390.329 373.823H334.984C331.1 373.823 326.245 373.823 322.361 373.823C315.564 373.823 310.709 377.707 309.738 382.561C308.767 388.387 310.709 394.213 316.535 397.126C317.506 398.097 318.477 398.097 318.477 400.039C319.448 420.429 321.39 439.849 322.361 460.239C323.332 477.716 324.303 495.194 326.245 512.671C327.216 526.265 334.984 534.032 348.577 534.032C421.4 534.032 493.251 534.032 566.074 534.032C571.9 535.003 573.842 533.061 572.871 526.265ZM497.135 237.887C497.135 235.945 498.106 234.003 501.019 234.003C503.932 234.003 503.932 235.945 503.932 237.887C503.932 252.452 503.932 266.045 503.932 280.61C503.932 281.581 503.932 282.552 503.932 283.523C503.932 284.494 503.932 284.494 503.932 285.465C503.932 287.407 503.932 289.349 503.932 292.261C503.932 301.971 503.932 312.652 503.932 322.361C503.932 324.303 503.932 326.245 503.932 328.187C503.932 329.158 503.932 329.158 503.932 330.129C503.932 331.1 503.932 332.071 503.932 333.042C503.932 353.432 503.932 372.852 503.932 393.242C503.932 396.155 501.019 398.097 498.106 396.155C497.135 396.155 497.135 395.184 497.135 395.184C497.135 394.213 497.135 393.242 497.135 393.242V237.887ZM493.251 405.865C493.251 404.894 494.222 404.894 495.193 404.894C497.135 404.894 499.077 404.894 501.019 404.894C501.99 404.894 502.961 404.894 503.932 404.894C506.845 403.923 508.787 405.865 507.816 408.778C507.816 411.69 506.845 412.661 503.932 412.661C501.99 412.661 500.048 412.661 498.106 412.661C493.251 412.661 491.309 410.72 493.251 405.865ZM324.303 390.329C323.332 390.329 323.332 390.329 322.361 390.329C320.419 390.329 318.477 389.358 318.477 387.416C318.477 385.474 319.448 384.503 322.361 384.503C327.216 384.503 331.1 384.503 335.955 384.503H339.838C342.751 384.503 344.693 384.503 347.606 384.503H391.3C412.661 384.503 433.051 384.503 454.413 384.503C455.384 384.503 456.355 384.503 457.325 384.503C459.267 384.503 460.238 385.474 460.238 387.416C460.238 389.358 459.267 390.329 457.325 390.329C456.355 390.329 455.384 390.329 454.413 390.329H324.303ZM331.1 400.039C350.519 400.039 369.938 400.039 389.358 400.039H446.645C450.529 400.039 450.529 400.039 449.558 403.923C442.761 424.313 423.342 438.878 401.98 439.849C392.271 439.849 381.59 440.82 371.88 439.849C352.461 437.907 334.984 422.371 329.158 403.923C328.187 400.039 328.187 400.039 331.1 400.039ZM425.284 525.294C399.067 525.294 372.851 525.294 346.635 525.294C339.838 525.294 335.955 521.41 334.984 515.584C334.013 507.816 334.013 500.049 333.042 493.252C331.1 470.92 330.129 448.587 328.187 426.255C328.187 425.284 328.187 425.284 328.187 423.342C334.984 432.081 343.722 438.878 353.432 443.732C361.2 446.645 368.967 448.587 376.735 448.587C386.445 448.587 396.155 449.558 405.864 448.587C423.342 446.645 436.935 438.878 447.616 425.284L448.587 424.313C448.587 430.139 448.587 433.052 446.645 436.936C444.703 441.79 443.732 445.674 442.761 450.529C441.79 459.268 438.877 468.007 437.906 477.716C434.993 493.252 431.109 508.787 428.196 523.352C428.196 524.323 427.226 525.294 425.284 525.294ZM463.151 465.094C461.209 484.513 458.296 503.932 456.355 523.352C456.355 524.323 455.384 525.294 454.413 525.294C449.558 525.294 443.732 525.294 438.877 525.294C440.819 516.555 441.79 508.787 443.732 500.049C446.645 486.455 449.558 472.861 452.471 459.268C453.442 456.355 453.442 455.384 456.355 455.384C459.267 455.384 462.18 455.384 465.093 455.384C463.151 459.268 463.151 462.181 463.151 465.094ZM484.513 461.21C484.513 470.92 483.542 480.629 483.542 491.31C483.542 501.99 482.571 512.671 482.571 523.352C482.571 525.294 481.6 526.265 479.658 526.265C475.774 526.265 471.89 526.265 468.977 526.265C467.035 526.265 466.064 526.265 466.064 523.352C468.006 510.729 468.977 498.107 470.919 485.484C471.89 476.745 472.861 468.978 473.832 460.239C473.832 458.297 474.803 456.355 477.716 457.326C478.687 457.326 480.629 457.326 481.6 457.326C484.513 456.355 484.513 456.355 484.513 461.21ZM507.816 525.294C502.961 525.294 498.106 525.294 493.251 525.294C491.309 525.294 491.309 525.294 491.309 523.352C492.28 512.671 492.28 501.99 492.28 491.31C493.251 480.629 493.251 469.949 493.251 459.268C493.251 457.326 494.222 456.355 496.164 456.355C499.077 456.355 501.99 456.355 503.932 456.355C505.874 456.355 506.845 457.326 506.845 459.268C507.816 475.774 507.816 493.252 508.787 509.758C508.787 513.642 508.787 518.497 509.758 522.381C509.758 525.294 508.787 525.294 507.816 525.294ZM533.061 525.294C531.119 525.294 529.177 525.294 527.235 525.294C524.322 525.294 521.409 526.265 519.467 525.294C517.526 524.323 518.496 520.439 518.496 517.526C517.526 498.107 516.555 478.687 515.584 459.268C515.584 457.326 515.584 457.326 517.526 457.326C520.438 457.326 524.322 456.355 526.264 457.326C528.206 458.297 527.235 463.152 528.206 465.094C531.119 484.513 533.061 503.932 535.974 522.381C535.974 525.294 535.003 525.294 533.061 525.294ZM560.248 525.294C558.306 525.294 555.393 525.294 553.451 525.294C550.538 525.294 546.655 526.265 545.684 525.294C543.742 524.323 544.713 520.439 543.742 517.526C541.8 498.107 538.887 479.658 536.945 460.239C536.945 458.297 536.945 457.326 538.887 457.326C541.8 457.326 545.684 456.355 547.626 458.297C549.567 460.239 549.567 464.123 549.567 467.036C553.451 486.455 557.335 504.903 561.219 524.323C563.161 525.294 562.19 525.294 560.248 525.294Z" fill="#0F0F0F"/>
<path d="M448.587 402.952C441.79 423.342 422.37 437.907 401.009 438.878C391.299 438.878 380.619 439.849 370.909 438.878C351.49 436.936 334.012 421.4 328.187 402.952C327.216 400.039 328.187 400.039 330.129 400.039C349.548 400.039 368.967 400.039 388.387 400.039H446.645C449.558 400.039 449.558 400.039 448.587 402.952Z" fill="#0F0F0F"/>
<path d="M446.645 435.964C444.703 440.819 443.732 444.703 442.761 449.558C441.79 458.297 438.877 467.035 437.906 476.745C434.993 492.281 431.109 507.816 428.196 522.381C428.196 524.322 427.225 525.293 425.283 525.293C399.067 525.293 372.851 525.293 346.635 525.293C339.838 525.293 335.954 521.41 334.983 515.584C334.012 507.816 334.012 500.048 333.041 493.251C331.099 470.919 330.128 448.587 328.187 426.255C328.187 425.284 328.187 425.284 328.187 423.342C334.983 432.081 343.722 438.877 353.432 443.732C361.199 446.645 368.967 448.587 376.735 448.587C386.445 448.587 396.154 449.558 405.864 448.587C423.341 446.645 436.935 438.877 447.616 425.284L448.587 424.313C449.558 428.197 448.587 431.11 446.645 435.964Z" fill="#0F0F0F"/>
<path d="M459.268 387.416C459.268 389.358 458.297 390.329 456.355 390.329C455.384 390.329 454.413 390.329 453.442 390.329H324.303C323.332 390.329 323.332 390.329 322.361 390.329C320.419 390.329 318.478 389.358 318.478 387.416C318.478 385.474 319.449 384.503 322.361 384.503C327.216 384.503 331.1 384.503 335.955 384.503H339.839C342.752 384.503 344.694 384.503 347.607 384.503H352.461C352.461 384.503 351.49 384.503 351.49 385.474C350.519 386.445 348.578 385.474 346.636 385.474C339.839 385.474 332.071 385.474 325.274 385.474C324.303 385.474 323.332 385.474 321.39 385.474C320.419 385.474 319.449 386.445 319.449 387.416C319.449 388.387 320.419 389.358 321.39 389.358C322.361 389.358 323.332 389.358 325.274 389.358H452.471C453.442 389.358 454.413 389.358 456.355 389.358C457.326 389.358 458.297 388.387 458.297 387.416C458.297 386.445 458.297 385.474 457.326 385.474C455.384 385.474 454.413 385.474 452.471 385.474H377.707C375.765 385.474 373.823 385.474 372.852 385.474C371.881 385.474 371.881 385.474 370.91 384.503H391.3C412.661 384.503 433.052 384.503 454.413 384.503C455.384 384.503 456.355 384.503 457.326 384.503C458.297 384.503 459.268 385.474 459.268 387.416Z" fill="#0F0F0F"/>
<path d="M463.151 457.326C463.151 460.239 463.151 463.152 462.18 465.093C460.239 484.513 457.326 503.932 455.384 523.352C455.384 524.322 454.413 525.293 453.442 525.293C448.587 525.293 442.761 525.293 437.906 525.293C439.848 516.555 440.819 508.787 442.761 500.048C445.674 486.455 448.587 472.861 451.5 459.268C452.471 456.355 452.471 455.384 455.384 455.384C458.297 457.326 461.209 457.326 463.151 457.326Z" fill="#0F0F0F"/>
<path d="M484.513 461.21C484.513 470.919 483.542 480.629 483.542 491.31C483.542 501.99 482.571 512.671 482.571 523.352C482.571 525.293 481.6 526.264 479.658 526.264C475.774 526.264 471.89 526.264 468.977 526.264C467.035 526.264 466.064 526.264 466.064 523.352C468.006 510.729 468.977 498.106 470.919 485.484C471.89 476.745 472.861 468.977 473.832 460.239C473.832 458.297 474.803 456.355 477.716 457.326C478.687 457.326 480.629 457.326 481.6 457.326C484.513 456.355 484.513 456.355 484.513 461.21Z" fill="#0F0F0F"/>
<path d="M503.932 330.129C503.932 331.1 503.932 332.071 503.932 333.042C503.932 353.432 503.932 372.851 503.932 393.242C503.932 396.155 501.019 398.096 498.106 396.155C497.135 396.155 497.135 395.184 497.135 395.184C497.135 394.213 497.135 393.242 497.135 393.242V237.887C497.135 235.945 498.106 234.003 501.019 234.003C503.932 234.003 503.932 235.945 503.932 237.887C503.932 252.451 503.932 266.045 503.932 280.609C503.932 281.58 503.932 282.551 503.932 283.522C503.932 284.493 503.932 284.493 503.932 285.464C503.932 284.493 502.961 284.493 502.961 283.522C502.961 281.58 502.961 280.609 502.961 278.667C502.961 266.045 502.961 254.393 502.961 241.771C502.961 240.8 502.961 238.858 502.961 237.887C502.961 236.916 502.961 235.945 501.019 235.945C500.048 235.945 499.077 236.916 499.077 237.887C499.077 238.858 499.077 239.829 499.077 241.771C499.077 291.29 499.077 341.78 499.077 391.3C499.077 392.271 499.077 393.242 499.077 393.242C499.077 394.213 500.048 395.184 501.019 395.184C501.99 395.184 502.961 394.213 502.961 393.242C502.961 392.271 502.961 391.3 502.961 390.329C502.961 371.88 502.961 354.403 502.961 335.955C501.99 333.042 501.99 331.1 503.932 330.129C503.932 329.158 503.932 328.187 503.932 328.187C503.932 329.158 503.932 329.158 503.932 330.129Z" fill="#0F0F0F"/>
<path d="M507.816 408.777C507.816 411.69 506.845 412.661 503.932 412.661C501.99 412.661 500.048 412.661 498.106 412.661C493.251 412.661 492.28 410.719 493.251 405.865C493.251 404.894 494.222 404.894 495.193 404.894C497.135 404.894 499.077 404.894 501.019 404.894C501.99 404.894 502.961 404.894 503.932 404.894C506.845 404.894 507.816 405.865 507.816 408.777Z" fill="#0F0F0F"/>
<path d="M507.816 525.294C502.961 525.294 498.106 525.294 493.252 525.294C491.31 525.294 491.31 525.294 491.31 523.352C492.281 512.672 492.281 501.991 492.281 491.31C493.252 480.63 493.252 469.949 493.252 459.268C493.252 457.326 494.222 456.355 496.164 456.355C499.077 456.355 501.99 456.355 503.932 456.355C505.874 456.355 506.845 457.326 506.845 459.268C507.816 475.775 507.816 493.252 508.787 509.759C508.787 513.643 508.787 518.497 509.758 522.381C509.758 525.294 508.787 525.294 507.816 525.294Z" fill="#0F0F0F"/>
<path d="M533.061 525.294C531.119 525.294 529.178 525.294 527.236 525.294C524.323 525.294 521.41 526.265 519.468 525.294C517.526 524.323 518.497 520.439 518.497 517.526C517.526 498.107 516.555 478.687 515.584 459.268C515.584 457.326 515.584 457.326 517.526 457.326C520.439 457.326 524.323 456.355 526.265 457.326C528.207 458.297 527.236 463.152 528.207 465.094C531.119 484.513 533.061 503.933 535.974 522.381C535.974 525.294 535.003 525.294 533.061 525.294Z" fill="#0F0F0F"/>
<path d="M546.654 443.733C547.625 446.645 547.625 447.616 543.741 447.616C514.612 447.616 485.483 447.616 456.354 447.616C453.441 447.616 452.47 446.645 453.441 444.704C456.354 432.081 468.006 422.371 480.628 422.371C493.251 422.371 505.874 422.371 518.496 422.371C523.351 422.371 527.235 423.342 531.119 425.284C534.032 427.226 535.974 427.226 538.886 424.313C536.944 427.226 535.003 428.197 533.061 426.255C525.293 421.4 516.554 422.371 508.786 422.371C500.048 422.371 490.338 422.371 481.599 422.371C469.948 422.371 458.296 431.11 455.383 442.762C454.412 445.674 454.412 446.645 458.296 446.645C486.454 446.645 514.612 446.645 542.77 446.645C545.683 446.645 546.654 446.645 545.683 442.762C544.712 438.878 545.683 436.936 548.596 435.965C544.712 437.907 545.683 440.82 546.654 443.733Z" fill="#0F0F0F"/>
<path d="M560.249 525.293C558.307 525.293 555.394 525.293 553.452 525.293C550.539 525.293 546.655 526.264 545.684 525.293C543.742 524.323 544.713 520.439 543.742 517.526C541.8 498.106 538.887 479.658 536.945 460.239C536.945 458.297 536.945 457.326 538.887 457.326C541.8 457.326 545.684 456.355 547.626 458.297C549.568 460.239 549.568 464.123 549.568 467.035C553.452 486.455 557.336 504.903 561.22 524.323C563.161 525.293 562.19 525.293 560.249 525.293Z" fill="#0F0F0F"/>
<path d="M547.028 443.846C548.014 446.962 548.014 448 544.07 448C514.489 448 484.909 448 455.328 448C452.37 448 451.384 446.962 452.37 444.885C455.328 431.385 467.16 421 479.978 421C492.797 421 505.615 421 518.433 421C523.363 421 527.308 422.038 531.252 424.115C534.21 426.192 536.182 426.192 539.14 423.077C543.084 426.192 546.042 430.346 549 435.538C545.056 437.615 546.042 440.731 547.028 443.846Z" fill="#3BA8FC"/>
<path d="M503.932 330.129C503.932 331.1 503.932 332.071 503.932 333.042C503.932 353.432 503.932 372.851 503.932 393.242C503.932 396.155 501.019 398.096 498.106 396.155C497.135 396.155 497.135 395.184 497.135 395.184C497.135 394.213 497.135 393.242 497.135 393.242V237.887C497.135 235.945 498.106 234.003 501.019 234.003C503.932 234.003 503.932 235.945 503.932 237.887C503.932 252.451 503.932 266.045 503.932 280.609C503.932 281.58 503.932 282.551 503.932 283.522C503.932 284.493 503.932 284.493 503.932 285.464C503.932 287.406 503.932 289.348 503.932 292.261C503.932 301.971 503.932 312.651 503.932 322.361C503.932 324.303 503.932 326.245 503.932 328.187C503.932 329.158 503.932 329.158 503.932 330.129Z" fill="#3BA8FB"/>
<path d="M462 387.5C462 389.833 461.007 391 459.021 391C458.028 391 457.034 391 456.041 391H323.959C322.966 391 322.966 391 321.972 391C319.986 391 318 389.833 318 387.5C318 385.167 318.993 384 321.972 384C326.938 384 330.91 384 335.876 384H339.848C342.828 384 344.814 384 347.793 384H348.786C349.779 384 349.779 384 349.779 384H391.49C413.338 384 434.193 384 456.041 384C457.034 384 458.028 384 459.021 384C461.007 384 462 385.167 462 387.5Z" fill="#D83922"/>
<path d="M447.654 435.629C445.692 440.486 444.711 444.371 443.731 449.229C442.75 457.971 439.808 466.714 438.827 476.429C435.884 491.971 431.961 507.514 429.019 522.086C429.019 524.029 428.038 525 426.077 525C399.596 525 373.115 525 346.635 525C339.769 525 335.846 521.114 334.865 515.286C333.885 507.514 333.885 499.743 332.904 492.943C330.942 470.6 329.962 448.257 328 425.914C328 424.943 328 424.943 328 423C334.865 431.743 343.692 438.543 353.5 443.4C361.346 446.314 369.192 448.257 377.038 448.257C386.846 448.257 396.654 449.229 406.461 448.257C424.115 446.314 437.846 438.543 448.634 424.943L449.615 423.971C450.596 427.857 449.615 430.771 447.654 435.629Z" fill="#F6502F"/>
<path d="M450.411 403.041C443.523 424.33 423.841 439.536 402.192 440.549C392.351 440.549 381.526 441.563 371.685 440.549C352.004 438.522 334.291 422.302 328.386 403.041C327.402 400 328.386 400 330.354 400C350.036 400 369.717 400 389.399 400H448.443C451.396 400 451.396 400 450.411 403.041Z" fill="#F6502F"/>
<path d="M507.816 525.294C502.961 525.294 498.106 525.294 493.252 525.294C491.31 525.294 491.31 525.294 491.31 523.352C492.281 512.672 492.281 501.991 492.281 491.31C493.252 480.63 493.252 469.949 493.252 459.268C493.252 457.326 494.222 456.355 496.164 456.355C499.077 456.355 501.99 456.355 503.932 456.355C505.874 456.355 506.845 457.326 506.845 459.268C507.816 475.775 507.816 493.252 508.787 509.759C508.787 513.643 508.787 518.497 509.758 522.381C509.758 525.294 508.787 525.294 507.816 525.294Z" fill="#EEEEFA"/>
<path d="M560.249 525.293C558.307 525.293 555.394 525.293 553.452 525.293C550.539 525.293 546.655 526.264 545.684 525.293C543.742 524.323 544.713 520.439 543.742 517.526C541.8 498.106 538.887 479.658 536.945 460.239C536.945 458.297 536.945 457.326 538.887 457.326C541.8 457.326 545.684 456.355 547.626 458.297C549.568 460.239 549.568 464.123 549.568 467.035C553.452 486.455 557.336 504.903 561.22 524.323C563.161 525.293 562.19 525.293 560.249 525.293Z" fill="#EEEEFA"/>
<path d="M463.151 457.326C463.151 460.239 463.151 463.152 462.18 465.093C460.239 484.513 457.326 503.932 455.384 523.352C455.384 524.322 454.413 525.293 453.442 525.293C448.587 525.293 442.761 525.293 437.906 525.293C439.848 516.555 440.819 508.787 442.761 500.048C445.674 486.455 448.587 472.861 451.5 459.268C452.471 456.355 452.471 455.384 455.384 455.384C458.297 457.326 461.209 457.326 463.151 457.326Z" fill="#EEEEFA"/>
<path d="M484.513 461.21C484.513 470.919 483.542 480.629 483.542 491.31C483.542 501.99 482.571 512.671 482.571 523.352C482.571 525.293 481.6 526.264 479.658 526.264C475.774 526.264 471.89 526.264 468.977 526.264C467.035 526.264 466.064 526.264 466.064 523.352C468.006 510.729 468.977 498.106 470.919 485.484C471.89 476.745 472.861 468.977 473.832 460.239C473.832 458.297 474.803 456.355 477.716 457.326C478.687 457.326 480.629 457.326 481.6 457.326C484.513 456.355 484.513 456.355 484.513 461.21Z" fill="#EEEEFA"/>
<path d="M533.061 525.294C531.119 525.294 529.178 525.294 527.236 525.294C524.323 525.294 521.41 526.265 519.468 525.294C517.526 524.323 518.497 520.439 518.497 517.526C517.526 498.107 516.555 478.687 515.584 459.268C515.584 457.326 515.584 457.326 517.526 457.326C520.439 457.326 524.323 456.355 526.265 457.326C528.207 458.297 527.236 463.152 528.207 465.094C531.119 484.513 533.061 503.933 535.974 522.381C535.974 525.294 535.003 525.294 533.061 525.294Z" fill="#EEEEFA"/>
<path d="M509 408.5C509 411.875 507.892 413 504.57 413C502.354 413 500.139 413 497.924 413C492.386 413 491.278 410.75 492.386 405.125C492.386 404 493.494 404 494.601 404C496.816 404 499.032 404 501.247 404C502.354 404 503.462 404 504.57 404C507.892 404 509 405.125 509 408.5Z" fill="#0E89CB"/>
<path d="M348.577 491.31C348.577 492.281 348.577 494.223 348.577 495.194C348.577 498.107 347.606 500.049 344.693 500.049C341.78 500.049 339.838 499.078 339.838 496.165C339.838 490.339 339.838 485.484 338.867 479.659C338.867 476.746 340.809 474.804 342.751 474.804C345.664 474.804 347.606 476.746 347.606 479.659C348.577 482.571 348.577 487.426 348.577 491.31Z" fill="#2D0703"/>
<path d="M535.974 421.4C535.974 421.4 547.625 428.197 550.538 441.791" stroke="#0F0F0F" stroke-width="0.8207" stroke-miterlimit="10"/>
</g>
<defs>
<filter id="filter0_d_2716_167" x="-4" y="0" width="610" height="610" filterUnits="userSpaceOnUse" color-interpolation-filters="sRGB">
<feFlood flood-opacity="0" result="BackgroundImageFix"/>
<feColorMatrix in="SourceAlpha" type="matrix" values="0 0 0 0 0 0 0 0 0 0 0 0 0 0 0 0 0 0 127 0" result="hardAlpha"/>
<feOffset dy="4"/>
<feGaussianBlur stdDeviation="2"/>
<feComposite in2="hardAlpha" operator="out"/>
<feColorMatrix type="matrix" values="0 0 0 0 0 0 0 0 0 0 0 0 0 0 0 0 0 0 0.25 0"/>
<feBlend mode="normal" in2="BackgroundImageFix" result="effect1_dropShadow_2716_167"/>
<feBlend mode="normal" in="SourceGraphic" in2="effect1_dropShadow_2716_167" result="shape"/>
</filter>
</defs>
</svg>
