<svg width="37" height="37" viewBox="0 0 37 37" fill="none" xmlns="http://www.w3.org/2000/svg"><path d="M32.375 30.0625H28.9062C28.5931 30.0625 28.3221 29.9481 28.0933 29.7192C27.8644 29.4904 27.75 29.2194 27.75 28.9062V17.3438C27.75 17.0306 27.8644 16.7596 28.0933 16.5308C28.3221 16.3019 28.5931 16.1875 28.9062 16.1875H30.0625C30.0625 12.6224 29.0688 9.80404 27.0815 7.73242C25.0942 5.66081 22.2337 4.625 18.5 4.625C14.7663 4.625 11.9058 5.66081 9.91846 7.73242C7.93115 9.80404 6.9375 12.6224 6.9375 16.1875H8.09375C8.4069 16.1875 8.6779 16.3019 8.90674 16.5308C9.13558 16.7596 9.25 17.0306 9.25 17.3438V28.9062C9.25 29.2194 9.13558 29.4904 8.90674 29.7192C8.6779 29.9481 8.4069 30.0625 8.09375 30.0625H6.9375C6.9375 31.3392 7.38916 32.4292 8.29248 33.3325C9.1958 34.2358 10.2858 34.6875 11.5625 34.6875H13.875C13.875 34.0371 14.0978 33.4891 14.5435 33.0435C14.9891 32.5978 15.5371 32.375 16.1875 32.375H18.5C19.1504 32.375 19.6984 32.5978 20.144 33.0435C20.5897 33.4891 20.8125 34.0311 20.8125 34.6694C20.8125 35.3078 20.5897 35.8558 20.144 36.3135C19.6984 36.7712 19.1504 37 18.5 37H11.5625C9.63542 37 7.9974 36.3255 6.64844 34.9766C5.29948 33.6276 4.625 31.9896 4.625 30.0625C3.34831 30.0625 2.2583 29.388 1.35498 28.0391C0.45166 26.6901 0 25.0521 0 23.125C0 21.8724 0.210775 20.7161 0.632324 19.6562C1.05387 18.5964 1.61393 17.7653 2.3125 17.1631V16.1875C2.3125 13.9954 2.74007 11.8997 3.59521 9.90039C4.45036 7.90104 5.60059 6.17871 7.0459 4.7334C8.49121 3.28809 10.2135 2.13786 12.2129 1.28271C14.2122 0.427572 16.3079 0 18.5 0C20.6921 0 22.7878 0.427572 24.7871 1.28271C26.7865 2.13786 28.5088 3.28809 29.9541 4.7334C31.3994 6.17871 32.5496 7.90104 33.4048 9.90039C34.2599 11.8997 34.6875 13.9954 34.6875 16.1875V17.1631C35.3861 17.7653 35.9461 18.5964 36.3677 19.6562C36.7892 20.7161 37 21.8724 37 23.125C37 25.0521 36.5483 26.6901 35.645 28.0391C34.7417 29.388 33.6517 30.0625 32.375 30.0625Z" fill="white"></path></svg>