<svg xmlns="http://www.w3.org/2000/svg" width="24" height="24" viewBox="0 0 24 24" fill="none"><path d="M0 19C0 21.7614 2.23858 24 5 24H19C21.7614 24 24 21.7614 24 19V5C24 2.23858 21.7614 0 19 0H5C2.23858 0 0 2.23858 0 5V19ZM5.83822 12.3096C6.62968 10.5172 8.3709 9.45102 10.2797 9.59534C10.3263 9.6 10.3728 9.60931 10.4194 9.60931C10.6382 9.60466 10.6987 9.71174 10.6941 9.93055C10.6755 10.6196 10.6801 11.3133 10.6755 12.0023C10.6755 12.0112 10.6754 12.0201 10.6752 12.029C10.6723 12.1607 10.5425 12.2577 10.4147 12.2258C9.61862 12.0396 8.76198 12.3841 8.30107 13.0778C7.85412 13.7482 7.84947 14.67 8.2871 15.2985C8.80388 16.0341 9.63725 16.3554 10.4613 16.1412C11.3831 15.8991 11.9744 15.1263 11.9744 14.1579C11.9744 10.9827 11.9744 7.81222 11.9744 4.63705C11.9744 4.3065 11.9744 4.30184 12.2956 4.30184C12.8869 4.30184 13.4735 4.31115 14.0648 4.30184C14.2417 4.29719 14.3069 4.35306 14.3209 4.52997C14.4093 5.44248 14.7538 6.2386 15.4429 6.86246C16.0528 7.41183 16.7884 7.67721 17.5891 7.77498C17.7893 7.79825 17.8452 7.86343 17.8405 8.05897C17.8266 8.68749 17.8266 9.316 17.8405 9.94452C17.8452 10.1494 17.78 10.2192 17.5752 10.2006C16.4997 10.1121 15.4894 9.82347 14.5862 9.20892C14.4992 9.14797 14.3814 9.22692 14.3814 9.33321C14.3814 9.42801 14.3814 9.51244 14.3814 9.59534C14.3814 11.0852 14.4047 12.575 14.3767 14.0648C14.3348 15.969 13.4316 17.3657 11.6904 18.1199C9.94452 18.8788 8.30107 18.5622 6.89505 17.2912C5.52163 16.0388 5.10727 13.967 5.83822 12.3096Z" fill="white"></path></svg>