<svg xmlns="http://www.w3.org/2000/svg" width="50" height="50" viewBox="0 0 50 50" fill="none">
    <path d="M36.7745 43.7026C36.7109 44.1795 36.4247 44.4497 35.9478 44.4338C35.5027 44.4179 35.2325 44.1636 35.1848 43.7026C35.1848 31.3824 35.1848 19.0623 35.2007 6.74211C35.2007 6.297 35.0258 6.21751 34.6284 6.23341C33.1023 6.24931 31.5762 6.24931 30.0341 6.23341C29.6049 6.23341 29.4619 6.34469 29.4619 6.7898C29.4778 19.0941 29.4778 31.3824 29.4778 43.6867C29.4778 44.7041 29.4778 45.7056 29.4619 46.723C29.446 47.486 29.0485 47.804 28.3173 47.645C23.4369 46.6276 18.5565 45.5784 13.6603 44.5769C13.0562 44.4497 12.468 44.402 12.309 43.6549C12.309 31.1281 12.309 18.5854 12.309 6.05854C12.309 5.86778 12.2931 5.66112 12.3249 5.47036C12.4044 4.97755 12.6111 4.65961 13.1675 4.56423C14.312 4.35757 15.4407 4.08732 16.5694 3.84887C15.1069 3.76938 13.6603 3.78528 12.1978 3.75348C11.6414 3.73759 11.546 3.92835 11.5619 4.43705C11.5778 8.60206 11.5778 12.783 11.5778 16.948C11.5778 25.8662 11.5937 34.7844 11.5937 43.7026C11.4983 44.2272 11.1803 44.4974 10.6557 44.4974C7.60353 44.4974 4.53541 44.4815 1.4832 44.4656C0.561174 44.4656 0.147853 44.2113 0.16375 43.639C0.179647 43.0985 0.577071 42.86 1.4514 42.86C4.0903 42.86 6.7292 42.8441 9.38399 42.8759C9.8291 42.8759 9.95628 42.7646 9.94038 42.3195C9.90859 41.2226 9.94038 41.2226 8.85939 41.2226C6.39536 41.2226 3.93133 41.2226 1.4673 41.2226C1.29243 41.2226 1.10167 41.2226 0.926804 41.2226C0.449895 41.1908 0.179647 40.9047 0.16375 40.4596C0.147853 39.9827 0.418101 39.6806 0.910907 39.617C1.10167 39.6011 1.30833 39.6011 1.49909 39.6011C4.1062 39.6011 6.6974 39.5852 9.3045 39.617C9.79731 39.617 9.92449 39.4899 9.92449 38.9971C9.90859 27.1538 9.90859 15.3265 9.90859 3.48324C9.90859 2.35455 10.0835 2.16379 11.2121 2.16379C13.8669 2.16379 16.5376 2.16379 19.1924 2.16379C19.4309 2.16379 19.6693 2.13199 19.9078 2.1161C20.8298 2.21148 21.7677 2.13199 22.7056 2.16379C24.0092 2.21148 25.281 2.1002 26.5368 1.76636C27.1091 1.60739 27.6973 1.51201 28.2855 1.40073C28.7147 1.32125 29.1757 1.32125 29.3506 1.79816C29.4936 2.19558 29.7321 2.16379 30.0341 2.16379C32.673 2.16379 35.3119 2.16379 37.9508 2.16379C39.0477 2.16379 39.2385 2.35455 39.2385 3.43554C39.2385 13.3553 39.2385 23.2909 39.2385 33.2106C39.2385 33.449 39.2544 33.6875 39.2703 33.9259C39.2544 35.6905 39.2703 37.455 39.2385 39.2196C39.2385 39.6488 39.4769 39.5852 39.7313 39.5852C42.3861 39.5852 45.0568 39.5852 47.7116 39.5852C48.6018 39.5852 48.9833 39.8237 48.9992 40.3801C49.0151 40.9365 48.6018 41.2067 47.6798 41.2067C45.0568 41.2067 42.4338 41.2226 39.8108 41.1908C39.3657 41.1908 39.1908 41.2862 39.2067 41.7631C39.2385 42.8441 39.2067 42.8441 40.3036 42.8441C42.863 42.8441 45.4224 42.8441 47.9818 42.8441C48.4905 42.8441 48.8403 43.019 48.9515 43.5118C49.0628 43.9887 48.6972 44.4338 48.1249 44.4497C47.4254 44.4815 46.7419 44.4656 46.0424 44.4656C43.5148 44.4815 41.0031 44.4974 38.4754 44.4974C37.9508 44.4974 37.6329 44.2272 37.5375 43.7026C37.5375 34.9592 37.5534 26.2318 37.5534 17.4885C37.5534 13.1168 37.5534 8.74513 37.5693 4.37347C37.5693 3.86476 37.4262 3.73759 36.9334 3.75348C34.6125 3.78528 32.2915 3.76938 29.9547 3.76938C29.6685 3.76938 29.4142 3.73759 29.4142 4.1668C29.3983 4.64371 29.6844 4.59602 29.9865 4.59602C31.7987 4.59602 33.5951 4.59602 35.4073 4.59602C36.5519 4.59602 36.7268 4.75499 36.7268 5.88368C36.7268 18.2833 36.7268 30.667 36.7268 43.0667C36.7586 43.2733 36.7586 43.4959 36.7745 43.7026ZM27.8086 24.4831C27.8086 17.6156 27.8086 10.7323 27.8086 3.86476C27.8086 3.1494 27.8086 3.1335 27.1091 3.29247C22.9441 4.1668 18.7791 5.05703 14.5982 5.91547C14.0736 6.02675 13.9464 6.24931 13.9464 6.74211C13.9782 12.4491 13.9782 18.1402 13.9782 23.8472C13.9782 30.0312 13.9782 36.1992 13.9782 42.3831C13.9782 42.7487 13.9941 43.0031 14.471 43.0985C18.6996 43.9569 22.9282 44.8312 27.1568 45.7533C27.7768 45.8804 27.8404 45.7056 27.8404 45.181C27.7927 38.2817 27.8086 31.3824 27.8086 24.4831Z" fill="black"></path>
    <path d="M29.4622 43.7027C29.4622 31.3985 29.4622 19.1101 29.4463 6.80588C29.4463 6.34487 29.5894 6.23359 30.0186 6.24949C31.5447 6.26538 33.0708 6.26538 34.6128 6.24949C34.9943 6.24949 35.1851 6.31307 35.1851 6.75819C35.1692 19.0783 35.1692 31.3985 35.1692 43.7186C33.2616 43.7027 31.3698 43.7027 29.4622 43.7027Z" fill="#E6E6E6"></path>
    <path d="M36.7744 43.7033C36.7744 43.4807 36.7585 43.274 36.7585 43.0515C36.7585 30.6518 36.7585 18.2681 36.7585 5.86847C36.7585 4.73979 36.5996 4.58082 35.4391 4.58082C33.6268 4.58082 31.8305 4.58082 30.0182 4.58082C29.7162 4.58082 29.43 4.62851 29.4459 4.1516C29.4459 3.70649 29.7003 3.75418 29.9864 3.75418C32.3074 3.75418 34.6284 3.77008 36.9652 3.73828C37.458 3.73828 37.6011 3.86546 37.6011 4.35826C37.5852 8.72993 37.5852 13.1016 37.5852 17.4733C37.5852 26.2166 37.5693 34.944 37.5693 43.6874C37.299 43.6397 37.0288 43.6397 36.7744 43.7033Z" fill="#E6E6E6"></path>
    <path d="M11.5777 43.6862C11.5777 34.768 11.5618 25.8499 11.5618 16.9317C11.5618 12.7667 11.5618 8.58575 11.5459 4.42075C11.5459 3.92794 11.6413 3.72128 12.1818 3.73718C13.6284 3.78487 15.075 3.75307 16.5534 3.83256C15.4248 4.08691 14.2961 4.35716 13.1674 4.56382C12.611 4.6592 12.3884 4.99304 12.3248 5.46995C12.2931 5.66071 12.309 5.86737 12.309 6.05813C12.309 18.5849 12.309 31.1276 12.309 43.6545C12.0546 43.6704 11.8161 43.6862 11.5777 43.6862Z" fill="#E6E6E6"></path>
    <path d="M27.8084 24.4825C27.8084 31.3818 27.8084 38.2651 27.8243 45.1644C27.8243 45.7049 27.7607 45.8798 27.1408 45.7367C22.9281 44.8147 18.6995 43.9404 14.455 43.0819C13.994 42.9865 13.9622 42.7322 13.9622 42.3666C13.9622 36.1826 13.9622 30.0146 13.9622 23.8307C13.9622 18.1237 13.9622 12.4326 13.9463 6.72557C13.9463 6.21687 14.0735 6.01021 14.5981 5.89893C18.7631 5.0405 22.9281 4.15027 27.109 3.27593C27.7925 3.13286 27.8084 3.13286 27.8084 3.84822C27.8084 10.7475 27.8084 17.615 27.8084 24.4825ZM24.5178 24.1327C25.0583 24.1327 25.5829 24.1486 26.1234 24.1327C26.6639 24.1168 27.0295 23.7671 27.0136 23.3061C27.0136 22.8451 26.648 22.4954 26.1075 22.4954C25.0742 22.4795 24.0568 22.4795 23.0235 22.4954C22.483 22.5113 22.1173 22.861 22.1332 23.322C22.1332 23.783 22.4989 24.1168 23.0394 24.1327C23.5322 24.1327 24.025 24.1327 24.5178 24.1327Z" fill="black"></path>
    <path d="M24.5183 24.1337C24.0255 24.1337 23.5327 24.1496 23.0399 24.1337C22.4835 24.1178 22.1338 23.784 22.1338 23.3229C22.1338 22.846 22.4835 22.4963 23.024 22.4963C24.0573 22.4804 25.0747 22.4804 26.108 22.4963C26.6644 22.4963 27.0142 22.846 27.0142 23.307C27.0142 23.7681 26.6644 24.1178 26.1239 24.1337C25.5834 24.1337 25.0588 24.1337 24.5183 24.1337Z" fill="white"></path>
</svg>