<svg xmlns="http://www.w3.org/2000/svg" width="24" height="24" viewBox="0 0 24 24" fill="none"><path fill-rule="evenodd" clip-rule="evenodd" d="M5 0C2.23858 0 0 2.23858 0 5V19C0 21.7614 2.23858 24 5 24H19C21.7614 24 24 21.7614 24 19V5C24 2.23858 21.7614 0 19 0H5ZM18.2696 7.86946C18.8196 7.46565 19.235 6.96821 19.469 6.24839C19.4137 6.27474 19.3714 6.29634 19.3374 6.31374C19.2958 6.33497 19.2666 6.34993 19.2408 6.35958C18.7435 6.54685 18.2521 6.73412 17.7606 6.92139C17.6026 6.97992 17.5032 6.9331 17.3803 6.82191C15.6485 5.2184 12.8167 6.07867 12.2959 8.38445C12.2292 8.67506 12.2204 8.97884 12.2113 9.2958C12.2068 9.45118 12.2022 9.60972 12.1906 9.77143C9.70404 9.59586 7.62701 8.51905 5.95368 6.57611C5.64944 7.09696 5.51487 7.62366 5.53242 8.18548C5.56168 9.18621 5.99464 9.99381 6.79034 10.6141C6.77705 10.6319 6.76711 10.653 6.75799 10.6723C6.75507 10.6785 6.75223 10.6845 6.74939 10.6902C6.55973 10.638 6.37007 10.5845 6.17799 10.5302C5.9612 10.4691 5.74133 10.407 5.51487 10.3449C5.47391 10.7605 5.58508 11.1584 5.7489 11.5388C6.15261 12.4635 6.86641 13.0428 7.82594 13.3296L7.80838 13.3998H6.56801C7.07703 14.7341 8.01901 15.4013 9.40565 15.5593C8.05997 16.5483 6.60312 16.9404 5 16.8351C5.06436 16.8994 5.12287 16.9463 5.18723 16.9814C6.50951 17.7597 7.9371 18.1635 9.47586 18.1869C11.3189 18.222 13.039 17.7948 14.5485 16.718C17.0995 14.898 18.3223 12.3698 18.3632 9.25643C18.3632 9.10427 18.4159 9.01649 18.527 8.917C18.8079 8.67706 19.0829 8.42542 19.3403 8.16207C19.469 8.03334 19.5784 7.88801 19.6988 7.728C19.7535 7.65523 19.8105 7.57943 19.8727 7.50077C19.5515 7.5902 19.2528 7.674 18.9628 7.75537C18.7404 7.81776 18.5231 7.87872 18.3047 7.93968L18.2696 7.86946Z" fill="white"></path></svg>