<svg width="177" height="147" viewBox="0 0 177 147" fill="none" xmlns="http://www.w3.org/2000/svg">
    <path d="M143 18H33V128H143V18Z" fill="#A90000"></path>
    <path d="M125.719 35.3223C125.719 60.4808 125.719 85.4826 125.719 110.641C100.56 110.641 75.4801 110.641 50.2432 110.641C50.2432 85.5609 50.2432 60.52 50.2432 35.3223C75.3625 35.3223 100.443 35.3223 125.719 35.3223ZM57.4537 103.509C78.0273 103.509 98.4049 103.509 118.822 103.509C118.822 82.9746 118.822 62.5969 118.822 42.1801C98.3265 42.1801 77.9097 42.1801 57.4537 42.1801C57.4537 62.6361 57.4537 83.0137 57.4537 103.509Z" fill="white"></path>
    <path d="M94.8775 80.3488C88.1764 79.7218 85.3157 74.4314 85.9427 69.8465C86.5697 65.2223 90.8803 61.8522 95.9356 62.2832C101.108 62.7143 104.047 67.1425 103.773 74.0787C107.104 75.2936 110.278 72.9423 110.435 69.0235C110.513 66.9074 110.513 64.7912 110.435 62.6751C110.396 61.4211 110.827 61.0292 112.003 61.1468C113.061 61.2252 114.158 61.1468 115.725 61.1468C115.451 65.1831 115.608 69.1411 114.785 72.9031C113.727 77.7624 109.69 80.5055 104.714 80.4272C102.833 80.388 101.618 80.819 100.481 82.5041C97.8558 86.4229 92.7613 88.735 88.6466 88.1863C88.6466 86.4621 88.6466 84.6986 88.6466 82.8568C91.0371 82.7392 93.1924 82.2298 94.8775 80.3488ZM98.6787 71.1397C98.6787 69.0235 97.1112 67.4952 94.995 67.456C92.8005 67.456 91.1547 69.0627 91.233 71.218C91.2722 73.295 92.8789 74.9017 94.9167 74.9409C97.0328 74.9409 98.6787 73.295 98.6787 71.1397Z" fill="white"></path>
    <path d="M60.8633 77.9984C62.7051 77.9984 64.4294 77.9984 66.2712 77.9984C66.3496 78.3119 66.3888 78.6646 66.4671 79.0173C67.1725 82.0347 69.0927 83.3279 72.502 83.1712C75.0101 83.0536 76.8911 81.2118 77.1262 78.3903C77.2829 76.1957 77.2438 73.9229 77.2438 71.7283C77.2438 67.4569 77.3221 63.1462 77.2046 58.8748C77.1654 57.3464 77.6748 56.8762 79.164 56.9938C80.4572 57.1113 81.7503 57.0329 83.1219 57.0329C83.2003 57.4248 83.3179 57.7383 83.3179 58.0518C83.3179 64.7137 83.3962 71.4148 83.3179 78.0768C83.2395 83.4847 78.8113 88.3048 73.6777 88.6966C67.0549 89.2453 62.0781 85.7967 60.9808 79.8794C60.9417 79.2524 60.9417 78.6646 60.8633 77.9984Z" fill="white"></path>
    <path d="M104.361 81.877C105.929 81.877 107.418 81.877 109.025 81.877C109.025 83.4053 109.025 84.8944 109.025 86.5403C107.536 86.5403 106.007 86.5403 104.361 86.5403C104.361 85.0512 104.361 83.5228 104.361 81.877Z" fill="white"></path>
</svg>