<svg width="144" height="48" viewBox="0 0 173 52" fill="none" xmlns="http://www.w3.org/2000/svg"><rect x="0.25" y="0.25" width="172.5" height="51.5" rx="9.75" stroke="white" stroke-width="0.5"></rect><path d="M64.4005 32.0048C62.4922 32.0048 60.6691 32.0048 58.8179 32.0048C58.8179 31.2165 58.8179 30.4801 58.8179 29.7075C61.4163 29.7075 64.0021 29.7075 66.6461 29.7075C66.8638 31.0863 66.8014 32.4456 66.3758 33.7762C65.4417 36.6969 62.6254 38.7518 59.5515 38.8783C55.9814 39.0253 53.1765 37.6826 51.2966 34.6406C48.8888 30.7444 50.2391 25.7197 54.2718 23.2599C57.4622 21.314 61.5061 21.6339 64.3394 24.0548C64.4355 24.1369 64.5426 24.2061 64.6083 24.2546C64.0392 24.8525 63.5184 25.3997 62.9783 25.9674C62.1028 25.2226 61.154 24.6474 60.0093 24.4645C57.5035 24.0644 55.389 24.7645 53.8828 26.8419C52.3586 28.944 52.239 31.2471 53.5097 33.4886C54.7904 35.7478 56.8539 36.7326 59.4419 36.5138C61.405 36.3477 62.9891 35.5118 63.8801 33.668C64.1193 33.1727 64.2164 32.6088 64.4005 32.0048Z" fill="white"></path><path d="M99.8298 29.233C99.8298 28.8726 99.8298 28.6265 99.8298 28.3525C100.599 28.3525 101.333 28.3525 102.098 28.3525C102.108 28.4803 102.124 28.5844 102.124 28.6885C102.12 32.0435 102.139 35.3987 102.102 38.7533C102.075 41.2003 100.631 43.0509 98.4191 43.5971C95.8681 44.2272 93.348 43.1573 92.2204 40.9631C92.1557 40.8375 92.1095 40.7023 92.0375 40.5306C92.7382 40.2392 93.4181 39.9565 94.0927 39.6759C95.3894 41.4793 96.4699 41.9507 98.0365 41.4109C99.3352 40.9634 99.8657 39.866 99.7981 37.7013C99.5692 37.882 99.3751 38.0552 99.1621 38.2005C97.6517 39.2305 95.5229 39.1398 93.8753 37.899C92.0521 36.526 91.2474 34.6684 91.7032 32.4135C92.1448 30.2289 93.497 28.774 95.666 28.1706C97.1845 27.7482 98.5596 28.0771 99.8298 29.233ZM100.033 33.457C99.9318 33.0005 99.8788 32.5267 99.7212 32.0908C99.2343 30.7452 97.8849 29.9947 96.6006 30.2186C94.9597 30.5047 93.7235 32.1383 94.1004 34.169C94.3708 35.6263 95.5201 36.6347 96.835 36.7076C98.6504 36.8084 99.9717 35.4447 100.033 33.457Z" fill="white"></path><path d="M125.175 38.5258C124.316 38.5258 123.544 38.5258 122.744 38.5258C122.744 33.2083 122.744 27.9227 122.744 22.6005C122.928 22.5872 123.085 22.5661 123.242 22.5659C125 22.5636 126.758 22.5571 128.516 22.5663C130.942 22.5792 133.09 24.1238 133.661 26.2509C134.435 29.1322 132.497 32.0318 129.452 32.4269C128.309 32.5751 127.139 32.5036 125.981 32.53C125.732 32.5356 125.484 32.5308 125.176 32.5308C125.176 33.5796 125.176 34.5719 125.176 35.564C125.175 36.5393 125.175 37.5143 125.175 38.5258ZM125.203 30.2781C125.42 30.2781 125.598 30.2788 125.776 30.278C126.81 30.2739 127.848 30.3271 128.876 30.2509C130.232 30.1504 131.317 28.9867 131.391 27.6784C131.465 26.3763 130.513 25.0854 129.121 24.926C127.84 24.7792 126.529 24.8947 125.203 24.8947C125.203 26.6547 125.203 28.426 125.203 30.2781Z" fill="white"></path><path d="M145.959 32.2818C145.984 31.3244 145.47 30.6725 144.475 30.3302C143.217 29.8974 142.068 30.2436 141.276 31.3305C140.595 31.0494 139.901 30.7631 139.165 30.4593C139.385 29.7955 139.829 29.3322 140.342 28.938C142.128 27.5657 145.271 27.6813 146.974 29.155C147.799 29.8693 148.205 30.7882 148.346 31.8443C148.375 32.0586 148.362 32.279 148.362 32.4966C148.363 34.4888 148.363 36.4811 148.363 38.5108C147.575 38.5108 146.825 38.5108 146.02 38.5108C146.02 38.1526 146.02 37.7988 146.02 37.3332C145.889 37.4513 145.836 37.4856 145.8 37.5333C144.357 39.491 141.089 39.148 139.688 37.5474C138.323 35.9883 138.644 33.6888 140.456 32.5748C142.012 31.6178 143.684 31.4837 145.413 32.069C145.583 32.1264 145.747 32.1988 145.959 32.2818ZM143.892 33.6005C143.299 33.7619 142.689 33.8656 142.131 34.0963C141.534 34.3435 141.224 34.9479 141.298 35.4923C141.383 36.1175 141.824 36.4212 142.369 36.5928C143.866 37.0641 145.56 36.1079 145.919 34.5761C145.952 34.4359 145.816 34.1407 145.697 34.0998C145.121 33.9028 144.524 33.7685 143.892 33.6005Z" fill="white"></path><path d="M90.5991 33.4642C90.5939 36.5457 88.2093 38.8935 85.0853 38.8927C81.9713 38.892 79.5733 36.5314 79.5645 33.4584C79.5557 30.3749 81.9746 27.9989 85.1175 28.0039C88.2315 28.0088 90.6044 30.3725 90.5991 33.4642ZM85.0651 36.7125C86.7993 36.7198 88.1563 35.3128 88.1764 33.4865C88.1966 31.6519 86.8172 30.1679 85.0895 30.1653C83.3893 30.1628 82.0164 31.6146 81.9974 33.4351C81.9787 35.2417 83.3487 36.7053 85.0651 36.7125Z" fill="white"></path><path d="M73.0634 38.8926C69.9517 38.8751 67.5331 36.4917 67.5371 33.4466C67.5411 30.3553 69.9958 27.9856 73.1747 28.004C76.2456 28.0219 78.6306 30.4508 78.6027 33.532C78.5752 36.5597 76.1467 38.91 73.0634 38.8926ZM76.1387 33.4578C76.1403 31.602 74.8326 30.1838 73.1029 30.1655C71.3913 30.1474 70.0146 31.5897 70.0086 33.4072C70.0024 35.3012 71.313 36.7129 73.0775 36.7127C74.8252 36.7126 76.1371 35.3177 76.1387 33.4578Z" fill="white"></path><path d="M117.493 32.1065C115.045 33.1099 112.626 34.1018 110.207 35.0935C111.079 37.1675 113.568 37.251 115.537 35.246C116.128 35.6355 116.727 36.0303 117.428 36.4919C117.064 36.8769 116.76 37.2754 116.383 37.5855C114.628 39.0285 112.652 39.3017 110.585 38.4373C108.543 37.5836 107.464 35.9445 107.36 33.748C107.252 31.4394 108.143 29.6007 110.266 28.5284C112.895 27.2013 115.871 28.3647 117.114 31.1577C117.245 31.4507 117.353 31.7538 117.493 32.1065ZM114.607 31.2644C114.083 30.3039 112.982 29.9185 111.862 30.2626C110.576 30.6583 109.67 31.9499 109.807 33.2395C111.412 32.579 113.007 31.9229 114.607 31.2644Z" fill="white"></path><path d="M148.51 28.3237C149.327 28.3237 150.071 28.2999 150.811 28.342C150.976 28.3514 151.204 28.5594 151.277 28.7299C152.13 30.7448 152.96 32.7699 153.796 34.792C153.849 34.9199 153.91 35.0448 154.014 35.275C154.407 34.3015 154.764 33.4197 155.118 32.5366C155.615 31.2954 156.128 30.06 156.595 28.8074C156.742 28.4141 156.941 28.293 157.346 28.3138C158.032 28.3489 158.722 28.3235 159.472 28.3235C159.418 28.4933 159.39 28.6273 159.336 28.75C157.25 33.4838 155.158 38.2145 153.085 42.9538C152.927 43.3141 152.743 43.4383 152.362 43.4206C151.718 43.3906 151.07 43.4123 150.327 43.4123C150.921 42.106 151.392 40.8483 152.047 39.6946C152.707 38.5299 152.682 37.5415 152.079 36.3302C150.84 33.8389 149.784 31.2557 148.654 28.7098C148.611 28.6129 148.58 28.511 148.51 28.3237Z" fill="white"></path><path d="M137.538 38.5304C136.716 38.5304 135.943 38.5304 135.139 38.5304C135.139 33.217 135.139 27.9314 135.139 22.6055C135.936 22.6055 136.72 22.6055 137.538 22.6055C137.538 27.9129 137.538 33.1976 137.538 38.5304Z" fill="white"></path><path d="M106.177 38.5342C105.371 38.5342 104.599 38.5342 103.793 38.5342C103.793 33.2255 103.793 27.9406 103.793 22.6104C104.572 22.6104 105.355 22.6104 106.177 22.6104C106.177 27.9033 106.177 33.1868 106.177 38.5342Z" fill="white"></path><path d="M94.6875 9.20691C95.4103 9.08136 95.9588 9.09692 96.3991 9.88315C97.2821 11.4596 98.3102 12.9548 99.2785 14.4833C99.362 14.6152 99.4473 14.7459 99.6219 15.0173C99.6219 13.9276 99.6219 12.9972 99.6219 12.0669C99.6219 11.126 99.6219 10.185 99.6219 9.20212C99.9703 9.20212 100.286 9.20212 100.646 9.20212C100.646 11.7332 100.646 14.276 100.646 16.8149C99.9737 16.9945 99.5163 16.8566 99.1332 16.2024C98.1651 14.5485 97.1112 12.9449 96.09 11.3222C95.9958 11.1726 95.8884 11.0313 95.7028 10.7653C95.7028 12.873 95.7028 14.8477 95.7028 16.8479C95.3364 16.8479 95.0347 16.8479 94.6875 16.8479C94.6875 14.3028 94.6875 11.7608 94.6875 9.20691Z" fill="white"></path><path d="M89.3247 9.00689C91.6428 9.01799 93.3271 10.7511 93.3071 13.1045C93.2879 15.3523 91.5284 17.0926 89.2893 17.0781C87.041 17.0635 85.2589 15.2562 85.2795 13.0115C85.3004 10.7348 87.0569 8.996 89.3247 9.00689ZM92.2277 13.0505C92.2325 11.2848 91.0174 10.0132 89.3229 10.011C87.6203 10.0088 86.3809 11.2838 86.3849 13.0335C86.389 14.7874 87.6219 16.0483 89.327 16.0421C91.0039 16.036 92.2229 14.7787 92.2277 13.0505Z" fill="white"></path><path d="M57.3758 10.2003C57.1321 10.4174 56.9046 10.6202 56.641 10.8553C56.0354 10.2016 55.2019 9.87576 54.2954 10.0431C53.6816 10.1565 53.0372 10.4281 52.5449 10.8082C51.5268 11.5942 51.3007 13.2727 51.928 14.4929C52.5301 15.6642 53.9652 16.2959 55.3018 15.9778C56.4989 15.693 57.2559 14.8478 57.2742 13.7193C56.3779 13.7193 55.4812 13.7193 54.5491 13.7193C54.5491 13.3812 54.5491 13.0996 54.5491 12.7753C55.7904 12.7753 57.0315 12.7753 58.2753 12.7753C58.723 14.4551 57.7846 15.9657 56.4425 16.6515C54.0736 17.8617 51.1762 16.5039 50.5912 13.9099C50.1899 12.1309 51.0078 10.3496 52.6381 9.45205C54.043 8.67867 56.0981 8.92238 57.1958 9.9938C57.2577 10.0543 57.3101 10.1245 57.3758 10.2003Z" fill="white"></path><path d="M59.8066 9.19043C61.3004 9.19043 62.7801 9.19043 64.3056 9.19043C64.3056 9.48205 64.3056 9.77803 64.3056 10.1437C63.196 10.1437 62.0659 10.1437 60.8913 10.1437C60.8913 10.9591 60.8913 11.708 60.8913 12.5218C61.905 12.5218 62.9273 12.5218 63.9813 12.5218C63.9813 12.8669 63.9813 13.1493 63.9813 13.5057C62.9681 13.5057 61.9475 13.5057 60.8871 13.5057C60.8871 14.3285 60.8871 15.0789 60.8871 15.8843C62.0161 15.8843 63.1494 15.8843 64.3164 15.8843C64.3164 16.2187 64.3164 16.5003 64.3164 16.8291C62.8387 16.8291 61.3463 16.8291 59.8066 16.8291C59.8066 14.304 59.8066 11.7625 59.8066 9.19043Z" fill="white"></path><path d="M70.683 9.19922C70.683 9.55705 70.683 9.82428 70.683 10.1591C69.9834 10.1591 69.306 10.1591 68.5613 10.1591C68.5613 12.4255 68.5613 14.6248 68.5613 16.8491C68.191 16.8491 67.8886 16.8491 67.5211 16.8491C67.5211 14.659 67.5211 12.4608 67.5211 10.187C66.7665 10.187 66.072 10.187 65.3496 10.187C65.3496 9.81459 65.3496 9.51796 65.3496 9.19922C67.1404 9.19922 68.9019 9.19922 70.683 9.19922Z" fill="white"></path><path d="M79.9418 10.1539C79.9418 12.4478 79.9418 14.6228 79.9418 16.836C79.5942 16.836 79.2794 16.836 78.9059 16.836C78.9059 14.6409 78.9059 12.4541 78.9059 10.2008C78.174 10.2008 77.4961 10.2008 76.7734 10.2008C76.7734 9.83799 76.7734 9.54071 76.7734 9.20117C78.5293 9.20117 80.2928 9.20117 82.0859 9.20117C82.0859 9.50434 82.0859 9.78823 82.0859 10.1539C81.3975 10.1539 80.7033 10.1539 79.9418 10.1539Z" fill="white"></path><path d="M75.506 16.8538C75.1601 16.8538 74.8564 16.8538 74.5176 16.8538C74.5176 14.3048 74.5176 11.7765 74.5176 9.2041C74.8283 9.2041 75.144 9.2041 75.506 9.2041C75.506 11.7273 75.506 14.2684 75.506 16.8538Z" fill="white"></path><path d="M13.6291 42.2926C13.1038 41.8105 13.0067 41.1732 13.0057 40.5119C13.0001 37.2107 13.0016 33.9093 13.0012 30.608C13.0005 24.5131 13 18.4183 13 12.3235C13 11.6412 13.0909 10.988 13.6187 10.4824C14.2119 11.0665 14.8062 11.6495 15.3978 12.2351C19.1194 15.9194 22.8411 19.6033 26.5595 23.2908C26.789 23.5184 26.9604 23.8111 27.2085 24.0123C28.0972 24.7328 28.8585 25.5809 29.6563 26.3928C27.327 28.7052 24.9982 31.0183 22.668 33.3298C19.6556 36.318 16.6422 39.305 13.6291 42.2926Z" fill="#56D5FE"></path><path d="M29.6568 26.393C28.8589 25.581 28.0977 24.7329 27.209 24.0124C26.9609 23.8113 26.7895 23.5185 26.5599 23.2909C22.8416 19.6034 19.1199 15.9195 15.3983 12.2352C14.8067 11.6496 14.2124 11.0667 13.6191 10.4825C14.299 9.8589 15.0569 9.75773 16.0187 10.2552C17.1264 10.828 18.2074 11.4525 19.2949 12.0636C24.5121 14.9953 29.7276 17.93 34.9432 20.8645C35.0055 20.8996 35.0616 20.9453 35.1205 20.9861C34.9338 21.1812 34.7506 21.3798 34.5598 21.5708C32.9542 23.1788 31.347 24.7854 29.7403 26.3924C29.7126 26.3972 29.6846 26.3974 29.6568 26.393Z" fill="#61F36E"></path><path d="M29.656 26.3931C29.6839 26.3976 29.7118 26.3974 29.7398 26.3926C31.5451 28.1886 33.3504 29.9846 35.1556 31.7805C28.8586 35.3236 22.563 38.8694 16.263 42.4071C15.1679 43.0221 14.3046 42.9685 13.6289 42.2929C16.6419 39.3053 19.6554 36.3183 22.6678 33.3302C24.9978 31.0186 27.3266 28.7055 29.656 26.3931Z" fill="#ED113A"></path><path d="M35.1561 31.7806C33.3508 29.9846 31.5456 28.1886 29.7402 26.3927C31.3469 24.7857 32.9539 23.1792 34.5597 21.5711C34.7505 21.3801 34.9335 21.1814 35.1204 20.9863C35.7534 21.2647 36.2877 21.7148 36.8965 22.0281C38.4553 22.8304 39.9787 23.6954 41.5037 24.5585C41.8057 24.7295 42.0731 24.9391 42.3079 25.1947C42.9702 25.9161 42.9914 26.7994 42.3609 27.5429C42.1234 27.823 41.8331 28.0412 41.5175 28.2186C39.3991 29.4097 37.277 30.5941 35.1561 31.7806Z" fill="#F6C100"></path></svg>