<svg xmlns="http://www.w3.org/2000/svg" width="24" height="24" viewBox="0 0 24 24" fill="none"><path fill-rule="evenodd" clip-rule="evenodd" d="M5 0C2.23858 0 0 2.23858 0 5V19C0 21.7614 2.23858 24 5 24H19C21.7614 24 24 21.7614 24 19V5C24 2.23858 21.7614 0 19 0H5ZM13.2578 17.1963C14.3578 17.8108 15.0924 17.9999 15.6154 17.9999C15.889 18.0028 16.1597 17.9436 16.4071 17.8266C16.8888 17.6024 17.1773 17.2727 17.4621 16.8468C17.6219 16.6047 17.759 16.3484 17.8718 16.0812C17.8833 16.0542 17.8943 16.0298 17.9042 16.0075L17.9061 16.0031C17.9654 15.8692 18.0531 15.6707 17.9578 15.4183C17.8937 15.2487 17.7627 15.0976 17.5278 14.8608C17.0447 14.3736 15.9433 13.7171 15.4611 13.4739L15.4569 13.4717C15.0897 13.2866 14.8672 13.1744 14.6075 13.1744H14.6059C14.3064 13.1744 14.0808 13.3247 13.7952 13.5371C13.759 13.5637 13.7241 13.5904 13.69 13.6164C13.6841 13.621 13.6781 13.6255 13.6722 13.63C13.3958 13.8411 13.3167 13.8877 13.1726 13.8569C12.8937 13.7974 12.0905 13.3801 11.3583 12.6497C10.6261 11.9192 10.1805 11.0923 10.1208 10.8145C10.0913 10.6763 10.1361 10.5989 10.34 10.3311L10.3439 10.3258C10.3764 10.283 10.4099 10.2389 10.4436 10.1928C10.6309 9.93757 10.7852 9.70105 10.7852 9.39435C10.785 9.13298 10.6764 8.89987 10.5123 8.54738L10.5111 8.54496C10.2657 8.01995 9.60052 6.95092 9.11372 6.47092C8.87635 6.23654 8.72471 6.10609 8.55486 6.04234C8.30034 5.94591 8.09941 6.03618 7.96679 6.09591C7.94455 6.10582 7.91964 6.11681 7.89285 6.12832C7.62511 6.24019 7.36826 6.37648 7.12555 6.53547C6.69823 6.82074 6.36762 7.10816 6.14365 7.5887C5.95557 7.99076 5.78733 8.93148 6.77431 10.7261C7.64797 12.3156 8.27221 13.1455 9.55497 14.4272C10.8854 15.7539 11.9201 16.4463 13.2578 17.1963Z" fill="white"></path></svg>