<svg xmlns="http://www.w3.org/2000/svg" width="50" height="50" viewBox="0 0 50 50" fill="none">
    <path d="M43.934 48.7391H7.31613C5.54268 48.7391 4.10645 47.2885 4.10645 45.5128V18.4395H47.1437V45.5253C47.1437 47.2885 45.7074 48.7391 43.934 48.7391Z" fill="#E6E6E6"></path>
    <path d="M43.8965 12.7441H8.63997C6.14216 12.7441 4.10645 14.7825 4.10645 17.296V18.534H47.1437V16.0205C47.1437 14.2072 45.6949 12.7441 43.8965 12.7441Z" fill="#E6E6E6"></path>
    <path d="M37.626 13.2326C37.626 10.9691 37.626 8.70573 37.626 6.44232C37.626 5.95463 37.4762 5.57948 36.9641 5.3919C33.9792 4.30397 31.0068 3.20352 28.0344 2.10308C27.2976 1.82797 26.5233 1.6404 25.8364 1.24023C25.7365 1.24023 25.649 1.24023 25.5616 1.24023C24.4876 1.6404 23.4135 2.05306 22.3394 2.45322C20.6659 3.07847 18.9924 3.69122 17.3064 4.31647C17.3438 4.35399 17.3688 4.3915 17.3938 4.42902C17.3813 4.3915 17.3563 4.35399 17.3064 4.31647C16.3822 4.6416 15.458 4.97924 14.5338 5.30437C13.8094 5.55447 13.6596 5.76705 13.6596 6.54236C13.6596 8.78076 13.6471 11.0067 13.6471 13.2451C13.6471 15.1708 13.6471 17.1091 13.6471 19.0349C13.6096 19.7977 13.6596 20.5605 13.772 21.3108C14.0467 23.2241 14.6212 25.0373 15.6078 26.7005C16.7818 28.6763 18.318 30.3019 20.2538 31.5274C21.9023 32.5653 23.7257 33.2781 25.4617 34.1535C25.5741 34.2035 25.6865 34.266 25.8114 34.2035C26.9104 33.6408 28.0594 33.2156 29.1085 32.5528C30.3949 32.0651 31.5314 31.3273 32.543 30.4395C34.0292 29.1514 35.2906 27.6508 36.1523 25.8501C36.9391 24.1744 37.4512 22.4362 37.5511 20.573C37.5761 20.0603 37.6135 19.5476 37.6385 19.0349C37.626 17.0966 37.626 15.1708 37.626 13.2326Z" fill="black"></path>
    <path d="M24.4252 21.4957C24.113 21.5207 23.8257 21.4081 23.5634 21.2205C22.8516 20.6828 22.1522 20.1451 21.4403 19.6074C21.1406 19.3823 21.0531 19.1322 21.2904 18.8196C21.6526 18.3444 22.0023 17.8692 22.3645 17.4065C22.6018 17.0939 22.889 17.0314 23.2013 17.3065C23.2137 17.319 23.2262 17.319 23.2387 17.3315C24.2753 18.1693 24.2628 17.9317 24.9372 17.0564C26.0862 15.5683 27.2352 14.0677 28.3842 12.5671C28.7214 12.1294 28.8588 12.1044 29.3084 12.4295C29.758 12.7546 30.2076 13.1048 30.6447 13.4424C30.9569 13.68 30.9694 13.9551 30.7321 14.2552C29.0211 16.4936 27.2977 18.732 25.5742 20.9704C25.2994 21.3581 24.9123 21.5207 24.4252 21.4957Z" fill="white"></path>
    <path d="M40.3886 43.4843H10.877C10.29 43.4843 9.81543 43.0091 9.81543 42.4214V39.7953C9.81543 39.2076 10.29 38.7324 10.877 38.7324H40.3886C40.9756 38.7324 41.4502 39.2076 41.4502 39.7953V42.4214C41.4502 43.0091 40.9756 43.4843 40.3886 43.4843Z" fill="black"></path>
    <path d="M38.1536 35.0556C36.6924 35.0556 35.2187 35.0556 33.7575 35.0556C33.133 35.0556 32.9082 34.8806 32.9082 34.3929C32.9082 33.8927 33.183 33.6426 33.7575 33.6426C36.7174 33.6426 39.6898 33.6426 42.6497 33.6426C42.9993 33.6426 43.2741 33.7301 43.424 34.1053C43.5489 34.4429 43.4365 34.668 43.2241 34.9056C43.0743 35.0681 42.8869 35.0431 42.6996 35.0431C41.1759 35.0556 39.6648 35.0556 38.1536 35.0556Z" fill="#A7D2D7"></path>
    <path d="M10.4238 33.6426C12.8717 33.6426 15.3195 33.6426 17.7799 33.6426C18.2794 33.6426 18.5667 33.8927 18.5792 34.3429C18.5917 34.8556 18.4043 35.0431 17.8798 35.0431C15.6318 35.0431 13.3837 35.0431 11.1357 35.0431C10.8984 35.0431 10.6736 35.0431 10.4363 35.0431L10.4238 35.0306C10.4238 34.5805 10.4238 34.1178 10.4238 33.6426Z" fill="#A7D2D7"></path>
    <path d="M10.4146 30.6319C9.90251 30.782 9.36548 30.732 8.85343 30.732C8.35387 30.732 8.01666 30.4318 8.00418 30.0067C7.99169 29.644 8.41631 29.2564 8.85343 29.2439C9.37797 29.2314 9.90251 29.2189 10.4271 29.3439C10.6519 29.7691 10.7143 30.2068 10.4146 30.6319Z" fill="#8EBAC5"></path>
    <path d="M10.4149 26.2255C9.79046 26.4256 9.15352 26.3256 8.52907 26.3006C8.20435 26.2881 8.01702 25.9879 8.00453 25.6753C7.99204 25.3127 8.16689 24.9625 8.56654 24.9375C9.1785 24.9 9.80295 24.825 10.4024 25.0125C10.6647 25.4252 10.7147 25.8254 10.4149 26.2255Z" fill="#8EBAC5"></path>
    <path d="M10.4275 33.6551C10.4275 34.1177 10.4275 34.5929 10.4275 35.0556C9.86554 35.0556 9.30354 35.0556 8.74153 35.0556C8.32939 35.0556 7.99219 34.743 7.99219 34.3929C7.99219 33.9677 8.27944 33.6676 8.72904 33.6551C9.30354 33.6301 9.86554 33.6426 10.4275 33.6551Z" fill="#8EBAC5"></path>
    <path d="M17.8562 35.0314H8.72673C8.33957 35.0314 8.02734 34.7188 8.02734 34.3311C8.02734 33.9435 8.33957 33.6309 8.72673 33.6309H17.8562C18.2434 33.6309 18.5556 33.9435 18.5556 34.3311C18.5556 34.7188 18.2434 35.0314 17.8562 35.0314Z" fill="black"></path>
    <path d="M42.7586 35.0314H33.6291C33.2419 35.0314 32.9297 34.7188 32.9297 34.3311C32.9297 33.9435 33.2419 33.6309 33.6291 33.6309H42.7586C43.1457 33.6309 43.4579 33.9435 43.4579 34.3311C43.4579 34.7188 43.1457 35.0314 42.7586 35.0314Z" fill="black"></path>
    <path d="M9.93817 30.6759H8.72673C8.33957 30.6759 8.02734 30.3633 8.02734 29.9757C8.02734 29.588 8.33957 29.2754 8.72673 29.2754H9.93817C10.3253 29.2754 10.6376 29.588 10.6376 29.9757C10.6376 30.3633 10.3253 30.6759 9.93817 30.6759Z" fill="black"></path>
    <path d="M14.6471 30.6759H12.9611C12.5739 30.6759 12.2617 30.3633 12.2617 29.9757C12.2617 29.588 12.5739 29.2754 12.9611 29.2754H14.6471C15.0343 29.2754 15.3465 29.588 15.3465 29.9757C15.359 30.3633 15.0343 30.6759 14.6471 30.6759Z" fill="black"></path>
    <path d="M38.6266 30.6759H36.9406C36.5534 30.6759 36.2412 30.3633 36.2412 29.9757C36.2412 29.588 36.5534 29.2754 36.9406 29.2754H38.6266C39.0138 29.2754 39.326 29.588 39.326 29.9757C39.326 30.3633 39.0138 30.6759 38.6266 30.6759Z" fill="black"></path>
    <path d="M9.96392 26.3615H8.71501C8.32785 26.3615 8.01562 26.0489 8.01562 25.6612C8.01562 25.2736 8.32785 24.9609 8.71501 24.9609H9.96392C10.3511 24.9609 10.6633 25.2736 10.6633 25.6612C10.6633 26.0489 10.3511 26.3615 9.96392 26.3615Z" fill="black"></path>
</svg>