<svg width="313" height="38" viewBox="0 0 313 38" fill="none" xmlns="http://www.w3.org/2000/svg"><path d="M234.809 22.7201C253.273 21.0315 271.924 19.7242 290.772 19.1919C291.826 19.1532 292.95 18.6672 294.045 19.6418C294.159 20.3391 293.664 20.6969 293.332 21.079C290.598 24.1895 287.815 27.2794 285.131 30.4103C283.109 32.7769 283.427 35.2052 285.803 36.8423C288.146 38.4221 291.028 38.1465 293.231 35.8985C299.568 29.389 304.882 22.1509 311.087 15.5432C313.698 12.7284 311.576 9.50717 306.788 8.12437C304.516 7.48405 302.313 6.95849 300.057 6.28122C294.659 4.55891 289.277 2.79967 283.809 1.52468C282.503 1.19865 281.148 0.852201 279.811 0.600073C278.262 0.303175 276.82 0.440989 276.265 1.63994C275.694 2.87585 276.693 3.94089 277.981 4.86596C279.318 5.81145 280.797 6.55569 282.337 7.1521C284.63 8.01804 286.889 8.82658 289.28 9.73338C288.5 10.3624 287.489 10.159 286.662 10.2055C278.604 10.5842 270.543 10.8316 262.571 11.4194C237.07 13.3907 211.708 15.7227 186.186 17.4683C154.148 19.6269 62.3657 22.2815 31.0542 26.3016C22.1054 27.4367 13.0859 28.3258 4.51232 30.2234C3.43064 30.4673 2.38279 30.7685 1.33494 31.0698C0.738813 31.2554 0.357885 31.6171 0.438054 32.257C0.58588 33.0117 1.19765 33.4825 2.06442 33.7559C3.94549 34.3641 5.81092 34.3158 7.62717 34.2471C20.9709 33.638 34.2993 33.0658 47.4184 31.8867C65.768 30.1942 144.155 28.6904 162.747 27.6621C186.884 26.3374 210.953 24.8978 234.809 22.7201Z" fill="white"></path></svg>