<svg width="88" height="35" viewBox="0 0 88 35" fill="none" xmlns="http://www.w3.org/2000/svg">
    <path d="M41.9193 25.6143H40.9681C36.4671 25.6143 33.3701 23.0835 33.3701 19.6016C33.3701 16.2272 35.833 13.6568 42.7969 13.6568H44.4501V13.4133C44.4501 10.741 43.1819 9.93136 40.368 9.93136C36.954 9.93136 35.0573 11.2336 34.3553 12.1111H34.1797V10.5938C34.1797 8.48196 36.0764 5.95117 41.0757 5.95117C45.2994 5.95117 49.0927 7.92145 49.0927 14.4607V18.8202C49.0984 22.8344 46.1429 25.6143 41.9193 25.6143ZM44.4897 17.0311H42.8025C39.213 17.0311 38.1939 17.8747 38.1939 19.4204C38.1939 20.8981 39.3885 21.7757 41.4664 21.7757C43.5046 21.7757 44.4897 20.7905 44.4897 18.8542V17.0311Z" fill="black"></path>
    <path d="M66.4405 25.6023C64.4476 25.6023 63.2077 24.4643 63.2077 22.4034V14.5789C63.2077 11.448 61.5035 10.2081 59.403 10.2081C57.9083 10.2081 55.955 11.3461 55.955 14.7261V25.6079H54.3867C52.1447 25.6079 51.1143 24.3624 51.1143 22.4091V0H52.609C54.885 0 55.989 1.27955 55.989 3.05733V8.5322C56.7024 7.3942 58.3329 5.97311 60.1504 5.97311C65.093 5.97311 68.0088 8.92286 68.0088 14.3638V25.5966H66.4405V25.6023Z" fill="black"></path>
    <path d="M72.2998 5.31549C71.0543 5.31549 70.0352 4.26808 70.0352 3.0225C70.0352 1.77692 71.0486 0.757812 72.2998 0.757812C73.5454 0.757812 74.5928 1.77126 74.5928 3.0225C74.5928 4.27374 73.5454 5.31549 72.2998 5.31549Z" fill="black"></path>
    <path d="M74.7115 19.2774C74.7115 19.2377 74.7115 19.1924 74.7115 19.1528V10.1903C74.7115 7.77277 73.4319 6.63477 71.2975 6.63477H69.9443V19.6114C69.9443 23.1387 71.6202 25.1939 74.7115 25.5336V19.2774Z" fill="black"></path>
    <path d="M84.0199 6.0918C78.9697 6.0918 76.9428 9.75493 76.9428 13.5936V21.9786C76.9371 21.9786 76.9314 21.9786 76.9258 21.9786V22.2333C76.9258 24.0847 78.4261 25.5851 80.2775 25.5851C81.1211 25.5851 81.7439 25.5851 81.7439 25.5851V14.4485C81.7439 11.5327 82.9159 10.3607 85.0503 10.3607C86.2959 10.3607 87.1112 10.6438 87.8246 10.9269H88.0001V9.22273C88.0001 7.76766 86.9697 6.0918 84.0199 6.0918Z" fill="black"></path>
    <path d="M46.3977 32.3279C46.2052 32.3731 45.99 32.3958 45.7466 32.3958C45.4522 32.3958 45.1974 32.3505 44.9936 32.2656C44.7841 32.1806 44.6199 32.0561 44.484 31.8919C44.3538 31.7334 44.2519 31.5352 44.1953 31.3087C44.133 31.0823 44.1047 30.8332 44.1047 30.5614C44.1047 29.9556 44.2406 29.4913 44.5067 29.1743C44.7728 28.8572 45.1578 28.6987 45.6617 28.6987C45.8598 28.6987 46.0523 28.7157 46.2278 28.7553C46.4033 28.7949 46.5619 28.8459 46.6977 28.9082L46.9016 28.1438C46.6921 28.0589 46.4769 27.9966 46.2505 27.957C46.024 27.9174 45.7975 27.9004 45.5711 27.9004C45.2031 27.9004 44.869 27.9683 44.5689 28.0986C44.2689 28.2288 44.0141 28.4156 43.8103 28.6534C43.6008 28.8912 43.4423 29.1686 43.329 29.4913C43.2158 29.814 43.1592 30.1707 43.1592 30.5557C43.1592 30.9407 43.2101 31.2974 43.312 31.6145C43.414 31.9315 43.5725 32.209 43.782 32.4411C43.9915 32.6732 44.2519 32.8544 44.5576 32.9846C44.8634 33.1148 45.22 33.1771 45.6277 33.1771C45.7579 33.1771 45.8881 33.1714 46.0297 33.1545C46.1712 33.1375 46.3014 33.1205 46.4203 33.0978C46.5449 33.0752 46.6525 33.0469 46.7487 33.0186C46.845 32.9903 46.9186 32.9563 46.9695 32.928L46.845 32.175C46.743 32.2316 46.5902 32.2826 46.3977 32.3279Z" fill="black"></path>
    <path d="M51.6059 28.6368C51.3964 28.4047 51.1473 28.2235 50.8529 28.0989C50.5642 27.9744 50.2471 27.9121 49.9018 27.9121C49.5621 27.9121 49.245 27.9744 48.9506 28.0989C48.6618 28.2235 48.4071 28.4047 48.1976 28.6368C47.9881 28.8689 47.8239 29.1464 47.7107 29.4747C47.5918 29.8031 47.5352 30.1598 47.5352 30.5561C47.5352 30.9581 47.5918 31.3205 47.7107 31.6432C47.8296 31.9659 47.9881 32.2433 48.1976 32.4754C48.4071 32.7076 48.6562 32.8888 48.9506 33.0133C49.2393 33.1379 49.5564 33.2001 49.9018 33.2001C50.2415 33.2001 50.5585 33.1379 50.8529 33.0133C51.1417 32.8888 51.3964 32.7076 51.6059 32.4754C51.8154 32.2433 51.9796 31.9659 52.0928 31.6432C52.2117 31.3205 52.2683 30.9581 52.2683 30.5561C52.2683 30.1598 52.2117 29.8031 52.0928 29.4747C51.9796 29.1464 51.8154 28.8689 51.6059 28.6368ZM50.9492 31.9036C50.6944 32.2377 50.349 32.4018 49.9074 32.4018C49.4658 32.4018 49.1204 32.2377 48.8657 31.9036C48.6109 31.5696 48.4807 31.1223 48.4807 30.5505C48.4807 29.9843 48.6052 29.5314 48.8657 29.1973C49.1204 28.8633 49.4658 28.6991 49.9074 28.6991C50.349 28.6991 50.6944 28.8633 50.9492 29.1973C51.2039 29.5314 51.3342 29.9786 51.3342 30.5505C51.3285 31.1223 51.2039 31.5752 50.9492 31.9036Z" fill="black"></path>
    <path d="M60.0366 28.5808C59.895 28.377 59.7082 28.2128 59.4591 28.0995C59.2156 27.9863 58.8986 27.9297 58.5079 27.9297C58.3097 27.9297 58.1229 27.9523 57.9474 27.992C57.7719 28.0316 57.6133 28.0826 57.4718 28.1392C57.3303 28.1958 57.2114 28.2524 57.1151 28.309C57.0189 28.3656 56.9453 28.4109 56.9 28.4449C56.7528 28.2751 56.5659 28.1505 56.3451 28.0599C56.1243 27.975 55.8525 27.9297 55.5298 27.9297C55.0826 27.9297 54.6919 27.958 54.3522 28.0146C54.0125 28.0712 53.7407 28.1278 53.5312 28.1788V33.0705H54.4315V28.8186C54.4598 28.8129 54.5107 28.8016 54.5843 28.7903C54.6636 28.7789 54.7485 28.7676 54.8391 28.7563C54.9354 28.745 55.0316 28.7393 55.1335 28.7337C55.2354 28.728 55.3317 28.7223 55.4223 28.7223C55.6374 28.7223 55.8129 28.7563 55.9488 28.8242C56.0903 28.8922 56.1979 28.9997 56.2772 29.1413C56.3564 29.2828 56.4131 29.4583 56.447 29.6735C56.481 29.8886 56.498 30.1434 56.498 30.4378V33.0705H57.3982V30.2397C57.3982 30.0189 57.3869 29.8094 57.3586 29.6112C57.3303 29.4131 57.2963 29.2262 57.2397 29.0564C57.3133 28.9941 57.4435 28.9205 57.6417 28.8412C57.8398 28.762 58.0889 28.7223 58.3947 28.7223C58.6155 28.7223 58.791 28.7563 58.9325 28.8242C59.0741 28.8922 59.1816 28.9997 59.2609 29.1413C59.3402 29.2828 59.3968 29.4583 59.4251 29.6735C59.4534 29.8886 59.4704 30.1434 59.4704 30.4378V33.0705H60.3706V30.2397C60.3706 29.9056 60.348 29.5942 60.297 29.3111C60.2687 29.0281 60.1724 28.7846 60.0366 28.5808Z" fill="black"></path>
    <path d="M65.6309 28.6374C65.4101 28.4109 65.144 28.2354 64.8382 28.1165C64.5268 27.992 64.1815 27.9297 63.7908 27.9297C63.3718 27.9297 63.0038 27.958 62.6811 28.0203C62.3641 28.0826 62.0923 28.1392 61.8828 28.1901V34.8653H62.783V32.8497C62.8906 32.9233 63.0604 32.9969 63.2813 33.0705C63.5021 33.1498 63.7625 33.1894 64.0512 33.1894C64.4136 33.1894 64.7363 33.1271 65.0137 32.9969C65.2968 32.8667 65.5346 32.6855 65.7271 32.4534C65.9196 32.2213 66.0668 31.9438 66.1687 31.6211C66.2706 31.2984 66.3216 30.9474 66.3216 30.5624C66.3216 30.1547 66.2593 29.7867 66.1404 29.464C66.0159 29.1413 65.846 28.8639 65.6309 28.6374ZM65.3025 31.2871C65.2515 31.5079 65.1666 31.706 65.0534 31.8702C64.9345 32.0344 64.7873 32.1646 64.6004 32.2552C64.4136 32.3515 64.1928 32.3968 63.938 32.3968C63.6946 32.3968 63.4681 32.3571 63.2586 32.2722C63.0491 32.1873 62.8963 32.1024 62.783 32.0118V28.8356C62.8736 28.8073 62.9925 28.7846 63.1454 28.7676C63.2982 28.7506 63.5077 28.7393 63.7795 28.7393C64.2664 28.7393 64.6514 28.8978 64.9401 29.2149C65.2289 29.532 65.3761 29.9849 65.3761 30.5737C65.3761 30.8228 65.3534 31.0663 65.3025 31.2871Z" fill="black"></path>
    <path d="M70.7321 28.45C70.5793 28.2801 70.3811 28.1442 70.132 28.0537C69.8829 27.9574 69.5771 27.9121 69.2148 27.9121C68.8977 27.9121 68.6033 27.9348 68.3316 27.9857C68.0598 28.0367 67.8673 28.082 67.7484 28.1386L67.856 28.8859C67.9636 28.8406 68.1334 28.7953 68.3542 28.7557C68.575 28.7161 68.8355 28.6934 69.1355 28.6934C69.3677 28.6934 69.5545 28.7274 69.7017 28.7953C69.8489 28.8633 69.9621 28.9539 70.0471 29.0671C70.132 29.1803 70.1886 29.3106 70.2226 29.4521C70.2566 29.5993 70.2735 29.7465 70.2735 29.8937V30.1428C70.2452 30.1372 70.1999 30.1258 70.1377 30.1145C70.0754 30.1032 69.9961 30.0862 69.9112 30.0692C69.8263 30.0522 69.73 30.0409 69.6338 30.0296C69.5375 30.0183 69.4413 30.0126 69.3507 30.0126C69.0676 30.0126 68.7958 30.0409 68.5354 30.0975C68.275 30.1541 68.0485 30.2447 67.856 30.3693C67.6635 30.4938 67.5106 30.6524 67.3974 30.8562C67.2842 31.0544 67.2275 31.2978 67.2275 31.5752C67.2275 31.864 67.2785 32.1131 67.3747 32.3226C67.471 32.5321 67.6069 32.6963 67.7824 32.8208C67.9579 32.9454 68.1617 33.036 68.4052 33.0982C68.643 33.1549 68.9034 33.1832 69.1922 33.1832C69.3903 33.1832 69.5941 33.1775 69.798 33.1605C70.0018 33.1435 70.1886 33.1265 70.3641 33.1096C70.5396 33.0926 70.6925 33.0699 70.834 33.0473C70.9756 33.0246 71.0832 33.0077 71.1568 32.9963V29.8484C71.1568 29.5653 71.1228 29.3049 71.0605 29.0671C70.9869 28.8236 70.8793 28.6198 70.7321 28.45ZM70.2679 32.3566C70.1603 32.3849 70.0188 32.4018 69.8546 32.4075C69.6904 32.4188 69.5035 32.4245 69.2884 32.4245C68.9317 32.4245 68.6543 32.3622 68.4448 32.2377C68.2353 32.1131 68.1334 31.8866 68.1334 31.5639C68.1334 31.3884 68.173 31.2469 68.258 31.1449C68.3429 31.0374 68.4448 30.9524 68.575 30.8958C68.6996 30.8336 68.8411 30.7939 68.994 30.7769C69.1469 30.76 69.2884 30.7486 69.4243 30.7486C69.6338 30.7486 69.8093 30.7599 69.9508 30.7826C70.098 30.8052 70.1999 30.8336 70.2679 30.8675V32.3566Z" fill="black"></path>
    <path d="M76.2803 28.5751C76.1218 28.3713 75.9123 28.2128 75.6462 28.0995C75.3801 27.9863 75.0461 27.9297 74.6498 27.9297C74.2025 27.9297 73.8118 27.958 73.4665 28.0146C73.1268 28.0712 72.8493 28.1278 72.6455 28.1788V33.0705H73.5457V28.8186C73.5797 28.8129 73.6306 28.8016 73.7042 28.7903C73.7778 28.7789 73.8628 28.7676 73.9534 28.7563C74.0496 28.745 74.1459 28.7393 74.2478 28.7337C74.3497 28.728 74.4516 28.7223 74.5478 28.7223C74.7856 28.7223 74.9895 28.7506 75.148 28.8129C75.3122 28.8752 75.4367 28.9714 75.533 29.1073C75.6292 29.2432 75.6972 29.4187 75.7425 29.6395C75.7821 29.8603 75.8047 30.1264 75.8047 30.4322V33.0649H76.705V30.234C76.705 29.8943 76.671 29.5772 76.6087 29.2942C76.5521 29.0224 76.4389 28.7789 76.2803 28.5751Z" fill="black"></path>
    <path d="M80.4526 30.0923C80.2714 30.7604 80.0563 31.4285 79.8128 32.1079C79.6599 31.7795 79.5071 31.4341 79.3655 31.0831C79.224 30.7264 79.0881 30.3754 78.9692 30.0187C78.8447 29.662 78.7371 29.3167 78.6352 28.9826C78.5333 28.6486 78.4483 28.3315 78.3804 28.0428H77.4122C77.6444 28.9317 77.9388 29.8149 78.2898 30.6811C78.6408 31.5474 79.0202 32.374 79.4278 33.144C79.2636 33.5007 79.0881 33.7554 78.8843 33.914C78.6861 34.0725 78.4087 34.1518 78.052 34.1518C77.9444 34.1518 77.8312 34.1348 77.718 34.1065C77.6047 34.0782 77.5142 34.0442 77.4406 34.0159L77.2764 34.7406C77.3047 34.7519 77.3443 34.7689 77.4066 34.7915C77.4689 34.8085 77.5368 34.8312 77.6104 34.8425C77.684 34.8595 77.7633 34.8708 77.8369 34.8821C77.9161 34.8934 77.9897 34.8991 78.0577 34.8991C78.3238 34.8991 78.5616 34.8651 78.7711 34.8029C78.9805 34.7406 79.1674 34.6387 79.3372 34.5028C79.5071 34.3669 79.6599 34.1971 79.7958 33.9819C79.9317 33.7724 80.0676 33.5233 80.1978 33.2289C80.5262 32.4646 80.8319 31.6493 81.1207 30.7717C81.4038 29.8942 81.6642 28.9826 81.8963 28.0371H80.9678C80.8036 28.7392 80.6281 29.4242 80.4526 30.0923Z" fill="black"></path>
    <path d="M12.9261 13.6448C12.9261 13.6448 9.47809 9.65329 6.55664 12.5011L15.6777 22.0864L32.3005 3.91797L15.5644 16.1416L12.9261 13.6448Z" fill="black"></path>
    <path d="M21.6614 8.60567C22.3692 8.60567 23.0033 8.74721 23.5468 9.03596L28.0252 5.89371C26.4512 4.56887 24.3621 3.91211 22.0521 3.91211C19.7025 3.91211 17.5567 5.03879 16.2715 6.74297C17.1377 7.98288 17.8058 9.50588 18.2757 11.312C18.7457 9.52287 19.9969 8.60567 21.6614 8.60567Z" fill="black"></path>
    <path d="M25.5566 13.2139C25.5623 13.3441 25.5623 13.48 25.5623 13.6159V21.8197C25.5623 24.3448 26.706 25.6867 29.5878 25.6867H30.89V12.9082C30.89 11.0228 30.505 9.43755 29.8256 8.15234L25.5566 13.2139Z" fill="black"></path>
    <path d="M12.6256 11.9123C13.1522 12.3539 15.7056 14.5337 15.7056 14.5337L17.7834 13.0786C17.2739 10.2251 16.3227 8.00573 14.9356 6.44309C13.4126 4.72193 11.6461 4.15576 10.3723 3.96892C10.0779 3.93495 9.77212 3.91797 9.46639 3.91797C3.03468 3.91797 0 7.78492 0 13.5825V21.826C0 24.2718 1.65888 25.6929 3.82732 25.6929H5.24841V13.1466C5.24841 10.2251 6.78839 8.61153 8.83794 8.61153C10.7459 8.60587 12.1727 9.61365 12.6256 11.9123Z" fill="black"></path>
</svg>