<svg xmlns="http://www.w3.org/2000/svg" width="176" height="54" viewBox="0 0 176 54" fill="none">
    <rect x="0.25" y="0.25" width="174.785" height="53.4337" rx="9.75" fill="white" stroke="white" stroke-width="0.5"></rect>
    <path d="M41.4439 18.8646C36.0061 22.4542 36.8806 30.0298 42.3856 32.3832C42.0559 33.1744 41.8174 34.0226 41.3768 34.7477C40.4041 36.3486 39.399 37.94 38.2754 39.4361C37.299 40.7361 35.9593 41.5364 34.2372 41.3503C33.685 41.2906 33.099 41.1936 32.6113 40.9485C30.2365 39.7555 27.9055 39.8063 25.5222 40.9429C24.2622 41.5438 22.8865 41.7689 21.6586 40.9078C20.8099 40.3127 20.0211 39.5775 19.3618 38.7761C16.7205 35.5659 15.1478 31.8645 14.6532 27.7387C14.2865 24.6797 14.6079 21.718 16.4544 19.1159C17.9888 16.9533 20.1071 15.7546 22.7565 15.5566C24.0859 15.4574 25.3312 15.8801 26.498 16.4419C27.9397 17.1361 29.2901 17.153 30.7463 16.4557C32.704 15.5183 34.7678 15.1447 36.9291 15.7351C38.6099 16.1942 40.0285 17.0492 41.1236 18.4171C41.2378 18.56 41.3371 18.7148 41.4439 18.8646Z" fill="black"></path>
    <path d="M74.5947 39.7261C74.5947 41.9972 74.5947 44.1342 74.5947 46.304C73.6194 46.304 72.6913 46.304 71.6816 46.304C71.6816 40.2956 71.6816 34.3063 71.6816 28.2785C72.4585 28.2785 73.2735 28.2785 74.13 28.2785C74.1904 28.9001 74.2496 29.5089 74.3049 30.0777C74.8578 29.5978 75.3561 29.0172 75.9799 28.6504C78.3956 27.2304 81.3711 27.9851 82.9021 30.3409C84.4541 32.729 84.3675 36.8017 82.7158 39.1106C81.3152 41.0684 78.9471 41.8832 76.6375 41.202C75.8989 40.9844 75.3677 40.6122 74.5947 39.7261ZM81.2001 34.7279C80.9957 33.8601 80.8863 33.0542 80.6128 32.3084C80.1019 30.9151 78.9345 30.2066 77.4982 30.2955C76.2224 30.3745 74.9691 31.3735 74.7731 32.7486C74.5921 34.0183 74.5621 35.3384 74.6873 36.6145C74.8176 37.943 75.9655 38.9532 77.1704 39.1089C78.6506 39.3003 79.9047 38.6863 80.4768 37.3279C80.8268 36.4971 80.971 35.5794 81.2001 34.7279Z" fill="black"></path>
    <path d="M86.4766 28.2683C87.2471 28.2683 88.0487 28.2683 88.9027 28.2683C88.9615 28.8835 89.0199 29.4932 89.0782 30.1028C89.1216 30.1421 89.1648 30.1814 89.2082 30.2207C89.2451 30.1268 89.2657 30.0218 89.3213 29.9407C91.093 27.3508 95.7489 27.0391 97.7814 30.507C98.6421 31.9755 98.8675 33.5763 98.7586 35.2317C98.6367 37.0842 98.0846 38.7792 96.6414 40.0534C94.9948 41.5071 93.0887 41.7698 91.0726 41.0521C90.4513 40.831 89.9407 40.2984 89.3737 39.9044C89.3737 41.9713 89.3737 44.1201 89.3737 46.3026C88.3987 46.3026 87.4854 46.3026 86.4768 46.3026C86.4766 40.3035 86.4766 34.2999 86.4766 28.2683ZM89.2829 34.8038C89.3001 34.8072 89.3174 34.8107 89.3348 34.8141C89.361 35.3579 89.367 35.9037 89.4177 36.4451C89.5303 37.6473 90.4357 38.6955 91.6176 39.0258C92.8524 39.3708 94.1814 38.9746 94.8738 37.9486C96.0843 36.155 96.1184 34.2141 95.3655 32.2504C94.8422 30.8856 93.7043 30.2125 92.2697 30.295C91.0665 30.3643 89.8899 31.3073 89.5689 32.5832C89.3881 33.3018 89.3727 34.0622 89.2829 34.8038Z" fill="black"></path>
    <path d="M69.2462 41.1289C68.2904 41.1289 67.389 41.1472 66.4897 41.1104C66.3448 41.1044 66.1371 40.8766 66.0818 40.7103C65.609 39.2891 65.1527 37.862 64.7196 36.4281C64.6071 36.0553 64.464 35.8905 64.0365 35.8988C62.4568 35.9292 60.8759 35.9281 59.2962 35.8993C58.8731 35.8916 58.7149 36.0465 58.6053 36.4262C58.1582 37.9754 57.6832 39.5164 57.2088 41.0924C56.2325 41.0924 55.262 41.0924 54.2285 41.0924C54.3497 40.685 54.4616 40.2813 54.5897 39.8827C56.3104 34.5269 58.0376 29.1733 59.7476 23.8142C59.8818 23.3936 60.0533 23.2046 60.5278 23.2309C61.353 23.2767 62.1835 23.267 63.0099 23.2335C63.4061 23.2175 63.5614 23.3643 63.6773 23.7271C65.0594 28.05 66.4582 32.3674 67.8509 36.6869C68.277 38.0083 68.6984 39.3314 69.12 40.6543C69.164 40.7927 69.1951 40.9353 69.2462 41.1289ZM59.3476 33.6483C60.8927 33.6483 62.4292 33.6483 63.9832 33.6483C63.1846 31.0383 62.3918 28.4467 61.623 25.9339C60.8786 28.4577 60.1138 31.0506 59.3476 33.6483Z" fill="black"></path>
    <path d="M104.208 40.2642C104.425 39.477 104.638 38.7058 104.869 37.8682C106.015 38.5141 107.199 38.9214 108.467 38.9405C109.189 38.9514 109.938 38.893 110.631 38.7036C111.559 38.45 112.191 37.7983 112.345 36.8047C112.507 35.7574 112.227 34.8333 111.319 34.2335C110.699 33.8239 109.992 33.5481 109.334 33.1932C108.282 32.6258 107.144 32.1643 106.21 31.4416C103.888 29.6458 103.994 26.2155 106.242 24.3299C108.468 22.4631 112.935 22.793 114.623 23.9043C114.389 24.6531 114.15 25.4152 113.9 26.2127C112.601 25.54 111.265 25.3144 109.87 25.4343C108.248 25.5739 107.281 26.6434 107.451 28.0819C107.539 28.8183 107.958 29.3479 108.558 29.6962C109.301 30.1277 110.082 30.5022 110.871 30.8474C111.978 31.3324 113.063 31.852 113.925 32.7193C116.196 35.0037 115.612 38.8996 112.779 40.4924C111.053 41.4629 109.186 41.4734 107.298 41.2951C106.206 41.1919 105.165 40.895 104.208 40.2642Z" fill="black"></path>
    <path d="M126.289 34.738C126.315 32.5712 126.942 30.6364 128.703 29.2717C130.739 27.6933 133.049 27.5502 135.359 28.5083C137.576 29.4277 138.668 31.2913 138.832 33.6282C138.909 34.7309 138.839 35.8949 138.565 36.9614C137.815 39.8761 135.115 41.5917 132.082 41.4217C128.451 41.2182 126.237 38.2579 126.289 34.738ZM129.257 34.7305C129.23 35.862 129.484 37.0021 130.2 38.0035C131.419 39.7057 133.82 39.7019 134.952 37.9374C136.285 35.8583 136.305 33.6639 135.087 31.5374C133.953 29.5574 131.278 29.5901 130.063 31.5305C129.466 32.4843 129.248 33.5356 129.257 34.7305Z" fill="black"></path>
    <path d="M160.864 35.3763C157.976 35.3763 155.162 35.3763 152.353 35.3763C152.14 37.3005 153.724 39.0419 155.742 39.1149C156.416 39.1393 157.099 39.1316 157.766 39.0483C158.43 38.9656 159.079 38.7697 159.797 38.6096C159.924 39.1578 160.084 39.7293 160.169 40.3116C160.187 40.4355 159.959 40.6755 159.798 40.7332C158.09 41.3469 156.33 41.5106 154.533 41.2487C152.62 40.9698 151.182 39.9906 150.26 38.2883C148.861 35.7034 149.377 31.7783 151.42 29.6606C153.108 27.9104 155.198 27.5466 157.436 28.2353C159.588 28.8976 160.525 30.6393 160.843 32.729C160.97 33.5685 160.864 34.4436 160.864 35.3763ZM158.115 33.2766C158.384 31.6933 157.303 30.1793 155.775 29.9653C154.03 29.7208 152.514 31.1693 152.336 33.2766C154.266 33.2766 156.193 33.2766 158.115 33.2766Z" fill="black"></path>
    <path d="M118.774 30.4027C118.117 30.4027 117.538 30.4027 116.916 30.4027C116.916 29.6838 116.916 28.9977 116.916 28.2305C117.504 28.2305 118.111 28.2305 118.774 28.2305C118.774 27.5354 118.786 26.9193 118.769 26.3039C118.76 26.0025 118.819 25.8427 119.16 25.7557C119.957 25.5526 120.736 25.2819 121.608 25.0117C121.608 25.5846 121.608 26.0835 121.608 26.5822C121.608 27.0893 121.608 27.5965 121.608 28.1889C122.647 28.1889 123.666 28.1889 124.714 28.1889C124.714 28.961 124.714 29.648 124.714 30.3919C123.695 30.3919 122.69 30.3919 121.659 30.3919C121.637 30.5698 121.609 30.695 121.609 30.8204C121.606 32.7959 121.605 34.7715 121.607 36.7471C121.607 36.9159 121.617 37.0862 121.64 37.2534C121.831 38.6626 122.514 39.1763 123.924 38.9756C124.105 38.95 124.284 38.9176 124.504 38.8817C124.546 39.5439 124.595 40.1595 124.613 40.776C124.616 40.8929 124.523 41.0695 124.423 41.1238C123.421 41.6683 120.897 41.3657 120.011 40.6207C119.063 39.8228 118.822 38.7167 118.796 37.5799C118.743 35.361 118.776 33.14 118.774 30.9199C118.774 30.7725 118.774 30.6251 118.774 30.4027Z" fill="black"></path>
    <path d="M148.178 28.0896C148.178 28.9431 148.178 29.8038 148.178 30.7302C147.825 30.7302 147.477 30.7295 147.129 30.7303C146.072 30.7329 145.242 31.1995 144.809 32.1387C144.513 32.7839 144.314 33.5281 144.291 34.2351C144.224 36.3015 144.267 38.3715 144.267 40.4401C144.267 40.6435 144.267 40.8469 144.267 41.0901C143.293 41.0901 142.366 41.0901 141.354 41.0901C141.354 36.8222 141.354 32.5662 141.354 28.2722C142.12 28.2722 142.92 28.2722 143.782 28.2722C143.831 28.9977 143.88 29.7332 143.932 30.5108C145.543 28.2705 146.708 27.608 148.178 28.0896Z" fill="black"></path>
    <path d="M35.1936 7.25982C35.8178 11.1044 31.9869 15.5303 28.4486 15.103C27.5876 11.8547 31.538 7.24231 35.1936 7.25982Z" fill="black"></path>
    <path d="M94.5535 16.1262C94.521 16.3943 94.4928 16.6278 94.4605 16.8937C94.0672 16.8937 93.6844 16.8937 93.2832 16.8937C93.2832 13.8095 93.2832 10.7682 93.2832 7.67383C93.7602 7.67383 94.2165 7.67383 94.7128 7.67383C94.7128 8.88675 94.7128 10.0822 94.7128 11.2492C95.1562 10.9943 95.5539 10.6672 96.0096 10.5224C97.2226 10.1368 98.4328 10.6641 98.9719 11.839C99.5885 13.1828 99.5634 14.554 98.7574 15.8227C97.7988 17.332 95.9923 17.4906 94.731 16.2262C94.6966 16.1915 94.6434 16.1757 94.5535 16.1262ZM94.7089 13.6344C94.7394 14.0363 94.736 14.3403 94.7901 14.6339C94.9169 15.3218 95.3909 15.7834 96.009 15.861C96.7594 15.9551 97.3165 15.6822 97.6183 15.0077C98.0152 14.121 98.0233 13.2246 97.5507 12.3543C97.2521 11.8045 96.764 11.5342 96.1551 11.5893C95.524 11.6465 95.0666 12.0167 94.8725 12.6234C94.7602 12.9749 94.7506 13.3594 94.7089 13.6344Z" fill="black"></path>
    <path d="M62.6302 16.9246C62.2254 16.9246 61.8306 16.9586 61.4471 16.9073C61.3002 16.8877 61.1148 16.6974 61.0578 16.5437C60.8428 15.9638 60.6614 15.3704 60.492 14.775C60.4095 14.4851 60.2934 14.3355 59.9541 14.3503C59.2786 14.3796 58.6005 14.3718 57.9243 14.3531C57.6304 14.3449 57.4902 14.4399 57.4148 14.7318C57.2696 15.2932 57.0596 15.8383 56.9217 16.4012C56.8266 16.7899 56.6625 16.9867 56.2341 16.9325C55.9451 16.8959 55.6477 16.9255 55.2656 16.9255C55.5185 16.126 55.7397 15.4176 55.9665 14.7111C56.6251 12.6595 57.2932 10.6108 57.9385 8.55492C58.0409 8.22885 58.1943 8.12539 58.531 8.12392C59.8604 8.11816 59.8639 8.10506 60.2745 9.37874C61.0682 11.8413 61.8577 14.3052 62.6479 16.7689C62.653 16.7847 62.6445 16.8047 62.6302 16.9246ZM57.8207 13.2054C58.58 13.2054 59.311 13.2054 60.0732 13.2054C59.6888 11.9705 59.3159 10.7728 58.9228 9.50953C58.5407 10.7907 58.1849 11.9836 57.8207 13.2054Z" fill="black"></path>
    <path d="M146.197 16.9075C145.764 16.9075 145.339 16.9075 144.835 16.9075C144.835 16.0056 144.844 15.1293 144.832 14.2531C144.824 13.7473 144.819 13.2365 144.747 12.7375C144.625 11.8972 144.232 11.6013 143.409 11.6523C142.739 11.6939 142.254 12.189 142.236 12.919C142.21 14.0278 142.192 15.1384 142.228 16.2464C142.245 16.7769 142.111 17.0187 141.551 16.9407C141.315 16.9078 141.071 16.9353 140.784 16.9353C140.784 13.8236 140.784 10.7699 140.784 7.62043C141.119 7.62043 141.45 7.63376 141.779 7.6167C142.121 7.59897 142.242 7.74117 142.237 8.08046C142.223 9.11289 142.232 10.1457 142.232 11.1988C142.594 10.9686 142.907 10.6941 143.272 10.5506C144.591 10.0309 146.028 10.7992 146.165 12.246C146.309 13.7669 146.197 15.3125 146.197 16.9075Z" fill="black"></path>
    <path d="M122.143 13.7222C122.13 15.6827 120.807 17.075 118.96 17.0721C117.155 17.0691 115.867 15.6935 115.87 13.7738C115.874 11.7783 117.189 10.4045 119.089 10.4121C120.906 10.4195 122.156 11.774 122.143 13.7222ZM120.711 13.9063C120.56 13.292 120.516 12.8308 120.336 12.4312C119.879 11.42 118.682 11.1999 117.973 11.9577C117.203 12.7805 117.181 14.6173 117.93 15.4667C118.517 16.1327 119.453 16.1972 119.981 15.493C120.344 15.0104 120.503 14.3756 120.711 13.9063Z" fill="black"></path>
    <path d="M149.259 14.1163C149.367 15.7533 150.476 16.2051 152.922 15.6562C152.991 15.9753 153.059 16.294 153.137 16.6558C151.95 17.0716 150.797 17.2445 149.637 16.7943C148.428 16.3258 147.952 15.339 147.823 14.1099C147.648 12.4418 148.636 10.8567 150.121 10.4796C151.759 10.0637 153.211 11.0525 153.424 12.7298C153.6 14.1164 153.6 14.1164 152.222 14.1164C151.248 14.1163 150.274 14.1163 149.259 14.1163ZM149.261 12.9998C150.214 12.9998 151.128 12.9998 152.04 12.9998C152.088 12.1577 151.661 11.5617 150.957 11.4594C150.105 11.3352 149.486 11.8826 149.261 12.9998Z" fill="black"></path>
    <path d="M106.28 14.1171C106.523 15.8083 107.654 16.2647 109.93 15.644C110.013 15.9573 110.095 16.2704 110.196 16.651C108.803 17.1142 107.459 17.3294 106.161 16.5273C104.984 15.7991 104.55 14.1401 105.054 12.5298C105.474 11.1899 106.587 10.3791 107.965 10.4029C109.755 10.4336 110.721 12.0241 110.499 13.8761C110.487 13.9737 110.194 14.1027 110.029 14.1061C108.996 14.1273 107.962 14.1169 106.928 14.1171C106.725 14.1171 106.521 14.1171 106.28 14.1171ZM109.132 12.9993C108.986 11.8746 108.553 11.4075 107.719 11.451C106.959 11.4906 106.38 12.1416 106.35 12.9993C107.276 12.9993 108.202 12.9993 109.132 12.9993Z" fill="black"></path>
    <path d="M124.15 10.5701C125.393 10.4528 125.393 10.4528 125.444 11.2956C125.83 11.049 126.197 10.7225 126.625 10.5573C128.03 10.0154 129.464 10.8584 129.579 12.3849C129.69 13.8582 129.603 15.3466 129.603 16.8822C129.207 16.8822 128.752 16.8822 128.22 16.8822C128.22 15.9969 128.226 15.1192 128.217 14.2416C128.212 13.7541 128.215 13.2628 128.156 12.7804C128.059 11.992 127.7 11.657 127.025 11.646C126.296 11.6341 125.724 12.0572 125.659 12.785C125.582 13.6439 125.608 14.512 125.592 15.3761C125.588 15.564 125.591 15.7522 125.59 15.9403C125.589 17.0326 125.588 17.0439 124.504 16.9198C124.37 16.9045 124.154 16.6949 124.151 16.5719C124.114 14.6171 124.105 12.6619 124.092 10.7067C124.092 10.6737 124.119 10.6405 124.15 10.5701Z" fill="black"></path>
    <path d="M90.8835 16.8882C90.5209 16.8882 90.1165 16.8882 89.6996 16.8882C89.6588 16.6924 89.6214 16.5131 89.5932 16.3778C89.1155 16.5981 88.6745 16.8854 88.1919 17.007C87.1751 17.2629 86.2138 16.7544 85.8806 15.8731C85.5094 14.8912 85.8806 13.7997 86.8606 13.3447C87.4585 13.0672 88.1438 12.9738 88.7945 12.8173C88.9893 12.7704 89.2001 12.7897 89.3941 12.7791C89.6192 11.5338 88.2281 11.0421 86.5507 11.8796C86.0679 11.0847 86.1186 10.851 86.9832 10.6419C87.5936 10.4943 88.2502 10.4127 88.8724 10.4652C90.1477 10.5726 90.8689 11.4366 90.8807 12.7462C90.893 14.1146 90.8835 15.483 90.8835 16.8882ZM89.4334 13.8113C89.1294 13.8113 88.8402 13.7386 88.6132 13.8267C88.1591 14.0029 87.6441 14.1831 87.3408 14.5266C87.1588 14.7326 87.2271 15.2946 87.3664 15.6174C87.5579 16.0612 88.0583 16.025 88.4644 15.9425C88.9546 15.8429 89.3274 15.5264 89.4196 15.0251C89.4892 14.648 89.4334 14.2478 89.4334 13.8113Z" fill="black"></path>
    <path d="M74.5024 12.7733C74.7468 11.5218 73.358 11.0494 71.6681 11.8757C71.185 11.0581 71.2289 10.8598 72.1173 10.6427C72.7102 10.4979 73.3457 10.4155 73.951 10.4588C75.189 10.5476 75.959 11.4174 75.9794 12.6716C76.002 14.06 75.9846 15.449 75.9846 16.8813C75.6519 16.8813 75.2501 16.8813 74.8138 16.8813C74.7808 16.6876 74.7477 16.4935 74.7352 16.4201C74.1616 16.6349 73.5979 16.9475 72.999 17.0465C72.0925 17.1963 71.291 16.6483 70.992 15.8365C70.6762 14.9788 70.9306 13.9357 71.7345 13.51C72.3945 13.1606 73.1709 13.0271 73.9017 12.8186C74.0937 12.7639 74.3075 12.786 74.5024 12.7733ZM74.6625 13.67C73.9749 13.829 73.3916 13.9119 72.8481 14.1063C72.4171 14.2603 72.2329 14.6918 72.3403 15.1237C72.4124 15.414 72.6061 15.7783 72.8501 15.901C73.489 16.2222 74.3571 15.7638 74.5321 15.0484C74.6269 14.6607 74.6126 14.2462 74.6625 13.67Z" fill="black"></path>
    <path d="M66.7178 15.3642C67.1273 14.07 67.5009 12.8997 67.8679 11.7273C68.2711 10.4391 68.2684 10.4383 69.6986 10.5948C69.6509 10.7595 69.6159 10.9183 69.5593 11.069C68.8743 12.8912 68.1758 14.7085 67.5078 16.537C67.3824 16.8803 67.1765 16.9833 66.8737 16.9166C66.5279 16.8405 66.0541 17.182 65.8496 16.625C65.1395 14.6911 64.4312 12.7566 63.7254 10.821C63.7013 10.7552 63.7114 10.6768 63.7061 10.6101C63.7565 10.5869 63.7879 10.5615 63.821 10.559C65.1486 10.4585 65.1503 10.4581 65.5537 11.7151C65.9306 12.8891 66.3033 14.0644 66.7178 15.3642Z" fill="black"></path>
    <path d="M135.822 10.5098C135.992 9.2156 135.992 9.2156 137.272 9.01953C137.272 9.50497 137.272 9.9851 137.272 10.5184C137.798 10.5184 138.278 10.5184 138.808 10.5184C138.808 10.9124 138.808 11.2529 138.808 11.6466C138.312 11.6466 137.831 11.6466 137.311 11.6466C137.311 12.8012 137.262 13.9076 137.329 15.0066C137.374 15.7354 137.612 15.8316 138.679 15.8533C138.697 15.8854 138.734 15.9198 138.73 15.9494C138.69 16.2827 138.763 16.7426 138.573 16.9208C138.209 17.263 136.906 17.1135 136.561 16.7001C136.266 16.3466 135.997 15.873 135.953 15.4288C135.851 14.4217 135.895 13.3999 135.881 12.3839C135.878 12.1613 135.88 11.9386 135.88 11.6909C135.555 11.6684 135.281 11.6495 134.967 11.6278C134.967 11.2816 134.967 10.9537 134.967 10.5695C135.247 10.5499 135.52 10.531 135.822 10.5098Z" fill="black"></path>
    <path d="M101.425 7.6582C101.906 7.6582 102.348 7.6582 102.825 7.6582C102.825 10.7504 102.825 13.8047 102.825 16.8976C102.352 16.8976 101.911 16.8976 101.425 16.8976C101.425 13.826 101.425 10.7705 101.425 7.6582Z" fill="black"></path>
    <path d="M82.3496 7.68164C82.8315 7.68164 83.2594 7.68164 83.7268 7.68164C83.7268 10.7549 83.7268 13.8026 83.7268 16.887C83.2685 16.887 82.8274 16.887 82.3496 16.887C82.3496 13.8236 82.3496 10.7758 82.3496 7.68164Z" fill="black"></path>
    <path d="M79.8084 16.8915C79.336 16.8915 78.9127 16.8915 78.4541 16.8915C78.4541 14.7844 78.4541 12.7105 78.4541 10.5938C78.9061 10.5938 79.3415 10.5938 79.8084 10.5938C79.8084 12.689 79.8084 14.7638 79.8084 16.8915Z" fill="black"></path>
    <path d="M79.1412 9.53021C78.6202 9.53156 78.2705 9.20707 78.2619 8.71418C78.2532 8.21948 78.6579 7.82575 79.1626 7.83818C79.6469 7.85015 80.0252 8.23303 80.0181 8.70402C80.0109 9.18686 79.6478 9.52897 79.1412 9.53021Z" fill="black"></path>
</svg>