<svg width="60" height="18" viewBox="0 0 60 18" fill="none" xmlns="http://www.w3.org/2000/svg">
                                        <path d="M6.00791 1.35938V7.27807H5.23462V2.96546L3.24189 7.27807H2.76602L0.773295 2.96546V7.27807H0V1.35938H0.773295L3.00396 6.20734L5.23462 1.35938H6.00791Z" fill="black"></path>
                                        <path d="M7.55472 6.65368C7.13833 6.20755 6.90039 5.61271 6.90039 4.8989C6.90039 4.18509 7.10859 3.61999 7.52498 3.17386C7.94137 2.72773 8.47672 2.51953 9.13105 2.51953C9.5177 2.51953 9.8746 2.60875 10.172 2.7872C10.4694 2.96565 10.7074 3.23333 10.8561 3.53075V2.57902H11.6294V7.24852H10.8561V6.29679C10.7074 6.59421 10.4694 6.86189 10.172 7.04034C9.8746 7.21879 9.5177 7.33776 9.13105 7.33776C8.50647 7.33776 7.97111 7.12955 7.55472 6.65368ZM10.41 6.20755C10.7074 5.88038 10.8858 5.464 10.8858 4.92864C10.8858 4.39328 10.7371 3.97689 10.41 3.64973C10.1125 3.32257 9.72589 3.17386 9.27976 3.17386C8.83363 3.17386 8.47672 3.32257 8.14956 3.61999C7.85214 3.91742 7.67369 4.33379 7.67369 4.86915C7.67369 5.40451 7.8224 5.82091 8.14956 6.14808C8.47672 6.47524 8.83363 6.65368 9.27976 6.65368C9.72589 6.68342 10.0828 6.53471 10.41 6.20755Z" fill="black"></path>
                                        <path d="M13.6218 1.68764C13.5325 1.77687 13.3838 1.83635 13.2351 1.83635C13.0864 1.83635 12.9674 1.77687 12.8782 1.68764C12.789 1.59842 12.7295 1.44969 12.7295 1.30098C12.7295 1.15227 12.789 1.0333 12.8782 0.914336C12.9674 0.825109 13.1161 0.765625 13.2351 0.765625C13.3838 0.765625 13.5028 0.825109 13.592 0.914336C13.6812 1.00356 13.7407 1.15227 13.7407 1.30098C13.7705 1.44969 13.711 1.59842 13.6218 1.68764ZM12.8485 2.57991H13.6218V7.24941H12.8485V2.57991Z" fill="black"></path>
                                        <path d="M15.6146 2.57902V3.35231C15.9417 2.78721 16.4473 2.51953 17.1314 2.51953C17.637 2.51953 18.0832 2.69799 18.4401 3.02515C18.797 3.38206 18.9457 3.85792 18.9457 4.48251V7.24852H18.1724V4.60148C18.1724 4.12561 18.0534 3.76869 17.8452 3.53075C17.6073 3.29282 17.3099 3.17386 16.8935 3.17386C16.5068 3.17386 16.1797 3.29282 15.9417 3.53075C15.7038 3.76869 15.5848 4.12561 15.5848 4.60148V7.24852H14.8115V2.57902H15.6146Z" fill="black"></path>
                                        <path d="M21.6227 6.65258H22.277V7.27717H21.5037C20.7007 7.27717 20.2843 6.89053 20.2843 6.08749V3.23223H19.6895V2.60765H20.2843V1.41797H21.0576V2.57792H22.277V3.2025H21.0576V6.05774C21.0576 6.26593 21.0873 6.41464 21.1766 6.50387C21.2658 6.59309 21.4145 6.65258 21.6227 6.65258Z" fill="black"></path>
                                        <path d="M23.377 6.65368C22.9606 6.20755 22.7227 5.61271 22.7227 4.8989C22.7227 4.18509 22.9308 3.61999 23.3472 3.17386C23.7636 2.72773 24.299 2.51953 24.9533 2.51953C25.34 2.51953 25.6969 2.60875 25.9943 2.7872C26.2917 2.96565 26.5296 3.23333 26.6784 3.53075V2.57902H27.4517V7.24852H26.6784V6.29679C26.5296 6.59421 26.2917 6.86189 25.9943 7.04034C25.6969 7.21879 25.34 7.33776 24.9533 7.33776C24.3287 7.33776 23.7934 7.12955 23.377 6.65368ZM26.2322 6.20755C26.5296 5.88038 26.7081 5.464 26.7081 4.92864C26.7081 4.39328 26.5594 3.97689 26.2322 3.64973C25.9348 3.32257 25.5482 3.17386 25.102 3.17386C24.6559 3.17386 24.299 3.32257 23.9718 3.61999C23.6744 3.91742 23.4959 4.33379 23.4959 4.86915C23.4959 5.40451 23.6447 5.82091 23.9718 6.14808C24.299 6.47524 24.6559 6.65368 25.102 6.65368C25.5482 6.68342 25.9348 6.53471 26.2322 6.20755Z" fill="black"></path>
                                        <path d="M29.444 1.68764C29.3548 1.77687 29.2061 1.83635 29.0574 1.83635C28.9087 1.83635 28.7897 1.77687 28.7005 1.68764C28.6112 1.59842 28.5518 1.44969 28.5518 1.30098C28.5518 1.15227 28.6112 1.0333 28.7005 0.914336C28.7897 0.825109 28.9384 0.765625 29.0574 0.765625C29.2061 0.765625 29.3251 0.825109 29.4143 0.914336C29.5035 1.00356 29.563 1.15227 29.563 1.30098C29.5927 1.44969 29.563 1.59842 29.444 1.68764ZM28.6707 2.57991H29.444V7.24941H28.6707V2.57991Z" fill="black"></path>
                                        <path d="M31.4378 2.57902V3.35231C31.765 2.78721 32.2706 2.51953 32.9547 2.51953C33.4603 2.51953 33.9064 2.69799 34.2633 3.02515C34.6202 3.38206 34.7689 3.85792 34.7689 4.48251V7.24852H33.9956V4.60148C33.9956 4.12561 33.8767 3.76869 33.6685 3.53075C33.4305 3.29282 33.1331 3.17386 32.7167 3.17386C32.3301 3.17386 32.0029 3.29282 31.765 3.53075C31.527 3.76869 31.4081 4.12561 31.4081 4.60148V7.24852H30.6348V2.57902H31.4378Z" fill="black"></path>
                                        <path d="M37.8913 7.33776C37.2072 7.33776 36.6718 7.12956 36.2554 6.68343C35.8391 6.2373 35.6309 5.64245 35.6309 4.92864C35.6309 4.21483 35.8391 3.61999 36.2852 3.17386C36.7016 2.72773 37.2667 2.51953 37.9507 2.51953C38.6348 2.51953 39.1702 2.72772 39.5866 3.14411C40.003 3.5605 40.2111 4.09586 40.2111 4.75019C40.2111 4.92864 40.2111 5.07736 40.1814 5.19632H36.4636C36.4934 5.6722 36.6421 6.02911 36.9098 6.29679C37.1775 6.56447 37.5344 6.71317 37.9507 6.71317C38.2779 6.71317 38.5456 6.65368 38.7538 6.50497C38.962 6.35626 39.1404 6.17781 39.2297 5.93988H40.0624C39.9137 6.35627 39.646 6.68342 39.2891 6.9511C38.9025 7.21878 38.4266 7.33776 37.8913 7.33776ZM38.9322 3.56051C38.6646 3.29283 38.3077 3.14411 37.8913 3.14411C37.4749 3.14411 37.1477 3.26307 36.8503 3.53075C36.5826 3.79843 36.4339 4.15534 36.4042 4.63122H39.3486C39.3486 4.18508 39.2297 3.82819 38.9322 3.56051Z" fill="black"></path>
                                        <path d="M41.4014 6.6534C40.985 6.20727 40.7471 5.61243 40.7471 4.89862C40.7471 4.18481 40.9553 3.61971 41.3717 3.17358C41.788 2.72745 42.3234 2.51925 42.9777 2.51925C43.3644 2.51925 43.7213 2.60847 44.0187 2.78692C44.3161 2.96537 44.5541 3.23305 44.7028 3.53047V0.972656H45.4761V7.27799H44.7028V6.32624C44.5541 6.62366 44.3161 6.89134 44.0187 7.0698C43.7213 7.24825 43.3644 7.36722 42.9777 7.36722C42.3531 7.33747 41.8178 7.12927 41.4014 6.6534ZM44.2566 6.20727C44.5541 5.8801 44.7325 5.46372 44.7325 4.92836C44.7325 4.393 44.5838 3.97661 44.2566 3.64945C43.9592 3.32229 43.5726 3.17358 43.1264 3.17358C42.6803 3.17358 42.3234 3.32229 41.9962 3.61971C41.6988 3.91714 41.5204 4.33351 41.5204 4.86887C41.5204 5.40423 41.6691 5.82063 41.9962 6.1478C42.3234 6.47496 42.6803 6.6534 43.1264 6.6534C43.5726 6.68314 43.9295 6.53443 44.2566 6.20727Z" fill="black"></path>
                                        <path d="M49.9072 1.35938H52.0189C52.6138 1.35938 53.0896 1.50809 53.4168 1.80551C53.744 2.10293 53.9224 2.48957 53.9224 2.9357C53.9224 3.59003 53.5358 4.03617 52.7922 4.24437C53.1789 4.30385 53.4763 4.48231 53.7142 4.74999C53.9522 5.01767 54.0711 5.34483 54.0711 5.70174C54.0711 6.14787 53.8927 6.53451 53.5358 6.83194C53.1789 7.12936 52.7327 7.27807 52.1379 7.27807H49.9072V1.35938ZM50.7103 1.98397V3.91721H52.0189C52.3758 3.91721 52.6435 3.82798 52.8517 3.64952C53.0599 3.47107 53.1491 3.23313 53.1491 2.9357C53.1491 2.63828 53.0599 2.40036 52.8517 2.2219C52.6435 2.04345 52.3758 1.95422 52.0189 1.95422H50.7103V1.98397ZM50.7103 6.65347H52.1081C52.4948 6.65347 52.7922 6.56426 53.0004 6.3858C53.2086 6.20735 53.3276 5.93966 53.3276 5.6125C53.3276 5.28533 53.2086 5.01766 52.9707 4.83921C52.7327 4.66076 52.4353 4.57152 52.0487 4.57152H50.7103V6.65347Z" fill="black"></path>
                                        <path d="M56.3606 7.18816L54.5166 2.57812H55.3791L56.8067 6.38512L58.2641 2.57812H59.0671L56.2416 9.47829H55.4386L56.3606 7.18816Z" fill="black"></path>
                                        <path d="M6.24528 12.4693C6.45347 12.4693 6.63192 12.499 6.78063 12.5882L8.05955 11.696C7.61342 11.3093 7.01857 11.1309 6.3345 11.1309C5.65043 11.1309 5.05559 11.458 4.66895 11.9339C4.90688 12.2908 5.11508 12.7369 5.23404 13.2425C5.4125 12.7369 5.7694 12.4693 6.24528 12.4693Z" fill="black"></path>
                                        <path d="M20.8184 11.5157C20.4615 11.5157 20.1641 11.2182 20.1641 10.8613C20.1641 10.5044 20.4615 10.207 20.8184 10.207C21.1753 10.207 21.4727 10.5044 21.4727 10.8613C21.4727 11.2182 21.1753 11.5157 20.8184 11.5157Z" fill="black"></path>
                                        <path d="M12.0746 17.3756H11.8069C10.4983 17.3756 9.63574 16.6618 9.63574 15.6506C9.63574 14.6691 10.3496 13.9553 12.3423 13.9553H12.8182V13.8958C12.8182 13.1225 12.4613 12.8846 11.6582 12.8846C10.6767 12.8846 10.1414 13.2712 9.93316 13.5091H9.87368V13.063C9.87368 12.4682 10.409 11.7246 11.8664 11.7246C13.0858 11.7246 14.1863 12.2897 14.1863 14.1635V15.4126C14.1566 16.5726 13.294 17.3756 12.0746 17.3756ZM12.8182 14.907H12.3423C11.3013 14.907 11.0039 15.145 11.0039 15.5911C11.0039 16.0075 11.3608 16.2752 11.9556 16.2752C12.5505 16.2752 12.8182 15.9777 12.8182 15.4424V14.907Z" fill="black"></path>
                                        <path d="M19.1235 17.376C18.5584 17.376 18.2015 17.0489 18.2015 16.454V14.1936C18.2015 13.3014 17.6959 12.9445 17.1011 12.9445C16.6847 12.9445 16.1196 13.2716 16.1196 14.2531V17.376H15.6734C15.0191 17.376 14.7217 17.0191 14.7217 16.454V10H15.1381C15.7924 10 16.1196 10.3569 16.1196 10.8923V12.4686C16.3278 12.1414 16.8036 11.725 17.3092 11.725C18.7369 11.725 19.5696 12.5876 19.5696 14.1341V17.376H19.1235Z" fill="black"></path>
                                        <path d="M21.5029 15.5309V15.5012V12.9136C21.5029 12.2295 21.146 11.9023 20.5214 11.9023H20.1348V15.6499C20.1348 16.6611 20.6106 17.2559 21.5029 17.3452V15.5309Z" fill="black"></path>
                                        <path d="M24.1797 11.7539C22.7223 11.7539 22.1572 12.7949 22.1572 13.9251V16.3342V16.3937C22.1572 16.929 22.6034 17.3454 23.109 17.3454C23.3469 17.3454 23.5254 17.3454 23.5254 17.3454V14.1333C23.5254 13.3005 23.8525 12.9436 24.4771 12.9436C24.834 12.9436 25.072 13.0328 25.2802 13.0923H25.3396V12.5867C25.3396 12.2298 25.0422 11.7539 24.1797 11.7539Z" fill="black"></path>
                                        <path d="M25.8746 16.9894C25.8151 16.9894 25.7556 17.0191 25.6961 17.0191C25.6069 17.0191 25.5474 17.0192 25.488 16.9894C25.4285 16.9597 25.369 16.9299 25.3392 16.8704C25.3095 16.8109 25.2798 16.7812 25.25 16.692C25.2203 16.6325 25.2203 16.5433 25.2203 16.4838C25.2203 16.3053 25.25 16.1864 25.3392 16.0971C25.4285 16.0079 25.5177 15.9484 25.6664 15.9484C25.7259 15.9484 25.7854 15.9484 25.8151 15.9782C25.8746 15.9782 25.9043 16.0079 25.9638 16.0377L26.0233 15.8295C25.9638 15.7997 25.9043 15.7997 25.8449 15.77C25.7854 15.77 25.7259 15.7402 25.6367 15.7402C25.5177 15.7402 25.4285 15.77 25.3392 15.7997C25.25 15.8295 25.1905 15.8889 25.1311 15.9484C25.0716 16.0079 25.0121 16.0971 24.9823 16.1864C24.9526 16.2756 24.9229 16.3946 24.9229 16.4838C24.9229 16.573 24.9229 16.692 24.9823 16.7812C25.0121 16.8704 25.0418 16.9597 25.1311 17.0191C25.1905 17.0786 25.2798 17.1381 25.3392 17.1679C25.4285 17.1976 25.5177 17.2273 25.6367 17.2273C25.6664 17.2273 25.7259 17.2273 25.7556 17.2273C25.7854 17.2273 25.8449 17.2273 25.8746 17.1976C25.9043 17.1976 25.9341 17.1976 25.9638 17.1679C25.9936 17.1679 26.0233 17.1381 26.0233 17.1381L25.9936 16.9299C25.9936 16.9894 25.9341 16.9894 25.8746 16.9894Z" fill="#5C5C5C"></path>
                                        <path d="M27.3924 15.9484C27.3329 15.8889 27.2734 15.8295 27.1842 15.7997C27.0949 15.77 27.0057 15.7402 26.9165 15.7402C26.8273 15.7402 26.738 15.77 26.6488 15.7997C26.5596 15.8295 26.5001 15.8889 26.4406 15.9484C26.3811 16.0079 26.3216 16.0971 26.2919 16.1864C26.2622 16.2756 26.2324 16.3946 26.2324 16.4838C26.2324 16.6028 26.2622 16.692 26.2919 16.7812C26.3216 16.8704 26.3811 16.9597 26.4406 17.0191C26.5001 17.0786 26.5596 17.1381 26.6488 17.1679C26.738 17.1976 26.8273 17.2273 26.9165 17.2273C27.0057 17.2273 27.0949 17.1976 27.1842 17.1679C27.2734 17.1381 27.3329 17.0786 27.3924 17.0191C27.4518 16.9597 27.5113 16.8704 27.5411 16.7812C27.5708 16.692 27.6006 16.573 27.6006 16.4838C27.6006 16.3648 27.5708 16.2756 27.5411 16.1864C27.4816 16.0971 27.4518 16.0079 27.3924 15.9484ZM27.1842 16.8704C27.1247 16.9597 27.0057 17.0191 26.8867 17.0191C26.7678 17.0191 26.6488 16.9597 26.5893 16.8704C26.5298 16.7812 26.4704 16.6325 26.4704 16.4838C26.4704 16.3351 26.5001 16.1864 26.5893 16.0971C26.6488 16.0079 26.7678 15.9484 26.8867 15.9484C27.0057 15.9484 27.1247 16.0079 27.1842 16.0971C27.2436 16.1864 27.3031 16.3351 27.3031 16.4838C27.3031 16.6622 27.2734 16.7812 27.1842 16.8704Z" fill="#5C5C5C"></path>
                                        <path d="M29.801 15.9191C29.7713 15.8596 29.7118 15.8001 29.6226 15.7704C29.5631 15.7407 29.4739 15.7109 29.3549 15.7109C29.2954 15.7109 29.2359 15.7109 29.2062 15.7407C29.1467 15.7407 29.117 15.7704 29.0575 15.7704C28.998 15.7704 28.9683 15.8002 28.9683 15.8299C28.9385 15.8596 28.9088 15.8596 28.9088 15.8596C28.879 15.8002 28.8196 15.7704 28.7601 15.7407C28.7006 15.7109 28.6114 15.7109 28.5221 15.7109C28.4032 15.7109 28.2842 15.7109 28.195 15.7407C28.1057 15.7704 28.0165 15.7704 27.957 15.8002V17.198H28.2247V15.9786H28.2545C28.2842 15.9786 28.3139 15.9786 28.3139 15.9786C28.3437 15.9786 28.3734 15.9786 28.4032 15.9786C28.4329 15.9786 28.4626 15.9786 28.4924 15.9786C28.5519 15.9786 28.6114 15.9786 28.6411 16.0084C28.6708 16.0381 28.7006 16.0678 28.7303 16.0976C28.7601 16.1273 28.7601 16.1868 28.7898 16.2463C28.8195 16.3058 28.7898 16.395 28.7898 16.4545V17.198H29.0575V16.395C29.0575 16.3355 29.0575 16.276 29.0575 16.2165C29.0575 16.1571 29.0278 16.0976 29.0278 16.0678C29.0575 16.0381 29.0872 16.0381 29.1467 16.0084C29.2062 15.9786 29.2657 15.9786 29.3549 15.9786C29.4144 15.9786 29.4739 15.9786 29.5036 16.0084C29.5334 16.0381 29.5631 16.0678 29.5928 16.0976C29.6226 16.1273 29.6226 16.1868 29.6523 16.2463C29.6523 16.3058 29.6523 16.395 29.6523 16.4545V17.198H29.92V16.395C29.92 16.3058 29.92 16.2165 29.8903 16.1273C29.8605 16.0678 29.8308 15.9786 29.801 15.9191Z" fill="#5C5C5C"></path>
                                        <path d="M31.4071 15.9484C31.3476 15.8889 31.2584 15.8295 31.1692 15.7997C31.0799 15.77 30.9907 15.7402 30.8717 15.7402C30.7528 15.7402 30.6338 15.7402 30.5446 15.77C30.4554 15.7997 30.3661 15.7997 30.3066 15.8295V17.7627H30.5743V17.1976C30.6041 17.2273 30.6635 17.2273 30.723 17.2571C30.7825 17.2868 30.8717 17.2868 30.9312 17.2868C31.0502 17.2868 31.1394 17.2571 31.1989 17.2273C31.2881 17.1976 31.3476 17.1381 31.4071 17.0786C31.4666 17.0191 31.4963 16.9299 31.5261 16.8407C31.5558 16.7515 31.5558 16.6325 31.5558 16.5433C31.5558 16.4243 31.5261 16.3351 31.4963 16.2161C31.5261 16.0971 31.4666 16.0079 31.4071 15.9484ZM31.3179 16.692C31.2881 16.7515 31.2881 16.8109 31.2584 16.8704C31.2287 16.9299 31.1692 16.9597 31.1394 16.9894C31.0799 17.0192 31.0205 17.0191 30.961 17.0191C30.9015 17.0191 30.8123 17.0192 30.7528 16.9894C30.6933 16.9597 30.6338 16.9299 30.6041 16.9002V15.9782C30.6338 15.9782 30.6635 15.9782 30.723 15.9484C30.7528 15.9484 30.842 15.9484 30.9015 15.9484C31.0502 15.9484 31.1394 16.0079 31.2286 16.0971C31.3179 16.1864 31.3476 16.3053 31.3476 16.4838C31.3476 16.573 31.3476 16.6325 31.3179 16.692Z" fill="#5C5C5C"></path>
                                        <path d="M32.894 15.8889C32.8642 15.8295 32.8047 15.7997 32.7155 15.77C32.656 15.7402 32.5668 15.7402 32.4478 15.7402C32.3586 15.7402 32.2694 15.7402 32.1802 15.77C32.0909 15.77 32.0314 15.7997 32.0017 15.7997L32.0314 16.0079C32.0612 16.0079 32.1207 15.9782 32.1802 15.9782C32.2396 15.9782 32.3289 15.9484 32.4181 15.9484C32.4776 15.9484 32.5371 15.9484 32.5668 15.9782C32.5965 16.0079 32.656 16.0376 32.656 16.0674C32.6858 16.0971 32.6858 16.1269 32.7155 16.1864C32.7155 16.2161 32.7155 16.2756 32.7155 16.3053V16.3648H32.6858C32.656 16.3648 32.656 16.3648 32.6263 16.3648C32.5965 16.3648 32.5668 16.3648 32.5371 16.3648C32.5073 16.3648 32.4776 16.3648 32.4478 16.3648C32.3586 16.3648 32.2991 16.3648 32.2099 16.3946C32.1504 16.4243 32.0612 16.4243 32.0017 16.4838C31.9422 16.5135 31.9125 16.573 31.8827 16.6325C31.853 16.692 31.8232 16.7515 31.8232 16.8407C31.8232 16.9299 31.8232 16.9894 31.853 17.0489C31.8827 17.1084 31.9125 17.1679 31.972 17.1976C32.0314 17.2273 32.0909 17.2571 32.1504 17.2868C32.2099 17.3166 32.2991 17.3166 32.3883 17.3166C32.4478 17.3166 32.5073 17.3166 32.5668 17.3166C32.6263 17.3166 32.6858 17.3166 32.7155 17.3166C32.775 17.3166 32.8047 17.3166 32.8642 17.2868C32.894 17.2868 32.9237 17.2868 32.9534 17.2571V16.3648C32.9534 16.2756 32.9534 16.2161 32.9237 16.1269C32.9534 16.0079 32.9237 15.9484 32.894 15.8889ZM32.7453 17.0191C32.7155 17.0191 32.6858 17.0192 32.6263 17.0489C32.5668 17.0489 32.5371 17.0489 32.4776 17.0489C32.3883 17.0489 32.2991 17.0192 32.2396 16.9894C32.1801 16.9597 32.1504 16.9002 32.1504 16.7812C32.1504 16.7217 32.1504 16.692 32.1802 16.6622C32.2099 16.6325 32.2396 16.6028 32.2694 16.6028C32.2991 16.573 32.3586 16.573 32.3883 16.573C32.4181 16.573 32.4776 16.573 32.5073 16.573C32.5668 16.573 32.6263 16.573 32.656 16.573C32.6858 16.573 32.7155 16.573 32.7453 16.6028V17.0191Z" fill="#5C5C5C"></path>
                                        <path d="M34.4707 15.9191C34.4112 15.8596 34.3517 15.8299 34.2922 15.7704C34.203 15.7407 34.1138 15.7109 33.9948 15.7109C33.8758 15.7109 33.7569 15.7109 33.6676 15.7407C33.5784 15.7704 33.4892 15.7704 33.4297 15.8002V17.198H33.6974V15.9786C33.6974 15.9786 33.7271 15.9786 33.7569 15.9786C33.7866 15.9786 33.8163 15.9786 33.8163 15.9786C33.8461 15.9786 33.8758 15.9786 33.9056 15.9786C33.9353 15.9786 33.965 15.9786 33.9948 15.9786C34.0543 15.9786 34.1138 15.9786 34.1732 16.0084C34.2327 16.0381 34.2625 16.0678 34.2922 16.0976C34.3219 16.1273 34.3517 16.1868 34.3517 16.2463C34.3517 16.3058 34.3814 16.395 34.3814 16.4842V17.2278H34.6491V16.4247C34.6491 16.3355 34.6491 16.2463 34.6194 16.1571C34.5599 16.0381 34.5301 15.9786 34.4707 15.9191Z" fill="#5C5C5C"></path>
                                        <path d="M35.69 16.3644C35.6305 16.5428 35.5711 16.751 35.5116 16.9295C35.4521 16.8403 35.4224 16.751 35.3926 16.6321C35.3629 16.5428 35.3034 16.4239 35.2736 16.3346C35.2439 16.2454 35.2142 16.1264 35.1844 16.0372C35.1547 15.948 35.1249 15.8588 35.1249 15.7695H34.7978C34.8573 16.0372 34.9465 16.2752 35.0357 16.5428C35.1249 16.7808 35.2439 17.0187 35.3629 17.2566C35.3034 17.3459 35.2736 17.4351 35.2142 17.4648C35.1547 17.5243 35.0655 17.5243 34.9762 17.5243C34.9465 17.5243 34.9167 17.5243 34.887 17.5243C34.8572 17.5243 34.8275 17.4946 34.7978 17.4946L34.7383 17.7028H34.768C34.7978 17.7028 34.7978 17.7028 34.8275 17.7325C34.8573 17.7325 34.8572 17.7325 34.887 17.7325C34.9167 17.7325 34.9167 17.7325 34.9465 17.7325C35.0357 17.7325 35.0952 17.7325 35.1547 17.7028C35.2142 17.673 35.2736 17.6433 35.3034 17.6135C35.3629 17.5838 35.3926 17.5243 35.4224 17.4648C35.4521 17.4054 35.5116 17.3459 35.5413 17.2566C35.6305 17.0484 35.7198 16.8105 35.809 16.5428C35.8982 16.3049 35.9577 16.0372 36.0469 15.7695H35.7793C35.7793 15.9777 35.7198 16.1562 35.69 16.3644Z" fill="#5C5C5C"></path>
                                        <path d="M3.74636 13.9266C3.74636 13.9266 2.76487 12.7667 1.90234 13.5995L4.51966 16.3655L9.30813 11.1309L4.48991 14.6404L3.74636 13.9266Z" fill="black"></path>
                                        <path d="M7.37598 13.8074C7.37598 13.8372 7.37598 13.8967 7.37598 13.9264V16.276C7.37598 16.9898 7.70315 17.3765 8.53593 17.3765H8.92257V13.6884C8.92257 13.1531 8.8036 12.6772 8.62515 12.3203L7.37598 13.8074Z" fill="black"></path>
                                        <path d="M3.65828 13.421C3.80699 13.54 4.55054 14.1646 4.55054 14.1646L5.14539 13.7482C4.99668 12.9154 4.729 12.2908 4.31261 11.8447C3.86648 11.3391 3.36086 11.1903 3.00396 11.1309C2.91473 11.1309 2.82551 11.1309 2.73628 11.1309C0.892268 11.1309 0 12.2313 0 13.8969V16.2762C0 16.9901 0.475878 17.3767 1.10046 17.3767H1.51685V13.7779C1.51685 12.9451 1.96298 12.4693 2.55783 12.4693C3.12293 12.4693 3.50957 12.7667 3.65828 13.421Z" fill="black"></path>
                                        </svg>