<svg width="144" height="48" viewBox="0 0 169 52" fill="none" xmlns="http://www.w3.org/2000/svg"><rect x="0.25" y="0.25" width="168.5" height="51.5" rx="9.75" stroke="white" stroke-width="0.5"></rect><path d="M39.959 18.1865C34.7162 21.6474 35.5593 28.9514 40.867 31.2205C40.5491 31.9833 40.3191 32.8011 39.8944 33.5002C38.9565 35.0437 37.9875 36.578 36.9041 38.0205C35.9627 39.2739 34.671 40.0455 33.0107 39.866C32.4784 39.8085 31.9133 39.715 31.4431 39.4787C29.1534 38.3284 26.906 38.3774 24.6082 39.4732C23.3933 40.0526 22.0669 40.2696 20.8831 39.4394C20.0648 38.8656 19.3043 38.1568 18.6687 37.3842C16.1221 34.289 14.6058 30.7203 14.1289 26.7425C13.7753 23.7931 14.0852 20.9377 15.8655 18.4288C17.3449 16.3438 19.3873 15.1881 21.9417 14.9972C23.2234 14.9015 24.4241 15.3091 25.549 15.8507C26.939 16.52 28.241 16.5363 29.645 15.864C31.5325 14.9603 33.5222 14.6 35.6061 15.1692C37.2267 15.6119 38.5944 16.4362 39.6502 17.7551C39.7603 17.8928 39.8561 18.0421 39.959 18.1865Z" fill="white"></path><path d="M71.9219 38.3003C71.9219 40.49 71.9219 42.5504 71.9219 44.6424C70.9815 44.6424 70.0868 44.6424 69.1133 44.6424C69.1133 38.8495 69.1133 33.0748 69.1133 27.2632C69.8622 27.2632 70.6481 27.2632 71.4739 27.2632C71.5321 27.8626 71.5891 28.4495 71.6425 28.9979C72.1756 28.5352 72.656 27.9754 73.2575 27.6218C75.5865 26.2526 78.4554 26.9803 79.9314 29.2516C81.4278 31.5541 81.3443 35.4808 79.7518 37.7069C78.4015 39.5945 76.1183 40.3801 73.8914 39.7234C73.1793 39.5135 72.6672 39.1547 71.9219 38.3003ZM78.2905 33.4814C78.0934 32.6447 77.9879 31.8676 77.7242 31.1486C77.2317 29.8053 76.1061 29.1222 74.7213 29.2079C73.4912 29.2841 72.2829 30.2473 72.0939 31.5731C71.9194 32.7972 71.8905 34.0699 72.0112 35.3003C72.1368 36.5812 73.2435 37.5551 74.4053 37.7053C75.8324 37.8898 77.0416 37.2978 77.5931 35.9881C77.9306 35.1871 78.0696 34.3023 78.2905 33.4814Z" fill="white"></path><path d="M83.377 27.254C84.1198 27.254 84.8927 27.254 85.7161 27.254C85.7728 27.8472 85.8291 28.435 85.8853 29.0227C85.9271 29.0606 85.9688 29.0985 86.0106 29.1364C86.0462 29.0459 86.0661 28.9446 86.1197 28.8664C87.8278 26.3694 92.3168 26.0689 94.2765 29.4124C95.1063 30.8283 95.3236 32.3717 95.2186 33.9678C95.1011 35.7538 94.5688 37.3881 93.1773 38.6165C91.5898 40.0181 89.752 40.2714 87.8082 39.5795C87.2091 39.3663 86.7169 38.8527 86.1703 38.4729C86.1703 40.4657 86.1703 42.5374 86.1703 44.6417C85.2302 44.6417 84.3497 44.6417 83.3772 44.6417C83.377 38.8577 83.377 33.0694 83.377 27.254ZM86.0827 33.5552C86.0993 33.5584 86.116 33.5618 86.1327 33.5651C86.158 34.0894 86.1637 34.6156 86.2126 35.1376C86.3212 36.2967 87.1941 37.3074 88.3337 37.6258C89.5241 37.9585 90.8055 37.5765 91.4732 36.5873C92.6402 34.8579 92.6731 32.9866 91.9472 31.0934C91.4427 29.7775 90.3456 29.1284 88.9624 29.208C87.8024 29.2748 86.6679 30.1841 86.3584 31.4142C86.1841 32.1071 86.1693 32.8402 86.0827 33.5552Z" fill="white"></path><path d="M66.7644 39.6551C65.8429 39.6551 64.9738 39.6727 64.1068 39.6372C63.967 39.6314 63.7668 39.4118 63.7135 39.2515C63.2576 37.8813 62.8177 36.5053 62.4001 35.1228C62.2916 34.7634 62.1536 34.6045 61.7415 34.6124C60.2184 34.6418 58.6942 34.6408 57.1711 34.613C56.7632 34.6056 56.6107 34.7549 56.505 35.121C56.0739 36.6146 55.616 38.1004 55.1586 39.6199C54.2173 39.6199 53.2816 39.6199 52.2852 39.6199C52.402 39.2271 52.5099 38.8378 52.6334 38.4535C54.2924 33.2898 55.9577 28.1281 57.6063 22.9611C57.7357 22.5556 57.9011 22.3734 58.3586 22.3988C59.1542 22.4429 59.955 22.4335 60.7517 22.4013C61.1337 22.3858 61.2834 22.5274 61.3952 22.8772C62.7277 27.0451 64.0764 31.2077 65.4191 35.3723C65.83 36.6464 66.2362 37.922 66.6427 39.1975C66.6851 39.3309 66.7152 39.4684 66.7644 39.6551ZM57.2207 32.4427C58.7104 32.4427 60.1918 32.4427 61.6901 32.4427C60.9202 29.9262 60.1557 27.4276 59.4145 25.0049C58.6968 27.4382 57.9595 29.9381 57.2207 32.4427Z" fill="white"></path><path d="M100.473 38.8201C100.682 38.061 100.887 37.3175 101.11 36.5099C102.215 37.1327 103.357 37.5254 104.579 37.5438C105.275 37.5542 105.998 37.498 106.666 37.3153C107.56 37.0709 108.17 36.4425 108.318 35.4846C108.474 34.4748 108.204 33.5838 107.329 33.0056C106.731 32.6106 106.049 32.3447 105.415 32.0025C104.401 31.4554 103.304 31.0105 102.403 30.3138C100.164 28.5823 100.267 25.2751 102.434 23.457C104.58 21.6571 108.887 21.9752 110.515 23.0467C110.289 23.7686 110.058 24.5034 109.818 25.2723C108.565 24.6238 107.277 24.4062 105.932 24.5218C104.368 24.6564 103.436 25.6876 103.6 27.0745C103.684 27.7845 104.088 28.2951 104.667 28.6309C105.383 29.047 106.136 29.408 106.896 29.7409C107.964 30.2085 109.011 30.7094 109.842 31.5456C112.031 33.7481 111.468 37.5044 108.737 39.04C107.072 39.9758 105.272 39.9859 103.452 39.8139C102.399 39.7144 101.396 39.4282 100.473 38.8201Z" fill="white"></path><path d="M121.763 33.4932C121.788 31.404 122.392 29.5386 124.09 28.2228C126.053 26.701 128.28 26.563 130.508 27.4868C132.645 28.3732 133.698 30.17 133.856 32.4231C133.93 33.4863 133.863 34.6086 133.598 35.6368C132.876 38.447 130.272 40.1011 127.348 39.9372C123.847 39.7409 121.712 36.8868 121.763 33.4932ZM124.624 33.4859C124.598 34.5768 124.843 35.6761 125.534 36.6415C126.708 38.2827 129.024 38.279 130.115 36.5778C131.4 34.5733 131.42 32.4576 130.245 30.4073C129.152 28.4982 126.573 28.5298 125.401 30.4006C124.825 31.3203 124.615 32.3339 124.624 33.4859Z" fill="white"></path><path d="M155.097 34.1105C152.313 34.1105 149.6 34.1105 146.891 34.1105C146.686 35.9657 148.213 37.6446 150.159 37.7151C150.809 37.7386 151.467 37.7311 152.11 37.6508C152.75 37.5711 153.377 37.3822 154.069 37.2279C154.191 37.7564 154.346 38.3074 154.427 38.8688C154.445 38.9883 154.225 39.2197 154.07 39.2754C152.422 39.867 150.726 40.0249 148.993 39.7724C147.149 39.5035 145.762 38.5594 144.874 36.9181C143.524 34.4259 144.022 30.6414 145.992 28.5998C147.62 26.9123 149.634 26.5616 151.792 27.2255C153.867 27.8641 154.77 29.5433 155.077 31.5581C155.2 32.3676 155.097 33.2113 155.097 34.1105ZM152.447 32.0861C152.707 30.5596 151.664 29.0998 150.191 28.8935C148.508 28.6578 147.047 30.0543 146.875 32.0861C148.736 32.0861 150.594 32.0861 152.447 32.0861Z" fill="white"></path><path d="M114.516 29.3139C113.883 29.3139 113.325 29.3139 112.725 29.3139C112.725 28.6208 112.725 27.9592 112.725 27.2196C113.291 27.2196 113.877 27.2196 114.516 27.2196C114.516 26.5494 114.527 25.9554 114.511 25.3621C114.503 25.0714 114.56 24.9174 114.889 24.8335C115.656 24.6377 116.407 24.3767 117.249 24.1162C117.249 24.6685 117.249 25.1495 117.249 25.6304C117.249 26.1193 117.249 26.6083 117.249 27.1794C118.25 27.1794 119.233 27.1794 120.243 27.1794C120.243 27.9239 120.243 28.5863 120.243 29.3035C119.261 29.3035 118.291 29.3035 117.297 29.3035C117.276 29.475 117.249 29.5957 117.249 29.7166C117.246 31.6213 117.246 33.5261 117.247 35.4308C117.247 35.5936 117.257 35.7578 117.279 35.919C117.463 37.2777 118.122 37.7729 119.481 37.5794C119.655 37.5547 119.828 37.5236 120.041 37.4889C120.081 38.1274 120.129 38.7209 120.145 39.3153C120.149 39.428 120.059 39.5982 119.963 39.6506C118.996 40.1756 116.563 39.8839 115.709 39.1656C114.794 38.3962 114.563 37.3298 114.537 36.2338C114.486 34.0944 114.518 31.9531 114.516 29.8125C114.516 29.6704 114.516 29.5283 114.516 29.3139Z" fill="white"></path><path d="M142.866 27.0833C142.866 27.9062 142.866 28.7361 142.866 29.6292C142.526 29.6292 142.19 29.6286 141.855 29.6293C140.836 29.6318 140.035 30.0817 139.618 30.9873C139.332 31.6093 139.14 32.3268 139.118 33.0085C139.054 35.0008 139.095 36.9966 139.095 38.991C139.095 39.1871 139.095 39.3832 139.095 39.6177C138.156 39.6177 137.262 39.6177 136.287 39.6177C136.287 35.5028 136.287 31.3994 136.287 27.2593C137.025 27.2593 137.796 27.2593 138.628 27.2593C138.674 27.9589 138.722 28.668 138.772 29.4177C140.325 27.2577 141.449 26.619 142.866 27.0833Z" fill="white"></path><path d="M33.9328 7.00005C34.5347 10.7067 30.8411 14.974 27.4297 14.562C26.5995 11.4301 30.4083 6.98317 33.9328 7.00005Z" fill="white"></path><path d="M91.1642 15.5487C91.1329 15.8073 91.1057 16.0323 91.0745 16.2887C90.6954 16.2887 90.3262 16.2887 89.9395 16.2887C89.9395 13.3151 89.9395 10.3828 89.9395 7.39941C90.3994 7.39941 90.8393 7.39941 91.3178 7.39941C91.3178 8.56885 91.3178 9.7214 91.3178 10.8466C91.7452 10.6008 92.1288 10.2855 92.5681 10.1459C93.7376 9.7741 94.9044 10.2824 95.4242 11.4153C96.0187 12.7109 95.9945 14.0329 95.2174 15.2561C94.2931 16.7113 92.5515 16.8642 91.3353 15.6451C91.3022 15.6117 91.2508 15.5964 91.1642 15.5487ZM91.3141 13.1463C91.3435 13.5337 91.3402 13.8269 91.3923 14.1099C91.5145 14.7732 91.9716 15.2182 92.5676 15.293C93.291 15.3838 93.8281 15.1207 94.1191 14.4703C94.5018 13.6154 94.5096 12.7512 94.0539 11.9121C93.7661 11.3819 93.2954 11.1214 92.7084 11.1745C92.0999 11.2296 91.6589 11.5866 91.4718 12.1716C91.3635 12.5104 91.3542 12.8811 91.3141 13.1463Z" fill="white"></path><path d="M60.3857 16.3171C59.9954 16.3171 59.6147 16.3498 59.245 16.3004C59.1033 16.2814 58.9246 16.098 58.8697 15.9497C58.6624 15.3907 58.4875 14.8185 58.3241 14.2445C58.2446 13.965 58.1327 13.8207 57.8056 13.835C57.1542 13.8633 56.5005 13.8558 55.8485 13.8377C55.5651 13.8299 55.4299 13.9215 55.3572 14.2028C55.2173 14.7442 55.0148 15.2697 54.8819 15.8124C54.7901 16.1871 54.6319 16.3769 54.2189 16.3247C53.9403 16.2894 53.6535 16.3179 53.2852 16.3179C53.5289 15.5471 53.7422 14.8641 53.9609 14.1829C54.5959 12.2048 55.24 10.2296 55.8622 8.24744C55.9609 7.93306 56.1088 7.83331 56.4335 7.8319C57.7152 7.82635 57.7186 7.81371 58.1144 9.04173C58.8797 11.416 59.6408 13.7915 60.4028 16.1669C60.4077 16.1821 60.3995 16.2014 60.3857 16.3171ZM55.7486 12.7312C56.4807 12.7312 57.1855 12.7312 57.9204 12.7312C57.5497 11.5406 57.1902 10.3858 56.8112 9.16783C56.4428 10.403 56.0998 11.5532 55.7486 12.7312Z" fill="white"></path><path d="M140.958 16.3028C140.54 16.3028 140.13 16.3028 139.644 16.3028C139.644 15.4333 139.653 14.5884 139.641 13.7437C139.633 13.2559 139.628 12.7635 139.559 12.2824C139.442 11.4722 139.062 11.1869 138.269 11.2361C137.623 11.2762 137.155 11.7535 137.138 12.4574C137.113 13.5264 137.096 14.5972 137.13 15.6655C137.147 16.1769 137.017 16.4101 136.477 16.3348C136.25 16.3031 136.015 16.3296 135.738 16.3296C135.738 13.3295 135.738 10.3853 135.738 7.34876C136.061 7.34876 136.38 7.36161 136.697 7.34517C137.027 7.32807 137.144 7.46517 137.139 7.79229C137.125 8.78771 137.134 9.78345 137.134 10.7988C137.483 10.5769 137.785 10.3122 138.136 10.1738C139.409 9.67281 140.794 10.4135 140.926 11.8085C141.065 13.2749 140.958 14.765 140.958 16.3028Z" fill="white"></path><path d="M117.765 13.2315C117.752 15.1217 116.477 16.464 114.696 16.4612C112.956 16.4584 111.713 15.132 111.717 13.2812C111.72 11.3573 112.989 10.0327 114.82 10.0401C116.573 10.0471 117.778 11.3531 117.765 13.2315ZM116.384 13.409C116.239 12.8167 116.196 12.372 116.022 11.9867C115.582 11.0117 114.427 10.7996 113.744 11.5302C113.002 12.3235 112.981 14.0945 113.703 14.9134C114.269 15.5555 115.171 15.6177 115.681 14.9387C116.03 14.4734 116.184 13.8614 116.384 13.409Z" fill="white"></path><path d="M143.908 13.6114C144.012 15.1897 145.081 15.6253 147.44 15.0961C147.506 15.4037 147.572 15.711 147.647 16.0598C146.502 16.4608 145.391 16.6275 144.272 16.1934C143.107 15.7417 142.648 14.7903 142.523 13.6052C142.355 11.9969 143.307 10.4687 144.739 10.1051C146.319 9.70412 147.718 10.6575 147.923 12.2746C148.093 13.6115 148.093 13.6115 146.764 13.6115C145.825 13.6114 144.886 13.6114 143.908 13.6114ZM143.91 12.535C144.829 12.535 145.71 12.535 146.589 12.535C146.635 11.723 146.223 11.1484 145.545 11.0497C144.723 10.9301 144.126 11.4578 143.91 12.535Z" fill="white"></path><path d="M102.47 13.6118C102.704 15.2424 103.795 15.6825 105.989 15.084C106.069 15.386 106.148 15.6879 106.245 16.0549C104.903 16.5015 103.606 16.709 102.355 15.9356C101.22 15.2336 100.801 13.634 101.288 12.0815C101.692 10.7895 102.766 10.0079 104.095 10.0308C105.821 10.0604 106.751 11.5939 106.537 13.3795C106.526 13.4736 106.243 13.598 106.085 13.6012C105.088 13.6217 104.091 13.6117 103.095 13.6118C102.898 13.6118 102.702 13.6118 102.47 13.6118ZM105.219 12.5342C105.079 11.4498 104.662 10.9994 103.858 11.0413C103.124 11.0795 102.566 11.7072 102.537 12.5342C103.43 12.5342 104.323 12.5342 105.219 12.5342Z" fill="white"></path><path d="M119.701 10.1926C120.899 10.0796 120.899 10.0796 120.949 10.8922C121.321 10.6543 121.674 10.3396 122.087 10.1803C123.442 9.65782 124.824 10.4706 124.935 11.9423C125.042 13.3629 124.958 14.7979 124.958 16.2785C124.576 16.2785 124.137 16.2785 123.625 16.2785C123.625 15.4248 123.631 14.5786 123.622 13.7325C123.617 13.2625 123.62 12.7888 123.563 12.3237C123.47 11.5636 123.124 11.2406 122.473 11.2299C121.77 11.2185 121.218 11.6264 121.155 12.3282C121.081 13.1562 121.107 13.9932 121.091 14.8263C121.087 15.0075 121.09 15.189 121.089 15.3703C121.088 16.4234 121.087 16.4343 120.042 16.3147C119.913 16.2999 119.704 16.0978 119.702 15.9792C119.666 14.0946 119.657 12.2095 119.645 10.3244C119.644 10.2926 119.671 10.2606 119.701 10.1926Z" fill="white"></path><path d="M87.6258 16.2833C87.2763 16.2833 86.8863 16.2833 86.4843 16.2833C86.445 16.0946 86.409 15.9216 86.3818 15.7912C85.9212 16.0036 85.496 16.2807 85.0307 16.3978C84.0504 16.6446 83.1236 16.1543 82.8023 15.3046C82.4444 14.3579 82.8023 13.3055 83.7472 12.8669C84.3236 12.5993 84.9843 12.5093 85.6117 12.3583C85.7996 12.3132 86.0028 12.3318 86.1898 12.3215C86.4068 11.1209 85.0656 10.6468 83.4483 11.4543C82.9829 10.6879 83.0317 10.4626 83.8654 10.261C84.4539 10.1187 85.087 10.04 85.6868 10.0906C86.9164 10.1942 87.6118 11.0272 87.6231 12.2899C87.635 13.6091 87.6258 14.9285 87.6258 16.2833ZM86.2277 13.3167C85.9346 13.3167 85.6558 13.2466 85.437 13.3315C84.9991 13.5014 84.5026 13.6752 84.2101 14.0064C84.0347 14.205 84.1005 14.7469 84.2348 15.0581C84.4194 15.4859 84.902 15.4511 85.2934 15.3715C85.7661 15.2754 86.1255 14.9703 86.2144 14.487C86.2815 14.1234 86.2277 13.7376 86.2277 13.3167Z" fill="white"></path><path d="M71.8318 12.3159C72.0674 11.1092 70.7284 10.6538 69.0991 11.4505C68.6333 10.6622 68.6757 10.471 69.5322 10.2617C70.1038 10.1221 70.7165 10.0426 71.3002 10.0844C72.4938 10.17 73.2361 11.0086 73.2558 12.2179C73.2776 13.5564 73.2608 14.8956 73.2608 16.2766C72.9401 16.2766 72.5527 16.2766 72.132 16.2766C72.1002 16.0899 72.0683 15.9027 72.0562 15.8319C71.5032 16.039 70.9597 16.3404 70.3823 16.4358C69.5083 16.5803 68.7355 16.052 68.4472 15.2692C68.1427 14.4423 68.388 13.4366 69.1631 13.0262C69.7994 12.6893 70.5481 12.5606 71.2526 12.3595C71.4377 12.3068 71.6438 12.3281 71.8318 12.3159ZM71.9861 13.1804C71.3232 13.3337 70.7608 13.4137 70.2368 13.6011C69.8213 13.7496 69.6437 14.1656 69.7472 14.582C69.8167 14.8619 70.0035 15.2132 70.2388 15.3314C70.8547 15.6411 71.6917 15.1991 71.8604 14.5094C71.9518 14.1356 71.938 13.736 71.9861 13.1804Z" fill="white"></path><path d="M64.3276 14.8145C64.7224 13.5667 65.0826 12.4384 65.4364 11.308C65.8252 10.066 65.8226 10.0652 67.2015 10.2161C67.1555 10.3749 67.1218 10.528 67.0672 10.6733C66.4068 12.4302 65.7333 14.1823 65.0893 15.9453C64.9684 16.2763 64.7699 16.3756 64.4779 16.3112C64.1445 16.2379 63.6877 16.5672 63.4905 16.0301C62.8058 14.1656 62.1229 12.3004 61.4424 10.4343C61.4193 10.3708 61.4289 10.2952 61.4238 10.2308C61.4725 10.2085 61.5027 10.184 61.5346 10.1816C62.8147 10.0847 62.8163 10.0844 63.2052 11.2963C63.5686 12.4281 63.928 13.5613 64.3276 14.8145Z" fill="white"></path><path d="M130.953 10.1332C131.117 8.88533 131.117 8.88533 132.352 8.69629C132.352 9.16432 132.352 9.62724 132.352 10.1414C132.858 10.1414 133.321 10.1414 133.833 10.1414C133.833 10.5213 133.833 10.8496 133.833 11.2292C133.354 11.2292 132.89 11.2292 132.389 11.2292C132.389 12.3423 132.342 13.4091 132.406 14.4687C132.449 15.1713 132.679 15.2641 133.708 15.285C133.725 15.316 133.761 15.3492 133.757 15.3777C133.719 15.699 133.789 16.1425 133.606 16.3143C133.255 16.6442 131.998 16.5001 131.666 16.1015C131.382 15.7607 131.122 15.3041 131.079 14.8758C130.982 13.9048 131.023 12.9196 131.01 11.9401C131.007 11.7254 131.01 11.5107 131.01 11.2719C130.696 11.2502 130.432 11.2319 130.129 11.211C130.129 10.8773 130.129 10.5611 130.129 10.1907C130.399 10.1718 130.662 10.1535 130.953 10.1332Z" fill="white"></path><path d="M97.7891 7.38477C98.2532 7.38477 98.6795 7.38477 99.1394 7.38477C99.1394 10.3661 99.1394 13.3109 99.1394 16.2929C98.6832 16.2929 98.2578 16.2929 97.7891 16.2929C97.7891 13.3315 97.7891 10.3855 97.7891 7.38477Z" fill="white"></path><path d="M79.3984 7.40723C79.863 7.40723 80.2756 7.40723 80.7262 7.40723C80.7262 10.3703 80.7262 13.3087 80.7262 16.2826C80.2844 16.2826 79.8591 16.2826 79.3984 16.2826C79.3984 13.329 79.3984 10.3904 79.3984 7.40723Z" fill="white"></path><path d="M76.9483 16.2858C76.4929 16.2858 76.0847 16.2858 75.6426 16.2858C75.6426 14.2542 75.6426 12.2547 75.6426 10.2139C76.0783 10.2139 76.4982 10.2139 76.9483 10.2139C76.9483 12.234 76.9483 14.2344 76.9483 16.2858Z" fill="white"></path><path d="M76.3049 9.18828C75.8027 9.18959 75.4655 8.87673 75.4572 8.40151C75.4488 7.92455 75.839 7.54494 76.3256 7.55692C76.7925 7.56846 77.1573 7.93762 77.1504 8.39171C77.1435 8.85724 76.7934 9.18709 76.3049 9.18828Z" fill="white"></path></svg>