<svg xmlns="http://www.w3.org/2000/svg" width="50" height="50" viewBox="0 0 50 50" fill="none">
    <path d="M1 20.4262C1 19.9864 1 19.5559 1 19.1161C1.12239 19.0413 1.10356 18.9009 1.14122 18.7792C1.66842 17.1229 3.09 16.1309 4.84108 16.1964C5.47184 16.2151 6.01788 16.4772 6.58274 16.683C7.61833 17.441 8.11729 18.5078 8.43738 19.715C8.87045 21.334 9.37882 22.9342 9.84954 24.5438C10.1226 25.4889 10.3768 26.4341 10.6686 27.3699C11.0169 28.5116 11.9678 29.2134 13.154 29.2134C21.1186 29.2134 29.0832 29.2134 37.0478 29.2134C38.234 29.2134 39.1848 28.5116 39.5332 27.3699C39.8156 26.4341 40.0792 25.4796 40.3522 24.5438C40.6347 23.5986 40.9077 22.6628 41.1901 21.7176C41.3972 21.0345 41.6326 20.3514 41.7926 19.6589C42.0751 18.4517 42.6023 17.413 43.6473 16.683C43.9297 16.5707 44.2216 16.4491 44.504 16.3368C44.5322 16.4865 44.6546 16.5333 44.7676 16.5801C46.1986 17.2913 47.0459 19.0132 46.5752 20.8754C45.4078 25.4328 44.3251 30.0182 43.1766 34.5849C42.6023 36.8777 41.1242 38.3188 38.8365 38.9271C38.7047 38.9645 38.5541 38.9551 38.4693 39.1049C37.9798 39.0955 37.4997 39.0768 37.0101 39.0768C28.7913 39.0768 20.582 39.0768 12.3632 39.0768C12.1467 39.0768 11.9301 39.0955 11.7042 39.1049C11.4406 39.0955 11.177 39.0674 10.9134 39.0861C9.45414 39.161 8.08905 38.8803 6.86518 38.0568C5.63189 37.149 4.85991 35.9512 4.50216 34.4633C3.62662 30.8511 2.74167 27.2295 1.83788 23.6267C1.57428 22.5505 1.38599 21.465 1 20.4262Z" fill="#E6E6E6"></path>
    <path d="M44.5044 16.3381C46.6885 15.7859 48.5149 16.8434 49.1268 19.0051C49.1363 19.0425 49.1833 19.08 49.2022 19.1174C49.2022 19.5853 49.2022 20.0532 49.2022 20.5211C48.8632 21.2885 48.7503 22.1213 48.5526 22.9261C47.5923 26.8003 46.6414 30.6746 45.7 34.5488C45.3422 36.018 44.5514 37.1877 43.337 38.0861C42.5556 38.5727 41.7177 38.9658 40.7857 39.05C40.0419 39.1155 39.2888 39.1155 38.545 39.1436C38.5168 39.1436 38.498 39.1342 38.4697 39.1155C38.545 38.9658 38.6957 38.9751 38.8369 38.9377C41.1246 38.3201 42.6027 36.8883 43.1769 34.5956C44.3161 30.0289 45.4081 25.4528 46.5755 20.8861C47.0557 19.0238 46.2084 17.3019 44.768 16.5907C44.655 16.5346 44.5326 16.4878 44.5044 16.3381Z" fill="#E6E6E6"></path>
    <path d="M6.58203 16.6911C6.72325 14.4545 6.85505 12.2179 7.01509 9.972C7.2787 6.25687 10.4137 3.10322 14.1606 3.04707C20.6283 2.95349 27.1054 3.02835 33.5826 3.02835C33.6579 3.05643 33.7332 3.0845 33.8085 3.09386C36.9247 3.49625 39.5042 5.78897 40.2197 8.81161C40.408 9.6164 40.4363 10.4399 40.4833 11.2634C40.5775 13.0602 40.7187 14.8569 40.8317 16.6536C40.907 17.8983 40.9352 19.1429 41.0482 20.3781C41.0858 20.818 41.0294 21.2859 41.1988 21.7163C40.9164 22.6615 40.6434 23.5973 40.3609 24.5424C40.248 24.4395 40.1256 24.3366 40.0126 24.2336C38.9394 23.1575 37.6308 22.5211 36.1245 22.3059C32.7164 21.838 29.299 21.6134 25.8627 21.5666C22.4077 21.5292 18.9714 21.735 15.5351 22.1187C14.3113 22.2591 13.0686 22.3714 11.9388 22.9609C11.148 23.3727 10.489 23.9342 9.84883 24.5331C9.37811 22.9235 8.86973 21.3233 8.43667 19.7043C8.11658 18.5159 7.61762 17.4491 6.58203 16.6911ZM35.2677 12.1992C35.2677 11.75 35.0418 11.5254 34.4958 11.5442C34.0062 11.5629 33.8179 11.4038 33.8462 10.9078C33.8744 10.3838 33.592 10.0843 33.1683 10.0749C32.7259 10.0656 32.4246 10.3744 32.4528 10.9172C32.4811 11.4225 32.2928 11.5629 31.8032 11.5442C31.276 11.5161 31.0407 11.75 31.0218 12.1992C31.0124 12.6297 31.3043 12.9479 31.8032 12.9291C32.3022 12.9104 32.4717 13.0695 32.4434 13.5655C32.4152 14.0427 32.707 14.3328 33.1213 14.3422C33.5543 14.3516 33.865 14.0521 33.8368 13.5561C33.8085 13.0602 33.9874 12.9104 34.4769 12.9291C34.9947 12.9479 35.2677 12.639 35.2677 12.1992ZM19.1691 12.2179C19.1691 11.75 18.9243 11.5161 18.3689 11.5442C17.8982 11.5629 17.7287 11.4225 17.7475 10.9359C17.7758 10.3838 17.4933 10.0749 17.0509 10.0656C16.6084 10.0656 16.3259 10.365 16.3448 10.9265C16.3636 11.4038 16.1847 11.5535 15.714 11.5442C15.1586 11.5254 14.9138 11.7687 14.9232 12.2366C14.9232 12.6484 15.215 12.9572 15.6858 12.9291C16.2036 12.9011 16.373 13.0882 16.3448 13.5936C16.3165 14.0615 16.6272 14.3516 17.0509 14.3422C17.4651 14.3422 17.7758 14.0521 17.7381 13.5748C17.7005 13.0508 17.8982 12.9011 18.4065 12.9198C18.8867 12.9479 19.1691 12.6297 19.1691 12.2179Z" fill="black"></path>
    <path d="M9.84961 24.5531C10.4898 23.9542 11.1488 23.3927 11.9396 22.981C13.0693 22.3914 14.3026 22.2791 15.5359 22.1388C18.9628 21.7457 22.4084 21.5398 25.8635 21.5866C29.2998 21.6241 32.7266 21.858 36.1252 22.3259C37.6315 22.5318 38.9307 23.1681 40.0134 24.2537C40.1263 24.366 40.2487 24.4595 40.3617 24.5625C40.0887 25.5076 39.8345 26.4528 39.5427 27.3886C39.1943 28.5303 38.2435 29.2321 37.0573 29.2321C29.0927 29.2321 21.1281 29.2321 13.1635 29.2321C11.9773 29.2321 11.0264 28.5303 10.6781 27.3886C10.3768 26.4434 10.1226 25.4983 9.84961 24.5531Z" fill="black"></path>
    <path d="M41.1905 21.7254C41.021 21.295 41.0869 20.8364 41.0398 20.3872C40.9269 19.152 40.8986 17.9073 40.8233 16.6627C40.7103 14.866 40.5691 13.0692 40.475 11.2725C40.4279 10.449 40.4091 9.62549 40.2114 8.8207C39.4959 5.80742 36.9257 3.50535 33.8002 3.10295C33.7248 3.09359 33.6495 3.05616 33.5742 3.03745C35.2312 3.01873 36.8975 2.87836 38.4791 3.58021C41.2187 4.79675 42.8568 6.86488 43.1675 9.84073C43.4029 12.1147 43.4876 14.4074 43.6476 16.6908C42.6026 17.4207 42.0754 18.4688 41.793 19.6667C41.633 20.3591 41.3882 21.0423 41.1905 21.7254Z" fill="black"></path>
    <path d="M11.7131 39.1043C11.3271 39.8717 10.9411 40.639 10.5551 41.4064C9.04881 41.4532 7.64607 41.0789 6.2998 40.4425C6.48809 39.6471 6.6858 38.8517 6.87408 38.0469C8.09796 38.8704 9.46305 39.1511 10.9223 39.0763C11.1765 39.0669 11.4495 39.095 11.7131 39.1043Z" fill="black"></path>
    <path d="M6.29029 40.4434C7.63655 41.0797 9.04871 41.454 10.5456 41.4072C9.97132 42.5957 9.41587 43.7935 8.82276 44.9726C8.38029 45.8429 7.43885 46.2079 6.56331 45.8804C5.68777 45.5622 5.21705 44.6919 5.44299 43.728C5.69718 42.6331 6.00786 41.5476 6.29029 40.4434Z" fill="black"></path>
    <path d="M43.9096 40.4434C44.192 41.5382 44.5027 42.6331 44.7569 43.7374C44.9828 44.72 44.4933 45.5903 43.5895 45.8991C42.7046 46.1985 41.8008 45.8242 41.3583 44.9352C40.7746 43.7655 40.2192 42.5863 39.6543 41.4072C41.1512 41.4447 42.5633 41.0984 43.9096 40.4434Z" fill="black"></path>
    <path d="M43.9102 40.4398C42.5639 41.0949 41.1517 41.4412 39.6548 41.4037C39.2406 40.6644 38.8829 39.9064 38.5439 39.1297C39.2877 39.1016 40.0408 39.1016 40.7846 39.0361C41.7166 38.9519 42.5451 38.5682 43.3359 38.0723C43.5242 38.8677 43.7125 39.6538 43.9102 40.4398Z" fill="black"></path>
    <path d="M35.2696 12.1993C35.2696 12.6485 34.9871 12.9479 34.4882 12.9292C33.9986 12.9105 33.8197 13.0602 33.848 13.5562C33.8762 14.0522 33.5656 14.3516 33.1325 14.3423C32.7183 14.3329 32.4264 14.0428 32.4547 13.5655C32.4829 13.0696 32.3134 12.9105 31.8145 12.9292C31.3061 12.9479 31.0143 12.6391 31.0331 12.1993C31.0425 11.7501 31.2779 11.5161 31.8145 11.5442C32.304 11.5723 32.4923 11.4226 32.4641 10.9172C32.4358 10.3745 32.7371 10.0563 33.1796 10.075C33.6032 10.0844 33.8856 10.3838 33.8574 10.9079C33.8292 11.4038 34.0174 11.5629 34.507 11.5442C35.0436 11.5255 35.2696 11.7501 35.2696 12.1993Z" fill="#E6E6E6"></path>
    <path d="M35.2696 18.1251C35.2696 18.5742 34.9871 18.8737 34.4882 18.855C33.9986 18.8363 33.8197 18.986 33.848 19.482C33.8762 19.9779 33.5656 20.2774 33.1325 20.268C32.7183 20.2587 32.4264 19.9686 32.4547 19.4913C32.4829 18.9954 32.3134 18.8363 31.8145 18.855C31.3061 18.8737 31.0143 18.5649 31.0331 18.1251C31.0425 17.6759 31.2779 17.4419 31.8145 17.47C32.304 17.4981 32.4923 17.3483 32.4641 16.843C32.4358 16.3002 32.7371 15.9821 33.1796 16.0008C33.6032 16.0101 33.8856 16.3096 33.8574 16.8336C33.8292 17.3296 34.0174 17.4887 34.507 17.47C35.0436 17.4513 35.2696 17.6759 35.2696 18.1251Z" fill="#E6E6E6"></path>
    <path d="M19.1701 12.2211C19.1701 12.6329 18.8876 12.951 18.4169 12.9323C17.918 12.9136 17.7108 13.0633 17.7485 13.5874C17.7767 14.0553 17.4755 14.3454 17.0613 14.3547C16.647 14.3547 16.3269 14.0646 16.3552 13.6061C16.3834 13.1008 16.214 12.923 15.6962 12.9417C15.216 12.9604 14.9336 12.6516 14.9336 12.2492C14.9336 11.7813 15.1784 11.538 15.7244 11.5567C16.1951 11.5754 16.374 11.4163 16.3552 10.9391C16.3363 10.3869 16.6188 10.0781 17.0613 10.0781C17.5037 10.0781 17.7862 10.3869 17.7579 10.9484C17.7297 11.4257 17.9085 11.5754 18.3793 11.5567C18.9253 11.5193 19.1701 11.7626 19.1701 12.2211Z" fill="#E6E6E6"></path>
    <path d="M19.1701 18.143C19.1701 18.5547 18.8876 18.8729 18.4169 18.8542C17.918 18.8355 17.7108 18.9852 17.7485 19.5093C17.7767 19.9772 17.4755 20.2673 17.0613 20.2766C16.647 20.2766 16.3269 19.9865 16.3552 19.528C16.3834 19.0226 16.214 18.8448 15.6962 18.8636C15.216 18.8823 14.9336 18.5735 14.9336 18.1711C14.9336 17.7032 15.1784 17.4599 15.7244 17.4786C16.1951 17.4973 16.374 17.3382 16.3552 16.8609C16.3363 16.3088 16.6188 16 17.0613 16C17.5037 16 17.7862 16.3088 17.7579 16.8703C17.7297 17.3476 17.9085 17.4973 18.3793 17.4786C18.9253 17.4411 19.1701 17.6844 19.1701 18.143Z" fill="#E6E6E6"></path>
</svg>