<svg xmlns="http://www.w3.org/2000/svg" width="36" height="35" viewBox="0 0 36 35" fill="none">
    <path d="M17.7683 0C17.7683 0.671259 17.7683 1.33345 17.7683 2.02285C12.9787 2.14077 8.99653 3.96406 5.92144 7.62877C3.7081 10.2684 2.547 13.3435 2.41094 16.7815C2.12066 24.247 7.03718 30.3427 13.4323 32.1569C20.5803 34.1798 27.7646 31.1682 31.2932 24.7187C34.5951 18.6683 33.2888 11.357 28.9075 6.84866C28.971 7.71041 29.0345 8.49959 29.098 9.33413C28.4268 9.38856 27.7827 9.45205 27.0752 9.50648C26.9119 7.58341 26.7486 5.66942 26.5853 3.71914C28.5265 3.55586 30.4315 3.40165 32.3636 3.23837C32.418 3.9187 32.4815 4.57182 32.5359 5.26122C31.8465 5.32472 31.1753 5.37914 30.4587 5.44264C30.5312 5.54242 30.5766 5.61499 30.631 5.67849C33.1346 8.45424 34.6223 11.6926 35.0486 15.4117C35.0849 15.7383 35.1303 16.0558 35.1666 16.3823C35.1666 17.0899 35.1666 17.7884 35.1666 18.4868C35.1484 18.5866 35.1212 18.6864 35.1031 18.7862C34.9851 19.5572 34.9216 20.3373 34.7584 21.0993C32.4725 31.8848 20.5712 37.8626 10.5568 33.2636C3.06405 29.8347 -0.972572 21.7978 0.74186 13.7155C2.21137 6.83958 7.82636 1.4423 14.7657 0.263061C15.4007 0.154208 16.0448 0.0907107 16.6797 0C17.0426 0 17.4054 0 17.7683 0Z" fill="black"></path>
    <path d="M18.7932 28.1568C18.7932 27.3676 18.7932 26.5965 18.7932 25.8074C18.1129 25.8074 17.4507 25.8074 16.7522 25.8074C16.7522 26.5784 16.7522 27.3585 16.7522 28.1386C11.9355 27.8574 7.40902 23.6575 7.03711 18.4507C7.80815 18.4507 8.57919 18.4507 9.36837 18.4507C9.36837 17.7704 9.36837 17.1082 9.36837 16.4097C8.6064 16.4097 7.82629 16.4097 7.04618 16.4097C7.27296 11.8107 11.3005 7.12096 16.7341 6.68555C16.7341 7.46566 16.7341 8.24577 16.7341 9.03495C17.4235 9.03495 18.0766 9.03495 18.7751 9.03495C18.7751 8.25484 18.7751 7.47473 18.7751 6.68555C23.6916 7.05746 28.0548 11.1576 28.4993 16.3916C27.7191 16.3916 26.9481 16.3916 26.1498 16.3916C26.1498 17.0901 26.1498 17.7432 26.1498 18.4417C26.93 18.4417 27.7101 18.4417 28.4902 18.4417C28.1727 23.1586 24.1814 27.6851 18.7932 28.1568ZM14.9471 21.1267C16.208 20.0654 17.4326 19.0403 18.639 18.0062C18.7388 17.9246 18.7751 17.7341 18.7751 17.589C18.7841 15.5843 18.7841 13.5796 18.7841 11.5749C18.7841 11.466 18.7841 11.3571 18.7841 11.2302C18.0857 11.2302 17.4326 11.2302 16.7432 11.2302C16.7432 11.3753 16.7432 11.5023 16.7432 11.6202C16.7432 13.2893 16.7341 14.9493 16.7522 16.6184C16.7522 16.8633 16.6797 17.0175 16.4982 17.1626C15.9812 17.5799 15.4732 18.0153 14.9562 18.4507C14.5207 18.8226 14.0853 19.1945 13.6318 19.5665C14.0853 20.1017 14.5026 20.6006 14.9471 21.1267Z" fill="black"></path>
</svg>