<svg xmlns="http://www.w3.org/2000/svg" width="50" height="50" viewBox="0 0 50 50" fill="none">
    <path d="M31.229 35.6661C31.2764 34.8126 31.229 33.9472 31.229 33.0936C31.229 32.4772 31.229 31.8489 31.229 31.2324C29.842 32.2401 28.3245 32.9514 26.6174 33.2122C25.752 33.39 24.8866 33.4256 23.9975 33.3782C22.5512 33.2952 21.1879 32.9158 19.8839 32.3112C19.2556 32.0267 18.7102 31.5881 18.0701 31.2917C18.0701 31.8607 18.0819 32.4298 18.0819 32.9988C18.0819 34.0776 18.0819 35.1564 18.0701 36.2352C18.0582 36.982 17.8567 37.6578 17.3944 38.2505C17.098 38.6299 16.6831 38.867 16.3037 39.1278C16.3748 39.187 16.446 39.2345 16.5052 39.3056C17.0743 40.0406 17.8093 40.5978 18.568 41.0957C20.773 42.5301 23.1795 43.1584 25.8113 42.8739C27.72 42.6724 29.4508 42.0322 31.0156 40.9179C31.7506 40.3962 32.4145 39.7916 33.0191 39.1278C31.6321 38.3809 31.1579 37.1836 31.229 35.6661Z" fill="#E6E6E6"></path>
    <path d="M25.3842 33.9327H23.9142C18.2238 33.9327 13.6123 29.3212 13.6123 23.6309H35.6861C35.6861 29.3212 31.0745 33.9327 25.3842 33.9327Z" fill="black"></path>
    <path d="M30.5307 1.25H20.2762C19.0551 1.25 18.0712 2.23395 18.0712 3.45501H16.5893C13.6967 3.45501 11.3613 5.79042 11.3613 8.683V22.8496H18.0712V23.2171H37.9281V8.65929C37.9399 4.56936 34.6206 1.25 30.5307 1.25Z" fill="black"></path>
    <path d="M33.4203 24.0229H15.8869C15.4957 24.0229 15.1875 23.7146 15.1875 23.3234V13.6143C15.1875 12.0613 16.4441 10.8047 17.9971 10.8047H31.3101C32.8631 10.8047 34.1197 12.0613 34.1197 13.6143V23.3234C34.1197 23.7028 33.7996 24.0229 33.4203 24.0229Z" fill="#E6E6E6"></path>
    <path d="M31.0602 18.8446C30.1355 18.6075 29.0804 18.3467 28.0254 18.0503C27.6579 17.9436 27.5037 17.5287 27.6223 17.1849C27.7408 16.8293 28.0846 16.5922 28.4521 16.687C29.4598 16.9241 30.4556 17.1731 31.4514 17.4339C31.8308 17.5406 32.0442 17.8962 31.9967 18.24C31.9256 18.6075 31.6055 18.8564 31.0602 18.8446Z" fill="black"></path>
    <path d="M18.0801 18.8584C17.6533 18.8347 17.3925 18.6095 17.3214 18.1945C17.2503 17.827 17.4992 17.5544 18.0801 17.3173C18.9574 17.1039 19.8346 16.9024 20.7119 16.689C21.032 16.606 21.2928 16.6416 21.5299 16.8787C21.9211 17.3054 21.7314 17.9456 21.1505 18.0997C20.1192 18.3842 19.0996 18.6095 18.0801 18.8584Z" fill="black"></path>
    <path d="M19.5039 20.6967C19.5039 19.9617 19.741 19.5942 20.2271 19.5823C20.7368 19.5704 20.9858 19.9498 20.9858 20.6967C20.9858 20.8271 20.9976 20.9693 20.9739 21.0997C20.9146 21.5384 20.6064 21.7992 20.1915 21.7755C19.8003 21.7517 19.5395 21.4791 19.5039 21.0523C19.5039 20.9338 19.5039 20.8152 19.5039 20.6967Z" fill="black"></path>
    <path d="M29.8041 20.6985C29.8041 20.8171 29.816 20.9356 29.8041 21.0541C29.7686 21.5046 29.4841 21.7892 29.0691 21.7892C28.6542 21.7892 28.3578 21.5165 28.3223 21.0779C28.2986 20.8526 28.3104 20.6392 28.3223 20.414C28.346 19.9279 28.6542 19.5841 29.081 19.596C29.5078 19.6079 29.7923 19.9398 29.816 20.4377C29.8041 20.5207 29.8041 20.6037 29.8041 20.6985Z" fill="black"></path>
    <path d="M36.3846 24.0146H34.0137V19.5098H36.3846C37.6294 19.5098 38.6371 20.5174 38.6371 21.7622C38.6489 23.007 37.6294 24.0146 36.3846 24.0146Z" fill="#E6E6E6"></path>
    <path d="M13.1129 19.5098H15.4839V24.0146H13.1129C11.8681 24.0146 10.8605 23.007 10.8605 21.7622C10.8486 20.5174 11.8681 19.5098 13.1129 19.5098Z" fill="#E6E6E6"></path>
    <path d="M14.8576 25.7076C14.4664 25.7076 14.1582 25.3875 14.1582 25.0082V19.2112C14.1582 18.8199 14.4783 18.5117 14.8576 18.5117C15.2489 18.5117 15.5571 18.8318 15.5571 19.2112V25.0082C15.5571 25.3994 15.237 25.7076 14.8576 25.7076Z" fill="black"></path>
    <path d="M34.4768 25.7076C34.0856 25.7076 33.7773 25.3875 33.7773 25.0082V19.2112C33.7773 18.8199 34.0974 18.5117 34.4768 18.5117C34.868 18.5117 35.1762 18.8318 35.1762 19.2112V25.0082C35.1762 25.3994 34.868 25.7076 34.4768 25.7076Z" fill="black"></path>
    <path d="M36.2784 39.9082H35.7094C33.2317 43.3343 29.2129 45.563 24.6606 45.563C20.1083 45.563 16.0895 43.3343 13.6119 39.9082H13.0903C9.30856 39.9082 6.25 42.9668 6.25 46.7485C6.25 47.851 7.15097 48.7519 8.25347 48.7519H41.1152C42.2177 48.7519 43.1186 47.851 43.1186 46.7485C43.1186 42.9668 40.0601 39.9082 36.2784 39.9082Z" fill="black"></path>
    <path d="M24.6603 42.7558C21.3884 42.7558 18.4602 41.3213 16.4568 39.0452L13.5879 39.9462C16.0656 43.3959 20.0962 45.6365 24.6722 45.6365C29.26 45.6365 33.3262 43.3604 35.7921 39.8869L32.8876 39.0215C30.8841 41.3213 27.9441 42.7558 24.6603 42.7558Z" fill="black"></path>
</svg>