<svg width="24" height="24" viewBox="0 0 24 24" fill="none" xmlns="http://www.w3.org/2000/svg"><path d="M10.7525 6.99851C8.77756 6.99851 7.16589 8.57195 7.16589 10.5C7.16589 12.4281 8.77756 14.0015 10.7525 14.0015C12.7274 14.0015 14.3391 12.4281 14.3391 10.5C14.3391 8.57195 12.7274 6.99851 10.7525 6.99851ZM21.5095 10.5C21.5095 9.05002 21.523 7.61317 21.4396 6.16582C21.3562 4.48469 20.9633 2.99268 19.7041 1.76335C18.4422 0.53139 16.9167 0.150507 15.1947 0.0690774C13.7094 -0.0123526 12.2377 0.000781318 10.7552 0.000781318C9.26994 0.000781318 7.79818 -0.0123526 6.31566 0.0690774C4.59367 0.150507 3.0654 0.534016 1.8062 1.76335C0.544303 2.9953 0.154165 4.48469 0.0707561 6.16582C-0.0126528 7.6158 0.000800306 9.05265 0.000800306 10.5C0.000800306 11.9474 -0.0126528 13.3868 0.0707561 14.8342C0.154165 16.5153 0.546994 18.0073 1.8062 19.2367C3.06809 20.4686 4.59367 20.8495 6.31566 20.9309C7.80087 21.0124 9.27264 20.9992 10.7552 20.9992C12.2404 20.9992 13.7121 21.0124 15.1947 20.9309C16.9167 20.8495 18.4449 20.466 19.7041 19.2367C20.966 18.0047 21.3562 16.5153 21.4396 14.8342C21.5257 13.3868 21.5095 11.95 21.5095 10.5ZM10.7525 15.8875C7.69863 15.8875 5.23403 13.4814 5.23403 10.5C5.23403 7.51861 7.69863 5.11248 10.7525 5.11248C13.8063 5.11248 16.2709 7.51861 16.2709 10.5C16.2709 13.4814 13.8063 15.8875 10.7525 15.8875ZM16.4969 6.15006C15.7839 6.15006 15.2081 5.58793 15.2081 4.89184C15.2081 4.19574 15.7839 3.63361 16.4969 3.63361C17.2099 3.63361 17.7857 4.19574 17.7857 4.89184C17.7859 5.05713 17.7527 5.22083 17.688 5.37358C17.6234 5.52633 17.5284 5.66512 17.4087 5.782C17.289 5.89888 17.1468 5.99155 16.9904 6.05471C16.8339 6.11786 16.6662 6.15027 16.4969 6.15006Z" fill="white"></path></svg>