<svg width="50" height="50" viewBox="0 0 50 50" fill="none" xmlns="http://www.w3.org/2000/svg">
    <path d="M8.71854 41.6145C8.71854 42.1563 8.73052 42.6981 8.71854 43.2399C8.71854 43.8539 8.45507 44.1308 7.85627 44.1308C6.20358 44.1308 4.53891 44.1308 2.88622 44.1429C2.53892 44.1429 2.2515 44.0104 2 43.7817C2 37.4005 2 31.0193 2 24.6381C2.2515 24.3973 2.5509 24.3371 2.8982 24.3491C4.56287 24.3611 6.21556 24.3491 7.88022 24.3611C8.47902 24.3611 8.70657 24.5779 8.71854 25.2039C8.73052 25.7457 8.73052 26.2875 8.73052 26.8293C8.63471 26.9979 8.64669 27.1785 8.64669 27.3591C8.64669 31.9704 8.64669 36.5818 8.64669 41.2051C8.65866 41.3255 8.61076 41.482 8.71854 41.6145Z" fill="black"></path>
    <path d="M27.2333 43.5041C24.8621 43.5041 22.5028 43.5041 20.1316 43.5041C19.3891 42.6132 18.407 42.1556 17.3172 41.8787C16.1196 41.5777 15.1975 40.446 15.1975 39.2299C15.1855 35.4493 15.1855 31.6808 15.1975 27.9003C15.1975 27.2742 15.437 26.7203 15.8561 26.2749C16.6106 25.4441 17.4969 24.7458 18.3831 24.0595C19.5328 23.1806 20.7424 22.3619 21.7124 21.2783C21.7962 21.194 21.8801 21.1097 22.0118 21.0977C21.9639 22.3498 21.6765 23.5418 21.2453 24.7097C21.1256 25.0468 21.2094 25.0829 21.5088 25.0829C22.91 25.0709 24.3112 25.0829 25.7124 25.0829C27.0537 25.0829 28.407 25.0709 29.7483 25.0829C30.9699 25.107 32.0357 26.5157 31.7723 27.7076C31.4848 28.9839 30.8501 29.5257 29.401 29.7183C30.9339 30.4166 31.1495 31.5002 30.9818 32.4153C30.7782 33.4748 29.928 34.2935 28.5986 34.3055C29.9998 35.0761 30.4549 35.8708 30.2034 37.159C30.0118 38.1584 29.0777 38.8085 27.7004 38.9169C29.0298 39.6754 29.4968 40.4821 29.3052 41.65C29.1375 42.6252 28.3471 43.3356 27.2333 43.5041Z" fill="#E6E6E6"></path>
    <path d="M22.0243 21.1098C21.8925 21.1098 21.8087 21.1941 21.7249 21.2904C20.7428 22.374 19.5333 23.1807 18.3955 24.0717C17.5093 24.758 16.6231 25.4563 15.8686 26.287C15.4494 26.7446 15.2099 27.2984 15.2099 27.9124C15.1979 31.693 15.1979 35.4615 15.2099 39.2421C15.2099 40.4581 16.1201 41.5899 17.3297 41.8909C18.4195 42.1678 19.4015 42.6374 20.144 43.5163C18.2997 43.5163 16.4674 43.5283 14.6231 43.5163C14.0602 43.5163 13.5453 43.3237 13.0902 42.9745C11.8087 41.9631 10.2878 41.7223 8.71893 41.626C8.61114 41.4936 8.65905 41.3371 8.65905 41.1926C8.65905 36.5813 8.65905 31.9699 8.65905 27.3466C8.65905 27.166 8.63509 26.9854 8.74288 26.8168C9.61713 25.9981 10.4674 25.1553 11.4135 24.4208C12.4435 23.6262 13.4974 22.8797 14.4794 22.0249C16.1081 20.6162 17.0662 18.9065 17.2099 16.7152C17.2578 16.0771 17.1021 15.439 17.2698 14.8009C17.5093 13.8858 18.2039 13.2116 19.0063 13.1634C20.1321 13.1153 20.8985 13.5969 21.2099 14.6082C21.653 16.0651 21.9524 17.558 22.0602 19.0871C22.0961 19.7734 22.0602 20.4356 22.0243 21.1098Z" fill="#E6E6E6"></path>
    <path d="M45.6891 8.41946C43.773 7.67298 41.8927 6.84222 39.9885 6.03554C39.7969 6.22818 39.5814 6.33654 39.3418 6.43286C39.5814 6.33654 39.7969 6.21614 39.9885 6.03554C39.3179 5.74657 38.6472 5.43353 37.9646 5.19273C37.1862 4.93989 36.3718 4.91581 35.6053 5.24089C32.8868 6.37266 30.1682 7.50442 27.4616 8.66026C26.3119 9.1539 25.7012 10.0328 25.7012 11.3331C25.7131 13.5846 25.7012 15.8481 25.7012 18.0996C25.7012 20.4354 25.7131 22.7591 25.7131 25.0949C27.0545 25.0949 28.4077 25.0828 29.7491 25.0949C30.9706 25.119 32.0365 26.5276 31.773 27.7196C31.4856 28.9958 30.8509 29.5376 29.4018 29.7303C30.9347 30.4286 31.1503 31.5122 30.9826 32.4272C30.779 33.4868 29.9287 34.3055 28.5994 34.3175C30.0006 35.0881 30.4556 35.8827 30.2042 37.171C30.0125 38.1703 29.0784 38.8205 27.7012 38.9288C29.0305 39.6874 29.4976 40.494 29.3059 41.6619C29.1383 42.6251 28.3479 43.3355 27.2461 43.5041C27.5575 43.781 27.9407 43.8532 28.3239 43.8652C30.3838 43.8773 32.4556 43.8652 34.5155 43.8652C38.1323 43.8652 41.737 43.9014 45.3538 43.8532C46.5035 43.8412 47.3179 43.1549 47.7969 42.0954C47.8568 41.9629 47.8688 41.8064 48.0005 41.7101C48.0005 31.3798 48.0005 21.0615 48.0005 10.7432C47.6292 9.55122 46.8149 8.86494 45.6891 8.41946ZM36.8868 9.6355C37.773 9.62346 38.6353 10.394 38.6353 11.5258C38.6233 12.6937 37.8927 13.4763 36.6592 13.5124C35.6173 13.5485 34.779 12.6214 34.791 11.5137C34.779 10.3218 35.5454 9.65958 36.8868 9.6355Z" fill="black"></path>
    <path d="M40.4959 31.0904L40.3355 30.8986C40.0582 31.1305 39.8426 31.4062 39.6916 31.7248C39.5398 32.0453 39.4651 32.3926 39.4651 32.7633C39.4651 33.1314 39.5349 33.4685 39.6812 33.7686C39.8249 34.0633 40.0306 34.3218 40.2942 34.5442C40.5526 34.7623 40.859 34.9533 41.2105 35.1191L41.2105 35.1191L41.2127 35.1202C41.5601 35.2799 41.9468 35.4241 42.3722 35.5534L42.3734 35.5538C42.7646 35.6706 43.0814 35.7838 43.3267 35.8927L43.328 35.8933C43.5771 36.0022 43.7569 36.1109 43.8778 36.2153L43.8778 36.2153L43.8802 36.2174C44.0028 36.3206 44.0782 36.4283 44.1187 36.5391L44.1186 36.5391L44.1214 36.5461C44.169 36.6652 44.196 36.8106 44.196 36.9871C44.196 37.2235 44.1368 37.4155 44.0266 37.5743L44.0266 37.5743L44.0248 37.577C43.9182 37.735 43.7566 37.8648 43.5241 37.9601C43.2926 38.0551 42.9972 38.1075 42.63 38.1075C42.3807 38.1075 42.1418 38.0784 41.9127 38.0208C41.6935 37.9608 41.4996 37.8703 41.329 37.7504C41.1681 37.6346 41.0418 37.4904 40.9483 37.3153C40.8593 37.145 40.8095 36.9318 40.8095 36.6668V36.4168H40.5595H39.4491H39.1991V36.6668C39.1991 37.1338 39.2975 37.5562 39.502 37.9266L39.502 37.9267L39.5038 37.9297C39.7065 38.2851 39.9754 38.5846 40.3084 38.8267L40.3096 38.8276C40.6414 39.0658 41.008 39.2441 41.4081 39.3625L41.4088 39.3627C41.8092 39.4801 42.2165 39.5389 42.63 39.5389C43.0932 39.5389 43.5188 39.4832 43.9043 39.3683L43.906 39.3678C44.2933 39.2495 44.6321 39.0804 44.918 38.8571C45.2052 38.6329 45.4285 38.3601 45.5846 38.0399C45.7418 37.7174 45.8181 37.361 45.8181 36.9753C45.8181 36.6121 45.7577 36.2784 45.6315 35.9784C45.509 35.6741 45.3198 35.4056 45.0682 35.1734C44.8224 34.939 44.515 34.7341 44.1512 34.5558C43.7881 34.3779 43.3613 34.2188 42.873 34.0774L42.872 34.0771C42.5323 33.9804 42.2441 33.8809 42.0057 33.7794C41.7738 33.6789 41.5898 33.5727 41.4491 33.463C41.314 33.3547 41.2221 33.2452 41.1642 33.1367C41.1101 33.0243 41.0813 32.8973 41.0813 32.7514C41.0813 32.5229 41.1331 32.3288 41.231 32.1619C41.3289 32.0013 41.4809 31.866 41.7019 31.7611C41.9164 31.6594 42.2044 31.6014 42.578 31.6014C42.971 31.6014 43.2742 31.67 43.5011 31.7914L43.5011 31.7914L43.5036 31.7927C43.7362 31.9136 43.9021 32.0766 44.0114 32.2817L44.0122 32.2832C44.1247 32.4908 44.1845 32.7355 44.1845 33.0243V33.2743H44.4345H45.5449H45.7949V33.0243C45.7949 32.5287 45.6672 32.0624 45.4142 31.6295C45.1582 31.1874 44.7865 30.8345 44.3079 30.5697C43.8227 30.2949 43.2423 30.1641 42.578 30.1641C42.1233 30.1641 41.7044 30.2265 41.3238 30.3552C40.9469 30.4827 40.6161 30.6631 40.3352 30.8989L40.4959 31.0904ZM40.4959 31.0904C40.2453 31.3 40.0525 31.5471 39.9175 31.8319C39.7826 32.1167 39.7151 32.4271 39.7151 32.7633C39.7151 33.0995 39.7787 33.3981 39.906 33.6591C40.0332 33.9201 40.2163 34.1515 40.4554 34.3532C40.6945 34.5549 40.9817 34.7348 41.3172 34.893L40.4959 31.0904ZM32.6592 30.2827H32.4092V30.5327V39.1703V39.4203H32.6592H33.7754H34.0254V39.1703V35.9202H35.5994L37.3594 39.2861L37.4296 39.4203H37.581H38.7724H39.0224V39.1703V39.0991V39.036L38.9924 38.9804L37.1427 35.5505C37.3225 35.4616 37.4891 35.3578 37.6421 35.2385L37.6425 35.2382C37.9648 34.9859 38.2134 34.679 38.3849 34.3187C38.5604 33.9539 38.6465 33.5547 38.6465 33.1252C38.6465 32.5301 38.5239 32.0106 38.2643 31.5795C38.0087 31.1446 37.6344 30.8187 37.1518 30.6015C36.6751 30.3852 36.1037 30.2827 35.4468 30.2827H32.6592ZM35.4816 34.4888H34.0254V31.72H35.4468C35.8505 31.72 36.1565 31.7857 36.3796 31.9001L36.3796 31.9001L36.3835 31.9021C36.6134 32.015 36.7721 32.1701 36.8725 32.3668C36.9787 32.5747 37.036 32.8251 37.036 33.1252C37.036 33.3822 36.978 33.6113 36.8646 33.8174C36.7546 34.0172 36.5904 34.18 36.3629 34.3055C36.1433 34.4227 35.8537 34.4888 35.4816 34.4888Z" fill="white" stroke="white" stroke-width="0.5"></path>
</svg>