<svg width="50" viewBox="0 0 221 221" fill="none" xmlns="http://www.w3.org/2000/svg"><path d="M110.528 0H110.472C49.5454 0 0 49.5592 0 110.5C0 134.672 7.79025 157.076 21.0364 175.267L7.26538 216.318L49.7388 202.74C67.2116 214.315 88.0547 221 110.528 221C171.455 221 221 171.427 221 110.5C221 49.5731 171.455 0 110.528 0Z" fill="#24D366"></path><path d="M174.825 156.04C172.159 163.568 161.579 169.811 153.139 171.634C147.366 172.864 139.824 173.844 114.437 163.319C81.9637 149.866 61.0516 116.868 59.4217 114.727C57.8609 112.586 46.2998 97.2539 46.2998 81.3972C46.2998 65.5404 54.3525 57.8192 57.5984 54.5042C60.2642 51.7832 64.6704 50.54 68.8971 50.54C70.2645 50.54 71.4938 50.6091 72.5988 50.6644C75.8447 50.8025 77.4746 50.9959 79.6156 56.1203C82.2814 62.5431 88.7732 78.3999 89.5467 80.0297C90.3341 81.6596 91.1214 83.8696 90.0164 86.0105C88.9804 88.2205 88.0688 89.2012 86.4389 91.0797C84.8091 92.9582 83.2621 94.3947 81.6322 96.4114C80.1404 98.1655 78.4553 100.044 80.3338 103.29C82.2123 106.467 88.7042 117.061 98.2624 125.57C110.597 136.55 120.597 140.059 124.175 141.551C126.84 142.656 130.017 142.393 131.965 140.321C134.437 137.655 137.49 133.235 140.598 128.885C142.808 125.763 145.598 125.376 148.526 126.481C151.51 127.517 167.297 135.321 170.543 136.937C173.789 138.567 175.93 139.341 176.717 140.708C177.491 142.075 177.491 148.498 174.825 156.04Z" fill="#FAFAFA"></path></svg>