<svg width="23" height="31" viewBox="0 0 23 31" fill="none" xmlns="http://www.w3.org/2000/svg"><path d="M6.10316 0.160389C6.92746 -0.0881422 7.81202 -0.0468527 8.60959 0.277384C9.40716 0.601621 10.0696 1.18924 10.4867 1.94243L10.628 2.22311L11.8731 4.99414C12.2516 5.83521 12.3745 6.76899 12.2264 7.67933C12.0784 8.58967 11.666 9.4364 11.0405 10.1142L10.7919 10.3629L8.82521 12.1958C8.47106 12.5311 8.73667 13.829 10.0195 16.0481C11.1705 18.0449 12.1105 18.9773 12.5701 19.0282H12.6511L12.751 19.0094L16.6127 17.8282C17.1317 17.6691 17.6856 17.6628 18.208 17.8101C18.7305 17.9574 19.1995 18.2521 19.5589 18.659L19.7322 18.8756L22.2866 22.4171C22.7878 23.111 23.0378 23.955 22.9954 24.81C22.9529 25.665 22.6205 26.48 22.053 27.1209L21.8232 27.3582L20.8003 28.3265C19.8835 29.1948 18.7366 29.7815 17.496 30.0169C16.2554 30.2523 14.9733 30.1266 13.8021 29.6545C10.157 28.1852 6.84537 24.8283 3.83699 19.6178C0.822961 14.3941 -0.429745 9.84107 0.129734 5.94167C0.2992 4.76272 0.784865 3.6517 1.53513 2.72663C2.2854 1.80157 3.27224 1.09702 4.39082 0.687844L4.75438 0.567283L6.10316 0.160389Z" fill="#0F52BA"></path></svg>