<svg width="177" height="147" viewBox="0 0 177 147" fill="none" xmlns="http://www.w3.org/2000/svg">
    <path d="M79.8677 27.7734C80.7916 27.7734 81.7154 27.7734 82.6269 27.7734C82.6885 27.8963 82.8117 27.8349 82.8979 27.8472C83.3414 27.8963 83.7848 27.9209 84.2283 27.9701C85.4231 28.1053 86.5933 28.3879 87.7635 28.6337C89.2909 29.1007 90.7937 29.6169 92.2472 30.3051C96.2997 32.2099 99.3669 35.1225 101.35 39.1535C102.151 40.788 102.717 42.4962 103.124 44.2782C103.21 44.6715 103.382 45.077 103.715 45.2736C104.109 45.5071 104.245 45.839 104.331 46.2322C104.429 46.6869 104.503 47.1662 104.503 47.6332C104.503 49.0957 104.232 50.5212 103.801 51.9222C103.629 52.4998 103.777 53.0037 104.232 53.4093C104.725 53.8394 105.058 54.3801 105.267 54.9946C105.674 56.1744 105.723 57.4033 105.563 58.62C105.292 60.6969 104.774 62.7247 103.986 64.6664C103.444 66.0305 103.198 67.407 103.419 68.8571C103.53 69.5945 103.284 70.1844 102.606 70.5162C102.064 70.7866 101.867 71.2167 101.88 71.7943C101.892 72.6914 101.83 73.5763 101.744 74.4611C101.695 75.0633 101.609 75.6532 101.51 76.2431C101.449 76.6486 101.498 76.9928 101.892 77.2754C102.508 77.7301 103.062 78.2709 103.518 78.8976C103.924 79.4384 104.417 79.7948 105.082 79.9914C106.302 80.3355 107.497 80.7288 108.704 81.122C109.394 81.3432 110.157 81.503 110.699 81.97C111.167 82.3755 111.648 82.523 112.214 82.5599C112.411 82.5722 112.596 82.5722 112.793 82.5967C114.308 82.7442 115.811 82.8917 117.326 83.0269C118.521 83.1375 119.716 83.2358 120.911 83.3587C122.857 83.5676 124.791 83.8257 126.712 84.1821C128.363 84.4893 130.001 84.7966 131.529 85.5339C132.342 85.9272 133.093 86.3942 133.869 86.8243C133.709 87.3282 133.537 87.8444 133.364 88.3728C133.253 88.2991 133.179 88.2499 133.105 88.2007C131.701 87.1439 130.137 86.3942 128.437 85.9764C126.602 85.5339 124.705 85.325 122.82 85.1898C119.741 84.9563 116.673 84.7351 113.594 84.5139C113.2 84.4893 112.806 84.4402 112.411 84.4647C112.03 84.4893 111.931 84.686 112.067 85.0546C112.153 85.3004 112.251 85.5339 112.35 85.7674C114.124 89.6509 115.897 93.5221 117.659 97.4056C118.94 100.232 120.221 103.071 121.502 105.898C121.576 106.057 121.687 106.18 121.477 106.365C120.825 106.918 120.221 107.532 119.531 108.048C119.47 107.95 119.408 107.852 119.371 107.753C117.893 104.128 116.39 100.515 114.937 96.8771C113.249 92.6618 111.598 88.4342 109.936 84.2067C109.726 83.6659 109.357 83.3218 108.827 83.1252C108.568 83.0269 108.31 82.9777 108.051 82.9409C107.595 82.8794 107.423 83.0515 107.546 83.4939C107.829 84.4893 108.125 85.4725 108.433 86.4556C109.406 89.5649 110.194 92.711 110.872 95.894C111.155 97.1966 111.401 98.5116 111.623 99.8389C111.722 100.38 111.82 100.478 112.35 100.552C112.941 100.625 113.557 100.552 114.148 100.699C114.296 100.736 114.53 100.724 114.542 100.933C114.542 101.166 114.296 101.154 114.136 101.203C114.062 101.228 113.988 101.215 113.902 101.228C113.311 101.314 112.707 101.326 112.116 101.461C111.303 101.559 110.49 101.658 109.677 101.768C109.467 101.793 109.246 101.805 109.036 101.842C108.31 101.953 107.571 101.99 106.856 102.149C106.055 102.211 105.255 102.309 104.466 102.457C104.171 102.481 103.888 102.506 103.592 102.543C102.89 102.641 102.188 102.739 101.486 102.838C100.722 102.887 99.9581 103.022 99.2067 103.145C97.667 103.329 96.1273 103.599 94.5999 103.87C92.0378 104.325 89.4756 104.816 86.9382 105.369C83.8341 106.045 80.73 106.758 77.6998 107.729C74.7189 108.687 71.7749 109.744 68.8433 110.838C68.0426 111.133 67.6361 110.863 67.5253 110.027C67.4144 109.179 67.4021 108.319 67.3898 107.471C67.3405 104.828 67.513 102.198 67.7593 99.5685C67.8702 98.401 67.9934 97.2335 68.1535 96.0783C68.289 94.9968 68.4245 93.9031 68.6462 92.8339C68.6708 92.7356 68.6832 92.6249 68.5846 92.5512C68.4861 92.4775 68.4122 92.5635 68.3383 92.5881C67.7963 92.7724 67.5376 93.1903 67.3775 93.6941C66.8724 95.3164 66.5398 96.9754 66.1703 98.6222C65.7146 100.675 65.2834 102.727 64.8893 104.792C64.5813 106.352 64.4212 107.938 64.1748 109.511C62.9061 108.638 61.7236 107.655 60.6027 106.598C60.6273 106.537 60.6519 106.475 60.6642 106.426C61.2801 104.128 61.9083 101.83 62.5242 99.5316C62.6597 99.0155 62.8815 98.5116 62.9307 97.9832C62.98 97.4056 62.8815 96.9386 62.1424 96.8157C61.7852 96.7542 61.4403 96.6682 61.0954 96.5945C60.1346 96.2872 59.2477 96.447 58.3731 96.914C57.0182 97.6391 55.6263 98.3027 54.2467 98.9909C54.1112 99.0646 54.0003 99.1507 53.8771 98.9417C53.5938 98.4747 53.2859 98.02 52.9902 97.5653C53.0641 97.5162 53.138 97.467 53.212 97.4178C56.8211 95.2303 60.6027 93.4238 64.532 91.8999C64.9385 91.7401 65.2711 91.5189 65.5421 91.1748C65.9979 90.5849 66.4906 90.0442 67.1927 89.7123C67.7716 89.442 68.3136 89.0979 68.8926 88.8275C69.4099 88.5817 69.6932 88.2007 69.8287 87.6477C70.2106 86.0501 70.5801 84.4402 71.1467 82.8917C71.3561 82.3264 71.2576 81.9331 70.9004 81.5153C69.6439 80.0037 68.7571 78.2831 68.1042 76.4397C67.9194 75.9236 67.5869 75.5795 67.0818 75.3705C66.0471 74.9281 65.2095 74.2768 64.8769 73.1339C64.7291 72.63 64.7538 72.1261 64.7414 71.61C64.7291 71.0324 64.6183 70.4793 64.2857 69.9755C64.1256 69.7543 63.9038 69.5945 63.7314 69.3979C62.1547 67.6036 60.9106 65.6127 60.0976 63.3637C59.7281 62.3191 59.5803 61.2499 59.9005 60.1808C60.1223 59.4557 60.1469 59.4188 59.531 58.9395C58.8905 58.4357 58.2992 57.9072 57.8435 57.219C57.5601 56.7766 57.4739 56.2973 57.671 55.8303C57.9666 55.1175 58.1268 54.3678 58.2623 53.6182C58.484 52.4507 58.6072 51.2832 58.447 50.0788C58.2992 48.9728 57.7572 48.0756 57.1044 47.2031C56.624 46.564 56.1313 45.9127 56.0574 45.0647C56.0697 44.2167 56.6486 43.762 57.2645 43.3196C58.9644 42.103 60.3193 40.5791 61.2678 38.7111C61.7236 37.8262 61.8837 36.9291 61.3787 36.0074C61.3294 35.9214 61.3048 35.8107 61.2801 35.7124C61.1693 35.27 61.2678 35.0119 61.6497 34.7539C61.9576 34.5449 62.3148 34.422 62.6597 34.3114C63.8422 33.9059 65.0371 33.5249 66.1334 32.935C67.8086 32.0256 69.4345 31.0547 71.1837 30.2928C73.561 29.2482 75.9753 28.3388 78.5744 27.9946C79.0548 27.9086 79.4736 27.9455 79.8677 27.7734ZM94.8585 62.0365C95.0064 61.889 95.1542 61.7538 95.2897 61.6063C95.8316 61.0287 96.1889 60.3528 96.2258 59.5417C96.2381 59.1976 96.078 59.0501 95.7577 59.0378C95.3759 59.0256 94.994 59.0256 94.6122 59.0256C94.5383 58.9395 94.4521 58.8658 94.3781 58.7798C93.7992 58.067 93.713 58.0424 92.8261 58.3251C92.0131 58.5954 91.2001 58.8658 90.3379 58.9395C89.3278 59.0256 88.3547 58.8289 87.4309 58.4111C87.2708 58.3373 87.0983 58.2759 86.9628 58.4234C86.8273 58.5831 86.9628 58.7306 87.049 58.8781C87.1229 59.001 87.2092 59.1116 87.2954 59.2222C87.3447 59.2959 87.3939 59.3697 87.3693 59.468C87.2461 59.8735 86.9628 60.1439 86.5933 60.3159C86.273 60.4634 86.0636 60.2053 85.8665 60.021C85.4108 59.5786 85.1398 59.0133 84.9181 58.4234C84.721 57.9072 84.3268 57.6491 83.7602 57.6368C83.5015 57.6368 83.2551 57.6983 83.0211 57.7966C82.7008 57.8703 82.3929 57.9809 82.2328 58.2759C81.9371 58.8043 81.7524 59.3942 81.8386 59.9964C82.0357 61.4834 82.085 62.9582 81.7401 64.4452C81.6292 64.9122 81.543 65.4038 81.777 65.8708C82.1835 66.6696 82.7994 67.2595 83.637 67.6036C84.4007 67.9846 85.2014 68.1443 86.039 68.0092C87.1476 67.8371 88.0345 67.2103 88.8721 66.5098C89.3032 66.1412 89.3771 65.8339 89.18 65.2932C89.0815 65.0474 88.946 64.8139 88.9337 64.5435C89.0445 64.1994 89.3278 64.2363 89.5988 64.2732C90.6458 64.4329 91.5081 64.9491 92.2472 65.6864C92.5921 66.0428 92.9246 66.4115 93.2695 66.7802C93.9101 67.4561 94.6368 67.9969 95.5483 68.2549C96.0287 68.3901 96.3736 68.7096 96.4968 69.2258C96.583 69.6068 96.6693 70 96.7432 70.381C96.7678 70.8111 96.8048 71.2413 96.8171 71.6837C96.8417 72.5808 96.6323 73.4042 96.0534 74.117C95.807 74.412 95.6592 74.7438 95.6222 75.1248C95.5607 75.6778 95.5237 76.2431 95.4744 76.7961C95.4375 77.2385 95.3266 77.6564 95.0064 77.9759C94.7846 78.2094 94.6122 78.1848 94.4644 77.9145C94.4028 77.8039 94.3658 77.681 94.3289 77.5581C94.1318 76.9313 94.0825 76.28 93.9593 75.6409C93.9224 75.4811 93.8854 75.3214 93.7623 75.1985C93.2942 74.7315 92.5674 74.5963 91.9639 74.8544C91.2001 75.1862 90.4734 75.5795 89.6727 75.813C88.4163 76.1816 87.1353 76.2431 85.8419 76.28C84.9796 76.3045 84.2036 76.5995 83.5385 77.1894C83.2798 77.4229 83.366 77.5826 83.6 77.7178C83.8341 77.853 84.1051 77.9022 84.3761 77.9268C84.8565 77.9636 85.1521 78.2094 85.2999 78.6641C85.3738 79.0574 85.4847 79.4629 85.46 79.8685C85.4477 80.0774 85.5339 80.3846 85.3245 80.4707C85.0905 80.5567 84.992 80.2495 84.8565 80.102C84.5978 79.807 84.4007 79.4506 84.0189 79.2786C83.9326 79.2294 83.8341 79.1926 83.7355 79.2663C83.637 79.3523 83.6616 79.4506 83.6986 79.5367C84.1913 80.7902 84.2159 82.0683 83.9203 83.371C83.5015 85.1898 83.8587 86.7875 85.2014 88.1639C86.3469 89.3437 87.7142 90.2408 89.0568 91.1625C89.2047 91.2608 89.3771 91.3223 89.5619 91.3346C89.8329 91.3591 90.0053 91.2854 89.9684 90.9536C89.9191 90.5235 90.0053 90.1179 90.1531 89.7123C90.3502 89.1593 90.6458 88.6555 90.9538 88.1516C91.545 87.2053 91.9638 86.2344 91.4465 85.0915C91.3603 84.9072 91.348 84.6491 91.6559 84.5754C91.7544 84.6368 91.8407 84.7105 91.9392 84.772C92.6167 85.2881 92.9862 85.2881 93.7007 84.8211C94.3658 84.3664 94.994 83.8626 95.5853 83.3218C97.7286 81.3432 99.3176 79.0451 99.8473 76.1079C100.241 73.9327 100.18 71.7574 99.9212 69.5822C99.8596 69.1029 99.8596 68.6605 100.155 68.2304C100.377 67.8985 100.525 67.5053 100.636 67.112C100.673 66.9645 100.697 66.7679 100.857 66.7433C101.017 66.731 101.03 66.94 101.079 67.0629C101.153 67.2226 101.227 67.3578 101.436 67.3455C101.658 67.3332 101.732 67.1735 101.781 66.9891C101.793 66.9277 101.806 66.8662 101.806 66.8048C101.991 65.6373 102.299 64.5189 102.705 63.4129C103.296 61.8275 103.74 60.2053 103.826 58.5094C103.875 57.5385 103.875 56.5677 103.419 55.6705C103.111 55.0806 102.594 54.9454 102.077 55.2896C101.547 55.6459 101.436 56.2236 101.867 56.7028C102.557 57.4648 102.299 58.0301 101.757 58.6077C101.646 58.7183 101.535 58.8904 101.338 58.8166C101.153 58.7429 101.153 58.5586 101.116 58.3988C101.03 57.9195 100.956 57.4402 100.87 56.9609C100.759 56.3587 100.685 55.7566 100.488 55.1667C100.328 54.6505 100.118 54.5768 99.6625 54.8471C99.293 55.0683 98.9357 55.3141 98.5662 55.5476C98.209 55.7688 98.0612 56.1007 98.0242 56.5062C97.9503 57.2804 97.8764 58.0547 97.7902 58.8289C97.667 59.8981 97.4207 60.9181 96.7432 61.7784C96.3613 62.27 95.9548 62.7124 95.3389 62.909C94.9571 62.7124 94.8709 62.3929 94.8585 62.0365ZM78.2541 65.2563C78.2787 65.2194 78.3157 65.1949 78.3403 65.158C78.9316 64.6418 79.5105 64.1134 79.8924 63.4006C80.2126 62.8107 80.4097 62.1962 80.459 61.5203C80.4713 61.3974 80.5206 61.2377 80.3728 61.1762C80.2496 61.1148 80.2003 61.2868 80.1141 61.3605C79.917 61.5326 79.7692 61.7661 79.4736 61.803C79.0917 61.5449 78.6729 61.3114 78.6236 60.7829C78.7468 60.6109 78.87 60.4265 78.9932 60.2545C79.0671 60.1439 79.1779 60.0087 79.0424 59.8858C78.9439 59.7875 78.7961 59.8489 78.6852 59.9227C78.3157 60.1439 77.9338 60.2914 77.515 60.3774C76.7636 60.5372 76.0123 60.402 75.2609 60.4143C74.4848 60.4266 73.7827 60.6232 73.1792 61.1516C72.8589 61.4343 72.6125 61.7661 72.3908 62.1348C72.2061 62.442 71.9351 62.5158 71.6025 62.4297C71.4054 62.3806 71.2206 62.2823 71.0482 62.1717C70.3584 61.7415 70.3337 61.7538 69.6686 62.2208C69.3853 62.4174 69.3237 62.6387 69.4838 62.9336C70.0627 63.9659 70.8511 64.7647 71.972 65.2072C72.1445 65.2809 72.3292 65.3423 72.4647 65.4898C72.4647 65.6004 72.4894 65.7233 72.477 65.8339C72.4031 66.4484 72.1198 66.6327 71.5286 66.4361C71.2699 66.3501 71.0359 66.2272 70.7895 66.1289C70.6417 66.0674 70.4939 65.9077 70.3337 66.0428C70.1613 66.1903 70.2968 66.3747 70.3707 66.5344C70.9127 67.7757 71.7872 68.7342 72.8466 69.533C73.4994 70.0246 74.2754 69.9386 74.916 69.3733C75.2116 69.1152 75.4949 68.8325 75.7782 68.5622C76.2217 68.2672 76.6528 67.9477 77.1332 67.7142C77.3303 67.6282 77.4534 67.4684 77.4658 67.2472C77.5397 66.4853 77.8353 65.8462 78.2541 65.2563C78.2664 65.2563 78.2541 65.2563 78.2541 65.2563ZM91.6066 96.1397H91.5943C91.5943 96.1766 91.582 96.2135 91.5943 96.2381C92.5305 98.0077 93.171 99.8757 93.4789 101.854C93.5282 102.162 93.713 102.26 93.9963 102.223C94.4397 102.174 94.8832 102.125 95.3266 102.063C98.2706 101.695 101.215 101.387 104.159 101.092C105.095 100.994 106.043 100.896 106.979 100.797C107.534 100.797 108.076 100.736 108.618 100.625C109.098 100.527 109.221 100.38 109.196 99.888C109.172 99.5193 109.11 99.1507 109.061 98.782C108.408 94.4315 107.718 90.081 106.745 85.792C106.56 84.9809 106.437 84.1575 106.129 83.3833C105.957 82.9654 105.711 82.5967 105.255 82.4247C105.008 82.3264 104.848 82.4001 104.824 82.6705C104.799 83.0146 104.787 83.3587 104.762 83.7028C104.614 85.0915 104.479 86.4679 104.22 87.8321C103.715 90.4743 103.025 93.0674 101.991 95.5621C101.83 95.9677 101.633 96.3487 101.375 96.7051C101.288 96.8157 101.202 96.9631 101.042 96.8648C100.919 96.7911 100.931 96.6559 100.968 96.5207C100.981 96.4716 100.993 96.4224 101.005 96.3732C101.744 94.1857 102.175 91.9367 102.508 89.6632C102.877 87.0824 102.988 84.5016 102.459 81.9331C102.286 81.122 102.052 80.3478 101.449 79.7456C101.141 79.4261 101.017 79.4629 100.882 79.8685C100.488 81.0483 99.8965 82.1297 99.1944 83.1621C97.6177 85.4971 95.6222 87.4265 93.3311 89.0487C93.1833 89.147 92.9123 89.2453 93.0232 89.4543C93.1094 89.6263 93.3434 89.4666 93.5159 89.4174C94.5876 89.0856 95.6715 88.8644 96.7924 88.9504C97.3344 88.9996 97.6301 89.2822 97.704 89.8107C97.7532 90.1793 97.7779 90.548 97.8271 90.9167C97.9134 91.6664 98.0365 92.4037 98.0858 93.1534C98.1228 93.7679 97.8148 94.1243 97.1989 94.2717C96.8048 94.3578 96.4106 94.3332 96.0164 94.3332C95.6099 94.3455 95.2034 94.3332 94.7846 94.3578C94.526 94.3701 94.4644 94.5052 94.6491 94.7019C94.7354 94.8002 94.8339 94.8862 94.9201 94.9722C95.8316 95.8325 96.7555 96.6682 97.6177 97.5899C97.8518 97.848 98.0858 98.1061 98.2459 98.401C98.3199 98.5485 98.4184 98.7082 98.172 98.7943C97.9503 98.8311 97.8148 98.6837 97.667 98.5731C96.078 97.3564 94.4028 96.2626 92.6167 95.3409C92.1856 95.1197 91.7544 94.9108 91.2864 94.751C91.1509 94.7019 91.0277 94.7142 90.9415 94.8248C90.8306 94.9477 90.9168 95.0583 90.9784 95.1689C91.1509 95.4515 91.3356 95.7219 91.5081 96.0046C91.5204 96.0906 91.5204 96.1766 91.6066 96.1397ZM73.6719 87.7706C73.6596 88.68 73.7088 89.5895 73.9429 90.462C75.0268 94.5667 76.8868 98.2658 79.8554 101.363C80.1018 101.621 80.3112 101.879 80.3112 102.26C80.0771 102.592 79.8431 102.358 79.6707 102.211C77.7737 100.761 76.2217 98.9909 74.9406 96.9877C73.9675 95.4638 73.1299 93.8539 72.3046 92.244C72.1075 91.8753 71.9474 91.8261 71.5655 92.0105C71.1098 92.2194 70.8388 92.5389 70.8265 93.0674C70.8141 93.3992 70.7279 93.7187 70.7525 94.0505C70.7279 94.2226 70.7033 94.4069 70.691 94.579C70.6171 96.2749 70.654 97.9709 70.7895 99.6668C70.9127 101.264 71.0112 102.874 71.4423 104.435C71.7133 105.431 72.0213 105.627 73.0437 105.431C73.6472 105.32 74.2508 105.197 74.8544 105.086C77.5027 104.619 80.1634 104.14 82.8117 103.673C82.9842 103.649 83.1689 103.612 83.3414 103.612C84.1667 103.587 84.6471 103.108 84.9673 102.42C85.0166 102.321 85.0782 102.211 85.1275 102.112C85.8049 100.638 86.4331 99.1261 86.9505 97.5899C87.1353 97.0369 87.32 96.4838 87.3816 95.894C87.3939 95.7465 87.4309 95.5744 87.2831 95.4761C87.1229 95.3778 86.9874 95.5007 86.8643 95.5744C86.2237 95.9308 85.6941 96.4224 85.226 96.9877C84.3022 97.8971 83.5754 98.954 82.9226 100.072C82.824 100.244 82.7008 100.416 82.59 100.576C82.5407 100.638 82.4791 100.687 82.3929 100.662C82.282 100.625 82.2944 100.527 82.2944 100.441C82.3067 100.343 82.3313 100.244 82.3559 100.146C82.5653 99.2244 82.9472 98.3641 83.403 97.5285C83.5754 97.2335 83.7479 96.9386 83.9203 96.6436C83.9819 96.533 84.0681 96.4101 83.9696 96.2872C83.8834 96.1766 83.7355 96.2135 83.6124 96.2381C83.4522 96.2626 83.2921 96.2995 83.1196 96.3364C82.2451 96.4838 81.3828 96.7788 80.4713 96.6928C79.7322 96.6313 79.375 96.2626 79.3011 95.5253C79.2395 94.8493 79.1903 94.1857 79.0917 93.5098C79.0178 93.0305 78.9069 92.5512 78.9932 92.0719C79.1164 91.8876 79.2888 91.7524 79.4736 91.6295C80.2742 91.2854 81.1242 91.1133 81.9864 91.0027C82.1219 90.9905 82.2944 90.9905 82.319 90.8061C82.3436 90.6464 82.2328 90.5357 82.0973 90.4743C81.8879 90.3637 81.6661 90.2654 81.4321 90.1671C78.9316 89.1102 76.6158 87.7706 74.608 85.9272C74.3617 85.6937 74.2139 85.7183 74.0414 86.0255C73.6842 86.5662 73.6596 87.1684 73.6719 87.7706ZM96.9895 43.0861C97.162 43.1598 97.2605 43.3196 97.3591 43.4671C98.172 44.696 98.9481 45.9618 99.6748 47.2522C100.143 48.0879 100.586 48.9359 101.005 49.7962C101.067 49.9313 101.116 50.1034 101.313 50.0911C101.51 50.0665 101.572 49.8945 101.609 49.7347C101.646 49.575 101.67 49.4029 101.683 49.2431C101.757 47.4857 101.449 45.7652 101.067 44.057C100.007 39.3993 97.5438 35.6387 93.5528 33.0087C89.3894 30.2682 84.721 29.3096 79.7938 29.7398C77.1332 29.9733 74.608 30.8458 72.1814 31.9519C71.5778 32.2222 70.9866 32.5418 70.5308 33.0333C70.4446 33.1316 70.3091 33.2422 70.3953 33.402C70.4816 33.5495 70.6417 33.5126 70.7772 33.488C71.159 33.4266 71.5286 33.3651 71.9227 33.3774C72.1075 33.3897 72.2676 33.4389 72.3046 33.6232C72.3415 33.8199 72.2553 33.9673 72.0829 34.0656C72.009 34.1148 71.9227 34.1517 71.8365 34.1885C70.0997 34.9259 68.6708 36.0811 67.3159 37.3592C67.1188 37.5559 66.9463 37.7894 66.7739 38.0106C66.7123 38.0966 66.6138 38.1949 66.7 38.3178C66.7862 38.453 66.9217 38.5021 67.0695 38.4653C67.242 38.4284 67.4144 38.367 67.5745 38.3055C69.7178 37.4944 71.8981 36.9414 74.2015 36.8676C77.2071 36.7816 79.8801 37.7033 82.3067 39.4116C82.4422 39.6574 82.4052 39.8663 82.1958 40.0506C82.048 40.1858 81.9125 40.3456 81.777 40.493C80.9024 41.3902 81.1857 41.3533 79.9293 40.9846C78.0324 40.4193 76.1354 40.4807 74.2385 41.0215C73.1545 41.2304 72.3292 41.8326 71.6764 42.6929C70.8141 43.8481 70.2106 45.1385 69.7794 46.5026C69.2005 48.3214 69.065 50.2017 69.028 52.082C69.0157 52.5859 68.8926 53.0037 68.4368 53.2864C67.9441 53.6059 67.7716 54.0729 67.8455 54.6382C67.8702 54.8348 67.8948 55.0438 67.9194 55.2404C68.0057 55.7811 68.1535 55.8794 68.6955 55.7811C69.5824 55.6214 70.4816 55.4616 71.3684 55.2896C72.1937 55.2035 73.019 55.1052 73.8443 55.0561C75.0392 54.9823 76.2463 54.8594 77.4411 55.0192C78.6113 55.1667 79.6583 55.6091 80.6314 56.2481C81.0749 56.5308 81.5183 56.666 82.0357 56.4202C82.7255 56.0761 83.4769 55.9655 84.2406 56.0392C84.6963 56.0884 85.0412 55.9655 85.3369 55.6337C86.273 54.6013 87.4925 54.0852 88.8351 53.7902C90.264 53.4707 91.7052 53.2987 93.1587 53.1512C94.9448 52.9668 96.7432 52.6842 98.5539 52.8685C98.9111 52.9054 99.2683 52.8931 99.6255 52.9054C99.8842 52.9177 100.02 52.8194 99.9704 52.5367C99.7734 51.4552 99.5763 50.3738 98.8249 49.5012C97.9749 48.5181 97.3221 47.4735 97.2852 46.097C97.2605 45.2859 96.9895 44.4748 96.8417 43.6514C96.8294 43.4917 96.6816 43.2336 96.9895 43.0861ZM62.2779 51.6887C62.3272 52.7948 62.3641 53.9992 62.5119 55.1912C62.6351 56.1007 62.8199 56.9978 63.1894 57.8458C63.2633 58.0055 63.3249 58.1776 63.5343 58.2144C64.1502 58.3005 64.8646 57.5877 64.7784 56.9609C64.4705 54.6628 64.5444 52.3769 64.9508 50.1034C65.1233 49.1817 65.345 48.2723 66.0841 47.6086C66.7246 47.031 67.1065 46.306 67.4267 45.5071C68.2643 43.4302 69.5331 41.6728 71.5286 40.5299C71.6025 40.4807 71.6764 40.4316 71.7503 40.3824C71.8365 40.321 71.9227 40.2472 71.8858 40.1244C71.8488 40.0137 71.7257 40.0015 71.6271 40.0015C71.5532 40.0015 71.4793 40.0137 71.3931 40.0137C70.0751 40.1366 68.9541 40.7388 67.8825 41.4393C66.7985 42.1644 65.8624 43.0861 64.84 43.8972C63.7191 44.7943 62.4996 45.5317 61.0215 45.6915C60.6273 45.7283 60.4548 46.1216 60.6766 46.4657C60.9476 46.8836 61.2309 47.2891 61.5265 47.6824C61.9946 48.3091 62.2163 49.0096 62.2286 49.7839C62.2902 50.3983 62.2779 51.0005 62.2779 51.6887ZM81.9125 69.6928C81.235 69.7051 80.6684 69.9017 80.2865 70.5162C79.8062 71.2781 79.2272 71.9541 78.3896 72.3719C78.2295 72.4579 77.9954 72.5194 77.9954 72.7406C77.9954 72.9864 78.2295 73.0847 78.4142 73.1953C78.5251 73.2568 78.6483 73.2813 78.7838 73.3059C79.2519 73.3919 79.6953 73.2936 80.1387 73.1584C80.8532 72.9495 81.5553 72.7037 82.2697 72.5194C85.0905 71.8066 87.9606 71.5854 90.8552 71.4379C91.8284 71.3888 92.8015 71.4133 93.7623 71.3027C94.1441 71.2536 94.4397 71.1061 94.6738 70.8111C94.8955 70.5285 94.8093 70.1967 94.4644 70.1598C93.4297 70.0369 92.7276 69.4224 92.1117 68.6605C91.6929 68.132 91.2494 67.6159 90.6458 67.2718C90.2024 67.0137 90.0053 67.0383 89.6358 67.3824C89.1554 67.8371 88.675 68.3041 88.0345 68.5376C87.628 68.6851 87.3447 68.9309 87.1476 69.3241C86.9012 69.8157 86.4824 70.1475 85.9281 70.209C84.8072 70.3442 83.7109 70.2827 82.6516 69.8403C82.4175 69.7297 82.1712 69.6805 81.9125 69.6928ZM72.8589 74.7069C72.8835 74.9158 72.8958 75.137 72.9451 75.346C73.2161 76.4643 73.7581 77.4598 74.337 78.4306C75.3225 80.0774 76.5542 81.4907 78.3157 82.351C79.0301 82.7074 79.7938 82.9286 80.6068 82.8671C81.1488 82.818 81.3582 82.4984 81.1118 82.0314C80.5575 80.9745 80.1511 79.8685 79.6953 78.7747C79.6337 78.6395 79.5844 78.4675 79.3873 78.4798C79.1903 78.4921 79.104 78.6395 79.0424 78.7993C78.9562 79.0574 78.8946 79.3155 78.8207 79.5735C78.7591 79.7702 78.7715 80.016 78.5374 80.0774C78.2787 80.1511 78.1186 79.9299 77.9585 79.7702C77.4904 79.254 77.1578 78.6518 76.8868 78.0128C76.1724 76.3906 75.6427 74.6946 75.3101 72.9495C75.2116 72.4334 74.9406 72.1999 74.5095 72.2982C73.9798 72.4211 73.4994 72.6669 73.2407 73.183C72.9944 73.6746 72.8712 74.1785 72.8589 74.7069ZM89.0076 73.5886C87.1476 73.7238 85.3245 73.945 83.5261 74.4243C83.3906 74.4611 83.2182 74.4611 83.2059 74.6332C83.1936 74.7806 83.3167 74.8421 83.4276 74.9158C83.9449 75.2108 84.4746 75.3583 85.0782 75.2354C85.8542 75.0879 86.6302 74.9527 87.4063 74.8052C88.3055 74.6332 89.1431 74.3259 89.9807 73.9573C90.0915 73.9081 90.264 73.8712 90.2147 73.7115C90.1778 73.564 90.0053 73.6009 89.8821 73.6009C89.5988 73.5886 89.3032 73.5886 89.0076 73.5886ZM76.1724 58.3496C76.3448 58.3005 76.6651 58.4971 76.7513 58.2267C76.8376 57.9318 76.5542 57.7229 76.3079 57.5754C75.7413 57.2559 75.1623 57.2067 74.5464 57.4771C73.3639 57.9809 72.5017 58.9395 71.4054 59.5786C71.3068 59.64 71.2329 59.7383 71.2699 59.8735C71.3069 59.9964 71.43 60.0333 71.5409 60.0456C71.7133 60.0702 71.8735 60.0456 72.0336 59.9964C72.5756 59.8489 73.0067 59.5048 73.4748 59.2222C74.3001 58.7306 75.15 58.3496 76.1724 58.3496ZM91.4835 56.5431C91.8653 56.5431 92.2718 56.6291 92.6413 56.8749C93.0232 57.1207 93.4174 57.3173 93.8362 57.4648C94.1318 57.5754 94.4274 57.6246 94.7354 57.5877C94.8585 57.5754 94.9571 57.5017 94.9817 57.3788C95.0064 57.2682 94.9078 57.2313 94.8216 57.1944C94.1318 56.9486 93.5775 56.4939 92.9985 56.0761C91.8037 55.2281 90.6828 55.351 89.6974 56.4448C89.5865 56.5677 89.3894 56.6906 89.5126 56.8995C89.6481 57.1084 89.8329 56.9732 89.993 56.9241C90.4734 56.7643 90.9292 56.5554 91.4835 56.5431ZM64.027 60.402C64.027 60.4511 64.027 60.5003 64.0393 60.5494C64.3719 61.6186 64.8893 62.5895 65.6283 63.4498C65.7392 63.5849 65.887 63.6095 66.0471 63.5235C66.2073 63.4375 66.2442 63.29 66.1949 63.1302C66.158 62.9828 66.1087 62.8353 66.0471 62.7001C65.7885 61.9996 65.5175 61.2868 65.4312 60.5372C65.3081 59.5171 65.2465 59.4803 64.3226 59.9718C64.1256 60.0579 64.0024 60.1685 64.027 60.402ZM69.2251 59.7875C69.3729 59.7875 69.5331 59.7261 69.6563 59.6154C70.2968 59.0501 70.9373 58.4848 71.6394 57.9932C71.7749 57.8949 71.8612 57.7597 71.7872 57.6C71.7133 57.4402 71.5409 57.4279 71.3931 57.4525C70.8141 57.5508 70.2352 57.6737 69.6932 57.8949C69.1389 58.1161 68.8556 58.5831 68.7324 59.1484C68.6462 59.5294 68.8556 59.7752 69.2251 59.7875ZM79.5598 66.4361C79.5844 67.026 79.7815 67.5299 80.2865 67.874C80.5452 68.046 80.8532 68.1566 81.0995 67.9231C81.3336 67.7142 81.1488 67.4438 81.0379 67.2349C80.7546 66.7433 80.7054 66.2149 80.8408 65.6864C80.9271 65.3792 80.7669 65.2932 80.5329 65.244C80.188 65.1826 79.9417 65.3423 79.7692 65.625C79.6091 65.8708 79.5598 66.1534 79.5598 66.4361ZM94.2919 54.5276C94.0579 54.5522 93.713 54.5891 93.3681 54.6382C93.2572 54.6505 93.134 54.6997 93.1094 54.8348C93.0848 54.97 93.208 55.0069 93.2942 55.0438C93.676 55.2035 94.0086 55.4493 94.3535 55.6582C94.6861 55.8672 95.031 56.0761 95.4128 56.1744C95.7701 56.2727 95.9425 56.1498 96.0041 55.7811C96.078 55.4002 95.8563 54.9946 95.4621 54.7734C95.1418 54.5768 94.7723 54.5276 94.2919 54.5276ZM89.7713 102.235C89.6481 101.695 89.5126 101.068 89.3648 100.453C89.3402 100.355 89.3402 100.183 89.2047 100.171C89.0445 100.171 89.0445 100.355 89.0199 100.453C88.8228 101.203 88.5272 101.916 88.0961 102.567C87.9359 102.801 88.0468 102.911 88.2808 102.899C88.675 102.862 89.0568 102.788 89.451 102.715C89.6727 102.69 89.7466 102.53 89.7713 102.235ZM67.3898 57.7106C67.1311 57.7474 66.8601 57.7843 66.6014 57.8335C65.8993 57.9687 65.9116 57.9687 66.0841 58.6692C66.1334 58.8658 66.2196 58.9149 66.4044 58.8904C66.7862 58.8289 67.1557 58.7798 67.5376 58.7183C67.7593 58.6814 67.8455 58.5708 67.7839 58.3496C67.747 58.2144 67.7224 58.0793 67.6977 57.9441C67.6485 57.772 67.5622 57.686 67.3898 57.7106ZM97.3344 54.9209C97.6054 54.8963 97.8641 54.8717 98.1351 54.8226C98.5662 54.7488 98.4184 54.4047 98.4184 54.1466C98.4184 53.864 98.2213 53.8763 98.0119 53.9008C97.7163 53.9377 97.433 53.9623 97.1373 53.9869C96.6323 54.036 96.6569 54.036 96.6816 54.5399C96.7185 55.0438 97.0265 54.9454 97.3344 54.9209Z" fill="#020101"></path>
    <path d="M135.938 72.2129C135.963 72.2129 135.987 72.2129 136 72.2129C136 72.9994 136 73.7982 136 74.5848H135.963H135.926C135.938 73.7982 135.938 73.0117 135.938 72.2129Z" fill="#EACCAE"></path>
    <path d="M135.938 72.214C135.938 73.0128 135.938 73.7993 135.938 74.5982C135.827 78.6414 135.199 82.5986 134.017 86.4575C133.98 86.5804 133.93 86.7033 133.893 86.8139C133.117 86.3838 132.354 85.9045 131.541 85.5235C130.013 84.7861 128.375 84.4789 126.724 84.1717C124.803 83.8153 122.869 83.5572 120.923 83.3483C119.728 83.2254 118.533 83.1271 117.338 83.0164C115.823 82.869 114.32 82.7215 112.805 82.5863C112.62 82.574 112.423 82.5617 112.226 82.5494C111.66 82.5003 111.167 82.3528 110.711 81.9595C110.157 81.4803 109.405 81.3328 108.716 81.1116C107.521 80.7183 106.314 80.3251 105.094 79.9809C104.429 79.7966 103.924 79.4402 103.53 78.8872C103.074 78.2727 102.532 77.7197 101.904 77.265C101.51 76.9823 101.46 76.6382 101.522 76.2327C101.621 75.6428 101.707 75.0529 101.756 74.4507C101.83 73.5658 101.904 72.6687 101.892 71.7839C101.879 71.2063 102.076 70.7884 102.618 70.5058C103.296 70.1617 103.542 69.5841 103.431 68.8467C103.21 67.3965 103.456 66.0201 103.998 64.656C104.786 62.7142 105.304 60.6865 105.575 58.6096C105.735 57.3929 105.698 56.164 105.279 54.9842C105.07 54.3697 104.737 53.829 104.244 53.3988C103.789 52.9933 103.628 52.5017 103.813 51.9118C104.244 50.5108 104.515 49.0975 104.515 47.6228C104.515 47.1558 104.454 46.6765 104.343 46.2218C104.257 45.8285 104.109 45.4967 103.727 45.2632C103.394 45.0666 103.222 44.661 103.136 44.2678C102.729 42.4981 102.175 40.7775 101.362 39.143C99.3788 35.1121 96.324 32.1995 92.2591 30.2946C90.8056 29.6064 89.3028 29.0903 87.7754 28.6233C102.458 27.8367 114.801 32.8263 124.68 43.7024C130.062 49.626 133.45 56.6187 135.064 64.4593C135.593 67.0156 135.864 69.6086 135.938 72.214ZM134.62 68.2322C134.608 68.2076 134.595 68.1831 134.595 68.1585C134.571 68.1831 134.558 68.2076 134.534 68.2322C134.472 68.2445 134.398 68.2568 134.337 68.2691C134.287 68.2691 134.238 68.2568 134.189 68.2568C134.078 68.2076 133.955 68.0233 133.856 68.2691C133.696 68.4657 133.622 68.6623 133.856 68.8467L133.844 68.8344C133.832 68.9573 133.869 69.0187 134.004 68.9942L133.992 68.9819C133.955 69.0802 134.029 69.0556 134.078 69.0679H134.066C134.201 69.1785 134.324 69.1785 134.46 69.0679H134.448C134.497 69.0556 134.571 69.0802 134.534 68.9819L134.522 68.9942C134.657 69.0187 134.706 68.9696 134.682 68.8344V68.8467C134.916 68.6623 134.891 68.4903 134.682 68.306L134.694 68.3182C134.719 68.2445 134.706 68.2076 134.62 68.2322ZM109.122 71.7593C109.036 71.661 109.122 71.5504 109.147 71.4521C109.319 70.7884 109.516 70.1248 109.689 69.4612C109.787 69.0679 109.947 68.7484 110.366 68.6132C110.576 68.5517 110.576 68.3182 110.563 68.1708C110.551 67.9741 110.366 68.0847 110.255 68.0725C109.923 68.0602 109.59 68.0725 109.258 68.0725C108.408 68.0725 107.57 68.0847 106.72 68.0602C106.486 68.0602 106.425 68.1585 106.363 68.3428C106.314 68.5395 106.375 68.6009 106.548 68.6746C106.88 68.7975 106.979 69.0679 106.893 69.3874C106.769 69.8913 106.634 70.3952 106.486 70.899C106.154 72.0788 105.846 73.2586 105.501 74.4261C105.328 74.9914 105.156 75.5567 104.429 75.6673C104.244 75.6919 104.269 75.9623 104.244 76.1343C104.22 76.331 104.404 76.2449 104.503 76.2449C105.772 76.2572 107.04 76.2449 108.309 76.2572C108.568 76.2572 108.605 76.1221 108.642 75.95C108.691 75.778 108.703 75.6428 108.482 75.569C108.272 75.4953 108.087 75.3232 108.149 75.0774C108.358 74.2541 108.593 73.443 108.827 72.5704C109.418 73.529 110.071 74.3647 110.699 75.2126C111.019 75.6305 111.401 75.9623 111.918 76.0975C112.928 76.3433 113.951 76.2572 114.973 76.2572C115.256 76.2572 115.146 75.9623 115.232 75.8148C115.281 75.7288 115.22 75.6919 115.121 75.6673C114.567 75.5813 114.222 75.2126 113.938 74.7702C113.335 73.8731 112.744 72.9514 112.14 72.0542C112.005 71.8453 112.066 71.7593 112.239 71.6364C113.323 70.7761 114.394 69.9159 115.478 69.0556C115.688 68.8836 115.909 68.6992 116.168 68.6623C116.538 68.6132 116.624 68.4043 116.624 68.0602C115.232 68.0602 113.84 68.0602 112.448 68.0602C112.202 68.0602 112.263 68.2691 112.214 68.392C112.165 68.5149 112.214 68.5763 112.349 68.6378C112.768 68.8344 112.768 69.0065 112.399 69.3014C112.017 69.5963 111.635 69.9036 111.241 70.1862C110.526 70.7024 109.874 71.28 109.122 71.7593ZM123.165 71.2923C122.29 71.2923 121.44 71.28 120.602 71.3046C120.344 71.3046 120.294 71.2308 120.368 70.9973C120.479 70.6532 120.565 70.3091 120.652 69.965C120.689 69.793 120.775 69.707 120.96 69.7192C121.686 69.7315 122.413 69.707 123.152 69.7192C123.485 69.7192 123.793 69.8053 123.965 70.1248C124.014 70.2231 124.088 70.2477 124.187 70.2354C124.322 70.2231 124.322 70.1125 124.347 70.0142C124.483 69.4857 124.581 68.945 124.754 68.4166C124.864 68.0847 124.754 68.0479 124.446 68.0479C122.29 68.0602 120.147 68.0479 117.991 68.0479C117.843 68.0479 117.683 68.0602 117.535 68.0479C117.314 68.0356 117.338 68.2076 117.301 68.3305C117.277 68.4288 117.215 68.5272 117.363 68.6132C117.892 68.9327 117.917 69.031 117.757 69.6332C117.178 71.7347 116.611 73.8362 116.02 75.9377C115.959 76.1466 115.934 76.2572 116.23 76.2572C117.289 76.2449 118.348 76.2449 119.42 76.2572C119.605 76.2572 119.716 76.2081 119.728 76.0114C119.74 75.864 119.9 75.6919 119.629 75.569C119.334 75.4461 119.21 75.1881 119.297 74.8808C119.457 74.2663 119.642 73.6519 119.802 73.0374C119.839 72.9145 119.876 72.8285 120.023 72.8408C120.923 72.9022 121.871 72.6196 122.709 73.234C122.844 72.5827 123.004 71.9559 123.165 71.2923ZM132.428 74.4261C132.23 74.4753 132.107 74.5121 131.972 74.549C131.023 74.8071 130.075 74.9546 129.102 74.6719C127.18 74.1189 126.527 71.9559 127.882 70.5672C129.04 69.3751 131.27 69.24 132.563 70.2846C132.748 70.432 132.896 70.4443 132.982 70.1617C133.117 69.6578 133.253 69.1539 133.413 68.6501C133.499 68.392 133.413 68.306 133.179 68.2445C131.972 67.9373 130.752 67.9004 129.521 68.0847C127.932 68.3182 126.49 68.9081 125.369 70.1125C124.618 70.9236 124.162 71.8576 124.236 72.9882C124.335 74.549 125.246 75.5076 126.65 76.0237C128.363 76.6505 130.124 76.4662 131.873 76.1466C131.959 76.1343 132.058 76.1221 132.083 76.0114C132.181 75.4953 132.304 74.9791 132.428 74.4261Z" fill="#960000"></path>
    <path d="M53.0517 97.5059C51.5736 95.2692 50.3541 92.8851 49.3318 90.4026C47.6812 86.3962 46.6095 82.2424 46.2153 77.9165C45.0944 65.6762 48.3463 54.7263 56.045 45.1036C56.0696 45.079 56.0942 45.0422 56.1189 45.0176C56.2051 45.8656 56.6855 46.5046 57.1659 47.1559C57.8187 48.0285 58.3607 48.9256 58.5085 50.0317C58.6687 51.2238 58.5455 52.3913 58.3238 53.571C58.176 54.3207 58.0281 55.0704 57.7325 55.7832C57.5354 56.2502 57.6217 56.7294 57.905 57.1719C58.3484 57.8601 58.952 58.3885 59.5925 58.8924C60.2084 59.3717 60.1838 59.4085 59.962 60.1336C59.6295 61.2028 59.7773 62.272 60.1591 63.3166C60.9721 65.5656 62.2039 67.5565 63.7929 69.3507C63.9653 69.5474 64.1871 69.7071 64.3472 69.9283C64.6921 70.4199 64.803 70.9729 64.803 71.5628C64.8153 72.0667 64.7906 72.5829 64.9384 73.0867C65.271 74.2296 66.1086 74.881 67.1433 75.3234C67.6484 75.5323 67.981 75.8764 68.1657 76.3926C68.8186 78.236 69.6931 79.9565 70.9619 81.4681C71.3191 81.8983 71.4176 82.2792 71.2082 82.8446C70.6539 84.393 70.2721 85.9907 69.8902 87.6006C69.7547 88.1536 69.4714 88.5346 68.9541 88.7804C68.3751 89.0507 67.8331 89.3948 67.2542 89.6652C66.5644 89.997 66.0594 90.5378 65.6036 91.1277C65.3326 91.4718 65 91.693 64.5935 91.8527C60.6642 93.3643 56.8826 95.1832 53.2735 97.3584C53.1996 97.4076 53.1256 97.4567 53.0517 97.5059Z" fill="#960000"></path>
    <path d="M74.2635 41.0336C76.1604 40.4929 78.0574 40.4314 79.9543 40.9967C81.2107 41.3654 80.9151 41.4023 81.802 40.5051C81.9498 40.3577 82.073 40.1979 82.2208 40.0627C82.4302 39.8661 82.4795 39.6695 82.3317 39.4237C82.7997 39.1779 83.1323 38.7723 83.5511 38.4651C84.2163 37.9735 84.8814 37.5065 85.7191 37.3959C86.261 37.3222 86.803 37.4451 87.345 37.5065C88.8355 37.6786 90.3013 37.9858 91.7178 38.502C94.0705 39.3622 95.8566 40.8615 97.0022 43.0982C96.6942 43.2457 96.8421 43.4915 96.879 43.7004C97.0145 44.5115 97.2978 45.3226 97.3225 46.146C97.3594 47.5224 98.0123 48.567 98.8622 49.5502C99.6136 50.4227 99.8107 51.5042 100.008 52.5857C100.057 52.8561 99.9215 52.9544 99.6628 52.9544C99.3056 52.9421 98.9484 52.9544 98.5912 52.9175C96.7805 52.7332 94.9944 53.0158 93.196 53.2002C91.7425 53.3476 90.3013 53.532 88.8724 53.8392C87.5298 54.1342 86.3226 54.6503 85.3742 55.6826C85.0785 56.0145 84.7336 56.1251 84.2779 56.0882C83.5142 56.0145 82.7751 56.1251 82.073 56.4692C81.5556 56.7272 81.1122 56.5798 80.6687 56.2971C79.6956 55.6581 78.6486 55.2156 77.4784 55.0682C76.2713 54.9084 75.0765 55.0436 73.8816 55.105C73.0563 55.1542 72.231 55.2648 71.4057 55.3385C71.4057 54.6995 71.4304 54.0604 71.4181 53.4214C71.4057 52.9544 71.3072 52.4751 71.3565 52.0081C71.5412 50.2753 71.7506 48.5302 72.1202 46.8219C72.502 45.0154 73.0687 43.2826 74.128 41.7464C74.2758 41.5129 74.2635 41.2794 74.2635 41.0336Z" fill="#FCEFDF"></path>
    <path d="M99.2561 103.095C99.4532 104.705 99.638 106.303 99.8351 107.913C100.069 109.744 100.328 111.563 100.574 113.394C100.734 114.549 100.894 115.717 101.067 116.872C101.104 117.093 101.042 117.155 100.833 117.204C96.7926 118.089 92.7031 118.445 88.5643 118.224C83.9451 117.978 79.486 117.056 75.1501 115.434C71.2823 113.984 67.6732 112.03 64.3474 109.597C64.2981 109.56 64.2612 109.511 64.2119 109.461C64.4583 107.888 64.6184 106.303 64.9263 104.742C65.3205 102.678 65.764 100.625 66.2074 98.5729C66.5769 96.9138 66.9095 95.2547 67.4145 93.6448C67.5747 93.1287 67.8334 92.7108 68.3753 92.5388C68.4616 92.5142 68.5355 92.4282 68.6217 92.5019C68.7202 92.5756 68.7079 92.6862 68.6833 92.7846C68.4616 93.8537 68.3261 94.9475 68.1906 96.029C68.0428 97.1842 67.9196 98.3517 67.7964 99.5192C67.5377 102.149 67.3776 104.779 67.4269 107.421C67.4392 108.269 67.4515 109.13 67.5624 109.978C67.6732 110.825 68.0797 111.096 68.8804 110.789C71.812 109.695 74.756 108.638 77.7369 107.679C80.7671 106.709 83.8589 105.996 86.9753 105.32C89.5127 104.767 92.0748 104.275 94.637 103.82C96.1767 103.55 97.7164 103.28 99.2561 103.095Z" fill="#960000"></path>
    <path d="M95.3027 62.8981C95.9186 62.7014 96.3374 62.259 96.707 61.7674C97.3721 60.8949 97.6308 59.8749 97.754 58.818C97.8402 58.0437 97.9141 57.2695 97.988 56.4953C98.025 56.0897 98.1728 55.7579 98.53 55.5367C98.8995 55.3032 99.2567 55.0574 99.6263 54.8362C100.082 54.5658 100.279 54.6518 100.452 55.1557C100.636 55.7456 100.723 56.3478 100.833 56.95C100.92 57.4293 100.994 57.9085 101.08 58.3878C101.104 58.5476 101.117 58.7442 101.302 58.8057C101.499 58.8794 101.609 58.7074 101.72 58.5968C102.262 58.0192 102.521 57.4538 101.831 56.6919C101.4 56.2126 101.523 55.635 102.041 55.2786C102.546 54.9345 103.075 55.0697 103.383 55.6596C103.851 56.5567 103.839 57.5276 103.79 58.4984C103.703 60.1944 103.272 61.8166 102.669 63.4019C102.25 64.508 101.954 65.6386 101.77 66.7938C101.757 66.8553 101.757 66.9167 101.745 66.9782C101.696 67.1502 101.622 67.3223 101.4 67.3346C101.191 67.3469 101.117 67.2117 101.043 67.0519C100.981 66.929 100.981 66.7201 100.821 66.7324C100.661 66.7447 100.636 66.9536 100.599 67.1011C100.489 67.4943 100.341 67.8876 100.119 68.2194C99.8357 68.6495 99.8357 69.092 99.885 69.5712C100.144 71.7465 100.205 73.9217 99.811 76.097C99.2814 79.0341 97.6924 81.3323 95.5491 83.3109C94.9578 83.8639 94.3296 84.3678 93.6644 84.8102C92.95 85.2895 92.5805 85.2772 91.903 84.761C91.8168 84.6873 91.7182 84.6258 91.6197 84.5644C91.5211 83.7164 91.1886 82.9545 90.7821 82.2171C90.5234 81.7501 90.1908 81.3077 90.0184 80.8161C89.7351 79.9927 89.5996 79.1202 89.7597 78.2353C89.7843 78.1247 89.7967 77.9895 89.6735 77.9281C89.538 77.8543 89.4764 77.9895 89.3902 78.0633C89.1684 78.2353 89.0329 78.4442 89.0699 78.7515C89.1069 79.0096 88.9714 79.2431 88.8482 79.4766C88.762 79.6363 88.6511 79.7469 88.454 79.7223C88.2569 79.7101 88.1584 79.5626 88.1091 79.4028C88.0475 79.2062 88.0229 79.0096 87.9859 78.8129C87.912 78.4074 87.7026 78.2599 87.3084 78.3828C86.631 78.5917 85.9412 78.6532 85.2391 78.6532C85.0912 78.1985 84.7956 77.965 84.3152 77.9158C84.0565 77.8912 83.7732 77.8421 83.5392 77.7069C83.3052 77.5717 83.2189 77.4119 83.4776 77.1784C84.1428 76.6008 84.9065 76.2936 85.781 76.269C87.0744 76.2444 88.3555 76.1707 89.6119 75.802C90.4125 75.5685 91.1516 75.1752 91.903 74.8434C92.5066 74.5854 93.2333 74.7205 93.7014 75.1875C93.8246 75.3104 93.8739 75.4702 93.8985 75.63C94.0217 76.269 94.0709 76.9203 94.268 77.5471C94.305 77.67 94.3419 77.7929 94.4035 77.9035C94.5513 78.1739 94.7238 78.1985 94.9455 77.965C95.2658 77.6331 95.3766 77.2153 95.4136 76.7852C95.4629 76.2321 95.5121 75.6668 95.5614 75.1138C95.5983 74.7328 95.7462 74.4133 95.9925 74.1061C96.5715 73.4056 96.7809 72.5699 96.7562 71.6727C96.7439 71.2426 96.707 70.8125 96.6823 70.3701C96.7439 70.3332 96.8178 70.3086 96.8671 70.2472C97.5815 69.4484 97.5446 68.2563 96.8055 67.482C96.4113 67.0642 95.9432 66.757 95.4998 66.4251C94.576 65.7246 93.763 64.9013 92.8515 64.1762C91.8907 63.4265 90.8067 63.0578 89.5626 63.3896C88.8974 63.5617 88.6018 64.0533 88.8728 64.5449C88.8851 64.8152 89.0329 65.0487 89.1192 65.2945C89.3286 65.8352 89.2547 66.1425 88.8112 66.5112C87.9736 67.224 87.099 67.8384 85.9781 68.0105C85.1405 68.1457 84.3399 67.9859 83.5761 67.6049C83.4899 67.224 83.3175 66.8921 83.1573 66.5357C82.8001 65.7492 82.6893 64.9258 82.8371 64.0533C82.9603 63.3159 83.2312 62.5785 83.0342 61.8043C82.9726 61.5585 82.9603 61.3004 82.9603 61.0546C82.9479 59.9732 82.9603 58.8917 82.9603 57.7979C83.1943 57.6996 83.4407 57.6259 83.6993 57.6382C84.2536 57.6382 84.6478 57.9085 84.8572 58.4247C85.0912 59.0146 85.3499 59.5799 85.8057 60.0223C86.0028 60.2067 86.2122 60.4648 86.5324 60.3173C86.902 60.1452 87.1853 59.8749 87.3084 59.4693C87.3331 59.371 87.2838 59.2973 87.2345 59.2235C87.1483 59.1129 87.0621 59.0023 86.9882 58.8794C86.902 58.7442 86.7665 58.5845 86.902 58.4247C87.0251 58.2772 87.2099 58.3387 87.37 58.4124C88.2939 58.8303 89.267 59.0146 90.277 58.9409C91.1393 58.8671 91.9523 58.5968 92.7652 58.3264C93.6521 58.0314 93.7384 58.056 94.3173 58.7811C94.3912 58.8671 94.4774 58.9409 94.5513 59.0269C94.0586 59.076 93.9478 59.285 94.2188 59.6905C94.4651 60.0469 94.5144 60.4279 94.4035 60.8457C94.2927 61.3004 94.0463 61.6691 93.7876 62.0501C93.6891 62.1853 93.4181 62.3082 93.6152 62.554C93.5905 62.7629 93.6891 62.8981 93.8492 63.021C94.4405 63.4388 94.8593 63.1193 95.3027 62.8981Z" fill="#FBEEDE"></path>
    <path d="M96.99 43.0855C95.8445 40.8488 94.0584 39.3495 91.7057 38.4892C90.2891 37.9731 88.8233 37.6658 87.3328 37.4938C86.7909 37.4323 86.2489 37.3094 85.7069 37.3832C84.8693 37.4938 84.2041 37.9608 83.5389 38.4524C83.1201 38.7596 82.7876 39.1652 82.3195 39.4109C79.8929 37.7027 77.2199 36.781 74.2143 36.867C71.9109 36.9285 69.7183 37.4815 67.5874 38.3049C67.4149 38.3663 67.2548 38.4278 67.0823 38.4647C66.9345 38.5015 66.799 38.4401 66.7128 38.3172C66.6266 38.1943 66.7128 38.096 66.7867 38.0099C66.9591 37.7887 67.1193 37.5552 67.3287 37.3586C68.6836 36.0805 70.1125 34.9253 71.8493 34.1879C71.9355 34.151 72.0095 34.1142 72.0957 34.065C72.2681 33.9667 72.3544 33.8069 72.3174 33.6226C72.2804 33.426 72.108 33.3768 71.9355 33.3768C71.5537 33.3645 71.1718 33.426 70.79 33.4874C70.6422 33.512 70.4944 33.5366 70.4081 33.4014C70.3219 33.2539 70.4574 33.131 70.5436 33.0327C71.0117 32.5411 71.5907 32.2216 72.1942 31.9512C74.6208 30.8452 77.146 29.9726 79.8066 29.7391C84.7338 29.309 89.4022 30.2676 93.5657 33.0081C97.5566 35.6381 100.02 39.3987 101.08 44.0564C101.461 45.7646 101.769 47.4851 101.695 49.2425C101.683 49.4023 101.658 49.5743 101.622 49.7341C101.585 49.8939 101.523 50.0659 101.326 50.0905C101.129 50.1151 101.08 49.9307 101.018 49.7955C100.599 48.9353 100.156 48.0873 99.6876 47.2516C98.9609 45.9612 98.1848 44.7077 97.3719 43.4665C97.261 43.319 97.1625 43.1592 96.99 43.0855Z" fill="#FDFDFD"></path>
    <path d="M98.147 98.8308C98.3934 98.7448 98.3072 98.585 98.221 98.4375C98.0608 98.1303 97.8268 97.8722 97.5927 97.6264C96.7428 96.7047 95.8067 95.869 94.8951 95.0088C94.7966 94.9227 94.7104 94.8367 94.6242 94.7384C94.4394 94.5418 94.501 94.4066 94.7596 94.3943C95.1661 94.3697 95.5726 94.382 95.9914 94.3697C96.3856 94.3574 96.7798 94.3943 97.1739 94.3083C97.7775 94.1731 98.0978 93.8167 98.0608 93.1899C98.0116 92.4403 97.8884 91.6906 97.8021 90.9532C97.7652 90.5846 97.7282 90.2159 97.679 89.8472C97.6051 89.3187 97.3094 89.0238 96.7675 88.9869C95.6342 88.8886 94.5502 89.1221 93.4909 89.4539C93.3308 89.5031 93.0967 89.6628 92.9982 89.4908C92.8873 89.2819 93.1583 89.1836 93.3061 89.0852C95.5973 87.4507 97.5804 85.5213 99.1694 83.1986C99.8715 82.1663 100.45 81.0848 100.857 79.905C100.992 79.4995 101.116 79.4626 101.424 79.7821C102.015 80.3966 102.261 81.1585 102.434 81.9696C102.963 84.5381 102.852 87.1189 102.483 89.6997C102.163 91.9733 101.719 94.2222 100.98 96.4098C100.968 96.4589 100.956 96.5081 100.943 96.5572C100.906 96.6924 100.894 96.8276 101.017 96.9013C101.177 96.9874 101.276 96.8522 101.35 96.7416C101.608 96.3852 101.793 95.9919 101.966 95.5987C103 93.1039 103.69 90.5108 104.195 87.8686C104.454 86.5045 104.602 85.1157 104.737 83.7393C104.934 84.2678 105.02 84.8208 105.156 85.3492C105.649 87.2664 105.944 89.2204 106.178 91.1867C106.338 92.4894 106.437 93.7921 106.585 95.0825C106.806 96.9874 106.917 98.9045 106.967 100.822C106.03 100.92 105.094 101.018 104.146 101.117C101.202 101.412 98.2456 101.719 95.3139 102.087C94.8705 102.137 94.4271 102.198 93.9836 102.247C93.7003 102.284 93.5155 102.186 93.4663 101.879C93.1583 99.9 92.5301 98.032 91.5816 96.2623C91.5693 96.2377 91.5816 96.2008 91.5816 96.164C92.3207 96.5941 92.9366 97.1717 93.5895 97.7124C94.5133 98.4744 95.5357 99.0397 96.6689 99.433C97.1863 99.605 97.8761 99.2978 98.147 98.8308ZM97.5312 95.4635C97.4696 95.2914 97.408 95.144 97.3587 94.9842C97.3218 94.8859 97.2602 94.849 97.1493 94.849C97.0138 94.8613 97.0384 94.9596 97.0384 95.0456C97.0384 95.2423 97.0384 95.4266 97.0384 95.6232C97.0384 95.697 97.0138 95.8076 97.1123 95.8076C97.2602 95.8076 97.1986 95.6847 97.1986 95.6109C97.2109 95.4881 97.1986 95.3652 97.1986 95.1931C97.3957 95.402 97.3218 95.783 97.5312 95.783C97.7898 95.7953 97.6667 95.3774 97.8761 95.2423C97.95 95.4266 97.8268 95.7953 97.95 95.7707C98.1963 95.7216 97.9992 95.4143 98.0608 95.2177C98.0731 95.1685 98.0608 95.1194 98.0608 95.0702C98.0485 94.9842 98.0978 94.849 97.9376 94.849C97.8145 94.849 97.7775 94.9227 97.7282 95.0333C97.6913 95.1685 97.679 95.3283 97.5312 95.4635ZM96.0407 94.9473C96.4472 94.935 96.3856 95.2054 96.3733 95.4266C96.3733 95.4635 96.361 95.5003 96.3733 95.5372C96.3979 95.6232 96.2871 95.8076 96.4718 95.7953C96.6073 95.7953 96.5457 95.6355 96.5457 95.5372C96.558 95.2914 96.4472 94.9719 96.8783 94.9104C96.595 94.8367 96.3363 94.8367 96.0407 94.9473Z" fill="#FDFCFC"></path>
    <path d="M119.568 108.024C118.656 108.872 115.688 110.986 114.665 111.527C113.778 108.172 112.953 104.804 112.152 101.425C112.744 101.29 113.347 101.277 113.939 101.191C114.012 101.179 114.099 101.191 114.173 101.167C114.333 101.118 114.579 101.13 114.579 100.896C114.579 100.687 114.333 100.7 114.185 100.663C113.594 100.515 112.99 100.601 112.387 100.515C111.857 100.442 111.746 100.343 111.66 99.8026C111.438 98.4877 111.192 97.1727 110.908 95.8577C110.231 92.6747 109.443 89.5286 108.469 86.4194C108.161 85.4363 107.866 84.4408 107.583 83.4576C107.459 83.0152 107.632 82.8432 108.088 82.9046C108.359 82.9415 108.617 82.9906 108.864 83.089C109.393 83.2856 109.763 83.6174 109.972 84.1704C111.623 88.398 113.286 92.6256 114.973 96.8409C116.427 100.479 117.93 104.092 119.408 107.717C119.445 107.828 119.519 107.926 119.568 108.024Z" fill="#960000"></path>
    <path d="M83.341 97.5154C82.8852 98.351 82.5034 99.199 82.294 100.133C82.2694 100.231 82.2447 100.33 82.2324 100.428C82.2201 100.514 82.2201 100.612 82.3309 100.649C82.4172 100.674 82.4788 100.625 82.528 100.563C82.6389 100.391 82.7621 100.231 82.8606 100.059C83.5135 98.9409 84.2402 97.884 85.164 96.9746C85.2626 96.9623 85.3611 96.95 85.4597 96.9255C85.5459 96.9009 85.6444 96.8517 85.7183 96.9255C85.7923 97.0238 85.6814 97.0852 85.6321 97.1467C85.4597 97.3925 85.3365 97.6505 85.2256 97.9209C84.5851 99.58 83.9569 101.251 83.0947 102.824C82.9468 103.095 82.799 103.365 82.7621 103.672C80.1137 104.139 77.4531 104.606 74.8048 105.086C74.2012 105.196 73.5976 105.307 72.994 105.43C71.9717 105.626 71.6637 105.417 71.3927 104.434C70.9616 102.874 70.863 101.264 70.7399 99.666C70.6044 97.9701 70.5797 96.2741 70.6413 94.5782C70.6536 94.4061 70.6783 94.2218 70.7029 94.0497C70.8754 94.1849 70.9123 94.3938 71.0109 94.5659C71.5898 95.6965 72.1441 96.8517 72.8709 97.9086C73.4252 98.7197 74.078 99.4571 74.7308 100.194C75.6916 101.276 76.7387 102.259 77.9212 103.095C78.5494 103.537 79.2145 103.525 79.8427 103.07C80.1014 102.886 80.4094 102.677 80.2985 102.271C80.3108 101.89 80.0891 101.632 79.8427 101.374C76.8865 98.2773 75.0142 94.5905 73.9302 90.4735C73.6961 89.6009 73.6469 88.6915 73.6592 87.7821C73.8193 87.7698 73.9055 87.8927 74.0164 87.9664C75.1866 88.839 76.3445 89.7238 77.5639 90.5472C78.1552 90.9405 78.8327 91.1863 79.4116 91.6164C79.2392 91.7516 79.0544 91.8745 78.9312 92.0588C78.1552 92.1326 77.6994 92.5381 77.5147 93.2755C77.4161 93.6933 77.5639 94.0866 77.6379 94.4799C77.8103 95.4016 77.9828 96.3356 78.4262 97.1835C78.7341 97.7734 79.2022 98.0807 79.8797 98.0438C80.9267 97.9824 81.9368 97.6997 82.9592 97.4908C83.0946 97.4539 83.2178 97.3679 83.341 97.5154Z" fill="#FDFCFC"></path>
    <path d="M85.2513 78.6515C85.9534 78.6515 86.6432 78.5901 87.3207 78.3811C87.7149 78.2582 87.9243 78.4057 87.9982 78.8113C88.0352 79.0079 88.0598 79.2168 88.1214 79.4012C88.1707 79.5609 88.2692 79.6961 88.4663 79.7207C88.6634 79.733 88.7742 79.6347 88.8605 79.4749C88.9713 79.2414 89.1068 79.0202 89.0822 78.7498C89.0452 78.4426 89.1807 78.2337 89.4024 78.0616C89.4887 78.0002 89.5379 77.8527 89.6858 77.9264C89.8089 77.9879 89.7843 78.1231 89.772 78.2337C89.6118 79.1185 89.735 79.9911 90.0307 80.8145C90.2031 81.306 90.5357 81.7485 90.7944 82.2155C91.2008 82.9528 91.5334 83.7148 91.632 84.5627C91.324 84.6365 91.3363 84.8946 91.4226 85.0789C91.9399 86.2095 91.5088 87.1804 90.9299 88.139C90.6219 88.6428 90.3263 89.1467 90.1292 89.6997C89.9814 90.1053 89.8952 90.5108 89.9444 90.941C89.9814 91.2728 89.8089 91.3465 89.5379 91.3219C89.3532 91.3097 89.1807 91.2482 89.0329 91.1499C87.6903 90.2282 86.323 89.331 85.1774 88.1513C83.8471 86.7748 83.4899 85.1772 83.8964 83.3584C84.192 82.0557 84.1674 80.7776 83.6746 79.5241C83.6377 79.4257 83.6007 79.3274 83.7116 79.2537C83.8101 79.1677 83.9087 79.2168 83.9949 79.266C84.3644 79.4503 84.5615 79.8067 84.8325 80.0894C84.968 80.2369 85.0666 80.5564 85.3006 80.4581C85.51 80.372 85.4238 80.0648 85.4361 79.8559C85.4484 79.4503 85.3376 79.0571 85.2513 78.6515Z" fill="#FDFDFD"></path>
    <path d="M62.2778 51.6879C62.2778 50.9997 62.2901 50.3975 62.2778 49.7953C62.2654 49.0211 62.0437 48.3206 61.5756 47.6938C61.28 47.3006 60.9844 46.895 60.7257 46.4772C60.504 46.1331 60.6764 45.7521 61.0706 45.7029C62.5611 45.5432 63.7682 44.8058 64.8891 43.9087C65.9115 43.0976 66.8354 42.1758 67.9316 41.4508C69.0033 40.738 70.1242 40.1358 71.4422 40.0252C71.5161 40.0129 71.59 40.0006 71.6763 40.0129C71.7748 40.0129 71.898 40.0252 71.9349 40.1358C71.9719 40.2464 71.8733 40.3201 71.7994 40.3939C71.7255 40.443 71.6516 40.5045 71.5777 40.5414C69.5822 41.6843 68.3135 43.4417 67.4759 45.5186C67.1556 46.3174 66.7738 47.0425 66.1332 47.6201C65.3942 48.2837 65.1724 49.1808 65 50.1148C64.5935 52.3884 64.5196 54.6742 64.8275 56.9724C64.9138 57.5991 64.187 58.3119 63.5834 58.2259C63.3617 58.2013 63.3001 58.017 63.2385 57.8572C62.869 57.0092 62.6719 56.1121 62.5611 55.2027C62.364 53.9983 62.327 52.8062 62.2778 51.6879Z" fill="#FCFCFC"></path>
    <path d="M104.503 102.408C104.922 104.522 105.329 106.648 105.784 108.75C106.166 110.519 106.425 112.301 106.745 114.071C106.807 114.403 106.831 114.759 106.93 115.079C107.004 115.324 106.905 115.386 106.708 115.447C105.846 115.73 104.996 116.025 104.134 116.32C103.937 116.394 103.851 116.394 103.801 116.123C103.185 112.424 102.545 108.737 101.904 105.038C101.781 104.288 101.658 103.539 101.522 102.777C102.225 102.679 102.927 102.568 103.629 102.482C103.924 102.445 104.22 102.433 104.503 102.408Z" fill="#970101"></path>
    <path d="M81.9126 69.6921C82.1712 69.6798 82.4176 69.7289 82.664 69.8395C83.7233 70.2942 84.8196 70.3434 85.9405 70.2082C86.4948 70.1468 86.9136 69.8149 87.16 69.3234C87.357 68.9301 87.6527 68.6843 88.0468 68.5368C88.6874 68.3033 89.1678 67.8363 89.6482 67.3816C90.0177 67.0375 90.2271 67.0129 90.6582 67.271C91.2495 67.6274 91.6929 68.1313 92.124 68.6597C92.7399 69.434 93.4421 70.0484 94.4767 70.159C94.834 70.1959 94.9202 70.54 94.6862 70.8104C94.4521 71.1053 94.1442 71.2651 93.7746 71.302C92.8015 71.4126 91.8284 71.388 90.8676 71.4372C87.9729 71.5846 85.1029 71.8058 82.2821 72.5186C81.5677 72.703 80.8656 72.9365 80.1511 73.1577C79.7077 73.2929 79.2642 73.3912 78.7962 73.3052C78.673 73.2806 78.5375 73.256 78.4266 73.1946C78.2419 73.0962 78.0078 72.9979 78.0078 72.7398C78.0078 72.5063 78.2419 72.4449 78.402 72.3712C79.2273 71.9533 79.8185 71.2897 80.2989 70.5154C80.6685 69.901 81.2351 69.7043 81.9126 69.6921Z" fill="#FCFCFC"></path>
    <path d="M78.2666 65.2555C77.8354 65.8454 77.5398 66.4844 77.4905 67.2095C77.4782 67.443 77.3427 67.5905 77.158 67.6765C76.6776 67.91 76.2464 68.2295 75.803 68.5245C75.6921 68.5122 75.5813 68.5245 75.4704 68.4753C75.1994 68.3401 75.0393 68.0944 74.8668 67.8609C74.3741 67.2218 73.8075 66.6319 73.5981 65.8085C73.5735 65.7225 73.5488 65.6365 73.438 65.6242C73.13 65.575 72.8098 65.5259 72.5018 65.4644C72.3663 65.3169 72.1816 65.2555 72.0091 65.1817C70.8882 64.7393 70.0998 63.9405 69.5209 62.9082C69.3484 62.6132 69.4224 62.392 69.7057 62.1954C70.3708 61.7284 70.3955 61.7284 71.0853 62.1462C71.2577 62.2569 71.4302 62.3552 71.6396 62.4043C71.9721 62.4904 72.2431 62.4166 72.4279 62.1094C72.6496 61.753 72.896 61.4089 73.2162 61.1262C73.8075 60.6101 74.5096 60.4011 75.298 60.3889C76.0493 60.3766 76.8007 60.5117 77.5521 60.352C77.9709 60.266 78.3528 60.1185 78.7223 59.8973C78.8332 59.8358 78.9687 59.7621 79.0795 59.8604C79.2027 59.9833 79.1042 60.1185 79.0303 60.2291C78.9194 60.4134 78.7839 60.5855 78.6607 60.7575C78.2912 60.9296 77.9832 61.1877 77.6014 61.3351C77.1087 61.5195 77.0471 61.7284 77.2072 62.2323C77.3058 62.5395 77.3181 62.8467 77.1949 63.1663C76.9116 63.9405 76.4066 64.4935 75.6675 64.8499C75.5566 64.9114 75.4335 64.9605 75.4335 65.1203C75.3226 65.2801 75.3719 65.4398 75.4827 65.575C75.7044 65.8577 76.0124 65.8577 76.3203 65.7839C76.8131 65.661 77.2934 65.5013 77.7862 65.3538C77.9217 65.3415 78.0695 65.2063 78.2666 65.2555Z" fill="#FBEEDE"></path>
    <path d="M74.2632 41.0332C74.2632 41.279 74.2756 41.5125 74.1277 41.7337C73.0561 43.2699 72.5018 45.015 72.1199 46.8093C71.7504 48.5175 71.541 50.2626 71.3562 51.9954C71.307 52.4624 71.4055 52.9294 71.4178 53.4087C71.4301 54.0478 71.4055 54.6868 71.4055 55.3259C70.5186 55.4856 69.6194 55.6577 68.7325 55.8174C68.1782 55.9157 68.0427 55.8174 67.9565 55.2767C67.9196 55.0801 67.9072 54.8711 67.8826 54.6745C67.8087 54.1092 67.9811 53.6299 68.4739 53.3227C68.9296 53.0277 69.0528 52.6222 69.0651 52.1183C69.1021 50.2257 69.2376 48.3454 69.8165 46.5389C70.2599 45.1748 70.8512 43.8844 71.7134 42.7291C72.354 41.8443 73.1793 41.2421 74.2632 41.0332Z" fill="#EED0B1"></path>
    <path d="M109.714 101.721C110.072 103.355 110.416 105.002 110.774 106.636C111.217 108.64 111.673 110.655 112.116 112.658C112.166 112.88 112.141 113.015 111.895 113.125C111.168 113.457 110.441 113.814 109.727 114.182C109.517 114.281 109.456 114.219 109.431 114.035C108.827 110.631 108.039 107.251 107.275 103.871C107.14 103.281 107.017 102.679 106.894 102.089C107.608 101.93 108.347 101.905 109.074 101.782C109.296 101.758 109.505 101.745 109.714 101.721Z" fill="#970101"></path>
    <path d="M72.8584 74.7057C72.883 74.1773 73.0062 73.6734 73.2403 73.1941C73.5112 72.6657 73.9793 72.4322 74.509 72.3093C74.9401 72.1987 75.2111 72.4445 75.3096 72.9606C75.6422 74.7057 76.1596 76.3894 76.8863 78.0239C77.1696 78.6506 77.4899 79.2651 77.958 79.7813C78.1058 79.9533 78.2782 80.1623 78.5369 80.0885C78.771 80.0271 78.771 79.7813 78.8202 79.5846C78.8941 79.3266 78.9557 79.0685 79.0419 78.8104C79.0912 78.6506 79.1898 78.5032 79.3868 78.4909C79.5839 78.4786 79.6332 78.6506 79.6948 78.7858C80.1506 79.8796 80.557 80.9856 81.1113 82.0425C81.3577 82.5095 81.1483 82.8291 80.6063 82.8782C79.7933 82.9397 79.0296 82.7185 78.3152 82.3621C76.5537 81.5018 75.322 80.0885 74.3365 78.4417C73.7576 77.4709 73.2156 76.4754 72.9446 75.3571C72.883 75.1359 72.883 74.9146 72.8584 74.7057Z" fill="#EDCFB1"></path>
    <path d="M106.98 100.81C106.93 98.8931 106.819 96.9759 106.598 95.0711C106.45 93.7684 106.351 92.4657 106.191 91.1753C105.957 89.209 105.662 87.255 105.169 85.3378C105.033 84.7971 104.935 84.244 104.75 83.7279C104.775 83.3838 104.787 83.0397 104.812 82.6956C104.836 82.4252 104.996 82.3515 105.243 82.4498C105.698 82.6218 105.945 82.9905 106.117 83.4084C106.438 84.1826 106.548 85.006 106.733 85.8171C107.706 90.1061 108.396 94.4566 109.049 98.8071C109.098 99.1758 109.16 99.5444 109.184 99.9131C109.221 100.405 109.086 100.552 108.605 100.65C108.076 100.737 107.534 100.81 106.98 100.81Z" fill="#EED0B1"></path>
    <path d="M80.2861 102.247C80.3969 102.665 80.089 102.862 79.8303 103.046C79.2144 103.501 78.5369 103.513 77.9087 103.071C76.7262 102.235 75.6792 101.252 74.7184 100.17C74.0656 99.4331 73.425 98.6957 72.8584 97.8846C72.1317 96.8277 71.5774 95.6725 70.9984 94.5419C70.9122 94.3575 70.8629 94.1609 70.6905 94.0257C70.6658 93.6939 70.7644 93.3621 70.7644 93.0426C70.7767 92.5141 71.0477 92.1946 71.5035 91.9857C71.8853 91.8136 72.0454 91.8505 72.2425 92.2192C73.0801 93.8291 73.9054 95.439 74.8785 96.9629C76.1596 98.9661 77.724 100.736 79.6086 102.186C79.8303 102.346 80.052 102.579 80.2861 102.247Z" fill="#EED0B1"></path>
    <path d="M60.6643 106.537C60.1469 106.045 59.6173 105.566 59.0999 105.087C59.0014 104.988 58.9644 104.878 59.0014 104.743C59.6049 102.457 59.9375 100.109 60.6766 97.8605C60.8244 97.418 61.0092 96.9756 61.1693 96.5332C61.5142 96.6069 61.8591 96.693 62.2163 96.7544C62.9554 96.8773 63.0539 97.3566 63.0047 97.9219C62.9554 98.4504 62.7337 98.9542 62.5982 99.4704C61.9823 101.769 61.3541 104.067 60.7382 106.365C60.7135 106.426 60.6889 106.488 60.6643 106.537Z" fill="#EED0B1"></path>
    <path d="M79.4117 91.6055C78.845 91.1753 78.1552 90.9295 77.564 90.5363C76.3568 89.7129 75.1866 88.828 74.0165 87.9555C73.9056 87.8695 73.8194 87.7466 73.6592 87.7711C73.6469 87.169 73.6839 86.5668 73.9795 86.026C74.152 85.7188 74.2998 85.6942 74.5461 85.9277C76.5539 87.7711 78.882 89.1107 81.3702 90.1676C81.5919 90.2659 81.8136 90.3642 82.0354 90.4748C82.1585 90.5363 82.2817 90.6469 82.2571 90.8066C82.2325 90.991 82.06 90.9787 81.9245 91.0033C81.0623 91.1016 80.2123 91.2614 79.4117 91.6055Z" fill="#EDCFB1"></path>
    <path d="M88.9096 64.557C88.6509 64.0777 88.9466 63.5862 89.5994 63.4018C90.8312 63.07 91.9275 63.4387 92.8883 64.1883C93.7998 64.9011 94.6128 65.7245 95.5366 66.4373C95.9801 66.7814 96.4481 67.0887 96.8423 67.4942C97.5814 68.2684 97.6183 69.4605 96.9039 70.2593C96.8546 70.3085 96.7807 70.3454 96.7191 70.3822C96.6329 70.0013 96.559 69.608 96.4728 69.227C96.3496 68.7232 96.0047 68.3913 95.5243 68.2562C94.6005 67.9981 93.886 67.4573 93.2455 66.7814C92.9006 66.425 92.568 66.044 92.2231 65.6877C91.4964 64.938 90.6341 64.4218 89.5748 64.2744C89.3038 64.2375 89.0205 64.2006 88.9096 64.557Z" fill="#EED0B1"></path>
    <path d="M83.3406 97.5151C83.2297 97.3676 83.0942 97.4537 82.9587 97.4905C81.9364 97.6995 80.9263 97.9821 79.8793 98.0436C79.2018 98.0804 78.7337 97.7732 78.4258 97.1833C77.9823 96.3353 77.8099 95.4136 77.6374 94.4796C77.5635 94.0864 77.4157 93.6931 77.5143 93.2753C77.6867 92.5379 78.1548 92.1323 78.9308 92.0586C78.8446 92.5502 78.9554 93.0295 79.0294 93.4965C79.1279 94.1601 79.1772 94.836 79.2388 95.5119C79.3127 96.2493 79.6576 96.6057 80.4089 96.6794C81.3205 96.7655 82.1704 96.4705 83.0573 96.323C83.2174 96.2985 83.3775 96.2493 83.55 96.2247C83.6732 96.2124 83.821 96.1633 83.9072 96.2739C84.0058 96.3968 83.9195 96.5197 83.8579 96.6303C83.6855 96.9252 83.513 97.2202 83.3406 97.5151Z" fill="#EED0B1"></path>
    <path d="M72.4897 65.4766C72.7977 65.5257 73.118 65.5872 73.4259 65.6363C73.5368 65.6486 73.5614 65.7346 73.586 65.8207C73.7831 66.6441 74.3621 67.234 74.8548 67.873C75.0272 68.1065 75.1874 68.3523 75.4583 68.4875C75.5692 68.5489 75.6801 68.5244 75.7909 68.5366C75.5076 68.807 75.2243 69.0897 74.9287 69.3477C74.2882 69.9131 73.5244 70.0114 72.8593 69.5075C71.7999 68.7087 70.9131 67.7378 70.3834 66.5089C70.3218 66.3491 70.174 66.1771 70.3464 66.0173C70.5066 65.8821 70.6544 66.0419 70.8022 66.1033C71.0486 66.2016 71.2826 66.3245 71.5413 66.4106C72.1325 66.6072 72.4158 66.4229 72.4897 65.8084C72.5144 65.6978 72.4897 65.5872 72.4897 65.4766Z" fill="#EDCFB1"></path>
    <path d="M82.7744 103.674C82.8114 103.366 82.9592 103.096 83.107 102.826C83.9692 101.253 84.5975 99.5813 85.238 97.9222C85.3488 97.6518 85.472 97.3815 85.6445 97.148C85.6937 97.0865 85.8046 97.0251 85.7307 96.9268C85.6691 96.853 85.5706 96.9022 85.472 96.9268C85.3735 96.9514 85.2749 96.9636 85.1764 96.9759C85.6445 96.4106 86.1741 95.919 86.8147 95.5626C86.9378 95.4889 87.0857 95.366 87.2335 95.4643C87.3813 95.5626 87.3443 95.7347 87.332 95.8822C87.2704 96.4721 87.0857 97.0251 86.9009 97.5781C86.3835 99.1266 85.7553 100.626 85.0779 102.101C85.0286 102.199 84.967 102.31 84.9177 102.408C84.5975 103.108 84.1171 103.575 83.2918 103.6C83.1316 103.612 82.9469 103.649 82.7744 103.674Z" fill="#EDCFB1"></path>
    <path d="M98.1478 98.8309C97.8768 99.2979 97.187 99.5928 96.682 99.4208C95.5611 99.0275 94.5264 98.4622 93.6025 97.7003C92.9497 97.1595 92.3338 96.5696 91.5947 96.1518L91.6071 96.1395C91.5701 96.1026 91.5332 96.0781 91.4962 96.0412C91.3237 95.7585 91.139 95.4882 90.9665 95.2055C90.8926 95.0949 90.8187 94.9843 90.9296 94.8614C91.0281 94.7508 91.1513 94.7508 91.2745 94.7877C91.7302 94.9474 92.1737 95.1564 92.6048 95.3776C94.3909 96.2993 96.0661 97.393 97.6551 98.6097C97.7906 98.7326 97.9384 98.8801 98.1478 98.8309Z" fill="#EDCFB1"></path>
    <path d="M83.0088 57.8223C83.0088 58.9037 83.0088 59.9852 83.0088 61.079C83.0088 61.3371 83.0335 61.5951 83.0827 61.8286C83.2675 62.6029 83.0088 63.3402 82.8857 64.0776C82.7378 64.9502 82.8487 65.7613 83.2059 66.5601C83.366 66.9042 83.5385 67.2483 83.6247 67.6293C82.7871 67.2852 82.1712 66.7076 81.7647 65.8965C81.5184 65.4295 81.6169 64.9379 81.7278 64.4709C82.0727 62.9961 82.0234 61.5091 81.8263 60.0221C81.7401 59.4076 81.9249 58.83 82.2205 58.3016C82.3929 57.9943 82.7009 57.896 83.0088 57.8223Z" fill="#EDCFB1"></path>
    <path d="M75.4082 65.1577C75.4082 64.9979 75.5314 64.9488 75.6422 64.8873C76.369 64.5309 76.8863 63.9779 77.1697 63.2037C77.2805 62.8841 77.2805 62.5892 77.182 62.2697C77.0218 61.7658 77.0834 61.5569 77.5761 61.3725C77.958 61.2251 78.2783 60.967 78.6355 60.7949C78.6847 61.3234 79.1036 61.5569 79.4854 61.8149C79.4361 63.0316 78.8326 63.8796 77.7732 64.4572C77.0218 64.8627 76.2212 65.0225 75.4082 65.1577Z" fill="#FDFDFD"></path>
    <path d="M89.0076 73.5881C89.3033 73.5881 89.5989 73.5881 89.8822 73.5881C90.0054 73.5881 90.1778 73.5512 90.2148 73.6987C90.264 73.8585 90.0793 73.8953 89.9807 73.9445C89.1554 74.3132 88.3055 74.6204 87.4063 74.7924C86.6303 74.9399 85.8543 75.0751 85.0782 75.2226C84.487 75.3455 83.945 75.198 83.4277 74.903C83.3168 74.8416 83.1936 74.7679 83.2059 74.6204C83.2183 74.4483 83.3907 74.4483 83.5262 74.4115C85.3246 73.9568 87.16 73.7233 89.0076 73.5881Z" fill="#FCFCFC"></path>
    <path d="M75.4082 65.159C76.2212 65.0238 77.0218 64.864 77.7609 64.4462C78.8202 63.8686 79.4238 63.0206 79.4731 61.804C79.7687 61.7671 79.9165 61.5336 80.1136 61.3615C80.1998 61.2878 80.2368 61.128 80.3723 61.1772C80.5078 61.2386 80.4585 61.3984 80.4585 61.5213C80.4215 62.1972 80.2245 62.8117 79.8919 63.4016C79.51 64.1021 78.9311 64.6305 78.3398 65.159C78.3152 65.1959 78.2782 65.2204 78.2536 65.2573H78.2659C78.0688 65.1959 77.9333 65.3433 77.7609 65.3925C77.2682 65.54 76.7878 65.6997 76.2951 65.8226C75.9871 65.8964 75.6792 65.8964 75.4575 65.6137C75.3466 65.4785 75.2973 65.331 75.4082 65.159Z" fill="#EDCFB1"></path>
    <path d="M76.1719 58.3508C75.1496 58.3385 74.2996 58.7318 73.4743 59.2233C73.0063 59.506 72.5751 59.8378 72.0332 59.9976C71.873 60.0467 71.7129 60.0713 71.5404 60.0467C71.4296 60.0344 71.3064 59.9976 71.2694 59.8747C71.2325 59.7518 71.3064 59.6412 71.4049 59.5797C72.5012 58.953 73.3635 57.9944 74.546 57.4782C75.1619 57.2079 75.7408 57.257 76.3074 57.5765C76.5538 57.7117 76.8371 57.9329 76.7509 58.2279C76.6647 58.4983 76.3444 58.3016 76.1719 58.3508Z" fill="#EACCAE"></path>
    <path d="M93.6882 62.5642C93.5034 62.3184 93.7744 62.1955 93.8606 62.0603C94.1193 61.6793 94.3656 61.3107 94.4765 60.856C94.5874 60.4381 94.5258 60.0571 94.2917 59.7007C94.0207 59.2952 94.1316 59.0863 94.6243 59.0371C95.0062 59.0371 95.388 59.0371 95.7699 59.0494C96.0901 59.0617 96.2503 59.2092 96.2379 59.5533C96.201 60.3644 95.8438 61.028 95.3018 61.6179C95.1663 61.7654 95.0185 61.9006 94.8707 62.048C94.4642 62.2078 94.0823 62.3798 93.6882 62.5642Z" fill="#FCFCFC"></path>
    <path d="M91.4832 56.5433C90.9289 56.5679 90.4731 56.7645 90.005 56.912C89.8449 56.9612 89.6478 57.0964 89.5246 56.8874C89.3891 56.6785 89.5985 56.5556 89.7094 56.4327C90.6948 55.339 91.8157 55.2284 93.0106 56.064C93.5895 56.4696 94.1438 56.9366 94.8336 57.1824C94.9198 57.207 95.0184 57.2561 94.9937 57.3667C94.9691 57.4896 94.8582 57.5634 94.7474 57.5756C94.4394 57.6248 94.1315 57.5634 93.8482 57.4528C93.4294 57.293 93.0229 57.1086 92.6533 56.8629C92.2715 56.6294 91.865 56.5433 91.4832 56.5433Z" fill="#EACCAE"></path>
    <path d="M64.0266 60.4C64.0019 60.1788 64.1251 60.0559 64.3222 59.9575C65.246 59.466 65.3076 59.5028 65.4308 60.5229C65.5293 61.2725 65.788 61.973 66.0467 62.6858C66.096 62.8333 66.1575 62.9685 66.1945 63.1159C66.2315 63.2757 66.1945 63.4232 66.0467 63.5092C65.8866 63.5952 65.7511 63.5706 65.6279 63.4355C64.8888 62.5875 64.3715 61.6166 64.0389 60.5352C64.0266 60.4983 64.0266 60.4491 64.0266 60.4Z" fill="#FCFCFC"></path>
    <path d="M69.2249 59.7861C68.8554 59.7738 68.646 59.528 68.7322 59.147C68.8554 58.5817 69.151 58.1147 69.693 57.8935C70.235 57.6723 70.8139 57.5494 71.3928 57.4511C71.553 57.4265 71.7131 57.4265 71.787 57.5986C71.8609 57.7583 71.7747 57.8935 71.6392 57.9918C70.9371 58.4834 70.2966 59.0487 69.656 59.614C69.5329 59.7369 69.3727 59.7861 69.2249 59.7861Z" fill="#EACCAE"></path>
    <path d="M79.5596 66.4376C79.5596 66.1549 79.6088 65.8723 79.7567 65.6265C79.9291 65.3438 80.1878 65.1841 80.5204 65.2455C80.7544 65.2824 80.9145 65.3807 80.8283 65.6879C80.6928 66.2164 80.7421 66.7448 81.0254 67.2364C81.1486 67.4453 81.321 67.728 81.087 67.9246C80.8406 68.1458 80.5327 68.0475 80.274 67.8754C79.7813 67.5313 79.5719 67.0275 79.5596 66.4376Z" fill="#EACCAE"></path>
    <path d="M94.2916 54.5273C94.7719 54.5396 95.1415 54.5765 95.4741 54.7731C95.8682 54.9943 96.09 55.4122 96.016 55.7809C95.9545 56.1496 95.782 56.2724 95.4248 56.1741C95.0429 56.0758 94.698 55.8669 94.3655 55.658C94.0206 55.4368 93.688 55.2033 93.3061 55.0435C93.2199 55.0066 93.0967 54.9698 93.1214 54.8346C93.146 54.6994 93.2569 54.6502 93.38 54.638C93.7126 54.5888 94.0575 54.5519 94.2916 54.5273Z" fill="#EACCAE"></path>
    <path d="M89.7711 102.235C89.7464 102.517 89.6725 102.689 89.4508 102.726C89.0566 102.788 88.6748 102.874 88.2806 102.91C88.0466 102.935 87.9357 102.824 88.0958 102.579C88.527 101.927 88.8226 101.215 89.0197 100.465C89.0443 100.354 89.0443 100.17 89.2044 100.182C89.3399 100.182 89.3399 100.354 89.3646 100.465C89.5124 101.079 89.6479 101.694 89.7711 102.235Z" fill="#FCFCFC"></path>
    <path d="M67.3902 57.7112C67.5627 57.6866 67.6612 57.7726 67.6858 57.9324C67.7105 58.0676 67.7351 58.2028 67.7721 58.3379C67.8337 58.5592 67.7474 58.682 67.5257 58.7066C67.1439 58.7558 66.7743 58.8172 66.3925 58.8787C66.22 58.9033 66.1215 58.8664 66.0722 58.6575C65.8998 57.957 65.8874 57.957 66.5896 57.8218C66.8606 57.7849 67.1192 57.748 67.3902 57.7112Z" fill="#FCFCFC"></path>
    <path d="M97.3344 54.9207C97.0264 54.9453 96.7062 55.0436 96.6815 54.5397C96.6569 54.0482 96.6323 54.0359 97.1373 53.9867C97.4329 53.9621 97.7162 53.9376 98.0119 53.9007C98.2213 53.8761 98.4184 53.8761 98.4184 54.1465C98.4184 54.4046 98.5538 54.7487 98.135 54.8224C97.8764 54.8716 97.6054 54.8961 97.3344 54.9207Z" fill="#FCFCFC"></path>
    <path d="M93.6883 62.5636C94.0825 62.3916 94.4644 62.2072 94.8585 62.0352C94.8708 62.3916 94.9571 62.7111 95.302 62.9077C94.8585 63.1289 94.4397 63.4485 93.9224 63.0429C93.7622 62.8954 93.6637 62.7725 93.6883 62.5636Z" fill="#EED0B1"></path>
    <path d="M91.4951 96.043C91.5321 96.0798 91.569 96.1044 91.606 96.1413C91.5198 96.1782 91.5198 96.0921 91.4951 96.043Z" fill="#FDFCFC"></path>
    <path d="M78.2539 65.2565C78.2785 65.2196 78.3155 65.1951 78.3401 65.1582C78.3155 65.1951 78.2909 65.2319 78.2539 65.2565Z" fill="#FBEEDE"></path>
    <path d="M109.123 71.7583C109.862 71.2913 110.527 70.7014 111.241 70.1852C111.635 69.9026 112.017 69.5953 112.399 69.3004C112.769 69.0055 112.769 68.8334 112.35 68.6368C112.214 68.5753 112.165 68.5139 112.214 68.391C112.264 68.2681 112.202 68.0592 112.448 68.0592C113.84 68.0592 115.232 68.0592 116.624 68.0592C116.624 68.391 116.538 68.6122 116.168 68.6613C115.897 68.6982 115.688 68.8826 115.479 69.0546C114.395 69.9149 113.323 70.7874 112.239 71.6354C112.079 71.7706 112.005 71.8443 112.14 72.0532C112.744 72.9504 113.335 73.8598 113.939 74.7692C114.222 75.1993 114.567 75.5803 115.121 75.6663C115.22 75.6786 115.282 75.7155 115.232 75.8138C115.146 75.9613 115.257 76.2562 114.974 76.2562C113.951 76.2685 112.929 76.3546 111.919 76.0965C111.401 75.9736 111.02 75.6418 110.699 75.2116C110.071 74.3637 109.418 73.528 108.827 72.5694C108.581 73.4419 108.347 74.2653 108.149 75.0764C108.088 75.3222 108.273 75.4943 108.482 75.568C108.704 75.6418 108.691 75.7769 108.642 75.949C108.593 76.1211 108.556 76.2562 108.31 76.2562C107.041 76.2439 105.772 76.2562 104.503 76.2439C104.417 76.2439 104.232 76.33 104.245 76.1333C104.257 75.9736 104.245 75.7032 104.429 75.6663C105.156 75.5434 105.341 74.9904 105.501 74.4251C105.846 73.2576 106.166 72.0778 106.487 70.898C106.622 70.3942 106.758 69.8903 106.893 69.3864C106.967 69.0669 106.881 68.7965 106.548 68.6736C106.376 68.6122 106.314 68.5385 106.363 68.3418C106.413 68.1452 106.487 68.0469 106.721 68.0592C107.571 68.0715 108.408 68.0715 109.258 68.0715C109.591 68.0715 109.923 68.0592 110.256 68.0715C110.367 68.0715 110.551 67.9731 110.564 68.1698C110.576 68.3295 110.576 68.5507 110.367 68.6122C109.948 68.7474 109.788 69.0669 109.689 69.4602C109.517 70.1238 109.32 70.7874 109.147 71.4511C109.123 71.5494 109.036 71.6477 109.123 71.7583C109.11 71.7706 109.098 71.7583 109.086 71.7583C109.086 71.7706 109.086 71.7829 109.098 71.8074C109.098 71.7829 109.11 71.7706 109.123 71.7583Z" fill="#FDFCFC"></path>
    <path d="M123.164 71.2913C123.004 71.955 122.856 72.5817 122.684 73.2454C121.846 72.6309 120.91 72.9136 119.999 72.8521C119.851 72.8398 119.814 72.9258 119.777 73.0487C119.617 73.6632 119.432 74.2777 119.272 74.8922C119.186 75.1994 119.309 75.4575 119.605 75.5804C119.888 75.691 119.715 75.863 119.703 76.0228C119.691 76.2071 119.58 76.2686 119.395 76.2686C118.336 76.2563 117.276 76.2563 116.205 76.2686C115.909 76.2686 115.946 76.158 115.995 75.9491C116.574 73.8476 117.153 71.7461 117.732 69.6446C117.892 69.0424 117.868 68.9441 117.338 68.6245C117.178 68.5262 117.24 68.4279 117.276 68.3419C117.313 68.219 117.289 68.0469 117.51 68.0592C117.658 68.0715 117.818 68.0592 117.966 68.0592C120.122 68.0592 122.265 68.0592 124.421 68.0592C124.716 68.0592 124.827 68.0961 124.729 68.4279C124.569 68.9441 124.458 69.4848 124.322 70.0255C124.298 70.1238 124.298 70.2345 124.162 70.2467C124.064 70.259 123.99 70.2222 123.94 70.1361C123.768 69.8166 123.46 69.7306 123.127 69.7306C122.401 69.7306 121.674 69.7429 120.935 69.7306C120.738 69.7306 120.664 69.8043 120.627 69.9764C120.541 70.3205 120.454 70.6646 120.344 71.0087C120.27 71.2422 120.319 71.3159 120.578 71.3159C121.44 71.2913 122.278 71.2913 123.164 71.2913Z" fill="#FDFCFC"></path>
    <path d="M132.427 74.424C132.304 74.9893 132.181 75.5054 132.07 76.0093C132.045 76.1199 131.947 76.1322 131.861 76.1445C130.112 76.464 128.35 76.6606 126.638 76.0216C125.234 75.5054 124.322 74.5468 124.224 72.9861C124.15 71.8677 124.605 70.9215 125.357 70.1103C126.478 68.906 127.919 68.3161 129.508 68.0826C130.727 67.8982 131.959 67.9351 133.166 68.2423C133.413 68.3038 133.487 68.3898 133.4 68.6479C133.24 69.1395 133.105 69.6433 132.969 70.1595C132.895 70.4422 132.748 70.4299 132.55 70.2824C131.269 69.2378 129.028 69.373 127.87 70.5651C126.527 71.9538 127.168 74.1167 129.089 74.6697C130.062 74.9524 131.011 74.8049 131.959 74.5468C132.107 74.51 132.243 74.4731 132.427 74.424Z" fill="#FDFCFC"></path>
    <path d="M134.336 68.2661C134.398 68.2538 134.472 68.2415 134.534 68.2292C134.558 68.2292 134.595 68.2292 134.62 68.2292L134.607 68.2169C134.607 68.2661 134.632 68.303 134.694 68.303L134.681 68.2907C134.706 68.475 134.731 68.6471 134.681 68.8314V68.8191C134.607 68.8437 134.558 68.9051 134.521 68.9789L134.534 68.9666C134.484 68.9789 134.41 68.9666 134.447 69.0526H134.46C134.324 69.0526 134.201 69.0526 134.065 69.0526H134.078C134.115 68.9543 134.041 68.9789 133.992 68.9666L134.004 68.9789C133.967 68.9051 133.93 68.8437 133.844 68.8191L133.856 68.8314C133.856 68.6348 133.856 68.4504 133.856 68.2538C133.955 68.008 134.078 68.1923 134.189 68.2415C133.979 68.5856 134.349 68.6593 134.484 68.8314C134.398 68.6593 134.718 68.3767 134.336 68.2661Z" fill="#970101"></path>
    <path d="M134.337 68.2662C134.719 68.3768 134.387 68.6595 134.498 68.8438C134.35 68.6595 133.992 68.598 134.202 68.2539C134.239 68.2539 134.288 68.2539 134.337 68.2662Z" fill="#EACCAE"></path>
    <path d="M134.694 68.8435C134.744 68.6591 134.719 68.4871 134.694 68.3027C134.904 68.4871 134.928 68.6591 134.694 68.8435Z" fill="#EACCAE"></path>
    <path d="M133.856 68.2676C133.856 68.4642 133.856 68.6486 133.856 68.8452C133.622 68.6486 133.696 68.4642 133.856 68.2676Z" fill="#EACCAE"></path>
    <path d="M134.078 69.0781C134.214 69.0781 134.337 69.0781 134.472 69.0781C134.349 69.1887 134.214 69.1887 134.078 69.0781Z" fill="#EACCAE"></path>
    <path d="M133.857 68.8438C133.943 68.8683 133.992 68.9298 134.017 69.0035C133.881 69.0281 133.832 68.9666 133.857 68.8438Z" fill="#EACCAE"></path>
    <path d="M134.547 69.0035C134.584 68.9298 134.633 68.8683 134.707 68.8438C134.732 68.9666 134.67 69.0281 134.547 69.0035Z" fill="#EACCAE"></path>
    <path d="M134.706 68.3163C134.645 68.3163 134.62 68.2917 134.62 68.2302C134.706 68.2057 134.719 68.2425 134.706 68.3163Z" fill="#EACCAE"></path>
    <path d="M134.62 68.2294C134.595 68.2294 134.559 68.2294 134.534 68.2294C134.559 68.205 134.571 68.1806 134.595 68.1562C134.607 68.1806 134.62 68.205 134.62 68.2294Z" fill="#EACCAE"></path>
    <path d="M134.005 68.9922C134.054 69.0045 134.128 68.9799 134.091 69.0782C134.042 69.0659 133.968 69.0905 134.005 68.9922Z" fill="#EACCAE"></path>
    <path d="M134.472 69.0782C134.435 68.9922 134.509 69.0045 134.558 68.9922C134.595 69.0905 134.521 69.0659 134.472 69.0782Z" fill="#EACCAE"></path>
    <path d="M97.5312 95.4644C97.679 95.3415 97.679 95.1694 97.7406 95.0343C97.7776 94.9359 97.8145 94.8499 97.95 94.8499C98.1225 94.8499 98.0732 94.9851 98.0732 95.0711C98.0732 95.1203 98.0855 95.1817 98.0732 95.2186C98.0239 95.4152 98.2087 95.7225 97.9624 95.7716C97.8392 95.7962 97.9624 95.4152 97.8884 95.2432C97.6914 95.3784 97.8022 95.7962 97.5435 95.7839C97.3341 95.7716 97.4081 95.3906 97.211 95.194C97.211 95.3661 97.2233 95.489 97.211 95.6119C97.211 95.6856 97.2726 95.8208 97.1247 95.8085C97.0139 95.8085 97.0508 95.6979 97.0508 95.6241C97.0508 95.4275 97.0508 95.2432 97.0508 95.0465C97.0508 94.9605 97.0262 94.8622 97.1617 94.8499C97.2602 94.8376 97.3341 94.8745 97.3711 94.9851C97.4204 95.1449 97.482 95.2923 97.5312 95.4644Z" fill="#020101"></path>
    <path d="M96.04 94.9471C96.3357 94.8242 96.5943 94.8242 96.89 94.9225C96.4588 94.9839 96.5697 95.2912 96.5574 95.5493C96.5451 95.6353 96.619 95.795 96.4835 95.8073C96.2987 95.8073 96.4096 95.6353 96.3849 95.5493C96.3726 95.5124 96.3849 95.4755 96.3849 95.4386C96.3726 95.2051 96.4465 94.9471 96.04 94.9471Z" fill="#020101"></path>
    <path d="M109.121 71.7559C109.109 71.768 109.097 71.7802 109.084 71.8046C109.084 71.7924 109.084 71.7802 109.072 71.7559C109.097 71.7559 109.109 71.7559 109.121 71.7559C109.133 71.7559 109.121 71.7559 109.121 71.7559Z" fill="#960000"></path>
</svg>