<svg width="24" height="24" viewBox="0 0 28 24" fill="none" xmlns="http://www.w3.org/2000/svg"><path d="M27.5709 4.85763C27.5709 2.27957 25.7767 0.205671 23.5598 0.205671C20.5568 0.0572899 17.4943 0 14.3645 0H13.3888C10.2667 0 7.19868 0.05729 4.19575 0.206244C1.98421 0.206244 0.190045 2.2916 0.190045 4.86966C0.0545341 6.90861 -0.00292265 8.94814 0.000329622 10.9877C-0.00509082 13.0272 0.0563409 15.0686 0.184625 17.112C0.184625 19.69 1.97879 21.7811 4.19033 21.7811C7.34503 21.9358 10.581 22.0046 13.8712 21.9988C17.1669 22.0103 20.3939 21.9377 23.5522 21.7811C25.7691 21.7811 27.5633 19.69 27.5633 17.112C27.6934 15.0667 27.753 13.0272 27.7476 10.9819C27.7599 8.94241 27.701 6.90098 27.5709 4.85763ZM11.2207 16.6078V5.35032L19.0803 10.9762L11.2207 16.6078Z" fill="white"></path></svg>