<svg xmlns="http://www.w3.org/2000/svg" width="180" height="54" viewBox="0 0 180 54" fill="none">
    <rect x="0.279297" y="0.25" width="178.933" height="53.4337" rx="9.75" fill="white" stroke="white" stroke-width="0.5"></rect>
    <path d="M66.8248 33.1945C64.8455 33.1945 62.9547 33.1945 61.0346 33.1945C61.0346 32.3769 61.0346 31.6131 61.0346 30.8117C63.7297 30.8117 66.4116 30.8117 69.1539 30.8117C69.3798 32.2418 69.315 33.6517 68.8736 35.0318C67.9047 38.0611 64.9837 40.1924 61.7955 40.3236C58.0927 40.4761 55.1834 39.0835 53.2336 35.9283C50.7363 31.8872 52.1368 26.6756 56.3195 24.1244C59.6286 22.1061 63.8228 22.4379 66.7615 24.9488C66.8612 25.034 66.9722 25.1058 67.0403 25.1561C66.4501 25.7763 65.91 26.3438 65.3498 26.9326C64.4417 26.1601 63.4576 25.5635 62.2703 25.3738C59.6713 24.9588 57.4782 25.6849 55.916 27.8396C54.3351 30.0198 54.2111 32.4086 55.529 34.7335C56.8573 37.0767 58.9976 38.0981 61.6819 37.8711C63.7179 37.6989 65.3609 36.8319 66.2851 34.9195C66.5332 34.4059 66.6338 33.8209 66.8248 33.1945Z" fill="black"></path>
    <path d="M103.572 30.3181C103.572 29.9443 103.572 29.689 103.572 29.4049C104.37 29.4049 105.131 29.4049 105.924 29.4049C105.935 29.5375 105.952 29.6454 105.951 29.7534C105.948 33.2331 105.967 36.7131 105.929 40.1925C105.9 42.7305 104.403 44.6499 102.109 45.2164C99.4632 45.8699 96.8494 44.7602 95.6798 42.4845C95.6127 42.3541 95.5648 42.214 95.4902 42.0359C96.2168 41.7336 96.9221 41.4404 97.6218 41.1494C98.9667 43.0198 100.087 43.5088 101.712 42.9489C103.059 42.4847 103.609 41.3466 103.539 39.1013C103.302 39.2888 103.101 39.4684 102.88 39.6191C101.313 40.6874 99.1051 40.5933 97.3963 39.3064C95.5053 37.8823 94.6707 35.9557 95.1434 33.6169C95.6014 31.351 97.0039 29.8421 99.2535 29.2162C100.828 28.7781 102.255 29.1192 103.572 30.3181ZM103.783 34.6992C103.678 34.2257 103.623 33.7343 103.46 33.2822C102.955 31.8866 101.555 31.1082 100.223 31.3404C98.521 31.6371 97.2388 33.3315 97.6297 35.4377C97.9102 36.9491 99.1023 37.9951 100.466 38.0707C102.349 38.1753 103.719 36.7609 103.783 34.6992Z" fill="black"></path>
    <path d="M129.86 39.9564C128.968 39.9564 128.167 39.9564 127.338 39.9564C127.338 34.4411 127.338 28.959 127.338 23.4389C127.529 23.4251 127.691 23.4032 127.854 23.403C129.677 23.4006 131.501 23.3938 133.324 23.4034C135.84 23.4168 138.069 25.0188 138.661 27.225C139.464 30.2135 137.453 33.2209 134.295 33.6306C133.11 33.7843 131.896 33.7103 130.695 33.7376C130.437 33.7435 130.179 33.7385 129.86 33.7385C129.86 34.8263 129.86 35.8554 129.86 36.8845C129.86 37.896 129.86 38.9073 129.86 39.9564ZM129.888 31.402C130.113 31.402 130.298 31.4027 130.483 31.4019C131.555 31.3976 132.631 31.4528 133.698 31.3738C135.104 31.2695 136.23 30.0626 136.307 28.7056C136.383 27.355 135.395 26.0162 133.952 25.8508C132.624 25.6986 131.264 25.8184 129.888 25.8184C129.888 27.6438 129.888 29.481 129.888 31.402Z" fill="black"></path>
    <path d="M151.416 33.482C151.442 32.489 150.909 31.8128 149.877 31.4578C148.572 31.0089 147.38 31.368 146.559 32.4953C145.852 32.2038 145.132 31.9067 144.369 31.5917C144.598 30.9032 145.058 30.4226 145.59 30.0138C147.443 28.5904 150.702 28.7104 152.468 30.2389C153.324 30.9798 153.746 31.9328 153.892 33.0282C153.922 33.2505 153.908 33.4791 153.908 33.7047C153.909 35.7711 153.909 37.8374 153.909 39.9426C153.092 39.9426 152.314 39.9426 151.479 39.9426C151.479 39.5711 151.479 39.2041 151.479 38.7212C151.343 38.8437 151.288 38.8793 151.251 38.9288C149.754 40.9593 146.365 40.6035 144.911 38.9434C143.496 37.3263 143.829 34.9413 145.708 33.7858C147.322 32.7933 149.057 32.6542 150.85 33.2613C151.026 33.3208 151.196 33.3959 151.416 33.482ZM149.272 34.8498C148.657 35.0171 148.024 35.1247 147.446 35.364C146.826 35.6204 146.505 36.2472 146.582 36.8118C146.67 37.4603 147.127 37.7753 147.693 37.9533C149.245 38.4421 151.002 37.4503 151.374 35.8616C151.408 35.7162 151.268 35.41 151.144 35.3676C150.547 35.1633 149.928 35.0239 149.272 34.8498Z" fill="black"></path>
    <path d="M93.9978 34.7082C93.9924 37.9044 91.519 40.3395 88.2789 40.3387C85.0491 40.3379 82.5619 37.8896 82.5528 34.7023C82.5436 31.5041 85.0525 29.0397 88.3122 29.0449C91.5421 29.05 94.0032 31.5016 93.9978 34.7082ZM88.2579 38.0774C90.0566 38.085 91.4641 36.6256 91.4849 34.7314C91.5059 32.8286 90.0752 31.2894 88.2832 31.2867C86.5198 31.2841 85.0958 32.7899 85.0762 34.6781C85.0568 36.5518 86.4777 38.0699 88.2579 38.0774Z" fill="black"></path>
    <path d="M75.81 40.3385C72.5825 40.3203 70.074 37.8483 70.0781 34.69C70.0823 31.4837 72.6282 29.0259 75.9253 29.045C79.1104 29.0636 81.5841 31.5828 81.5552 34.7786C81.5267 37.9189 79.0078 40.3566 75.81 40.3385ZM78.9996 34.7017C79.0013 32.7769 77.6449 31.3059 75.8509 31.2869C74.0756 31.2681 72.6477 32.7641 72.6415 34.6491C72.6351 36.6136 73.9945 38.0778 75.8245 38.0776C77.6372 38.0775 78.9979 36.6307 78.9996 34.7017Z" fill="black"></path>
    <path d="M121.893 33.299C119.354 34.3398 116.845 35.3685 114.336 36.3971C115.241 38.5482 117.822 38.6348 119.864 36.5553C120.477 36.9592 121.098 37.3687 121.825 37.8475C121.448 38.2468 121.132 38.6601 120.741 38.9817C118.921 40.4785 116.871 40.7617 114.727 39.8653C112.61 38.9798 111.491 37.2797 111.383 35.0015C111.27 32.6071 112.194 30.7 114.397 29.5878C117.123 28.2113 120.21 29.418 121.5 32.3149C121.635 32.6188 121.748 32.9331 121.893 33.299ZM118.9 32.4256C118.356 31.4294 117.214 31.0297 116.053 31.3866C114.718 31.7969 113.779 33.1365 113.921 34.4742C115.586 33.789 117.24 33.1085 118.9 32.4256Z" fill="black"></path>
    <path d="M154.062 29.3759C154.91 29.3759 155.681 29.3513 156.448 29.3949C156.62 29.4047 156.856 29.6204 156.931 29.7972C157.817 31.887 158.677 33.9874 159.545 36.0847C159.6 36.2174 159.663 36.347 159.77 36.5858C160.178 35.576 160.548 34.6614 160.915 33.7455C161.431 32.4582 161.963 31.1768 162.448 29.8776C162.6 29.4696 162.806 29.344 163.226 29.3656C163.938 29.4021 164.653 29.3757 165.431 29.3757C165.376 29.5519 165.346 29.6908 165.29 29.8181C163.127 34.7279 160.957 39.6345 158.807 44.5501C158.643 44.9237 158.452 45.0526 158.057 45.0342C157.389 45.0031 156.717 45.0256 155.946 45.0256C156.563 43.6707 157.051 42.3663 157.73 41.1696C158.415 39.9617 158.389 38.9365 157.764 37.6802C156.478 35.0962 155.384 32.4169 154.212 29.7764C154.167 29.6759 154.134 29.5701 154.062 29.3759Z" fill="black"></path>
    <path d="M142.682 39.9605C141.829 39.9605 141.027 39.9605 140.193 39.9605C140.193 34.4495 140.193 28.9674 140.193 23.4434C141.021 23.4434 141.834 23.4434 142.682 23.4434C142.682 28.9482 142.682 34.4294 142.682 39.9605Z" fill="black"></path>
    <path d="M110.155 39.9652C109.318 39.9652 108.517 39.9652 107.682 39.9652C107.682 34.4591 107.682 28.9777 107.682 23.4492C108.489 23.4492 109.302 23.4492 110.155 23.4492C110.155 28.939 110.155 34.419 110.155 39.9652Z" fill="black"></path>
    <path d="M98.2383 9.54698C98.988 9.41675 99.5569 9.4329 100.014 10.2484C100.929 11.8835 101.996 13.4342 103 15.0196C103.087 15.1564 103.175 15.2919 103.356 15.5734C103.356 14.4433 103.356 13.4783 103.356 12.5134C103.356 11.5374 103.356 10.5614 103.356 9.54201C103.718 9.54201 104.045 9.54201 104.419 9.54201C104.419 12.1672 104.419 14.8046 104.419 17.4379C103.721 17.6241 103.247 17.4811 102.849 16.8026C101.845 15.0872 100.752 13.4239 99.6929 11.7409C99.5953 11.5857 99.4839 11.4393 99.2913 11.1633C99.2913 13.3494 99.2913 15.3975 99.2913 17.4721C98.9114 17.4721 98.5984 17.4721 98.2383 17.4721C98.2383 14.8324 98.2383 12.1959 98.2383 9.54698Z" fill="black"></path>
    <path d="M92.6754 9.34185C95.0796 9.35337 96.8266 11.1509 96.8058 13.5919C96.786 15.9233 94.961 17.7283 92.6386 17.7132C90.3067 17.6981 88.4583 15.8236 88.4797 13.4954C88.5013 11.1341 90.3232 9.33056 92.6754 9.34185ZM95.6863 13.5358C95.6913 11.7044 94.4309 10.3856 92.6735 10.3833C90.9075 10.3811 89.6221 11.7034 89.6263 13.5182C89.6304 15.3373 90.9092 16.6451 92.6777 16.6387C94.4169 16.6324 95.6814 15.3283 95.6863 13.5358Z" fill="black"></path>
    <path d="M59.539 10.5789C59.2863 10.8041 59.0504 11.0144 58.7769 11.2583C58.1489 10.5802 57.2844 10.2423 56.3441 10.4159C55.7075 10.5335 55.0391 10.8152 54.5285 11.2095C53.4725 12.0247 53.2381 13.7655 53.8887 15.0312C54.5131 16.246 56.0016 16.9012 57.388 16.5713C58.6296 16.2758 59.4148 15.3993 59.4337 14.2288C58.5041 14.2288 57.574 14.2288 56.6072 14.2288C56.6072 13.8781 56.6072 13.5861 56.6072 13.2497C57.8947 13.2497 59.182 13.2497 60.4721 13.2497C60.9363 14.992 59.9631 16.5588 58.571 17.27C56.1141 18.5253 53.109 17.1169 52.5022 14.4265C52.086 12.5813 52.9342 10.7337 54.6252 9.80285C56.0823 9.00071 58.2139 9.25348 59.3524 10.3647C59.4166 10.4275 59.471 10.5003 59.539 10.5789Z" fill="black"></path>
    <path d="M62.0605 9.53125C63.6099 9.53125 65.1445 9.53125 66.7268 9.53125C66.7268 9.83372 66.7268 10.1407 66.7268 10.52C65.5759 10.52 64.4038 10.52 63.1856 10.52C63.1856 11.3657 63.1856 12.1424 63.1856 12.9865C64.2369 12.9865 65.2973 12.9865 66.3905 12.9865C66.3905 13.3444 66.3905 13.6374 66.3905 14.007C65.3396 14.007 64.281 14.007 63.1812 14.007C63.1812 14.8603 63.1812 15.6387 63.1812 16.474C64.3521 16.474 65.5276 16.474 66.738 16.474C66.738 16.8209 66.738 17.1129 66.738 17.454C65.2054 17.454 63.6575 17.454 62.0605 17.454C62.0605 14.8349 62.0605 12.199 62.0605 9.53125Z" fill="black"></path>
    <path d="M73.3413 9.53906C73.3413 9.9102 73.3413 10.1874 73.3413 10.5347C72.6157 10.5347 71.9131 10.5347 71.1406 10.5347C71.1406 12.8853 71.1406 15.1664 71.1406 17.4735C70.7566 17.4735 70.443 17.4735 70.0618 17.4735C70.0618 15.2019 70.0618 12.9219 70.0618 10.5636C69.2791 10.5636 68.5588 10.5636 67.8096 10.5636C67.8096 10.1773 67.8096 9.86965 67.8096 9.53906C69.6669 9.53906 71.4939 9.53906 73.3413 9.53906Z" fill="black"></path>
    <path d="M82.9434 10.5311C82.9434 12.9103 82.9434 15.1662 82.9434 17.4617C82.5828 17.4617 82.2564 17.4617 81.869 17.4617C81.869 15.185 81.869 12.9169 81.869 10.5798C81.1098 10.5798 80.4067 10.5798 79.6572 10.5798C79.6572 10.2035 79.6572 9.89513 79.6572 9.54297C81.4784 9.54297 83.3075 9.54297 85.1672 9.54297C85.1672 9.85741 85.1672 10.1519 85.1672 10.5311C84.4532 10.5311 83.7333 10.5311 82.9434 10.5311Z" fill="black"></path>
    <path d="M78.3425 17.4791C77.9838 17.4791 77.6688 17.4791 77.3174 17.4791C77.3174 14.8353 77.3174 12.213 77.3174 9.54492C77.6396 9.54492 77.9671 9.54492 78.3425 9.54492C78.3425 12.162 78.3425 14.7976 78.3425 17.4791Z" fill="black"></path>
    <path d="M14.1662 43.8662C13.6214 43.3661 13.5207 42.7051 13.5195 42.0193C13.5138 38.5952 13.5154 35.1711 13.5149 31.747C13.5142 25.4255 13.5137 19.104 13.5137 12.7826C13.5137 12.0749 13.6079 11.3975 14.1554 10.873C14.7707 11.4789 15.3871 12.0835 16.0007 12.6909C19.8607 16.5122 23.7208 20.3331 27.5774 24.1578C27.8155 24.3938 27.9932 24.6974 28.2506 24.906C29.1723 25.6534 29.9619 26.533 30.7894 27.3751C28.3734 29.7735 25.9581 32.1726 23.5412 34.5701C20.4168 37.6694 17.2913 40.7675 14.1662 43.8662Z" fill="#56D5FE"></path>
    <path d="M30.7903 27.374C29.9628 26.5318 29.1732 25.6522 28.2515 24.9049C27.9941 24.6962 27.8163 24.3926 27.5783 24.1566C23.7217 20.3319 19.8615 16.511 16.0015 12.6897C15.3879 12.0823 14.7715 11.4777 14.1562 10.8719C14.8614 10.225 15.6474 10.1201 16.645 10.636C17.7939 11.2301 18.9151 11.8779 20.0431 12.5117C25.4543 15.5524 30.8638 18.5963 36.2733 21.64C36.3379 21.6763 36.3961 21.7238 36.4572 21.766C36.2635 21.9684 36.0735 22.1744 35.8757 22.3725C34.2103 24.0403 32.5433 25.7067 30.877 27.3734C30.8482 27.3784 30.8192 27.3786 30.7903 27.374Z" fill="#61F36E"></path>
    <path d="M30.7901 27.3736C30.8191 27.3782 30.848 27.378 30.877 27.373C32.7495 29.2359 34.6219 31.0987 36.4942 32.9614C29.963 36.6361 23.4333 40.3139 16.899 43.9831C15.7632 44.6209 14.8678 44.5654 14.167 43.8646C17.2921 40.766 20.4176 37.6679 23.542 34.5687C25.9587 32.1711 28.3741 29.772 30.7901 27.3736Z" fill="#ED113A"></path>
    <path d="M36.4932 32.9613C34.6208 31.0985 32.7485 29.2357 30.876 27.373C32.5424 25.7063 34.2092 24.04 35.8747 22.3721C36.0725 22.174 36.2624 21.9679 36.4562 21.7656C37.1128 22.0543 37.6669 22.5212 38.2983 22.8462C39.9152 23.6782 41.4952 24.5755 43.0769 25.4707C43.3901 25.648 43.6675 25.8654 43.911 26.1305C44.5979 26.8788 44.6199 27.7949 43.9659 28.5661C43.7196 28.8565 43.4186 29.0829 43.0913 29.2669C40.894 30.5023 38.6931 31.7307 36.4932 32.9613Z" fill="#F6C100"></path>
</svg>