<svg width="68" height="68" viewBox="0 0 68 68" fill="none" xmlns="http://www.w3.org/2000/svg">
<path d="M63.8675 33C63.7675 37.4 62.3675 41.5 59.1675 44.8C53.6675 50.6 45.1675 50.6 39.5675 44.9C33.1675 38.4 33.1675 27.1 39.4675 20.6C45.7675 14.2 55.4675 15 60.6675 22.5C62.8675 25.6 63.8675 29 63.8675 33ZM62.3675 33.1C62.3675 29.3 61.4675 26.1 59.3675 23.3C54.9675 17.1 47.0675 16 41.4675 20.8C34.4675 26.7 34.4675 38.7 41.3675 44.6C46.3675 48.9 53.2675 48.7 57.8675 44C60.9675 40.9 62.2675 37 62.3675 33.1Z" fill="black"/>
<path d="M49.9676 50.6C49.9676 51.6 49.9676 52.6 49.9676 53.7C50.3676 53.8 50.7676 54 51.0676 54.1C53.1676 55 53.9676 56.7 54.2676 58.8C54.2676 58.9 53.7676 59.2 53.5676 59.3C51.3676 59.3 49.1676 59.3 46.9676 59.3C46.2676 59.3 45.5676 59.3 44.7676 59.3C44.2676 59.3 44.0676 59.2 44.1676 58.6C44.7676 55.8 45.6676 54.7 48.4676 53.7C48.4676 52.7 48.4676 51.7 48.4676 50.6C47.8676 50.5 47.2676 50.4 46.6676 50.4C39.8676 49.5 34.5676 43.9 34.0676 37C33.9676 35.9 33.6676 35.4 32.9676 35.5C32.6676 35.5 32.4676 35.8 32.2676 36C32.4676 36.2 32.6676 36.5 32.8676 36.7C33.0676 36.9 33.1676 37 33.3676 37.1C33.1676 37.2 32.7676 37.5 32.6676 37.4C32.2676 37 31.7676 36.6 31.5676 36.1C31.3676 35.6 31.6676 35.1 32.2676 34.8C33.4676 34.2 34.7676 35 34.8676 36.3C35.2676 43.7 41.2676 49.5 48.6676 49.6C55.9676 49.7 61.6676 45.6 63.3676 38.8C63.5676 37.9 63.6676 37 63.7676 36C63.9676 34.7 65.2676 34 66.3676 34.7C66.7676 34.9 67.0676 35.7 66.9676 36C66.8676 36.5 66.2676 36.8 65.7676 37.2C65.6676 37.3 65.3676 37 65.1676 36.9C65.2676 36.8 65.4676 36.6 65.5676 36.5C65.7676 36.3 66.0676 36.2 66.2676 35.9C66.2676 35.8 66.0676 35.4 65.8676 35.4C65.4676 35.4 64.9676 35.4 64.8676 35.6C64.5676 35.9 64.4676 36.4 64.4676 36.8C64.3676 41.9 60.0676 48.7 52.3676 50C51.5676 50.4 50.8676 50.5 49.9676 50.6Z" fill="black"/>
<path d="M49.2677 19.3C51.9677 19.3 54.4677 20.3 56.5677 22.1C62.6677 27.5 62.6677 38.1 56.4677 43.4C52.0677 47.2 46.0677 47.1 41.8677 43.2C35.7677 37.6 36.0677 27.1 42.4677 21.9C44.3677 20.2 46.6677 19.3 49.2677 19.3ZM50.9677 24.9C47.6677 26.9 44.5677 29.1 41.8677 31.8C45.1677 29.9 48.2677 27.6 50.9677 24.9ZM49.9677 28.9C50.0677 29 50.0677 29.1 50.1677 29.2C51.5677 28.1 53.0677 27 54.4677 25.9C54.3677 25.8 54.3677 25.7 54.2677 25.7C52.8677 26.7 51.4677 27.8 49.9677 28.9ZM48.8677 41.5C48.9677 41.6 48.9677 41.6 49.0677 41.7C49.9677 41 50.7677 40.4 51.6677 39.7C51.6677 39.6 51.5677 39.6 51.5677 39.5C50.5677 40.2 49.7677 40.8 48.8677 41.5Z" fill="#72C1E8"/>
<path d="M34.8676 23.7L39.6676 20.5L42.8676 30.1L43.6676 40.6L39.2676 48.9L31.2676 44.1L34.8676 23.7Z" fill="white"/>
<path d="M27.9672 32.8C30.5077 32.8 32.5672 30.7405 32.5672 28.2C32.5672 25.6595 30.5077 23.6 27.9672 23.6C25.4267 23.6 23.3672 25.6595 23.3672 28.2C23.3672 30.7405 25.4267 32.8 27.9672 32.8Z" fill="black"/>
<path d="M14.3671 38.6C14.3671 38.2 14.1671 37.9 14.0671 37.6C13.8671 37.1 13.6671 36.7 13.5671 36.2C13.4671 35.6 13.6671 35.1 14.1671 34.9C14.9671 34.5 15.1671 33.9 15.0671 33.1C14.9671 32.2 14.6671 31.3 14.3671 30.5C14.0671 29.5 14.1671 28.9 15.0671 28.2C15.5671 27.8 16.0671 27.5 16.6671 27.4C18.4671 26.9 20.3671 26.4 22.2671 26C23.4671 25.7 24.4671 25.2 25.1671 24.1C25.3671 23.8 25.5671 23.4 25.5671 23.1C25.6671 22.1 26.2671 21.3 26.7671 20.5C28.0671 18.7 29.3671 16.9 31.0671 15.4C31.3671 15.1 31.5671 15.1 31.9671 15.4C37.9671 20.9 40.2671 27.7 38.3671 35.6C35.7671 46.2 25.1671 52.6 14.4671 50.3C13.4671 50.1 12.3671 49.8 11.4671 49.3C9.76711 48.5 9.16711 45.9 10.3671 44.5C10.8671 43.8 11.6671 43.4 12.3671 43C13.0671 42.7 13.1671 42 12.7671 41.4C12.2671 40.9 11.7671 40.3 12.1671 39.5C12.5671 38.7 13.3671 38.7 14.0671 38.7C14.1671 38.7 14.2671 38.7 14.3671 38.6C14.3671 38.7 14.3671 38.7 14.3671 38.6ZM30.5671 31C30.5671 30.9 30.5671 30.9 30.5671 30.8C30.2671 29.5 29.5671 28.5 28.7671 27.5C28.3671 26.9 27.8671 26.4 28.0671 25.6C27.7671 25.8 27.7671 26.1 27.5671 26.3C27.1671 25.9 27.1671 25.4 26.9671 24.9C26.7671 25.4 26.9671 25.9 26.9671 26.4C26.6671 26.2 26.6671 25.9 26.3671 25.7C26.1671 26 26.4671 26.3 26.3671 26.5C26.2671 26.5 26.2671 26.4 26.1671 26.4C26.1671 26.4 26.1671 26.3 26.0671 26.3C26.0671 26.3 26.0671 26.3 26.1671 26.4C26.0671 26.5 26.1671 26.6 26.1671 26.7C26.2671 27.2 26.6671 27.4 26.9671 27.6C27.7671 28.1 28.5671 28.6 29.1671 29.4C29.5671 29.9 29.8671 30.3 30.2671 30.8C30.4671 31 30.4671 31 30.5671 31C30.4671 31.1 30.4671 31.1 30.5671 31C30.5671 31 30.5671 31.1 30.5671 31ZM25.3671 27.9C25.3671 27.8 25.4671 27.7 25.3671 27.9C25.3671 27.8 25.3671 27.8 25.3671 27.9C25.2671 28.1 25.3671 28.3 25.4671 28.4C25.8671 29.4 26.5671 30.1 27.3671 30.6C27.6671 30.8 27.9671 30.9 28.1671 31.2C28.2671 31.3 28.6671 31.1 28.6671 31.4C28.6671 31.4 28.6671 31.5 28.5671 31.5C28.5671 31.5 28.5671 31.4 28.6671 31.4C28.9671 31.5 29.1671 31.4 29.4671 31.3C29.0671 31.1 28.6671 30.9 28.3671 30.7C27.1671 30 26.2671 29 25.3671 27.9Z" fill="#FFD298"/>
<path d="M14.3671 38.6C14.3671 38.2 14.1671 37.9 14.0671 37.6C13.8671 37.1 13.6671 36.7 13.5671 36.2C13.4671 35.6 13.6671 35.1 14.1671 34.9C14.9671 34.5 15.1671 33.9 15.0671 33.1C14.9671 32.2 14.6671 31.3 14.3671 30.5C14.0671 29.5 14.1671 28.9 15.0671 28.2C15.5671 27.8 16.0671 27.5 16.6671 27.4C18.4671 26.9 20.3671 26.4 22.2671 26C23.4671 25.7 24.4671 25.2 25.1671 24.1C25.3671 23.8 25.5671 23.4 25.5671 23.1C25.6671 22.1 26.2671 21.3 26.7671 20.5C28.0671 18.7 29.3671 16.9 31.0671 15.4C31.3671 15.1 31.5671 15.1 31.9671 15.4C37.9671 20.9 40.2671 27.7 38.3671 35.6C35.7671 46.2 25.1671 52.6 14.4671 50.3C13.4671 50.1 12.3671 49.8 11.4671 49.3C9.76711 48.5 9.16711 45.9 10.3671 44.5C10.8671 43.8 11.6671 43.4 12.3671 43C13.0671 42.7 13.1671 42 12.7671 41.4C12.2671 40.9 11.7671 40.3 12.1671 39.5C12.5671 38.7 13.3671 38.7 14.0671 38.7C14.1671 38.7 14.2671 38.7 14.3671 38.6ZM14.3671 38.6C14.3671 38.7 14.3671 38.7 14.3671 38.6ZM30.5671 31C30.5671 30.9 30.5671 30.9 30.5671 30.8C30.2671 29.5 29.5671 28.5 28.7671 27.5C28.3671 26.9 27.8671 26.4 28.0671 25.6C27.7671 25.8 27.7671 26.1 27.5671 26.3C27.1671 25.9 27.1671 25.4 26.9671 24.9C26.7671 25.4 26.9671 25.9 26.9671 26.4C26.6671 26.2 26.6671 25.9 26.3671 25.7C26.1671 26 26.4671 26.3 26.3671 26.5C26.2671 26.5 26.2671 26.4 26.1671 26.4C26.1671 26.4 26.1671 26.3 26.0671 26.3C26.0671 26.3 26.0671 26.3 26.1671 26.4C26.0671 26.5 26.1671 26.6 26.1671 26.7C26.2671 27.2 26.6671 27.4 26.9671 27.6C27.7671 28.1 28.5671 28.6 29.1671 29.4C29.5671 29.9 29.8671 30.3 30.2671 30.8C30.4671 31 30.4671 31 30.5671 31ZM30.5671 31C30.4671 31.1 30.4671 31.1 30.5671 31ZM30.5671 31C30.5671 31.1 30.5671 31 30.5671 31ZM25.3671 27.9C25.3671 27.8 25.4671 27.7 25.3671 27.9C25.3671 27.8 25.3671 27.8 25.3671 27.9ZM25.3671 27.9C25.2671 28.1 25.3671 28.3 25.4671 28.4C25.8671 29.4 26.5671 30.1 27.3671 30.6C27.6671 30.8 27.9671 30.9 28.1671 31.2C28.2671 31.3 28.6671 31.1 28.6671 31.4C28.6671 31.4 28.6671 31.5 28.5671 31.5C28.5671 31.5 28.5671 31.4 28.6671 31.4C28.9671 31.5 29.1671 31.4 29.4671 31.3C29.0671 31.1 28.6671 30.9 28.3671 30.7C27.1671 30 26.2671 29 25.3671 27.9Z" stroke="black" stroke-width="0.2" stroke-miterlimit="10"/>
<path d="M16.6671 9.2C19.1671 8.3 21.7671 8 24.3671 8C39.8671 8.3 51.2671 22.3 48.2671 37.5C46.6671 45.5 42.0671 51.4 34.7671 55C29.3671 57.7 23.5671 58.2 17.7671 56.7C10.5671 54.8 5.26709 50.5 1.86709 43.9C1.86709 43.8 1.86709 43.8 1.76709 43.7C2.06709 43.7 2.06709 43.9 2.16709 44C11.2671 55.2 28.7671 54.4 36.6671 42.3C43.1671 32.4 40.4671 19.1 30.5671 12.7C26.4671 10 22.0671 8.9 17.1671 9.2C17.0671 9.3 16.8671 9.3 16.6671 9.2C16.6671 9.3 16.6671 9.3 16.6671 9.2Z" fill="#B76E78"/>
<path d="M16.6671 9.2C19.1671 8.3 21.7671 8 24.3671 8C39.8671 8.3 51.2671 22.3 48.2671 37.5C46.6671 45.5 42.0671 51.4 34.7671 55C29.3671 57.7 23.5671 58.2 17.7671 56.7C10.5671 54.8 5.26709 50.5 1.86709 43.9C1.86709 43.8 1.86709 43.8 1.76709 43.7C2.06709 43.7 2.06709 43.9 2.16709 44C11.2671 55.2 28.7671 54.4 36.6671 42.3C43.1671 32.4 40.4671 19.1 30.5671 12.7C26.4671 10 22.0671 8.9 17.1671 9.2C17.0671 9.3 16.8671 9.3 16.6671 9.2ZM16.6671 9.2C16.6671 9.3 16.6671 9.3 16.6671 9.2Z" stroke="black" stroke-miterlimit="10"/>
<path d="M11.4675 18.2C11.5675 18.9 11.8675 19.4 12.4675 19.8C11.8675 20.1 11.4675 20.4 11.2675 21C11.1675 21.3 10.9675 21.1 10.8675 21C10.5675 20.7 10.2675 20.5 9.76752 20.5C9.56752 20.5 9.36752 20.5 9.46752 20.2C9.76752 19.7 9.66752 19.1 9.46752 18.5C10.3675 18.8 10.9675 18.7 11.4675 18.2Z" fill="#B76E78" stroke="black" stroke-width="0.2" stroke-miterlimit="10"/>
<path d="M5.46709 27.6C4.46709 28 3.96709 28.6 3.76709 29.6C3.26709 29.3 3.06709 28.9 2.66709 28.7C2.26709 28.6 1.76709 28.6 1.26709 28.5C1.76709 27.7 2.06709 26.8 1.46709 26C1.56709 25.8 1.76709 25.8 1.86709 25.9C2.56709 26.1 3.26709 26 3.76709 25.5C3.86709 25.4 4.16709 25.2 4.16709 25.6C4.16709 26.5 4.66709 27.1 5.46709 27.6Z" fill="#B76E78" stroke="black" stroke-width="0.2" stroke-miterlimit="10"/>
<path d="M16.7673 20.2C16.9673 20.2 17.0673 20.2 17.1673 20.2C17.6673 20.3 18.1673 20.3 18.5673 19.9C18.8673 19.7 19.0673 19.7 19.0673 20.1C19.0673 20.8 19.6673 21.2 20.1673 21.6C19.4673 21.9 18.9673 22.3 18.7673 23.1C18.6673 23.4 18.5673 23.2 18.4673 23.1C18.0673 22.6 17.5673 22.4 16.9673 22.4C16.7673 22.4 16.6673 22.3 16.7673 22.1C17.0673 21.5 16.9673 20.9 16.7673 20.2Z" fill="#B76E78" stroke="black" stroke-width="0.2" stroke-miterlimit="10"/>
<path d="M7.96729 36C8.56729 36.1 9.06728 36.2 9.56728 35.7C9.66728 35.6 9.86728 35.6 9.86728 35.8C9.86728 36.4 10.2673 36.8 10.7673 37.1C10.2673 37.4 9.76728 37.7 9.66728 38.3C9.56728 38.5 9.36728 38.4 9.36728 38.3C9.06728 38 8.76728 37.8 8.36728 37.9C8.16728 37.9 7.96728 37.9 8.16728 37.6C8.26728 37 8.16729 36.5 7.96729 36Z" fill="#B76E78" stroke="black" stroke-width="0.2" stroke-miterlimit="10"/>
<path d="M23.0671 13.1C23.1671 13.5 23.1671 14 23.6671 14.2C23.8671 14.3 23.7671 14.4 23.6671 14.5C23.5671 14.5 23.5671 14.6 23.4671 14.6C23.0671 14.7 23.1671 15.3 22.8671 15.4C22.5671 15.4 22.3671 14.9 21.9671 15C21.6671 15 21.5671 14.9 21.7671 14.6C21.9671 14.4 21.9671 14.1 21.8671 13.9C21.7671 13.6 21.7671 13.4 22.1671 13.6C22.4671 13.6 22.7671 13.2 23.0671 13.1Z" fill="#B76E78" stroke="black" stroke-width="0.2" stroke-miterlimit="10"/>
<path d="M2.46728 36.8C2.56728 37.2 2.56728 37.6 2.96728 37.8C3.06728 37.9 3.06728 38 2.96728 38.1C2.96728 38.1 2.86728 38.1 2.86728 38.2C2.46728 38.2 2.46728 38.8 2.16728 38.8C1.86728 38.8 1.66728 38.3 1.26728 38.4C1.16728 38.4 0.867277 38.3 1.06728 38.2C1.46728 37.9 0.867277 37.2 1.36728 37C1.86728 36.9 1.96728 37 2.46728 36.8Z" fill="#B76E78" stroke="black" stroke-width="0.2" stroke-miterlimit="10"/>
<path d="M14.2674 13.6C13.9674 13.3 13.6674 13.1 13.2674 13.1C13.1674 13.1 13.0674 13 13.1674 12.9C13.3674 12.6 13.3674 12.3 13.2674 12C13.2674 11.9 13.3674 11.8 13.4674 11.9C13.8674 12.2 14.1674 11.4 14.5674 11.8C14.7674 12 14.7674 12.3 14.9674 12.5C15.0674 12.6 15.0674 12.7 14.8674 12.8C14.4674 12.9 14.3674 13.2 14.2674 13.6Z" fill="#B76E78" stroke="black" stroke-width="0.2" stroke-miterlimit="10"/>
<path d="M6.96709 44C6.86709 43.7 6.36709 43.9 6.26709 43.7C6.26709 43.4 6.26709 43 6.36709 42.9C6.56709 42.7 6.96709 42.7 7.26709 42.6C7.26709 43 7.76709 43.1 7.66709 43.5C7.66709 43.8 7.16709 44.1 6.96709 44Z" fill="#B76E78" stroke="black" stroke-width="0.2" stroke-miterlimit="10"/>
<path d="M11.3673 27.8C11.1673 27.5 10.8673 27.4 10.4673 27.4C10.5673 27 10.7673 26.7 10.4673 26.3C10.8673 26.2 11.2673 26.4 11.4673 26C11.6673 26.3 11.5673 26.6 11.8673 26.8C11.9673 26.9 11.9673 27 11.8673 27.1C11.5673 27.3 11.4673 27.6 11.3673 27.8Z" fill="#B76E78" stroke="black" stroke-width="0.2" stroke-miterlimit="10"/>
<path d="M4.36727 16.9C4.56727 16.8 4.86727 16.7 5.06727 16.7C5.26727 16.8 5.36727 17.1 5.46727 17.4C5.16727 17.5 5.16727 17.9 4.86727 17.9C4.56727 17.9 4.26727 17.4 4.36727 16.9Z" fill="#B76E78" stroke="black" stroke-width="0.2" stroke-miterlimit="10"/>
<path d="M16.6673 9.29999C16.5673 9.29999 16.5673 9.39999 16.4673 9.29999C16.5673 9.29999 16.5673 9.29999 16.6673 9.29999Z" fill="#E0458F"/>
<path d="M32.8672 28.2C32.8672 28.1 32.9672 28.1 32.9672 28C33.0672 28.1 32.9672 28.1 32.8672 28.2Z" fill="#E0458F"/>
</svg>
