<svg width="44" height="45" viewBox="0 0 44 45" fill="none" xmlns="http://www.w3.org/2000/svg">
<path d="M18.8334 26.0658L18.6443 26.1413L19.1764 27.4728L19.3653 27.3969C21.2946 26.6255 23.6944 26.6251 25.6236 27.3969L25.8126 27.4725L26.3447 26.141L26.1556 26.0657C23.8918 25.1595 21.0972 25.1599 18.8334 26.0658Z" fill="#FE9C8F"/>
<path d="M21.7776 15.3378H23.2113V23.2229H21.7776V15.3378Z" fill="#FE9C8F"/>
<path d="M42.5662 1.00105V14.1557C42.5662 14.3867 42.5291 14.6162 42.4563 14.8355L39.0472 25.0621L33.7283 33.3873C33.5635 33.6476 33.2969 33.8265 32.9936 33.8801C32.3537 33.98 31.754 33.5422 31.6542 32.9023C31.6158 32.6563 31.6567 32.4045 31.771 32.1832C33.0179 29.9193 35.3104 25.7167 35.3104 25.7167C35.3372 25.6677 35.3582 25.6158 35.3731 25.5619L35.9529 23.4364L38.232 16.2719L36.8655 15.8371L34.5814 23.0177L34.5866 23.0193C34.5834 23.0293 34.5757 23.0363 34.5729 23.0462C34.3901 23.7172 33.6981 24.1129 33.0272 23.9302C32.9807 23.9175 32.9349 23.9021 32.8901 23.8842C32.3266 23.6587 32.0042 23.0636 32.1228 22.4685L33.2339 16.9123C33.2429 16.8659 33.2474 16.8187 33.2474 16.7713V14.6716C33.2393 11.6146 34.4542 8.68146 36.6215 6.52567C36.756 6.39127 36.8316 6.20901 36.8316 6.01887V1.00105H35.3979V5.72659C34.9013 6.25104 34.4492 6.81581 34.0462 7.41508C30.0872 1.03519 21.706 -0.927403 15.3261 3.03157C13.5472 4.13549 12.0472 5.63528 10.9431 7.41419C10.5403 6.81527 10.0883 6.25077 9.59197 5.72659V1.00105H8.15831V6.01887C8.15831 6.20901 8.23393 6.39127 8.36834 6.52567C10.5358 8.68154 11.7507 11.6149 11.7425 14.6719V16.7713C11.7426 16.8186 11.7473 16.8657 11.7564 16.912L12.8675 22.4682C12.9865 23.0636 12.664 23.6591 12.1003 23.8847C11.4543 24.143 10.7213 23.8287 10.4631 23.1828C10.4453 23.1382 10.43 23.0926 10.4174 23.0464C10.4146 23.0363 10.4069 23.0293 10.4038 23.0195L10.409 23.0179L8.12471 15.8371L6.75825 16.2719L9.03732 23.4364L9.61715 25.5619C9.63202 25.6158 9.65308 25.6677 9.67987 25.7167C9.67987 25.7167 11.9724 29.9191 13.2192 32.1832C13.4957 32.6845 13.3585 33.3012 12.8579 33.6771C12.6116 33.8615 12.2997 33.9352 11.9969 33.8804C11.6935 33.8269 11.4268 33.648 11.2622 33.3876L5.9433 25.0624L2.53423 14.8359C2.46093 14.6166 2.42356 14.3869 2.42365 14.1557V1.00105H0.989991V14.1557C0.989811 14.5409 1.052 14.9237 1.17413 15.289L4.61125 25.6001C4.62979 25.6561 4.65515 25.7097 4.68687 25.7594L10.0533 34.1594C10.4347 34.7542 11.0459 35.1641 11.741 35.291C11.8882 35.3178 12.0374 35.3313 12.187 35.3313C12.7535 35.3281 13.3035 35.1403 13.7536 34.7964C13.7821 34.7751 13.8041 34.7488 13.8315 34.7265C13.8831 34.785 13.9308 34.8484 13.9833 34.9057C14.3964 35.359 14.8457 35.778 15.3266 36.1586V38.8783C15.3258 40.3024 15.0961 41.7172 14.6462 43.0683C14.5214 43.444 14.7249 43.8498 15.1007 43.9745C15.1736 43.9987 15.2498 44.0109 15.3266 44.0109H29.6633C30.0591 44.011 30.3802 43.6902 30.3802 43.2942C30.3802 43.2174 30.3679 43.1412 30.3437 43.0683C29.8938 41.7172 29.6641 40.3024 29.6633 38.8783V36.1591C30.1424 35.78 30.59 35.3626 31.0018 34.9112C31.0573 34.8506 31.1063 34.7858 31.1605 34.7239C31.1992 34.756 31.2311 34.7928 31.2719 34.8234C32.394 35.6653 33.9862 35.4382 34.8281 34.3161C34.8663 34.2653 34.9025 34.213 34.9367 34.1594L40.3031 25.7594C40.3348 25.7097 40.3602 25.6561 40.3787 25.6001L43.8166 15.2887C43.9382 14.9234 44.0001 14.5407 43.9999 14.1557V1.00105H42.5662ZM33.046 9.17437C32.8603 8.94606 32.6668 8.73352 32.4718 8.52465L32.8271 8.16937C32.9598 8.38263 33.0855 8.60135 33.2061 8.82446C33.148 8.93898 33.1006 9.05824 33.046 9.17437ZM31.9913 6.97764L31.4451 7.52422C30.9098 7.05272 30.3375 6.62504 29.7337 6.24521L30.5258 5.4532C31.0578 5.91762 31.5482 6.42774 31.9913 6.97764ZM16.5663 5.52784L15.6095 4.57114C16.3111 4.0863 17.062 3.6769 17.8496 3.34984L18.5485 4.74677C17.8675 4.95259 17.2046 5.21378 16.5663 5.52784ZM19.9802 4.40331L19.2225 2.88901C20.0571 2.65873 20.9138 2.51823 21.7781 2.46966V4.18468C21.1744 4.21667 20.5737 4.2897 19.98 4.40331H19.9802ZM23.2118 2.45954C24.0785 2.50864 24.9375 2.64986 25.7744 2.88068L25.0107 4.40394C24.4167 4.29041 23.8157 4.21712 23.2118 4.18477V2.45954ZM27.1411 3.35253C27.9303 3.67618 28.6831 4.08253 29.3867 4.56487L28.4234 5.52793C27.7853 5.21387 27.1227 4.9525 26.442 4.7465L27.1411 3.35253ZM14.4735 5.46252L15.2561 6.24494C14.6519 6.62424 14.0796 7.05201 13.5447 7.52404L13.0061 6.98552C13.2778 6.6427 13.568 6.31484 13.8752 6.00346C14.0672 5.81234 14.2717 5.63922 14.4735 5.46252ZM12.1617 8.16856L12.5182 8.52492C12.3227 8.73477 12.1286 8.9474 11.944 9.17437C11.8897 9.05878 11.8424 8.94005 11.7846 8.82599C11.9048 8.60341 12.0281 8.38281 12.1616 8.16874L12.1617 8.16856ZM28.7045 42.5773H16.2854C16.6003 41.3695 16.7598 40.1265 16.7603 38.8783V37.1593C17.1123 37.3626 17.4747 37.5474 17.846 37.7128C20.8062 39.0282 24.1851 39.0282 27.1452 37.7128C27.516 37.5475 27.8779 37.363 28.2294 37.1599V38.8787C28.23 40.1267 28.3895 41.3696 28.7045 42.5773ZM29.94 33.9484C29.0006 34.9961 27.8496 35.8325 26.563 36.4023C23.9723 37.5472 21.0193 37.5472 18.4286 36.4023C17.1393 35.8313 15.986 34.9926 15.0454 33.9421C14.9131 33.7981 14.7934 33.647 14.6696 33.4985C14.8842 32.8312 14.8137 32.105 14.4748 31.4914C13.4396 29.6108 11.681 26.3903 11.1175 25.3581C12.5769 25.6429 13.991 24.6906 14.2758 23.2311C14.3431 22.8861 14.3423 22.5313 14.2732 22.1867L13.7878 19.7584C14.4215 19.8204 15.0594 19.863 15.6999 19.863C16.8175 19.8639 17.933 19.7685 19.0342 19.5777L18.7878 18.1658C17.0377 18.463 15.2536 18.5022 13.4922 18.2822L13.1761 16.7003V15.4638C14.7944 14.5997 16.749 14.3902 18.7344 14.8926L19.0872 13.503C17.0036 12.9744 14.9357 13.1232 13.1393 13.8928C13.0781 12.8231 12.8842 11.7653 12.5621 10.7434C12.9198 10.2303 13.317 9.74577 13.7501 9.29453C13.7887 9.25143 13.832 9.20842 13.8761 9.16361C13.9133 9.12688 13.949 9.08969 14.0211 9.02634C14.8352 8.23308 15.7589 7.56051 16.7638 7.02916C17.7035 6.52218 18.7083 6.14674 19.7501 5.91332C21.5585 5.49075 23.4401 5.49138 25.2482 5.91511C26.2887 6.14898 27.2921 6.52469 28.2303 7.03167C29.2383 7.56544 30.1644 8.24096 30.9804 9.03772C31.0763 9.12733 31.1646 9.21594 31.2639 9.32194C31.6884 9.76459 32.0775 10.2398 32.4275 10.7433C32.1053 11.7653 31.9114 12.8232 31.8503 13.893C30.0543 13.1237 27.9872 12.9754 25.9024 13.5032L26.2553 14.8928C28.2406 14.3898 30.1958 14.5992 31.8135 15.4638V16.7003L31.4837 18.35C29.9604 18.4828 28.4265 18.4208 26.9189 18.1655L26.6725 19.5781C27.7608 19.7656 28.8631 19.8594 29.9675 19.8585C30.3764 19.8585 30.7843 19.8427 31.1903 19.8173L30.7166 22.1868C30.4249 23.6453 31.3708 25.064 32.8292 25.3557C33.1734 25.4245 33.5278 25.4254 33.8723 25.3583C33.3088 26.3905 31.5509 29.611 30.5149 31.4916C30.1764 32.1038 30.1072 32.8292 30.3238 33.4945C30.1981 33.6458 30.077 33.7985 29.9398 33.9484H29.94Z" fill="#FE9C8F"/>
</svg>
