<svg width="50" height="50" viewBox="0 0 50 50" fill="none" xmlns="http://www.w3.org/2000/svg">
<path d="M11.1641 28.3567C11.1451 28.3567 11.126 28.3559 11.1068 28.3541C10.7684 28.3229 10.5196 28.0233 10.5507 27.6849C10.8458 24.4896 15.2603 22.9074 16.1212 22.7136C20.1464 21.2425 21.6699 20.1217 20.5244 15.0237C20.45 14.6922 20.6583 14.3631 20.9898 14.2886C21.3218 14.2139 21.6506 14.4226 21.725 14.7539C22.3715 17.6314 22.2236 19.5457 21.2455 20.9608C20.3264 22.2906 18.7488 23.0655 16.5013 23.8849C16.4686 23.8968 16.4348 23.9059 16.4005 23.9122C15.6347 24.0511 11.9875 25.5068 11.7759 27.798C11.7466 28.1171 11.4783 28.3567 11.1641 28.3567Z" fill="#FE9C8F" stroke="#FE9C8F" stroke-width="0.5"/>
<path d="M21.4294 40.4665C20.5668 40.4665 19.7043 40.3096 19.0321 39.9957C18.7242 39.8519 18.5912 39.4858 18.7349 39.1779C18.8787 38.87 19.2447 38.7369 19.5527 38.8807C20.57 39.3558 22.2888 39.3558 23.3059 38.8807C23.6139 38.7372 23.98 38.87 24.1238 39.1779C24.2675 39.4858 24.1345 39.8519 23.8267 39.9957C23.1545 40.3096 22.2919 40.4665 21.4294 40.4665Z" fill="#FE9C8F" stroke="#FE9C8F" stroke-width="0.5"/>
<path d="M16.3331 31.2758C15.6369 31.2758 14.9407 31.2018 14.3982 31.0537C14.0705 30.9642 13.8772 30.6259 13.9667 30.2981C14.0562 29.9703 14.3947 29.7772 14.7223 29.8666C15.5955 30.105 17.0708 30.105 17.9439 29.8666C18.2714 29.7771 18.61 29.9702 18.6995 30.2981C18.789 30.6259 18.5957 30.9642 18.268 31.0537C17.7255 31.2018 17.0293 31.2758 16.3331 31.2758Z" fill="#FE9C8F" stroke="#FE9C8F" stroke-width="0.5"/>
<path d="M26.6062 31.4388C25.9096 31.4388 25.2129 31.3648 24.6696 31.2168C24.3417 31.1276 24.1483 30.7894 24.2376 30.4616C24.3268 30.1336 24.6652 29.9407 24.9928 30.0296C25.868 30.268 27.3447 30.2679 28.2173 30.0297C28.5447 29.9402 28.8834 30.1333 28.9729 30.4612C29.0624 30.789 28.8691 31.1273 28.5414 31.2168C27.9992 31.3648 27.3028 31.4388 26.6062 31.4388Z" fill="#FE9C8F" stroke="#FE9C8F" stroke-width="0.5"/>
<path d="M44.0918 4.07319C43.7926 3.91258 43.4195 4.02512 43.2589 4.32453L38.165 13.8216L35.3965 12.3369C34.9999 12.1252 34.5517 12.1047 34.1559 12.2407C30.9672 8.71908 26.4724 6.70909 21.7439 6.70909C17.3572 6.70909 13.2018 8.40925 10.0429 11.4963C9.79995 11.7339 9.79543 12.1234 10.0329 12.3663C10.2703 12.6093 10.6599 12.6138 10.9029 12.3763C13.8304 9.51519 17.6806 7.93946 21.7438 7.93946C26.1221 7.93946 30.2852 9.80115 33.2404 13.0629L32.5831 14.2896C32.2997 14.8208 32.3566 15.4432 32.6754 15.9072L29.7318 19.5357C29.6175 19.676 29.27 20.103 29.3746 20.627C29.4183 20.846 29.5586 21.1546 29.9798 21.3812L37.2549 25.2813V28.7651C37.2549 32.3337 37.0749 35.1651 36.1963 37.3835C35.2561 39.7575 33.5487 41.2574 30.8229 42.1035C30.1656 42.3076 29.8738 42.2502 29.8048 42.1842C29.7195 42.1024 29.6219 41.8033 29.8944 40.7253C30.71 39.7507 31.3862 38.7356 31.8511 37.7657C31.998 37.4593 31.8688 37.0918 31.5623 36.945C31.2561 36.798 30.8885 36.9272 30.7416 37.2338C30.293 38.1695 29.6592 39.1083 28.9162 39.99C28.8795 40.0237 28.8467 40.0619 28.8188 40.1042C26.5939 42.6972 23.444 44.7693 21.3405 44.7693C21.2818 44.7693 21.2239 44.7677 21.1669 44.7645C21.1435 44.763 21.1201 44.763 21.0967 44.7645C19.571 44.8514 17.2332 43.7104 15.1715 41.964C14.9365 41.8059 14.0506 41.0387 13.7085 40.5662C12.8511 39.1327 12.8795 37.7092 13.03 35.5905C13.3561 30.9766 16.9275 29.0559 20.3813 27.1984C22.235 26.2015 24.0149 25.2438 25.3166 23.9162C26.96 26.7261 29.8365 27.944 32.3171 27.9519L32.3171 28.5406C32.3178 30.1713 32.318 30.6635 32.3014 30.9625C32.3007 30.9739 32.3004 30.9852 32.3004 30.9966C32.3004 32.0285 32.1273 33.2085 31.7997 34.4089C31.7102 34.7367 31.9035 35.075 32.2312 35.1644C32.2855 35.1792 32.3399 35.1863 32.3936 35.1863C32.6641 35.1863 32.912 35.0065 32.9867 34.7329C33.3408 33.4349 33.5289 32.1493 33.5308 31.0136C33.5483 30.6814 33.5482 30.2115 33.5475 28.5403L33.5473 27.3113C33.5473 27.1388 33.4748 26.9743 33.3476 26.8577C33.2204 26.7412 33.0502 26.6836 32.8783 26.6985C30.5571 26.902 27.6281 25.7971 26.161 22.8965C26.3316 22.6482 26.4877 22.3883 26.6262 22.1136C26.6326 22.1008 26.6378 22.0878 26.6433 22.0748C26.6445 22.0719 26.6463 22.0693 26.6475 22.0664C26.6485 22.064 26.6493 22.0615 26.6502 22.0592C26.6511 22.057 26.652 22.0546 26.6528 22.0523C27.5606 19.7818 27.1327 16.7382 25.5064 13.9065C25.3371 13.612 24.9612 13.5103 24.6665 13.6794C24.3718 13.8486 24.2702 14.2247 24.4393 14.5193C25.8767 17.0219 26.2777 19.6595 25.5152 21.5825C24.4898 23.5914 22.2109 24.8175 19.7983 26.1149C16.2256 28.0363 12.1762 30.2142 11.8023 35.5038C11.6382 37.8132 11.6118 39.485 12.6707 41.2291C12.6784 41.2431 13.2329 41.9408 13.5025 42.1647C12.7907 41.9137 11.8305 41.4374 10.8136 40.6391C9.10195 39.2955 6.23046 36.1758 6.23046 30.3774V23.4015C6.23046 20.2106 7.2122 17.1399 9.06946 14.5216C9.26601 14.2445 9.20079 13.8604 8.92361 13.6639C8.64659 13.4673 8.26244 13.5326 8.0659 13.8097C6.06017 16.6373 5 19.954 5 23.4015V30.3774C5 34.1009 6.12374 37.3849 8.24973 39.8745C10.0166 41.9436 12.1587 43.089 13.5744 43.4709C13.9438 43.5706 14.2648 43.6204 14.5366 43.6204C14.7717 43.6204 14.9699 43.583 15.1308 43.5085C16.9723 44.9142 19.1117 46.0001 20.9194 46C20.9907 46 21.0614 45.9983 21.1317 45.9949C22.7697 46.0737 24.9364 45.1484 27.0885 43.4517C27.5841 43.061 28.0638 42.6403 28.5196 42.1998C28.5742 42.5275 28.7033 42.8331 28.9534 43.0727C29.2341 43.3417 29.6024 43.4758 30.067 43.4758C30.3924 43.4758 30.7651 43.41 31.1877 43.2787C37.9361 41.1841 38.4852 35.4665 38.4852 28.7652V25.4735C38.9494 25.259 39.1057 24.7561 39.1569 24.5895L40.5497 20.131C40.5579 20.1311 40.5661 20.1318 40.5743 20.1318C40.7252 20.1318 40.8771 20.1095 41.026 20.0648C41.4257 19.9446 41.7541 19.6763 41.9506 19.3097L42.6564 17.9953C43.0577 17.2392 42.772 16.2942 42.0195 15.8887C42.0192 15.8885 42.0187 15.8882 42.0183 15.8881L39.2491 14.403L44.3428 4.90613C44.5039 4.60672 44.3913 4.23381 44.0918 4.07319ZM37.9819 24.2249C37.9771 24.2403 37.9726 24.2544 37.9681 24.2675L36.4577 23.4579L37.0192 21.5133C37.1134 21.1869 36.9252 20.8457 36.5988 20.7514C36.2725 20.6573 35.9313 20.8454 35.837 21.1718L35.3486 22.8633L33.3717 21.8036L34.5118 20.4621C34.7319 20.2032 34.7004 19.8149 34.4415 19.5949C34.1826 19.3749 33.7943 19.4064 33.5743 19.6652L32.2623 21.2088L30.6577 20.3486C30.6663 20.3371 30.676 20.3249 30.6867 20.3117L33.6687 16.636L39.3935 19.706L37.9819 24.2249ZM41.5713 17.4158L40.8665 18.7281C40.811 18.8317 40.7207 18.8719 40.6717 18.8866C40.6233 18.9012 40.5267 18.9175 40.4234 18.8621C40.4233 18.8621 40.4232 18.862 40.4232 18.8619L34.1364 15.4906L33.8008 15.3107C33.6455 15.2278 33.585 15.0255 33.6681 14.87L34.3719 13.5568C34.4307 13.4477 34.5476 13.3847 34.6657 13.3847C34.717 13.3847 34.7688 13.3966 34.816 13.4218L41.4362 16.9719C41.5951 17.0577 41.655 17.2579 41.5713 17.4158Z" fill="#FE9C8F" stroke="#FE9C8F" stroke-width="0.5"/>
</svg>
