<svg width="68" height="69" viewBox="0 0 68 69" fill="none" xmlns="http://www.w3.org/2000/svg">
<path fill-rule="evenodd" clip-rule="evenodd" d="M59.0004 59.8418C57.4691 60.1938 56.5205 59.8418 56.5205 59.8418C53.0568 60.0848 49.8895 58.0784 49.8895 58.0784C49.0666 57.5069 48.434 56.7232 47.9496 55.8244L47.1823 53.152L46.452 49.181C46.3774 47.1139 46.5715 45.5469 46.5715 45.5469L44.0209 47.6156C43.7421 47.8863 43.4535 48.1236 43.1574 48.3308C42.0072 48.8483 40.4417 49.4035 38.7731 49.5591C36.7237 49.5037 34.767 48.7782 33.4595 48.1621C33.2613 48.0077 33.067 47.8389 32.8772 47.6546L30.3259 45.5938C30.3259 45.5938 30.5134 47.1075 30.449 49.1219L29.7166 53.1079L28.3857 55.7602L28.608 56.4439C28.1773 57.103 27.6506 57.6789 27.0079 58.1253C27.0079 58.1252 27.0046 58.1272 26.9979 58.1313C26.801 58.251 23.7276 60.1201 20.3776 59.8858C20.3776 59.8858 19.4291 60.237 17.8984 59.8858V68.0526H41.5135L41.5429 68.0086H59.0004V59.8418Z" fill="#FFD298"/>
<path d="M35.9999 68.0097L29.5167 62.7152L26.4555 60.6149L20.2962 52.5019L17.5264 48.5536L18.3645 43.6641L19.2027 42.7588L23.3207 43.6641L26.4187 47.7572L30.0996 51.4876L31.0106 55.1821L33.5986 59.3834L40.705 62.6793L35.9999 68.0097Z" fill="#FFD298"/>
<path d="M22.0801 27.3141C22.0801 27.3141 10.819 41.0363 37.1685 49.249C37.1685 49.249 45.698 51.8102 49.8246 36.7088C49.8246 36.7088 53.7918 33.6208 53.2992 30.2209C53.2992 30.2209 52.2273 26.9012 49.6054 28.3973C49.6054 28.3973 46.0882 16.2829 35.2873 16.9338C35.2873 16.9338 25.142 15.0916 22.0801 27.3141Z" fill="#FFD298"/>
<path d="M15.0239 36.0742C14.7447 35.424 15.2756 34.8642 15.2316 34.2398C15.8312 31.0504 16.5766 27.8964 17.4677 24.7777C18.0375 22.7857 18.8612 20.8854 19.5912 18.9507C20.4128 17.4762 21.1694 15.9687 22.1158 14.5601C25.7224 9.19685 30.7629 7.36608 37.0152 8.5388C44.646 9.96743 49.0049 14.9508 49.6728 22.9735C49.7853 24.3319 49.8171 25.6974 49.8777 27.0594C49.9007 27.5433 49.9318 27.9139 50.6387 27.7547C51.3008 27.6063 51.8533 28.0056 52.2941 28.4715C53.3205 29.554 53.6444 30.8586 53.2209 32.2635C52.7103 33.9603 51.9565 35.543 50.3256 36.4928C49.9765 36.6971 49.9484 36.9996 49.9029 37.3172C49.5423 39.8734 48.7488 42.2776 47.3646 44.4775C47.2405 44.6747 47.1042 44.8976 47.0811 45.1227C46.8027 47.7527 46.551 50.3885 47.2398 52.9956C48.3153 57.0657 51.0837 59.2369 55.3063 59.4032C55.739 59.4205 56.5549 59.1072 56.5166 59.847C56.4842 60.4763 55.7232 60.1437 55.3019 60.1251C50.1474 59.895 46.9809 56.9804 46.2516 51.8859C45.9905 50.0623 46.0836 48.238 46.1643 46.3198C45.6212 46.5721 45.376 46.9921 45.0326 47.2954C41.4672 50.4494 38.6634 51.0056 33.4411 48.5706C32.9586 48.3455 32.5034 48.0624 32.0346 47.8065C31.6775 47.6767 31.7922 47.9047 31.8304 48.0738C31.8009 50.0322 31.7006 51.9805 31.0536 53.8572C31.0156 53.9699 31.0023 54.0894 31.0148 54.2076C31.0272 54.3258 31.0651 54.44 31.1257 54.5425C31.1978 54.6722 31.2916 54.7933 31.3421 54.931C32.3894 57.9553 34.4437 59.9022 37.5317 60.8527C38.5747 61.1745 39.5405 61.7473 40.5323 62.2254C40.73 62.3207 41.1505 62.3322 40.9478 62.7229C40.8137 62.9824 40.5475 63.0318 40.2532 62.8727C40.0217 62.7472 39.7598 62.6756 39.5117 62.5795C38.5761 62.0611 37.6064 61.6061 36.6091 61.2175L36.2817 61.077C35.5409 60.6111 34.7337 60.2835 33.923 59.9645L33.2305 59.6635C32.3822 58.7545 32.0988 57.5044 31.3233 56.5524C31.2902 56.255 31.1315 56.017 30.9591 55.7854C29.1753 50.9648 25.6293 47.5885 21.7075 44.5184C22.9251 45.9864 24.217 47.3936 25.4865 48.8193C25.8572 49.2351 26.3629 49.5856 26.3737 50.2322C26.2215 50.3282 26.1212 50.5354 25.8868 50.4544C23.8917 47.9405 21.5445 45.7728 19.1995 43.603L19.0156 43.7679L25.3083 51.0415C25.3005 51.0696 25.3031 51.0995 25.3157 51.1259C25.3283 51.1522 25.35 51.1731 25.3769 51.1849L25.2925 51.5261L25.1251 51.6694C24.7969 51.6931 24.5567 51.5261 24.3713 51.2895C23.0412 49.5749 21.4082 48.1434 19.9122 46.5836C19.7679 46.4294 19.6395 46.1699 19.2991 46.2861C21.0302 48.5082 22.7123 50.7397 24.6368 52.7762C24.7089 53.0214 24.5372 53.1877 24.4391 53.3776C23.9241 53.3719 23.689 52.9382 23.3658 52.6608C21.7999 51.2988 20.2873 49.8716 18.3166 48.7778C18.4977 49.2953 18.7812 49.5297 19.0257 49.8078C20.4575 51.4314 22.2593 52.7282 23.3226 54.6822C23.9948 55.918 24.7443 57.113 25.4591 58.3266L25.6711 58.6714C26.2107 59.8498 27.1138 60.7021 28.1626 61.4283C28.252 61.6218 28.423 61.6985 28.6177 61.7422C29.2113 62.3014 29.9882 62.5666 30.6504 63.0232C30.7813 63.2448 30.9851 63.4147 31.2274 63.5042C32.5135 64.7508 33.835 65.9565 35.3461 66.9364C35.2855 67.2984 36.6712 67.6087 35.3851 68.0152L35.0605 67.7851C34.7243 67.3378 34.262 67.0331 33.8205 66.7098C32.7595 65.54 31.4315 64.692 30.1981 63.73C30.1711 63.6568 30.1237 63.5928 30.0613 63.5456C29.9989 63.4983 29.9243 63.4698 29.8461 63.4633C29.7228 63.1809 29.4501 63.1193 29.1969 63.0332C28.2765 62.429 27.328 61.8548 26.5656 61.0512C26.2655 60.7358 25.9287 68.4345 25.5803 68.441C22.4469 68.4983 19.3121 68.517 16.1823 68.6496C15.2136 68.6911 14.9063 68.3241 14.7216 67.4754C14.0357 64.3149 14.0155 53.4593 14.0775 50.2551C14.146 46.7262 14.3696 43.2037 14.7007 39.6884C14.7411 39.2583 14.9063 38.8089 14.6329 38.3902C15.122 37.6698 14.9323 36.8484 15.0239 36.0742ZM49.4427 31.974C49.4103 31.2987 49.3605 30.1432 49.2985 28.9877C49.2804 28.6644 49.2718 28.331 49.0821 28.0429C47.4151 25.4752 45.6068 23.0251 43.0591 21.233C41.8552 20.3865 40.5432 19.9363 39.0198 20.1471C37.9861 20.2904 36.9395 20.2023 35.8979 20.0524C34.0492 19.7872 32.3534 19.0181 30.5775 18.5163C30.0885 18.3787 29.7264 18.4446 29.339 18.7442C27.1563 20.4202 25.3502 22.4151 24.1838 24.9132C23.3666 26.6694 22.6236 28.5146 23.0723 30.4858C23.9119 34.2026 25.1893 37.7817 27.1051 41.0948C29.1551 44.6438 31.9054 47.4201 35.9333 48.7491C38.8726 49.7197 41.5011 49.2982 43.8677 47.2617C45.1459 46.1606 46.2192 44.9083 47.0516 43.451C49.002 40.0361 49.4564 36.2943 49.4427 31.974ZM25.8998 40.6017C25.0138 38.8323 24.2454 37.0072 23.5995 35.138C23.3831 34.5015 22.91 34.1345 22.3106 34.1101C21.7111 34.0857 21.5402 34.6835 21.3772 35.1595C20.6263 37.3358 23.1855 40.5042 25.8998 40.6017ZM50.2499 32.189H50.1777C50.1777 33.1065 50.1734 34.0241 50.1821 34.9423C50.1821 35.133 50.0378 35.3939 50.2701 35.5036C50.5456 35.6312 50.7028 35.3466 50.8435 35.1889C51.7314 34.2196 52.3255 33.0206 52.5573 31.7302C52.7701 30.5833 52.4607 29.5525 51.523 28.7798C51.2078 28.5203 50.8327 28.4092 50.441 28.5991C50.0493 28.7891 50.089 29.164 50.1114 29.5267C50.1611 30.417 50.203 31.3037 50.2499 32.189Z" fill="#191512"/>
<path d="M38.0694 44.2984C36.6823 44.4468 35.7049 43.3128 34.54 42.5888C34.4934 42.563 34.4532 42.5272 34.4224 42.4839C34.3916 42.4406 34.3711 42.3909 34.3623 42.3387C34.3535 42.2864 34.3567 42.2328 34.3716 42.1819C34.3865 42.131 34.4127 42.0841 34.4484 42.0447C34.4781 42.0008 34.5167 41.9637 34.5619 41.9357C34.607 41.9077 34.6576 41.8895 34.7103 41.8822C34.763 41.875 34.8166 41.8789 34.8677 41.8937C34.9188 41.9085 34.9661 41.9338 35.0067 41.968C35.6421 42.4899 36.0922 42.044 36.6722 41.7952C38.0492 41.2046 39.4976 40.7465 41.0303 40.925C41.5295 40.9838 41.9002 40.991 42.1743 40.5336C42.3186 40.2978 42.535 40.2039 42.7795 40.3501C42.9909 40.4756 42.9721 40.6835 42.8971 40.8992C42.3374 42.5114 40.084 44.2296 38.4315 44.2984C38.3716 44.3034 38.3124 44.2984 38.0694 44.2984Z" fill="#B76E78"/>
<path d="M47.2022 26.2263C46.8098 26.4721 46.584 26.3402 46.3475 26.2047C44.5889 25.2012 42.844 25.2607 41.1172 26.2879C40.6051 26.5918 40.0944 26.8965 39.5851 27.2062C39.3536 27.3495 39.1387 27.3703 38.9504 27.1438C38.7903 26.9524 38.8328 26.7854 38.9829 26.5911C39.8217 25.5073 43.3915 24.288 44.7281 24.6808C45.6651 24.9568 46.4448 25.5116 47.2022 26.2263Z" fill="#191512"/>
<path d="M25.1484 30.2014C26.0385 28.8194 26.9618 27.5169 28.9122 27.4939C30.1702 27.4789 31.4123 27.4939 32.6292 27.8466C32.9235 27.9312 33.2567 28.0165 33.1788 28.4079C33.0872 28.8702 32.7215 28.7663 32.394 28.6946C32.0442 28.6229 31.6922 28.5634 31.3423 28.491C29.4374 28.0961 27.6752 28.2523 26.221 29.7254C25.9614 29.9885 25.6115 30.1648 25.3035 30.3806L25.1484 30.2014Z" fill="#191512"/>
<path d="M26.9189 33.1746C27.8264 33.252 28.5231 33.3545 29.2207 33.3603C30.2788 33.3682 31.2786 33.1201 32.1441 32.475C32.3778 32.3001 32.5993 32.1481 32.8258 32.4427C33.102 32.8011 32.7147 32.8986 32.5372 33.0384C31.0355 34.2219 28.6876 34.333 26.9189 33.1746Z" fill="#191512"/>
<path d="M45.1868 30.0107C44.63 30.8709 43.8373 31.2738 42.8916 31.4602C42.1302 31.6066 41.3453 31.5799 40.5957 31.382C40.4269 31.339 40.2213 31.2946 40.235 31.0666C40.2473 30.8874 40.367 30.6523 40.5466 30.7039C42.1927 31.1677 43.6865 30.6767 45.1868 30.0107Z" fill="#191512"/>
<path d="M36.2323 38.3538C36.1047 38.3344 35.9806 38.3086 36.0001 38.1495C36.0354 37.8706 36.2547 37.7653 36.4855 37.6972C36.6731 37.6413 36.7841 37.7524 36.7423 37.928C36.681 38.1853 36.4725 38.2986 36.2323 38.3538Z" fill="#191512"/>
<path d="M38.7751 38.0003C38.9035 37.9809 39.0276 37.9551 39.0074 37.796C38.9721 37.5171 38.7535 37.4118 38.522 37.3437C38.3344 37.2877 38.2233 37.3989 38.2659 37.5745C38.3265 37.829 38.5385 37.9422 38.7751 38.0003Z" fill="#191512"/>
<path d="M35.5293 42.798C35.8218 42.8497 36.118 42.8787 36.4151 42.8847L36.6372 42.889C36.7094 42.889 36.7858 42.8854 36.8594 42.884C36.933 42.8826 37.0073 42.884 37.0816 42.8775L37.303 42.861C37.8927 42.8128 38.477 42.7135 39.0493 42.5643C39.3321 42.479 39.6191 42.4073 39.8954 42.2998C40.0339 42.2482 40.176 42.2052 40.3123 42.1478L40.7213 41.9751C40.7891 41.9457 40.8583 41.9191 40.9254 41.8883L41.1245 41.7901L41.5248 41.5951C41.7896 41.4604 42.0435 41.3084 42.3075 41.165C42.1848 41.2487 42.061 41.3311 41.936 41.4123L41.7492 41.5349C41.6864 41.5751 41.6251 41.6188 41.5595 41.6539L41.1678 41.869L40.9709 41.9765C40.9045 42.0102 40.836 42.0396 40.7682 42.0718L40.3599 42.2589C40.2236 42.3198 40.0808 42.3672 39.9416 42.4224C39.6639 42.5349 39.3724 42.6094 39.0861 42.6983C38.5047 42.8484 37.9094 42.9387 37.3095 42.9679C36.7108 43.0035 36.1102 42.9462 35.5293 42.798Z" fill="#191512"/>
<path d="M19.821 34.4562C19.8852 34.8233 20.1817 35.0534 20.3671 35.3444C20.6953 35.8519 20.6635 36.1207 20.1745 36.4626C19.7792 36.7386 19.3991 37.0361 18.9555 37.2411C18.4967 37.4504 18.0077 37.4855 17.5128 37.4934C17.2777 37.4483 17.0079 37.3164 16.8211 37.3902C16.7057 37.4361 16.723 37.7981 16.6675 38.0146C16.4855 38.7341 16.0427 39.3615 15.4239 39.7765C15.1736 39.9514 14.9277 40.1349 14.6716 40.2998C14.4155 40.4647 14.1061 40.5055 13.9041 40.2604C13.2903 39.5127 12.6945 38.7436 12.6779 37.7099C12.6736 37.4232 12.6779 37.125 12.781 36.8497C12.8423 36.682 12.7962 36.6404 12.6173 36.6239C11.689 36.54 10.9583 36.0956 10.413 35.3537C10.2168 35.0885 10.0235 34.8204 9.84168 34.5451C9.67073 34.2849 9.63899 33.9817 9.88568 33.781C10.6373 33.1703 11.412 32.5782 12.4492 32.5624C12.7377 32.5574 13.0378 32.5624 13.3148 32.6656C13.4829 32.7273 13.5312 32.6771 13.5492 32.5029C13.6401 31.5173 14.1299 30.7675 14.9428 30.2141C15.1736 30.0571 15.3972 29.8872 15.6317 29.7352C15.8949 29.5646 16.1964 29.5367 16.3984 29.7818C17.0137 30.5288 17.6052 31.3008 17.6196 32.3337C17.6362 32.624 17.6015 32.9148 17.5172 33.1932C17.4724 33.3208 17.4674 33.4082 17.6463 33.4204C18.444 33.4763 19.1084 33.8132 19.6508 34.3924C19.6728 34.4147 19.6994 34.432 19.7288 34.443C19.7582 34.454 19.7897 34.4585 19.821 34.4562V34.4562ZM16.3861 32.7631C16.4691 32.1746 16.3061 31.675 15.9584 31.2219C15.8639 31.0986 15.7983 31.1151 15.6793 31.1847C15.4418 31.3211 15.2373 31.5075 15.0801 31.7308C14.9228 31.9542 14.8166 32.209 14.7689 32.4774C14.7212 32.7458 14.7332 33.0213 14.8039 33.2847C14.8747 33.548 15.0026 33.7928 15.1787 34.0018C15.2631 34.1036 15.3172 34.1545 15.4528 34.0677C15.9469 33.7487 16.2758 33.3229 16.3861 32.7631ZM15.54 37.5551C15.623 36.9816 15.4643 36.4849 15.121 36.0282C15.0128 35.8849 14.9385 35.915 14.8122 35.9938C13.8082 36.6175 13.5903 37.8662 14.3232 38.7859C14.4191 38.907 14.4812 38.945 14.6261 38.8504C15.1058 38.5364 15.4246 38.1185 15.54 37.5551ZM12.4139 35.3437C13.1532 35.472 13.6668 35.3386 14.1097 35.001C14.2237 34.9136 14.2806 34.8577 14.189 34.7021C13.6185 33.7222 12.204 33.4756 11.342 34.2089C11.2302 34.3043 11.2172 34.3638 11.2966 34.4856C11.6082 34.9695 12.0294 35.2849 12.4139 35.3437ZM17.4299 36.2175C17.9831 36.32 18.4758 36.1745 18.9302 35.8454C19.0788 35.7372 19.0839 35.6641 18.9872 35.5136C18.8459 35.2877 18.6582 35.094 18.4364 34.9452C18.2145 34.7964 17.9636 34.6958 17.7 34.65C17.4364 34.6042 17.166 34.6142 16.9065 34.6794C16.647 34.7446 16.4043 34.8635 16.1943 35.0283C16.05 35.1394 16.0363 35.2096 16.1366 35.3594C16.4475 35.8254 16.8629 36.125 17.4299 36.2175Z" fill="#030202"/>
<path d="M16.3861 32.7631C16.2758 33.3251 15.9469 33.7509 15.4528 34.0677C15.3172 34.1544 15.2631 34.1035 15.1787 34.0017C15.0026 33.7927 14.8747 33.548 14.8039 33.2846C14.7332 33.0213 14.7212 32.7458 14.7689 32.4773C14.8166 32.2089 14.9228 31.9541 15.08 31.7308C15.2373 31.5075 15.4418 31.3211 15.6793 31.1846C15.7983 31.1129 15.8639 31.0986 15.9584 31.2219C16.3061 31.6728 16.4691 32.1724 16.3861 32.7631Z" fill="#B76E78"/>
<path d="M15.5408 37.5534C15.4247 38.1176 15.1081 38.5355 14.6262 38.8494C14.482 38.9441 14.4192 38.9061 14.3233 38.7849C13.5904 37.8652 13.8083 36.6165 14.8123 35.9929C14.9385 35.914 15.0128 35.8839 15.121 36.0273C15.4644 36.4839 15.6267 36.9843 15.5408 37.5534Z" fill="#B76E78"/>
<path d="M12.415 35.3436C12.0306 35.2827 11.6093 34.9673 11.2977 34.4835C11.2184 34.3616 11.2313 34.3021 11.3431 34.2068C12.2087 33.4734 13.6196 33.72 14.1902 34.6999C14.2818 34.8576 14.2248 34.9114 14.1108 34.9989C13.6679 35.3436 13.1544 35.4741 12.415 35.3436Z" fill="#B76E78"/>
<path d="M17.4304 36.216C16.8656 36.1236 16.4501 35.8239 16.1371 35.3558C16.0368 35.206 16.0505 35.1358 16.1948 35.0247C16.4048 34.8599 16.6475 34.741 16.907 34.6758C17.1665 34.6106 17.4369 34.6006 17.7005 34.6464C17.9641 34.6922 18.215 34.7928 18.4369 34.9416C18.6587 35.0904 18.8464 35.2841 18.9877 35.51C19.0844 35.6605 19.0793 35.7336 18.9307 35.8419C18.4741 36.173 17.9815 36.3185 17.4304 36.216Z" fill="#B76E78"/>
<path d="M51.784 6.26715C51.8561 6.15676 51.9217 6.05783 51.9874 5.95963C52.0638 5.8478 52.1785 5.81626 52.2759 5.88078C52.3733 5.94529 52.392 6.06213 52.3192 6.17611C52.255 6.27503 52.1886 6.37324 52.1158 6.48363L52.3993 6.66928C52.5356 6.75889 52.5738 6.86713 52.5067 6.9725C52.4396 7.07788 52.3185 7.08863 52.1771 6.99687L51.9275 6.83487C51.9171 6.8291 51.9062 6.82407 51.8951 6.81982C51.8265 6.92304 51.7573 7.02913 51.6866 7.1345C51.6729 7.15644 51.655 7.17548 51.6339 7.19054C51.6128 7.20559 51.589 7.21638 51.5637 7.22227C51.5126 7.23416 51.4589 7.22541 51.4143 7.19794C51.3697 7.17047 51.338 7.12653 51.326 7.07578C51.314 7.02503 51.3228 6.97164 51.3505 6.92734C51.4168 6.81838 51.4904 6.71229 51.5669 6.59832L51.3793 6.47574C51.1492 6.32521 51.0966 6.22844 51.1795 6.10586C51.2625 5.98328 51.3678 5.99547 51.6015 6.14815L51.784 6.26715Z" fill="black"/>
<path d="M29.5479 5.04058C29.62 4.93091 29.6857 4.83127 29.752 4.73307C29.8278 4.62124 29.9432 4.5897 30.0406 4.65422C30.1379 4.71873 30.156 4.83629 30.0831 4.94955C30.0189 5.04919 29.9526 5.14739 29.8797 5.25778L30.1625 5.44201C30.2988 5.53161 30.337 5.63985 30.2699 5.74522C30.2029 5.85059 30.0817 5.86135 29.9403 5.76959L29.6922 5.60759C29.6817 5.60182 29.6709 5.59679 29.6597 5.59254C29.5876 5.69576 29.5219 5.80185 29.4512 5.90794C29.4384 5.93169 29.4208 5.95257 29.3996 5.9693C29.3783 5.98603 29.3538 5.99824 29.3276 6.00519C29.3014 6.01214 29.274 6.01368 29.2472 6.00971C29.2204 6.00574 29.1947 5.99634 29.1717 5.9821C29.1486 5.96786 29.1288 5.94908 29.1134 5.92692C29.0979 5.90475 29.0872 5.87968 29.0819 5.85325C29.0766 5.82682 29.0768 5.79958 29.0825 5.77324C29.0883 5.74689 29.0993 5.72198 29.1151 5.70006C29.1815 5.5911 29.255 5.48501 29.3315 5.37104L29.144 5.24846C28.9139 5.09865 28.8612 5.00116 28.9442 4.8793C29.0271 4.75744 29.1324 4.76891 29.3661 4.92159L29.5479 5.04058Z" fill="black"/>
<path d="M55.2851 28.7741C55.3573 28.6638 55.4222 28.5641 55.4886 28.4666C55.5607 28.3541 55.6797 28.3233 55.7771 28.3878C55.8745 28.4523 55.8925 28.5691 55.8196 28.6824C55.7554 28.782 55.6891 28.8802 55.6162 28.9906L55.899 29.1749C56.0353 29.2645 56.0743 29.3734 56.0065 29.4781C55.9387 29.5827 55.8182 29.5949 55.6768 29.5024L55.428 29.3404L55.3948 29.3254C55.327 29.4293 55.257 29.5354 55.1863 29.6408C55.1735 29.6645 55.1559 29.6854 55.1346 29.7022C55.1134 29.7189 55.0889 29.7311 55.0627 29.738C55.0365 29.745 55.0091 29.7465 54.9823 29.7426C54.9555 29.7386 54.9298 29.7292 54.9067 29.7149C54.8837 29.7007 54.8639 29.6819 54.8484 29.6598C54.833 29.6376 54.8223 29.6125 54.817 29.5861C54.8117 29.5597 54.8119 29.5324 54.8176 29.5061C54.8233 29.4797 54.8344 29.4548 54.8502 29.4329C54.9173 29.3247 54.9901 29.2179 55.0666 29.1046L54.879 28.982C54.6482 28.8315 54.5956 28.734 54.6785 28.6121C54.7615 28.4903 54.8668 28.5018 55.1012 28.6544L55.2851 28.7741Z" fill="black"/>
<path d="M40.9657 3.7957L39.213 3.2889ZM43.0907 3.2889C43.0907 3.44374 42.9717 3.54553 42.7871 3.54983C42.3417 3.55463 41.91 3.70277 41.5565 3.97204C41.2972 4.16124 41.0855 4.40748 40.9378 4.6915C40.7902 4.97552 40.7106 5.28962 40.7054 5.60927C40.6974 5.80281 40.5986 5.92037 40.4392 5.92108C40.2798 5.9218 40.1788 5.80352 40.173 5.60927C40.1592 5.06859 39.9371 4.5538 39.5526 4.17102C39.1681 3.78825 38.6505 3.56667 38.1065 3.55198C37.9088 3.54696 37.7913 3.45019 37.7891 3.29105C37.7869 3.13192 37.9059 3.0287 38.0985 3.02296C38.6458 3.01107 39.1673 2.78963 39.5542 2.40485C39.9411 2.02006 40.1636 1.50165 40.1752 0.95779C40.181 0.767831 40.287 0.648838 40.4471 0.652423C40.6073 0.656007 40.7003 0.772849 40.7075 0.957073C40.7103 1.03597 40.717 1.11468 40.7277 1.19291C40.7938 1.69162 41.0373 2.15034 41.4143 2.48603C41.7912 2.82172 42.2767 3.01219 42.7827 3.02296C42.976 3.0287 43.0951 3.1312 43.0929 3.29034L43.0907 3.2889Z" fill="#B76E78"/>
<path d="M43.0929 3.29034C43.0929 3.44517 42.9739 3.54696 42.7892 3.55126C42.3439 3.55606 41.9121 3.7042 41.5587 3.97347C41.2994 4.16267 41.0876 4.40891 40.94 4.69293C40.7923 4.97695 40.7128 5.29106 40.7075 5.6107C40.6996 5.80424 40.6008 5.9218 40.4414 5.92252C40.2819 5.92323 40.181 5.80496 40.1752 5.6107C40.1617 5.06941 39.9395 4.55395 39.5545 4.17082C39.1695 3.78768 38.6511 3.56615 38.1065 3.55198C37.9088 3.54696 37.7913 3.45019 37.7891 3.29105C37.7869 3.13192 37.9059 3.0287 38.0985 3.02296C38.6458 3.01107 39.1673 2.78963 39.5542 2.40485C39.9411 2.02006 40.1636 1.50165 40.1752 0.95779C40.181 0.767831 40.287 0.648838 40.4471 0.652423C40.6073 0.656007 40.7003 0.772849 40.7075 0.957073C40.7103 1.03597 40.717 1.11468 40.7277 1.19291C40.7938 1.69162 41.0373 2.15034 41.4143 2.48603C41.7912 2.82172 42.2767 3.01219 42.7827 3.02296C42.976 3.0287 43.0951 3.1312 43.0929 3.29034ZM40.424 4.46951C40.6087 4.23655 40.7667 3.99426 40.9679 3.7957C41.1692 3.59714 41.4108 3.44374 41.612 3.28819C41.4043 3.12618 41.1605 2.97063 40.9629 2.77207C40.7652 2.57351 40.6065 2.33194 40.4269 2.10399C40.159 2.61694 39.7339 3.03192 39.213 3.2889C39.7325 3.54403 40.1561 3.95776 40.4219 4.46951H40.424Z" fill="black"/>
<path d="M55.2981 17.9342C55.6391 17.9342 55.9156 17.6595 55.9156 17.3206C55.9156 16.9818 55.6391 16.707 55.2981 16.707C54.9571 16.707 54.6807 16.9818 54.6807 17.3206C54.6807 17.6595 54.9571 17.9342 55.2981 17.9342Z" fill="#B76E78"/>
<path d="M55.2102 19.1634C55.15 19.132 55.1001 19.0841 55.0663 19.0255C55.0326 18.9668 55.0164 18.8997 55.0198 18.8322C55.0027 18.5065 54.8651 18.1986 54.6334 17.9676C54.4018 17.7366 54.0924 17.5988 53.7647 17.5806C53.6704 17.5742 53.5799 17.5414 53.5036 17.486C53.4662 17.4539 53.441 17.4099 53.4322 17.3615C53.4234 17.3131 53.4315 17.2632 53.4553 17.2201C53.4746 17.1705 53.5089 17.128 53.5534 17.0985C53.598 17.0689 53.6506 17.0538 53.7041 17.0552C54.0457 17.0522 54.3731 16.9188 54.6185 16.6826C54.8639 16.4465 55.0086 16.1256 55.0227 15.7864C55.0342 15.5893 55.1302 15.4746 55.2896 15.4746C55.449 15.4746 55.5478 15.5893 55.5565 15.7857C55.5699 16.1184 55.7091 16.4338 55.9463 16.6689C56.1835 16.9039 56.5013 17.0414 56.8361 17.0538C57.0323 17.0631 57.1484 17.1634 57.1462 17.3219C57.1441 17.4803 57.0287 17.5749 56.8289 17.5835C56.4988 17.5967 56.1856 17.732 55.9509 17.9629C55.7161 18.1939 55.5767 18.5037 55.5601 18.8315C55.5636 18.8991 55.5475 18.9663 55.5138 19.0252C55.48 19.084 55.43 19.132 55.3696 19.1634H55.2102ZM55.876 17.319L55.2932 16.7391L54.7096 17.3183L55.2925 17.8982L55.876 17.319Z" fill="black"/>
</svg>
