<svg width="50" height="50" viewBox="0 0 50 50" fill="none" xmlns="http://www.w3.org/2000/svg">
<path d="M26.2806 22.6519C25.9296 22.6519 25.6452 22.9362 25.6452 23.2872V24.0205C25.6452 24.3764 25.3557 24.6659 24.9998 24.6659C24.644 24.6659 24.3544 24.3764 24.3544 24.0205V23.2872C24.3544 22.9362 24.0701 22.6519 23.7191 22.6519C23.3681 22.6519 23.0837 22.9362 23.0837 23.2872V24.0205C23.0837 25.0771 23.9432 25.9367 24.9999 25.9367C26.0565 25.9367 26.9161 25.0772 26.9161 24.0205V23.2872C26.916 22.9362 26.6315 22.6519 26.2806 22.6519Z" fill="#FE9C8F" stroke="#FE9C8F" stroke-width="0.2"/>
<path d="M32.7282 20.4908C32.5031 20.2217 32.1022 20.1861 31.8333 20.4114C30.8297 21.2515 29.3646 21.2504 28.3622 20.4114C28.0932 20.1861 27.6925 20.2217 27.4673 20.4908C27.242 20.7599 27.2776 21.1606 27.5467 21.3857C29.0224 22.621 31.1752 22.6194 32.649 21.3857C32.9179 21.1606 32.9535 20.7599 32.7282 20.4908Z" fill="#FE9C8F" stroke="#FE9C8F" stroke-width="0.2"/>
<path d="M22.5324 20.4908C22.3072 20.2217 21.9063 20.1861 21.6374 20.4114C20.6337 21.2515 19.1687 21.2504 18.1664 20.4114C17.8975 20.1861 17.4966 20.2217 17.2715 20.4908C17.0462 20.7599 17.0818 21.1606 17.3509 21.3857C18.0646 21.9831 18.9705 22.3121 19.902 22.3121C20.8335 22.3121 21.7394 21.9831 22.4531 21.3857C22.7221 21.1606 22.7577 20.7598 22.5324 20.4908Z" fill="#FE9C8F" stroke="#FE9C8F" stroke-width="0.2"/>
<path d="M25.0422 26.9253C24.1674 26.9253 23.4556 27.637 23.4556 28.5119V29.18C23.4556 30.0548 24.1672 30.7666 25.0422 30.7666C25.9169 30.7666 26.6287 30.0549 26.6287 29.18V28.5119C26.6286 27.6371 25.9169 26.9253 25.0422 26.9253ZM25.3579 29.18C25.3579 29.3541 25.2163 29.4958 25.0421 29.4958C24.8679 29.4958 24.7263 29.3541 24.7263 29.18V28.5118C24.7263 28.3376 24.8679 28.196 25.0421 28.196C25.2163 28.196 25.3579 28.3376 25.3579 28.5118V29.18Z" fill="#FE9C8F" stroke="#FE9C8F" stroke-width="0.2"/>
<path d="M40.9023 40.1505C40.5357 38.8229 39.6223 37.6884 38.3961 37.0383C37.9178 36.7846 37.4291 36.5483 36.939 36.3284C39.1365 31.2906 40.9452 24.4236 40.5334 18.9657C41.1834 17.5787 42.0764 16.7008 41.9948 15.0326C41.9944 15.0241 41.7986 11.0095 41.798 11.0011C41.7617 10.1431 41.4715 9.3261 40.9584 8.63789C40.8159 8.44677 40.7375 8.19865 40.7375 7.93925V4.46548C40.7375 3.65833 40.0808 3.00163 39.2737 3.00163H35.784C34.8732 3.00163 34.1321 3.74271 34.1321 4.65355V6.20542C33.4387 5.65546 32.7031 5.16793 31.9322 4.75139C31.6236 4.58467 31.238 4.69963 31.0712 5.00841C30.9044 5.31711 31.0195 5.70256 31.3282 5.86936C32.3338 6.41263 33.2759 7.08627 34.132 7.87411V9.01317C33.4618 9.93358 33.5407 10.519 33.3455 10.9017C32.8952 11.7843 31.8704 12.5755 31.1192 13.104C29.8979 13.9853 30.0531 15.3426 30.8964 16.1071C28.0053 14.8267 24.7627 12.7459 22.601 10.4041C22.2247 9.99788 21.5579 10.072 21.2838 10.559C21.0152 11.0368 20.3045 12.1801 19.1098 13.2911C18.7605 12.9749 16.7515 11.7358 16.5198 10.4655C16.4248 9.94671 16.1738 9.43284 15.8682 9.01308V7.87419C19.4722 4.55918 24.32 3.53389 28.6864 4.78934C29.0234 4.88642 29.3757 4.69158 29.4726 4.35425C29.5696 4.01709 29.3748 3.66502 29.0375 3.56811C24.5887 2.28893 19.6974 3.17089 15.8682 6.20432V4.65355C15.8682 3.74271 15.1272 3.00163 14.2163 3.00163H10.7263C9.91913 3.00163 9.26243 3.65833 9.26243 4.46548C9.19694 7.78795 9.42033 8.12994 9.04149 8.63789C8.52643 9.32898 8.23595 10.1498 8.20164 11.0114C8.18766 11.362 8.46061 11.6576 8.81116 11.6716C9.16069 11.685 9.45727 11.4126 9.47133 11.0621C9.53444 9.47757 10.5331 9.39116 10.5331 7.93934V4.46548C10.5331 4.35891 10.6197 4.27234 10.7263 4.27234H14.216C14.4226 4.27234 14.5972 4.44693 14.5972 4.65355C14.5972 10.3891 14.4488 9.0767 14.9814 9.97433C15.3926 10.6668 15.1826 10.8132 15.5225 11.4794C16.1746 12.7573 17.6915 13.8369 18.1408 14.1374C18.183 14.1748 18.3611 14.2852 18.4517 14.471C18.5736 14.7345 18.3901 14.9962 18.3923 14.9877C18.3079 15.1316 18.1916 15.2251 18.061 15.2799C17.6836 15.4379 17.3558 15.2754 17.0209 15.0992C15.7995 14.4306 15.2318 13.7351 14.506 13.0145C13.8169 12.3161 12.6423 12.6289 12.3644 13.4446L11.8822 14.8678C11.4119 15.9253 11.9216 16.508 13.0546 19.9112C13.1858 20.2866 13.012 20.6945 12.6539 20.8614C12.3322 21.0113 11.948 20.8843 11.7793 20.5721L10.6727 18.5248V18.5247C9.87016 16.8755 9.21558 16.2957 9.27437 15.0946L9.32249 14.1119C9.3396 13.7614 9.06945 13.4634 8.71899 13.4462C8.36904 13.4308 8.0705 13.6993 8.05331 14.0497L8.00519 15.0325C7.92378 16.7013 8.81734 17.5802 9.46659 18.9656C9.05513 24.4226 10.8614 31.2862 13.0611 36.3285C12.5706 36.5484 12.0817 36.7847 11.6038 37.0382C10.3779 37.6883 9.46438 38.8226 9.09766 40.1503L8.10702 43.7372C7.93251 44.3692 8.06017 45.0308 8.45722 45.5524C8.85428 46.0742 9.45786 46.3733 10.1135 46.3733H30.098C30.449 46.3733 30.7334 46.089 30.7334 45.738C30.7334 45.387 30.449 45.1026 30.098 45.1026H14.7236V41.9909C14.7236 41.6399 14.4392 41.3555 14.0882 41.3555C13.7373 41.3555 13.4529 41.6399 13.4529 41.9909V45.1026H10.1135C9.57756 45.1026 9.18906 44.5927 9.33181 44.0758L10.3224 40.4889C10.5965 39.4966 11.2806 38.648 12.199 38.1609C15.1106 36.6168 18.5227 35.7171 20.0086 35.3712C20.0086 35.3799 20.0086 35.9086 20.0086 35.8972C20.0086 36.2937 20.1068 36.6829 20.2753 37.0154C20.6136 37.6805 22.025 39.3602 23.5905 40.4785C24.4334 41.0804 25.5662 41.0808 26.4092 40.4785C27.6029 39.6258 28.6964 38.4939 29.5216 37.3483C29.9817 36.7099 30.0074 36.1333 29.9911 35.371C32.5281 35.9607 35.4736 36.9265 37.8007 38.1609C38.7193 38.648 39.4033 39.4965 39.6774 40.4888L40.668 44.0757C40.8107 44.5922 40.4227 45.1026 39.8863 45.1026H36.5473V41.9908C36.5473 41.6398 36.2629 41.3554 35.9119 41.3554C35.561 41.3554 35.2766 41.6398 35.2766 41.9908V45.1026H33.063C32.712 45.1026 32.4276 45.387 32.4276 45.738C32.4276 46.089 32.712 46.3733 33.063 46.3733H39.8864C41.262 46.3733 42.2595 45.0645 41.8931 43.7374L40.9023 40.1505ZM31.859 14.1373C32.9948 13.3791 34.4447 12.105 34.7156 10.7634C34.9112 9.79406 35.4026 9.69096 35.4026 9.2297V4.65355C35.4026 4.44693 35.5772 4.27234 35.7838 4.27234H39.2734C39.38 4.27234 39.4666 4.35891 39.4666 4.46548V7.93925C39.4666 9.42903 40.4082 9.32068 40.5298 11.0837C40.536 11.1685 40.537 11.1631 40.5366 11.1396C40.5449 11.3386 40.5824 12.1714 40.7254 15.0948C40.7503 15.6007 40.636 16.1034 40.3952 16.5489L38.2205 20.5721C38.0515 20.8844 37.6671 21.0111 37.3459 20.8615C36.9867 20.6938 36.8144 20.2854 36.9452 19.9112L38.1795 16.3795C38.3579 15.869 38.3219 15.3275 38.1175 14.8679C38.1146 14.8593 37.6282 13.4201 37.6093 13.3797C37.2268 12.5605 36.137 12.3627 35.4937 13.0145C35.0169 13.4981 35.039 13.4746 35.0213 13.4942C33.9767 14.6519 32.7509 15.2185 32.6988 15.2423C32.2893 15.4291 31.7831 15.3769 31.5584 14.8952C31.4563 14.6759 31.8255 14.1823 31.859 14.1373ZM36.2941 17.9226C36.0105 17.7082 34.8162 17.6601 32.1131 16.6122C32.5006 16.6394 32.8799 16.5564 33.2263 16.3982C33.38 16.3282 34.7587 15.6773 35.9551 14.3561C36.3122 14.0251 36.3928 13.852 36.4496 13.905L36.9242 15.3056C36.9505 15.3829 37.0965 15.6264 36.9799 15.9603L36.2941 17.9226ZM13.0757 15.3056L13.5502 13.9051C13.6513 13.8104 14.1216 14.6145 15.3182 15.5085C14.5522 15.7364 14.1954 15.7404 14.0367 15.8091C13.2662 16.1433 13.4913 17.0103 13.454 17.2014C12.8993 15.6102 12.9027 15.8132 13.0757 15.3056ZM20.0086 34.0669C18.9998 34.2903 16.686 34.858 14.2312 35.8346C12.1306 31.0252 10.8001 25.5389 10.683 21.2151C11.2106 22.1418 12.4527 22.522 13.4531 21.8644C13.5634 22.5289 12.7065 27.2061 16.8247 31.1692C17.7662 32.0753 18.8424 32.8063 20.0087 33.3444V34.0669H20.0086ZM28.2135 36.9746C27.4929 37.8991 26.6209 38.7659 25.6707 39.4446C25.2947 39.7132 24.7973 39.7301 24.4059 39.495C23.4794 38.938 21.7758 37.124 21.4233 36.4667C21.2315 36.1088 21.2794 36.0447 21.2794 33.8423C23.6304 34.6088 26.2935 34.6334 28.7205 33.8422C28.7205 36.4204 28.8381 36.1734 28.2135 36.9746ZM24.7768 33.1528C24.776 33.1528 24.7679 33.1527 24.7672 33.1527V33.1528C24.7627 33.1527 24.7583 33.1526 24.7539 33.1525V33.1524C19.2944 33.0379 14.7237 28.7727 14.7237 23.3359C14.7249 15.9561 14.7247 17.1209 14.7247 16.9608C15.3984 16.8309 16.0603 16.6307 16.6995 16.3634C18.5042 17.2344 19.9374 15.7182 19.7518 14.4248C20.87 13.434 21.6377 12.3894 22.078 11.702C24.8747 14.5803 29.8115 17.6095 35.276 18.9339L35.2767 23.3358C35.2765 28.9746 30.3469 33.3242 24.7768 33.1528ZM29.9912 34.0666V33.3444C31.1578 32.8063 32.2339 32.0753 33.1754 31.1691C37.2955 27.2042 36.4361 22.5325 36.547 21.8645C37.5342 22.5142 38.781 22.1541 39.3169 21.215C39.1998 25.5386 37.8695 31.0245 35.7688 35.8339C33.3069 34.8537 30.9934 34.288 29.9912 34.0666Z" fill="#FE9C8F" stroke="#FE9C8F" stroke-width="0.2"/>
</svg>
