<svg width="50" height="50" viewBox="0 0 50 50" fill="none" xmlns="http://www.w3.org/2000/svg">
<path d="M22.4899 10.8144C22.3949 8.12699 20.1887 5.9978 17.4999 5.9978C14.8111 5.9978 12.605 8.12699 12.51 10.8144C10.9796 11.5299 10.0011 13.0663 10 14.7557V42.2558C10 42.9461 10.5596 43.5057 11.25 43.5057H23.7499C24.4402 43.5057 24.9999 42.9461 24.9999 42.2558V14.7557C24.9987 13.0663 24.0202 11.5299 22.4899 10.8144ZM13.75 11.0055C13.75 8.93437 15.4288 7.25552 17.4999 7.25552C19.571 7.25552 21.2499 8.93437 21.2499 11.0055V17.8806C21.2485 18.1987 21.2064 18.5151 21.1249 18.8224C21.0937 18.7895 21.0674 18.7526 21.035 18.72C20.0817 17.7647 18.782 17.2365 17.4324 17.2563C16.0829 17.276 14.7991 17.8419 13.8741 18.825C13.7926 18.5169 13.7508 18.1996 13.75 17.8806V11.0055ZM20.5392 20.0681C19.8374 21.0483 18.7061 21.6297 17.5005 21.6297C16.2951 21.6297 15.1636 21.0483 14.4618 20.0681C15.1018 19.1746 16.102 18.6075 17.1975 18.5177C18.2927 18.4279 19.3722 18.8241 20.1493 19.6012C20.292 19.746 20.4222 19.9022 20.5392 20.0681ZM23.7499 42.2558H11.25V14.7557C11.2491 13.7718 11.7123 12.8454 12.5 12.2555V17.8806C12.5003 18.7798 12.7452 19.6618 13.2081 20.4326C13.2118 20.4375 13.2135 20.4438 13.2181 20.4486C14.1176 21.9564 15.7438 22.8797 17.4994 22.8797C19.2549 22.8797 20.8808 21.9564 21.7806 20.4486L21.7875 20.4375C22.2527 19.6658 22.499 18.7818 22.4999 17.8806V12.2555C23.2875 12.8451 23.7507 13.7718 23.7499 14.7557V42.2558Z" fill="#FE9C8F" stroke="#FE9C8F" stroke-width="0.3"/>
<path d="M15.0001 33.5059C15.166 33.5065 15.3254 33.4412 15.4432 33.3245C15.5585 33.2055 15.6238 33.0467 15.6249 32.8808C15.6238 32.7992 15.6066 32.7188 15.5743 32.6439C15.5442 32.5692 15.4996 32.5014 15.4432 32.4439C15.3259 32.3254 15.1666 32.2579 15.0001 32.2556C14.833 32.2565 14.673 32.324 14.5563 32.4433C14.4994 32.5017 14.4527 32.5695 14.4181 32.6433C14.3251 32.8773 14.3795 33.1445 14.5563 33.3239C14.6742 33.4412 14.8338 33.5065 15.0001 33.5059Z" fill="#FE9C8F" stroke="#FE9C8F" stroke-width="0.3"/>
<path d="M19.9998 32.2556H17.4887C17.1433 32.2556 16.8635 32.5357 16.8635 32.8808C16.8635 33.2258 17.1433 33.5059 17.4887 33.5059H19.9998C20.3451 33.5059 20.6249 33.2258 20.6249 32.8808C20.6249 32.5357 20.3451 32.2556 19.9998 32.2556Z" fill="#FE9C8F" stroke="#FE9C8F" stroke-width="0.3"/>
<path d="M19.9998 34.7559H14.9999C14.6546 34.7559 14.3748 35.0357 14.3748 35.3807C14.3748 35.726 14.6546 36.0058 14.9999 36.0058H19.9998C20.3452 36.0058 20.625 35.726 20.625 35.3807C20.625 35.0357 20.3452 34.7559 19.9998 34.7559Z" fill="#FE9C8F" stroke="#FE9C8F" stroke-width="0.3"/>
<path d="M19.9998 37.256H14.9999C14.6546 37.256 14.3748 37.5358 14.3748 37.8808C14.3748 38.2262 14.6546 38.506 14.9999 38.506H19.9998C20.3452 38.506 20.625 38.2262 20.625 37.8808C20.625 37.5358 20.3452 37.256 19.9998 37.256Z" fill="#FE9C8F" stroke="#FE9C8F" stroke-width="0.3"/>
<path d="M36.2205 6.32289L36.2093 6.31774C34.491 5.71835 32.5884 5.98958 31.1061 7.0453C29.6235 8.10131 28.7452 9.81049 28.75 11.6304V42.8807C28.75 43.2257 29.0298 43.5055 29.3749 43.5055H39.3751C39.7201 43.5055 39.9999 43.2257 39.9999 42.8807V11.6304C39.9959 9.23771 38.4801 7.1091 36.2205 6.32289ZM38.7499 35.3805H35.2586L38.7499 31.8891V35.3805ZM38.7499 30.1216L33.491 35.3805H30.8838L38.7499 27.5143V30.1216ZM38.7499 25.7468L30 34.4967V31.8891L38.7499 23.1392V25.7468ZM38.7499 21.3717L30 30.1216V27.5143L38.7499 18.7641V21.3717ZM38.7499 16.9966L30 25.7468V23.1392L38.7499 14.389V16.9966ZM38.7499 11.6304V12.6218L30 21.3717V18.7641L38.5205 10.2434C38.6718 10.6903 38.7494 11.1586 38.7499 11.6304ZM37.9199 9.07664L30 16.9966V13.7642L36.1355 7.63038C36.8482 7.94567 37.4639 8.44463 37.9199 9.07664ZM34.3748 7.2553C34.4924 7.2553 34.608 7.26417 34.7236 7.27275L30 11.9966V11.6304C30.0026 9.21511 31.9598 7.25816 34.3748 7.2553ZM30 42.2555V36.6305H38.7499V42.2555H30Z" fill="#FE9C8F" stroke="#FE9C8F" stroke-width="0.3"/>
</svg>
