<svg width="50" height="50" viewBox="0 0 50 50" fill="none" xmlns="http://www.w3.org/2000/svg">
<path d="M40.9931 24.5203C40.7149 21.9172 35.2936 20.9066 32.9217 20.5915L32.7252 22.0687C37.4185 22.693 39.5293 23.9976 39.5293 24.7252C39.5293 25.0004 39.2343 25.3387 38.6678 25.6873C38.1617 24.5697 35.9774 23.8117 32.1518 23.4322L32.0048 24.9151C35.317 25.244 36.872 25.8843 37.2402 26.2176C37.0619 26.3641 36.8601 26.4794 36.6434 26.5586C34.6675 27.187 31.6926 27.6903 27.7593 27.7033C22.5592 27.6781 19.3079 26.7851 18.7197 26.2176C19.1498 25.8232 21.1675 25.0527 25.4169 24.7995L25.328 23.3122C22.3748 23.4879 17.4952 24.0788 17.2042 26.0345C16.2047 25.5688 15.6861 25.0914 15.6861 24.7252C15.6861 23.7385 19.1497 22.129 25.4109 21.8023L25.3338 20.3136C20.327 20.5752 14.5178 21.837 14.2239 24.5162C12.2342 29.5059 11.2133 34.8289 11.2156 40.2006V47.0782C11.2156 47.4897 11.5492 47.8233 11.9607 47.8233H43.2548C43.6663 47.8233 43.9999 47.4897 43.9999 47.0782V40.2006C43.9989 37.5103 43.7426 34.8261 43.2344 32.1842C42.7291 29.565 41.9787 26.9991 40.9931 24.5203ZM15.0988 26.4365C17.1428 28.2516 22.3925 29.1958 27.6077 29.1958C27.6406 29.1958 27.6729 29.1945 27.7062 29.1944C27.822 29.1958 27.917 29.1958 27.9803 29.1958C28.7946 29.1958 34.2627 29.1493 37.0924 27.969C38.3842 27.5592 39.4295 27.047 40.1169 26.4363C40.8206 28.4014 41.3733 30.4173 41.7704 32.4665C42.2611 35.0153 42.5087 37.6049 42.5097 40.2006V42.6076H12.7058V40.2006C12.7056 35.509 13.5151 30.8526 15.0988 26.4365ZM12.7058 46.3331V44.0978H42.5097V46.3331H12.7058Z" fill="#FE9C8F"/>
<path d="M23.1372 36.6471C23.1372 39.1162 25.1387 41.1177 27.6078 41.1177C30.0769 41.1177 32.0784 39.1162 32.0784 36.6471C32.0784 34.178 30.0769 32.1765 27.6078 32.1765C25.1398 32.1792 23.1399 34.1791 23.1372 36.6471ZM26.8627 33.7725V35.1569H28.3529V33.7725C29.9467 34.184 30.905 35.8096 30.4936 37.4034C30.0821 38.9971 28.4565 39.9555 26.8627 39.544C25.2689 39.1326 24.3106 37.5069 24.722 35.9132C24.9931 34.8633 25.8129 34.0435 26.8627 33.7725Z" fill="#FE9C8F"/>
<path d="M22.923 32.9624L21.753 32.0397C21.411 32.4739 21.1181 32.9446 20.8799 33.4433L22.2245 34.0851C22.4149 33.6861 22.6492 33.3095 22.923 32.9624Z" fill="#FE9C8F"/>
<path d="M24.9613 31.3032L24.2977 29.969C23.8034 30.2152 23.3378 30.5153 22.9094 30.8639L23.8495 32.0194C24.1926 31.7404 24.5654 31.5002 24.9613 31.3032Z" fill="#FE9C8F"/>
<path d="M21.7927 35.3331L20.3389 35.0056C20.2179 35.5444 20.1569 36.095 20.157 36.6472H21.6472C21.6469 36.2051 21.6957 35.7644 21.7927 35.3331Z" fill="#FE9C8F"/>
<path d="M33.3796 35.1504L34.8217 34.7748C34.6826 34.2404 34.4847 33.7231 34.2316 33.2323L32.9075 33.9148C33.11 34.3079 33.2683 34.7223 33.3796 35.1504Z" fill="#FE9C8F"/>
<path d="M33.5686 36.6471C33.5687 37.0266 33.5329 37.4052 33.4617 37.7779L34.9256 38.0573C35.014 37.5925 35.0586 37.1203 35.0588 36.6471L35.0552 36.4106L33.565 36.4572L33.5686 36.6471Z" fill="#FE9C8F"/>
<path d="M27.5132 30.6878L27.49 29.1976C26.938 29.2061 26.3887 29.2757 25.8521 29.405L26.2013 30.853C26.6312 30.7498 27.0712 30.6943 27.5132 30.6878Z" fill="#FE9C8F"/>
<path d="M32.1745 32.8147L33.3155 31.8571C32.961 31.4342 32.5605 31.052 32.1214 30.7177L31.218 31.9023C31.5694 32.1703 31.8902 32.4764 32.1745 32.8147Z" fill="#FE9C8F"/>
<path d="M30.7047 29.8683C30.2017 29.6383 29.6745 29.4654 29.133 29.3524L28.8303 30.8121C29.2626 30.9015 29.6835 31.0394 30.0848 31.2232L30.7047 29.8683Z" fill="#FE9C8F"/>
<path d="M32.4072 40.1817L33.6064 41.0665C33.9345 40.6215 34.2122 40.1415 34.4344 39.6352L33.0694 39.0371C32.892 39.4421 32.6699 39.826 32.4072 40.1817Z" fill="#FE9C8F"/>
<path d="M21.2746 40.3725C21.8918 40.3725 22.3923 39.8721 22.3923 39.2549C22.3923 38.6376 21.8918 38.1372 21.2746 38.1372C20.6574 38.1372 20.157 38.6376 20.157 39.2549C20.1576 39.8718 20.6577 40.3718 21.2746 40.3725Z" fill="#FE9C8F"/>
<path d="M14.7216 14.4969C15.2217 14.8501 15.8191 15.0395 16.4314 15.0391H23.8824V15.7842C23.883 17.0194 24.8849 18.0202 26.1201 18.0195C26.373 18.0194 26.6242 17.9763 26.8627 17.8922V22.4901C26.8627 23.7246 27.8635 24.7254 29.098 24.7254C30.3326 24.7254 31.3333 23.7246 31.3333 22.4901V15.0391H33.5686C35.2146 15.0391 36.549 13.7047 36.549 12.0587C36.549 10.4127 35.2146 9.07834 33.5686 9.07834H21.6471V8.79679C21.649 7.82751 21.2712 6.89604 20.5946 6.20198L18.201 3.73608C18.1795 3.71391 18.1566 3.69296 18.1326 3.67349C17.6831 3.31398 17.1249 3.11793 16.5493 3.11755H12.6084C12.0156 3.11839 11.4417 3.32609 10.9857 3.70478L7.2201 6.84304H6V8.33324H7.4902C7.66455 8.33333 7.8335 8.27224 7.96752 8.16075L11.9396 4.84991C12.1274 4.69353 12.364 4.60784 12.6084 4.60775H16.5493C16.7722 4.60794 16.9891 4.67928 17.1685 4.81153L19.5253 7.23962C19.9316 7.65595 20.1584 8.21505 20.1569 8.79679V9.07834H18.23L16.2131 7.06136C15.9221 6.77049 15.4505 6.77049 15.1595 7.06136L12.9242 9.29665C12.6332 9.58771 12.6333 10.0594 12.9244 10.3504C13.0641 10.49 13.2534 10.5685 13.451 10.5685H19.0392C19.6572 10.569 20.1577 11.0704 20.1572 11.6882C20.1572 11.7269 20.1552 11.7655 20.1511 11.8041C20.0952 12.3643 19.5595 12.8038 18.9329 12.8038H14.9412C14.806 12.8036 14.6735 12.8403 14.5577 12.9101C12.5014 14.1471 9.93002 14.1471 7.87364 12.9101C7.75787 12.8403 7.62534 12.8036 7.4902 12.8038H6V14.294H7.28939C9.57768 15.5979 12.3657 15.674 14.7217 14.4969H14.7216ZM15.2496 9.07834L15.6863 8.64171L16.1229 9.07834H15.2496ZM35.0588 12.0587C35.0572 12.8811 34.391 13.5473 33.5686 13.5489H31.3333V10.5685H33.5686C34.3912 10.5697 35.0577 11.2361 35.0588 12.0587ZM29.8431 10.5685V22.4901C29.8431 22.9016 29.5095 23.2352 29.098 23.2352C28.6866 23.2352 28.3529 22.9016 28.3529 22.4901V15.7842C28.3529 15.3727 28.0193 15.0391 27.6078 15.0391C27.1964 15.0391 26.8627 15.3727 26.8627 15.7842C26.8627 16.1957 26.5291 16.5293 26.1176 16.5293C25.7062 16.5293 25.3726 16.1957 25.3726 15.7842V10.5685H29.8431ZM23.8824 10.5685V13.5489H20.8168C21.275 13.1344 21.5656 12.5665 21.6339 11.9525C21.6795 11.4773 21.5942 10.9986 21.3871 10.5685H23.8824Z" fill="#FE9C8F"/>
</svg>
